<svg xmlns="http://www.w3.org/2000/svg" width="24" height="24" viewBox="0 0 24 24">
	<defs>
		<mask id="SVGpA3sNQSC">
			<g fill="none" stroke-linecap="round" stroke-linejoin="round" stroke-width="2">
				<g stroke="#fff">
					<path d="M12 7c2.76 0 5 2.24 5 5c0 2.76 -2.24 5 -5 5c-2.76 0 -5 -2.24 -5 -5c0 -2.76 2.24 -5 5 -5Z" />
					<path d="M12 20.75v1M20.75 12h1M12 3.25v-1M3.25 12h-1" transform="rotate(8.1 12 12)" />
				</g>
				<path d="M-1 11h26" stroke="#000" transform="rotate(45 12 12)" stroke-dasharray="28" stroke-dashoffset="28" />
			</g>
		</mask>
	</defs>
	<path d="M0 0h24v24H0z" fill="currentColor" mask="url(#SVGpA3sNQSC)" />
	<path d="M-1.55 13h26" stroke="currentColor" fill="none" stroke-width="2" stroke-linecap="round" stroke-linejoin="round" transform="rotate(45 12 12)" stroke-dasharray="28" stroke-dashoffset="28" />
</svg>
