<svg xmlns="http://www.w3.org/2000/svg" width="24" height="24" viewBox="0 0 24 24">
	<g fill="none" stroke="currentColor" stroke-linecap="round" stroke-linejoin="round" stroke-width="2">
		<path d="M8 19h-1c-2.5 0 -4 -2 -4 -4c0 -2 1.5 -4 4 -4c1 0 1.5 0.5 1.5 0.5M16 19h1c2.5 0 4 -2 4 -4c0 -2 -1.5 -4 -4 -4c-1 0 -1.5 0.5 -1.5 0.5" stroke-dasharray="18" stroke-dashoffset="10.5" />
		<path d="M7 11v-1c0 -2.5 2 -5 5 -5M17 11v-1c0 -2.5 -2 -5 -5 -5" stroke-dasharray="12" stroke-dashoffset="12" />
		<path d="M12 20v-6" stroke-dasharray="8" stroke-dashoffset="8" />
		<path d="M12 13l2 2M12 13l-2 2" stroke-dasharray="6" stroke-dashoffset="6" />
	</g>
</svg>
