<svg xmlns="http://www.w3.org/2000/svg" width="24" height="24" viewBox="0 0 24 24">
	<defs>
		<mask id="SVGzckqdd4C">
			<g stroke-linecap="round" stroke-linejoin="round" fill-opacity="0">
				<path d="M10 20.5c0 0 -1.36 -1.86 -1.36 -3.1c0 -0.68 0.65 -1.36 1.36 -1.36c0.71 0 1.36 0.68 1.36 1.36c0 1.24 -1.36 3.1 -1.36 3.1Z" stroke="#fff" fill="#fff" stroke-width="2" />
				<path d="M14 20.5c0 0 -1.36 -1.86 -1.36 -3.1c0 -0.68 0.65 -1.36 1.36 -1.36c0.71 0 1.36 0.68 1.36 1.36c0 1.24 -1.36 3.1 -1.36 3.1Z" stroke="#000" fill="#000" stroke-width="4" />
			</g>
			<g fill="#fff">
				<path d="M14 20.5c0 0 -1.36 -1.86 -1.36 -3.1c0 -0.68 0.65 -1.36 1.36 -1.36c0.71 0 1.36 0.68 1.36 1.36c0 1.24 -1.36 3.1 -1.36 3.1Z" stroke="#fff" stroke-width="2" stroke-linecap="round" stroke-linejoin="round" fill-opacity="0" />
				<circle cx="14" cy="9" />
			</g>
		</mask>
	</defs>
	<path d="M0 0h24v24H0z" fill="currentColor" mask="url(#SVGzckqdd4C)" />
</svg>
