<svg xmlns="http://www.w3.org/2000/svg" width="24" height="24" viewBox="0 0 24 24">
	<defs>
		<mask id="SVGcL7Qnbhi">
			<g stroke-linecap="round" stroke-linejoin="round" fill-opacity="0">
				<path d="M10 20.5c0 0 -3.32 -3.82 -3.32 -6.37c0 -1.66 1.47 -3.32 3.32 -3.32c1.85 0 3.32 1.66 3.32 3.32c0 2.55 -3.32 6.37 -3.32 6.37Z" stroke="#fff" fill="#fff" stroke-width="2" />
				<path d="M14 20.5c0 0 -3.32 -3.82 -3.32 -6.37c0 -1.66 1.47 -3.32 3.32 -3.32c1.85 0 3.32 1.66 3.32 3.32c0 2.55 -3.32 6.37 -3.32 6.37Z" stroke="#000" fill="#000" stroke-width="4" />
			</g>
			<g fill="#fff">
				<path d="M14 20.5c0 0 -3.32 -3.82 -3.32 -6.37c0 -1.66 1.47 -3.32 3.32 -3.32c1.85 0 3.32 1.66 3.32 3.32c0 2.55 -3.32 6.37 -3.32 6.37Z" stroke="#fff" stroke-width="2" stroke-linecap="round" stroke-linejoin="round" fill-opacity="0" />
				<circle cx="14" cy="9" />
			</g>
		</mask>
	</defs>
	<path d="M0 0h24v24H0z" fill="currentColor" mask="url(#SVGcL7Qnbhi)" />
</svg>
