<svg xmlns="http://www.w3.org/2000/svg" width="24" height="24" viewBox="0 0 24 24">
	<defs>
		<mask id="SVGJ21K1dtW">
			<g stroke-linecap="round" stroke-linejoin="round" fill-opacity="0">
				<path d="M10 20.5c0 0 -6.89 -7.39 -6.89 -12.32c0 -3.45 2.96 -6.89 6.89 -6.89c3.94 0 6.89 3.45 6.89 6.89c0 4.93 -6.89 12.32 -6.89 12.32Z" stroke="#fff" fill="#fff" stroke-width="2" />
				<path d="M14 20.5c0 0 -6.89 -7.39 -6.89 -12.32c0 -3.45 2.96 -6.89 6.89 -6.89c3.94 0 6.89 3.45 6.89 6.89c0 4.93 -6.89 12.32 -6.89 12.32Z" stroke="#000" fill="#000" stroke-width="4" />
			</g>
			<g fill="#fff">
				<path d="M14 20.5c0 0 -6.89 -7.39 -6.89 -12.32c0 -3.45 2.96 -6.89 6.89 -6.89c3.94 0 6.89 3.45 6.89 6.89c0 4.93 -6.89 12.32 -6.89 12.32Z" stroke="#fff" stroke-width="2" stroke-linecap="round" stroke-linejoin="round" fill-opacity="0" />
				<circle cx="14" cy="9" />
			</g>
		</mask>
	</defs>
	<path d="M0 0h24v24H0z" fill="currentColor" mask="url(#SVGJ21K1dtW)" />
</svg>
