<svg xmlns="http://www.w3.org/2000/svg" width="24" height="24" viewBox="0 0 24 24">
	<defs>
		<mask id="SVGfOYNNdkM">
			<g stroke-linecap="round" stroke-linejoin="round" fill-opacity="0">
				<path d="M10 20.5c0 0 -6.42 -7.21 -6.42 -11.92c0 -3.39 2.82 -6.42 6.42 -6.42c3.6 0 6.42 3.03 6.42 6.42c0 4.71 -6.42 11.92 -6.42 11.92Z" stroke="#fff" fill="#fff" stroke-width="2" />
				<path d="M14 20.5c0 0 -6.42 -7.21 -6.42 -11.92c0 -3.39 2.82 -6.42 6.42 -6.42c3.6 0 6.42 3.03 6.42 6.42c0 4.71 -6.42 11.92 -6.42 11.92Z" stroke="#000" fill="#000" stroke-width="4" />
			</g>
			<g fill="#fff">
				<path d="M14 20.5c0 0 -6.42 -7.21 -6.42 -11.92c0 -3.39 2.82 -6.42 6.42 -6.42c3.6 0 6.42 3.03 6.42 6.42c0 4.71 -6.42 11.92 -6.42 11.92Z" stroke="#fff" stroke-width="2" stroke-linecap="round" stroke-linejoin="round" fill-opacity="0" />
				<circle cx="14" cy="9" />
			</g>
			<path d="M-1 11h26" stroke="#000" fill="none" stroke-width="2" stroke-linecap="round" stroke-linejoin="round" transform="rotate(45 12 12)" stroke-dasharray="28" stroke-dashoffset="28" />
		</mask>
	</defs>
	<path d="M0 0h24v24H0z" fill="currentColor" mask="url(#SVGfOYNNdkM)" />
	<path d="M-1 13h26" stroke="currentColor" fill="none" stroke-width="2" stroke-linecap="round" stroke-linejoin="round" transform="rotate(45 12 12)" stroke-dasharray="28" stroke-dashoffset="28" />
</svg>
