<svg xmlns="http://www.w3.org/2000/svg" width="24" height="24" viewBox="0 0 24 24">
	<defs>
		<mask id="SVGIAlf3dpQ">
			<g stroke-linecap="round" stroke-linejoin="round">
				<path d="M10 20.5c0 0 -4.04 -4.54 -4.04 -7.56c0 -2.02 1.76 -4.04 4.04 -4.04c2.27 0 4.04 2.02 4.04 4.04c0 3.02 -4.04 7.56 -4.04 7.56Z" stroke="#fff" fill="none" stroke-width="2" />
				<path d="M14 20.5c0 0 -4.04 -4.54 -4.04 -7.56c0 -2.02 1.76 -4.04 4.04 -4.04c2.27 0 4.04 2.02 4.04 4.04c0 3.02 -4.04 7.56 -4.04 7.56Z" stroke="#000" fill="#000" stroke-width="4" />
			</g>
		</mask>
	</defs>
	<path d="M0 0h24v24H0z" fill="currentColor" mask="url(#SVGIAlf3dpQ)" />
	<path d="M14 20.5c0 0 -4.04 -4.54 -4.04 -7.56c0 -2.02 1.76 -4.04 4.04 -4.04c2.27 0 4.04 2.02 4.04 4.04c0 3.02 -4.04 7.56 -4.04 7.56Z" stroke="currentColor" fill="none" stroke-width="2" stroke-linecap="round" stroke-linejoin="round" />
	<circle cx="14" cy="9" fill="currentColor" />
</svg>
