<svg xmlns="http://www.w3.org/2000/svg" width="24" height="24" viewBox="0 0 24 24">
	<defs>
		<mask id="SVG1ijkvbNn">
			<g stroke-linecap="round" stroke-linejoin="round">
				<path d="M10 20.5c0 0 -6 -6.5 -6 -10.83c0 -3 2.58 -6 6 -6c3.42 0 6 3 6 6c0 4.33 -6 10.83 -6 10.83Z" stroke="#fff" fill="none" stroke-width="2" />
				<path d="M14 20.5c0 0 -6 -6.5 -6 -10.83c0 -3 2.58 -6 6 -6c3.42 0 6 3 6 6c0 4.33 -6 10.83 -6 10.83Z" stroke="#000" fill="#000" stroke-width="4" />
			</g>
		</mask>
	</defs>
	<path d="M0 0h24v24H0z" fill="currentColor" mask="url(#SVG1ijkvbNn)" />
	<path d="M14 20.5c0 0 -6 -6.5 -6 -10.83c0 -3 2.58 -6 6 -6c3.42 0 6 3 6 6c0 4.33 -6 10.83 -6 10.83Z" stroke="currentColor" fill="none" stroke-width="2" stroke-linecap="round" stroke-linejoin="round" />
	<circle cx="14" cy="9" fill="currentColor" />
</svg>
