<svg xmlns="http://www.w3.org/2000/svg" width="24" height="24" viewBox="0 0 24 24">
	<defs>
		<mask id="SVGu7Z6pdQU">
			<g stroke-linecap="round" stroke-linejoin="round">
				<path d="M10 20.5c0 0 -5.64 -6.14 -5.64 -10.24c0 -2.82 2.43 -5.64 5.64 -5.64c3.21 0 5.64 2.82 5.64 5.64c0 4.1 -5.64 10.24 -5.64 10.24Z" stroke="#fff" fill="none" stroke-width="2" />
				<path d="M14 20.5c0 0 -5.64 -6.14 -5.64 -10.24c0 -2.82 2.43 -5.64 5.64 -5.64c3.21 0 5.64 2.82 5.64 5.64c0 4.1 -5.64 10.24 -5.64 10.24Z" stroke="#000" fill="#000" stroke-width="4" />
			</g>
		</mask>
	</defs>
	<path d="M0 0h24v24H0z" fill="currentColor" mask="url(#SVGu7Z6pdQU)" />
	<path d="M14 20.5c0 0 -5.64 -6.14 -5.64 -10.24c0 -2.82 2.43 -5.64 5.64 -5.64c3.21 0 5.64 2.82 5.64 5.64c0 4.1 -5.64 10.24 -5.64 10.24Z" stroke="currentColor" fill="none" stroke-width="2" stroke-linecap="round" stroke-linejoin="round" />
	<circle cx="14" cy="9" fill="currentColor" />
</svg>
