<svg xmlns="http://www.w3.org/2000/svg" width="24" height="24" viewBox="0 0 24 24">
	<defs>
		<mask id="SVGx4tewbuM">
			<g stroke-linecap="round" stroke-linejoin="round">
				<path d="M10 20.5c0 0 -6.36 -6.86 -6.36 -11.43c0 -3.18 2.73 -6.36 6.36 -6.36c3.63 0 6.36 3.18 6.36 6.36c0 4.57 -6.36 11.43 -6.36 11.43Z" stroke="#fff" fill="none" stroke-width="2" />
				<path d="M14 20.5c0 0 -6.36 -6.86 -6.36 -11.43c0 -3.18 2.73 -6.36 6.36 -6.36c3.63 0 6.36 3.18 6.36 6.36c0 4.57 -6.36 11.43 -6.36 11.43Z" stroke="#000" fill="#000" stroke-width="4" />
			</g>
		</mask>
	</defs>
	<path d="M0 0h24v24H0z" fill="currentColor" mask="url(#SVGx4tewbuM)" />
	<path d="M14 20.5c0 0 -6.36 -6.86 -6.36 -11.43c0 -3.18 2.73 -6.36 6.36 -6.36c3.63 0 6.36 3.18 6.36 6.36c0 4.57 -6.36 11.43 -6.36 11.43Z" stroke="currentColor" fill="none" stroke-width="2" stroke-linecap="round" stroke-linejoin="round" />
	<circle cx="14" cy="9" fill="currentColor" />
</svg>
