<svg xmlns="http://www.w3.org/2000/svg" width="24" height="24" viewBox="0 0 24 24">
	<defs>
		<mask id="SVG8nL0Me0h">
			<g stroke-linecap="round" stroke-linejoin="round">
				<path d="M10 20.5c0 0 -4.21 -4.71 -4.21 -7.86c0 -2.11 1.84 -4.21 4.21 -4.21c2.38 0 4.21 2.11 4.21 4.21c0 3.14 -4.21 7.86 -4.21 7.86Z" stroke="#fff" fill="none" stroke-width="2" />
				<path d="M14 20.5c0 0 -4.21 -4.71 -4.21 -7.86c0 -2.11 1.84 -4.21 4.21 -4.21c2.38 0 4.21 2.11 4.21 4.21c0 3.14 -4.21 7.86 -4.21 7.86Z" stroke="#000" fill="#000" stroke-width="4" />
				<path d="M14 20.5c0 0 -4.21 -4.71 -4.21 -7.86c0 -2.11 1.84 -4.21 4.21 -4.21c2.38 0 4.21 2.11 4.21 4.21c0 3.14 -4.21 7.86 -4.21 7.86Z" stroke="#fff" fill="none" stroke-width="2" />
			</g>
			<circle cx="14" cy="9" fill="#fff" />
		</mask>
	</defs>
	<path d="M0 0h24v24H0z" fill="currentColor" mask="url(#SVG8nL0Me0h)" />
</svg>
