<svg xmlns="http://www.w3.org/2000/svg" width="24" height="24" viewBox="0 0 24 24">
	<defs>
		<mask id="SVGmn5GrbgG">
			<g stroke-linecap="round" stroke-linejoin="round">
				<path d="M10 20.5c0 0 -3.68 -4.18 -3.68 -6.96c0 -1.84 1.62 -3.68 3.68 -3.68c2.06 0 3.68 1.84 3.68 3.68c0 2.79 -3.68 6.96 -3.68 6.96Z" stroke="#fff" fill="none" stroke-width="2" />
				<path d="M14 20.5c0 0 -3.68 -4.18 -3.68 -6.96c0 -1.84 1.62 -3.68 3.68 -3.68c2.06 0 3.68 1.84 3.68 3.68c0 2.79 -3.68 6.96 -3.68 6.96Z" stroke="#000" fill="#000" stroke-width="4" />
				<path d="M14 20.5c0 0 -3.68 -4.18 -3.68 -6.96c0 -1.84 1.62 -3.68 3.68 -3.68c2.06 0 3.68 1.84 3.68 3.68c0 2.79 -3.68 6.96 -3.68 6.96Z" stroke="#fff" fill="none" stroke-width="2" />
			</g>
			<circle cx="14" cy="9" fill="#fff" />
		</mask>
	</defs>
	<path d="M0 0h24v24H0z" fill="currentColor" mask="url(#SVGmn5GrbgG)" />
</svg>
