<svg xmlns="http://www.w3.org/2000/svg" width="24" height="24" viewBox="0 0 24 24">
	<defs>
		<mask id="SVGvW1h8kxX">
			<g stroke-linecap="round" stroke-linejoin="round">
				<path d="M10 20.5c0 0 -6.18 -6.68 -6.18 -11.13c0 -3.09 2.66 -6.18 6.18 -6.18c3.52 0 6.18 3.09 6.18 6.18c0 4.45 -6.18 11.13 -6.18 11.13Z" stroke="#fff" fill="none" stroke-width="2" />
				<path d="M14 20.5c0 0 -6.18 -6.68 -6.18 -11.13c0 -3.09 2.66 -6.18 6.18 -6.18c3.52 0 6.18 3.09 6.18 6.18c0 4.45 -6.18 11.13 -6.18 11.13Z" stroke="#000" fill="#000" stroke-width="4" />
				<path d="M14 20.5c0 0 -6.18 -6.68 -6.18 -11.13c0 -3.09 2.66 -6.18 6.18 -6.18c3.52 0 6.18 3.09 6.18 6.18c0 4.45 -6.18 11.13 -6.18 11.13Z" stroke="#fff" fill="none" stroke-width="2" />
			</g>
			<circle cx="14" cy="9" fill="#fff" />
			<path d="M-1 11h26" stroke="#000" fill="none" stroke-width="2" stroke-linecap="round" stroke-linejoin="round" transform="rotate(45 12 12)" stroke-dasharray="28" stroke-dashoffset="28" />
		</mask>
	</defs>
	<path d="M0 0h24v24H0z" fill="currentColor" mask="url(#SVGvW1h8kxX)" />
	<path d="M-1 13h26" stroke="currentColor" fill="none" stroke-width="2" stroke-linecap="round" stroke-linejoin="round" transform="rotate(45 12 12)" stroke-dasharray="28" stroke-dashoffset="28" />
</svg>
