<svg xmlns="http://www.w3.org/2000/svg" width="24" height="24" viewBox="0 0 24 24">
	<defs>
		<mask id="SVGkhG3zxll">
			<g stroke-linecap="round" stroke-linejoin="round">
				<path d="M10 20.5c0 0 -6.76 -7.38 -6.76 -12.26c0 -3.46 2.93 -6.76 6.76 -6.76c3.84 0 6.76 3.31 6.76 6.76c0 4.88 -6.76 12.26 -6.76 12.26Z" stroke="#fff" fill="none" stroke-width="2" />
				<path d="M14 20.5c0 0 -6.76 -7.38 -6.76 -12.26c0 -3.46 2.93 -6.76 6.76 -6.76c3.84 0 6.76 3.31 6.76 6.76c0 4.88 -6.76 12.26 -6.76 12.26Z" stroke="#000" fill="#000" stroke-width="4" />
				<path d="M14 20.5c0 0 -6.76 -7.38 -6.76 -12.26c0 -3.46 2.93 -6.76 6.76 -6.76c3.84 0 6.76 3.31 6.76 6.76c0 4.88 -6.76 12.26 -6.76 12.26Z" stroke="#fff" fill="none" stroke-width="2" />
			</g>
			<circle cx="14" cy="9" fill="#fff" />
		</mask>
	</defs>
	<path d="M0 0h24v24H0z" fill="currentColor" mask="url(#SVGkhG3zxll)" />
</svg>
