<svg xmlns="http://www.w3.org/2000/svg" width="24" height="24" viewBox="0 0 24 24">
	<defs>
		<mask id="SVGZDjfTcfp">
			<g stroke-linecap="round" stroke-linejoin="round">
				<path d="M10 20.5c0 0 -6.63 -7.31 -6.63 -12.13c0 -3.43 2.88 -6.63 6.63 -6.63c3.74 0 6.63 3.2 6.63 6.63c0 4.81 -6.63 12.13 -6.63 12.13Z" stroke="#fff" fill="none" stroke-width="2" />
				<path d="M14 20.5c0 0 -6.63 -7.31 -6.63 -12.13c0 -3.43 2.88 -6.63 6.63 -6.63c3.74 0 6.63 3.2 6.63 6.63c0 4.81 -6.63 12.13 -6.63 12.13Z" stroke="#000" fill="#000" stroke-width="4" />
				<path d="M14 20.5c0 0 -6.63 -7.31 -6.63 -12.13c0 -3.43 2.88 -6.63 6.63 -6.63c3.74 0 6.63 3.2 6.63 6.63c0 4.81 -6.63 12.13 -6.63 12.13Z" stroke="#fff" fill="none" stroke-width="2" />
			</g>
			<circle cx="14" cy="9" fill="#fff" />
		</mask>
	</defs>
	<path d="M0 0h24v24H0z" fill="currentColor" mask="url(#SVGZDjfTcfp)" />
</svg>
