<svg xmlns="http://www.w3.org/2000/svg" width="24" height="24" viewBox="0 0 24 24">
	<defs>
		<mask id="SVGD28RFM3W">
			<g stroke-linecap="round" stroke-linejoin="round">
				<path d="M10 20.5c0 0 -6.21 -7.1 -6.21 -11.71c0 -3.35 2.75 -6.21 6.21 -6.21c3.45 0 6.21 2.86 6.21 6.21c0 4.6 -6.21 11.71 -6.21 11.71Z" stroke="#fff" fill="none" stroke-width="2" />
				<path d="M14 20.5c0 0 -6.21 -7.1 -6.21 -11.71c0 -3.35 2.75 -6.21 6.21 -6.21c3.45 0 6.21 2.86 6.21 6.21c0 4.6 -6.21 11.71 -6.21 11.71Z" stroke="#000" fill="#000" stroke-width="4" />
				<path d="M14 20.5c0 0 -6.21 -7.1 -6.21 -11.71c0 -3.35 2.75 -6.21 6.21 -6.21c3.45 0 6.21 2.86 6.21 6.21c0 4.6 -6.21 11.71 -6.21 11.71Z" stroke="#fff" fill="none" stroke-width="2" />
			</g>
			<circle cx="14" cy="9" fill="#fff" />
		</mask>
	</defs>
	<path d="M0 0h24v24H0z" fill="currentColor" mask="url(#SVGD28RFM3W)" />
</svg>
