<svg xmlns="http://www.w3.org/2000/svg" width="24" height="24" viewBox="0 0 24 24">
	<g stroke="currentColor" stroke-linecap="round" stroke-linejoin="round" stroke-width="2">
		<path d="M6.69 19h11.31c2.21 0 4 -1.79 4 -4c0 -2.21 -1.79 -4 -4 -4h-0.69v-1c0 -2.76 -2.24 -5 -5 -5c-2.42 0 -4.44 1.72 -4.9 4h-0.73c-2.76 0 -5 2.24 -5 5c0 2.76 2.24 5 5 5Z" fill="currentColor" fill-opacity="0.3" />
		<path d="M6.37 14l2 2M6.37 14l2 -2M15.63 14l-2 2M15.63 14l-2 -2" fill="none" stroke-dasharray="6" stroke-dashoffset="4.625" />
	</g>
</svg>
