<svg xmlns="http://www.w3.org/2000/svg" xmlns:xlink="http://www.w3.org/1999/xlink" class="iconify iconify--line-md" width="24" height="24" preserveAspectRatio="xMidYMid meet" viewBox="0 0 24 24"><g fill="none"><path d="M12 3C16.9706 3 21 7.02944 21 12C21 16.9706 16.9706 21 12 21C7.02944 21 3 16.9706 3 12C3 7.02944 7.02944 3 12 3Z" fill="currentColor" fill-opacity="0.3" class="il-md-fill il-md-duration-0 il-md-delay-10"/><path d="M12 3C16.9706 3 21 7.02944 21 12C21 16.9706 16.9706 21 12 21C7.02944 21 3 16.9706 3 12C3 7.02944 7.02944 3 12 3Z" stroke="currentColor" stroke-width="2" stroke-linecap="round" class="il-md-length-70 il-md-duration-4 il-md-delay-0"/><path d="M12 7V13" stroke="currentColor" stroke-width="2" stroke-linecap="round" stroke-linejoin="round" class="il-md-length-15 il-md-duration-2 il-md-delay-5"/><circle cx="12" cy="17" r="1" fill="currentColor" class="il-md-fill il-md-delay-7"/></g></svg>