<svg xmlns="http://www.w3.org/2000/svg" width="24" height="24" viewBox="0 0 24 24">
	<g fill="none" stroke="currentColor" stroke-width="2" stroke-linecap="round" stroke-linejoin="round">
		<path d="M16 12c0 2.21 -1.79 4 -4 4c-2.21 0 -4 -1.79 -4 -4c0 -2.21 1.79 -4 4 -4c2.21 0 4 1.79 4 4v1.5c0 1.38 1.12 2.5 2.5 2.5c1.38 0 2.5 -1.12 2.5 -2.5v-1.5c0 -4.97 -4.03 -9 -9 -9c-4.97 0 -9 4.03 -9 9c0 4.97 4.03 9 9 9h4" stroke-dasharray="88" stroke-dashoffset="88">
			<animate attributeName="stroke-dashoffset" values="88;0" dur="1s" fill="freeze" />
		</path>
	</g>
</svg>
