<svg xmlns="http://www.w3.org/2000/svg" width="24" height="24" viewBox="0 0 24 24">
	<defs>
		<mask id="SVGWVxXfdhS">
			<path d="M5 7.67h1c0.6 -0.37 1.22 -0.67 2 -0.67c2 0 3 2 5 2c1.64 0 2.6 -1.34 4 -1.83h1" stroke="#fff" fill="none" stroke-width="2" stroke-linecap="round" stroke-linejoin="round" stroke-dasharray="18" stroke-dashoffset="18">
				<animate attributeName="stroke-dashoffset" begin="0.6s" dur="0.3s" fill="freeze" to="0" />
			</path>
			<path d="M18 7c-2 0 -3 2 -5 2c-2 0 -3 -2 -5 -2c-2 0 -3 2 -5 2c-2 0 -3 -2 -5 -2c-2 0 -3 2 -5 2v15h25Z" fill="#fff" fill-opacity="0">
				<animate attributeName="fill-opacity" begin="0.9s" dur="0.15s" fill="freeze" to="0.3" />
			</path>
			<path d="M18 3l-2 18h-9l-2 -18h-5v21h24v-20Z" fill="#000" />
		</mask>
	</defs>
	<path d="M0 0h24v24H0z" fill="currentColor" mask="url(#SVGWVxXfdhS)" />
	<path d="M18 3l-2 18h-9l-2 -18Z" stroke="currentColor" fill="none" stroke-width="2" stroke-linecap="round" stroke-linejoin="round" stroke-dasharray="62">
		<animate attributeName="stroke-dashoffset" dur="0.6s" fill="freeze" values="62;0" />
	</path>
</svg>
