<svg xmlns="http://www.w3.org/2000/svg" xmlns:xlink="http://www.w3.org/1999/xlink" viewBox="0 0 24 24" class="iconify iconify--line-md" width="24" height="24"><g fill="none"><path d="M17 11V18H7V11C7 8.23858 9.23858 6 12 6C14.7614 6 17 8.23858 17 11Z" fill="currentColor" fill-opacity="0.3" class="il-md-fill il-md-duration-0 il-md-delay-10"/><path d="M12 3V5" stroke="currentColor" stroke-width="2" stroke-linecap="round" class="il-md-length-15 il-md-duration-2 il-md-delay-0"/><path d="M12 5C8.68629 5 6 7.68629 6 11L6 17C5 17 4 18 4 19H12" stroke="currentColor" stroke-width="2" stroke-linecap="round" class="il-md-length-40 il-md-duration-7 il-md-delay-1"/><path d="M12 5C15.3137 5 18 7.68629 18 11L18 17C19 17 20 18 20 19H12" stroke="currentColor" stroke-width="2" stroke-linecap="round" class="il-md-length-40 il-md-duration-7 il-md-delay-1"/><path d="M10 20C10 21.1046 10.8954 22 12 22C13.1046 22 14 21.1046 14 20" stroke="currentColor" stroke-width="2" stroke-linecap="round" class="il-md-length-15 il-md-duration-2 il-md-delay-8"/></g></svg>