<svg xmlns="http://www.w3.org/2000/svg" width="24" height="24" viewBox="0 0 24 24">
	<path d="M7.47 5.94c1.83 1.37 3.81 4.14 4.53 5.63c0.72 -1.49 2.7 -4.26 4.53 -5.63c1.33 -0.99 3.47 -1.75 3.47 0.68c0 0.49 -0.28 4.08 -0.45 4.66c-0.57 2.03 -2.65 2.55 -4.5 2.23c3.24 0.55 4.06 2.36 2.28 4.17c-3.38 3.44 -4.85 -0.87 -5.23 -1.97c-0.07 -0.2 -0.1 -0.3 -0.1 -0.22c-0 -0.08 -0.03 0.02 -0.1 0.22c-0.38 1.1 -1.86 5.41 -5.23 1.97c-1.78 -1.81 -0.96 -3.63 2.28 -4.17c-1.85 0.31 -3.93 -0.21 -4.5 -2.23c-0.17 -0.58 -0.45 -4.18 -0.45 -4.66c0 -2.43 2.14 -1.67 3.47 -0.68Z" stroke="currentColor" fill="none" stroke-width="2" stroke-linecap="round" stroke-linejoin="round" stroke-dasharray="76">
		<animate attributeName="stroke-dashoffset" dur="0.6s" fill="freeze" values="76;0" />
	</path>
</svg>
