<svg xmlns="http://www.w3.org/2000/svg" width="24" height="24" viewBox="0 0 24 24">
	<g fill="none" stroke="currentColor" stroke-width="2" stroke-linecap="round" stroke-linejoin="round">
		<path d="M 7.468 5.942 C 9.302 7.312 11.275 10.086 12 11.575 C 12.725 10.086 14.697 7.311 16.531 5.942 C 17.856 4.954 20 4.191 20 6.621 C 20 7.107 19.72 10.7 19.555 11.283 C 18.984 13.312 16.903 13.831 15.052 13.517 C 18.288 14.063 19.11 15.876 17.334 17.69 C 13.958 21.132 12.481 16.825 12.102 15.722 C 12.032 15.519 12.001 15.425 12 15.504 C 11.999 15.425 11.967 15.519 11.898 15.722 C 11.52 16.825 10.043 21.133 6.666 17.69 C 4.889 15.876 5.711 14.063 8.948 13.517 C 7.098 13.831 5.015 13.312 4.445 11.283 C 4.28 10.7 4 7.107 4 6.621 C 4 4.191 6.144 4.954 7.468 5.942 Z" stroke-dasharray="72" stroke-dashoffset="72">
			<animate attributeName="stroke-dashoffset" values="72;0" dur="0.675s" fill="freeze" />
		</path>
	</g>
</svg>
