<svg xmlns="http://www.w3.org/2000/svg" width="24" height="24" viewBox="0 0 24 24">
	<defs>
		<mask id="SVGHbRqfe5Q">
			<g stroke="#fff" stroke-linecap="round" stroke-linejoin="round" stroke-width="2">
				<path d="M9 7h11c0.55 0 1 0.45 1 1v11c0 0.55 -0.45 1 -1 1h-16c-0.55 0 -1 -0.45 -1 -1v-11c0 -0.55 0.45 -1 1 -1Z" fill="#fff" stroke-dasharray="64" fill-opacity="0">
					<animate attributeName="stroke-dashoffset" dur="0.6s" fill="freeze" values="64;0" />
					<animate attributeName="fill-opacity" begin="1s" dur="0.4s" fill="freeze" to="1" />
				</path>
				<path d="M9 7v-3c0 -0.55 0.45 -1 1 -1h4c0.55 0 1 0.45 1 1v3" fill="none" stroke-dasharray="16" stroke-dashoffset="16">
					<animate attributeName="stroke-dashoffset" begin="0.6s" dur="0.3s" fill="freeze" to="0" />
				</path>
			</g>
			<path d="M18.5 11c4.14 0 7.5 3.36 7.5 7.5c0 4.14 -3.36 7.5 -7.5 7.5c-4.14 0 -7.5 -3.36 -7.5 -7.5c0 -4.14 3.36 -7.5 7.5 -7.5Z" fill="#000" opacity="0">
				<set attributeName="opacity" to="1" begin="1.5s" fill="freeze" />
			</path>
		</mask>
	</defs>
	<path d="M0 0h24v24H0z" fill="currentColor" mask="url(#SVGHbRqfe5Q)" />
	<g fill="none" stroke="currentColor" stroke-linecap="round" stroke-linejoin="round" stroke-width="2">
		<path d="M18.5 14c2.48 0 4.5 2.02 4.5 4.5c0 2.48 -2.02 4.5 -4.5 4.5c-2.48 0 -4.5 -2.02 -4.5 -4.5c0 -2.48 2.02 -4.5 4.5 -4.5Z" stroke-dasharray="32" stroke-dashoffset="32">
			<animate attributeName="stroke-dashoffset" begin="1.5s" dur="0.4s" fill="freeze" to="0" />
		</path>
		<path d="M16 16l5 5" stroke-dasharray="10" stroke-dashoffset="10">
			<animate attributeName="stroke-dashoffset" begin="1.9s" dur="0.2s" fill="freeze" to="0" />
		</path>
	</g>
</svg>
