<svg xmlns="http://www.w3.org/2000/svg" width="24" height="24" viewBox="0 0 24 24">
	<defs>
		<mask id="buy-coffee-mask">
			<path d="M5 6C5 4 7 6 11.5 6C16 6 19 4 19 6L19 7C19 8.5 17 9 12.5 9C8 9 5 9 5 7L5 6Z" fill="#fff" />
		</mask>
	</defs>
	<g fill="none" stroke="currentColor" stroke-width="2" stroke-linecap="round" stroke-linejoin="round">
		<path d="M7.5 10.5c0 0 0.83 6.93 1 8.5c0.17 1.57 1.5 2 2.5 2l2 0c1.5 0 2.88 -1.14 3 -2c0.13 -0.86 1 -12 1 -12" stroke-dasharray="32" stroke-dashoffset="32">
			<animate attributeName="stroke-dashoffset" values="32;0" dur="0.4s" fill="freeze" />
		</path>
		<path d="M8 4c1.1 -0.57 2 -1 4 -1c2 0 4.5 0.5 4.5 3" stroke-dasharray="12" stroke-dashoffset="12">
			<animate attributeName="stroke-dashoffset" values="12;0" begin="0.8s" dur="0.2s" fill="freeze" />
		</path>
	</g>
	<rect x="20" y="4" width="16" height="5" fill="currentColor" mask="url(#buy-coffee-mask)">
		<animate attributeName="x" values="20;4" begin="0.4s" dur="0.4s" fill="freeze" />
	</rect>
</svg>
