<svg xmlns="http://www.w3.org/2000/svg" width="24" height="24" viewBox="0 0 24 24">
	<mask id="buy-coffee-mask">
		<path d="M5 6C5 4 7 6 11.5 6C16 6 19 4 19 6L19 7C19 8.5 17 9 12.5 9C8 9 5 9 5 7L5 6Z" fill="#fff" />
	</mask>
	<g fill="none" stroke="currentColor" stroke-width="2" stroke-linecap="round" stroke-linejoin="round">
		<path d="M7.5 10.5C7.5 10.5 8.33 17.43 8.5 19C8.67 20.57 10 21 11 21L13 21C14.5 21 15.875 19.86 16 19C16.125 18.14 17 7 17 7" stroke-dasharray="32" stroke-dashoffset="32">
			<animate attributeName="stroke-dashoffset" values="32;0" dur="0.4s" fill="freeze" />
		</path>
		<path d="M16.5 6C16.5 3.5 14 3 12 3C10 3 9.1 3.43 8 4" stroke-dasharray="12" stroke-dashoffset="12">
			<animate attributeName="stroke-dashoffset" values="12;24" begin="0.8s" dur="0.2s" fill="freeze" />
		</path>
	</g>
	<rect x="20" y="4" width="16" height="5" fill="currentColor" mask="url(#buy-coffee-mask)">
		<animate attributeName="x" values="20;4" begin="0.4s" dur="0.4s" fill="freeze" />
	</rect>
</svg>
