<svg xmlns="http://www.w3.org/2000/svg" width="24" height="24" viewBox="0 0 24 24">
	<g fill="none" stroke="currentColor" stroke-linecap="round" stroke-linejoin="round" stroke-width="2">
		<path d="M12 21h8v-9c0 -1.1 -0.9 -2 -2 -2h-6M12 21h-8v-9c0 -1.1 0.9 -2 2 -2h6" stroke-dasharray="30">
			<animate attributeName="stroke-dashoffset" dur="0.4s" fill="freeze" values="30;0" />
		</path>
		<path d="M12 10v-2" stroke-dasharray="4" stroke-dashoffset="4">
			<animate attributeName="stroke-dashoffset" begin="0.5s" dur="0.2s" fill="freeze" to="0" />
		</path>
		<path d="M4 16h1c2 0 3.5 -2 3.5 -2c0 0 1.5 2 3.5 2c2 0 3.5 -2 3.5 -2c0 0 1.5 2 3.5 2h1" stroke-dasharray="22" stroke-dashoffset="22">
			<animate attributeName="stroke-dashoffset" begin="0.7s" dur="0.3s" fill="freeze" to="0" />
		</path>
	</g>
	<g fill="currentColor">
		<path d="M14 4c0 1.1 -0.9 2 -2 2c-1.1 0 -2 -0.9 -2 -2c0 -1.1 2 -4 2 -4c0 0 2 2.9 2 4Z" opacity="0">
			<set attributeName="opacity" to="1" begin="1s" fill="freeze" />
			<animate attributeName="d" begin="1s" dur="0.2s" fill="freeze" values="M13 5c0 0.5 -0.5 1 -1 1c-0.5 0 -1 -0.5 -1 -1c0 -0.5 1 -1 1 -1c0 0 1 0.5 1 1Z;M14 4c0 1.1 -0.9 2 -2 2c-1.1 0 -2 -0.9 -2 -2c0 -1.1 2 -4 2 -4c0 0 2 2.9 2 4Z" />
		</path>
		<path d="M15.5 14c0 0 -1.5 2 -3.5 2c-2 0 -3.5 -2 -3.5 -2c0 0 -1.5 2 -3.5 2h-1v5h16v-5h-1c-2 0 -3.5 -2 -3.5 -2Z" fill-opacity="0">
			<animate attributeName="fill-opacity" begin="1.2s" dur="0.4s" fill="freeze" to="1" />
		</path>
	</g>
</svg>
