<svg xmlns="http://www.w3.org/2000/svg" width="24" height="24" viewBox="0 0 24 24">
	<defs>
		<mask id="SVGrrVTrcOS">
			<g stroke-linecap="round" stroke-linejoin="round">
				<g fill="none" stroke="#fff" stroke-width="2" stroke-dasharray="8">
					<path d="M11 6h-6" stroke-dashoffset="8">
						<animate attributeName="stroke-dashoffset" begin="0.6s" dur="0.2s" fill="freeze" to="0" />
					</path>
					<path d="M11 10h-6" stroke-dashoffset="8">
						<animate attributeName="stroke-dashoffset" begin="0.8s" dur="0.2s" fill="freeze" to="0" />
					</path>
					<path d="M11 14h-6" stroke-dashoffset="8">
						<animate attributeName="stroke-dashoffset" begin="1s" dur="0.2s" fill="freeze" to="0" />
					</path>
					<path d="M11 18h-6" stroke-dashoffset="8">
						<animate attributeName="stroke-dashoffset" begin="1.2s" dur="0.2s" fill="freeze" to="0" />
					</path>
				</g>
				<path d="M21 12c0 -3.31 -3.5 -6.25 -8.25 -6.25c-0.5 0 -1.75 2.75 -1.75 6.25c0 3.5 1.25 6.25 1.75 6.25c4.75 0 8.25 -2.94 8.25 -6.25Z" stroke="#000" fill="#000" stroke-width="4" />
				<g stroke-width="2">
					<path d="M21 12c0 -3.31 -3.5 -6.25 -8.25 -6.25c-0.5 0 -1.75 2.75 -1.75 6.25c0 3.5 1.25 6.25 1.75 6.25c4.75 0 8.25 -2.94 8.25 -6.25Z" stroke="#fff" fill="#fff" stroke-dasharray="40" fill-opacity="0">
						<animate attributeName="stroke-dashoffset" dur="0.5s" fill="freeze" values="40;0" />
						<animate attributeName="fill-opacity" begin="1.8s" dur="0.4s" fill="freeze" to="1" />
					</path>
					<path d="M0 11h26" stroke="#000" fill="none" transform="rotate(45 12 12)" stroke-dasharray="28" stroke-dashoffset="28">
						<animate attributeName="stroke-dashoffset" begin="1.4s" dur="0.4s" fill="freeze" to="0" />
					</path>
				</g>
			</g>
		</mask>
	</defs>
	<path d="M0 0h24v24H0z" fill="currentColor" mask="url(#SVGrrVTrcOS)" />
	<path d="M0 13h26" stroke="currentColor" fill="none" stroke-width="2" stroke-linecap="round" stroke-linejoin="round" transform="rotate(45 12 12)" stroke-dasharray="28" stroke-dashoffset="28">
		<animate attributeName="stroke-dashoffset" begin="1.4s" dur="0.4s" fill="freeze" to="0" />
	</path>
</svg>
