<svg xmlns="http://www.w3.org/2000/svg" width="24" height="24" viewBox="0 0 24 24">
	<mask id="car-light-mask">
		<g fill="none" stroke="#fff" stroke-width="2" stroke-linecap="round" stroke-linejoin="round">
			<path d="M8 6h-6" stroke-dasharray="8" stroke-dashoffset="8">
				<animate attributeName="stroke-dashoffset" values="8;0" begin="0.85s" dur="0.2s" fill="freeze" />
			</path>
			<path d="M8 10h-6" stroke-dasharray="8" stroke-dashoffset="8">
				<animate attributeName="stroke-dashoffset" values="8;0" begin="1.05s" dur="0.2s" fill="freeze" />
			</path>
			<path d="M8 14h-6" stroke-dasharray="8" stroke-dashoffset="8">
				<animate attributeName="stroke-dashoffset" values="8;0" begin="1.25s" dur="0.2s" fill="freeze" />
			</path>
			<path d="M8 18h-6" stroke-dasharray="8" stroke-dashoffset="8">
				<animate attributeName="stroke-dashoffset" values="8;0" begin="1.45s" dur="0.2s" fill="freeze" />
			</path>
			<path d="M18 12c0 -3.31 -3.5 -6.25 -8.25 -6.25c-0.5 0 -1.75 2.75 -1.75 6.25c0 3.5 1.25 6.25 1.75 6.25c4.75 0 8.25 -2.94 8.25 -6.25Z" stroke="#000" stroke-width="6" />
			<path d="M22 8v4" stroke-dasharray="6" stroke-dashoffset="6">
				<animate attributeName="stroke-dashoffset" values="6;0" begin="1.65s" dur="0.2s" fill="freeze" />
			</path>
			<path d="M22 16v0.01" stroke-dasharray="2" stroke-dashoffset="2">
				<animate attributeName="stroke-dashoffset" values="2;0" begin="1.85s" dur="0.2s" fill="freeze" />
			</path>
			<path d="M18 12c0 -3.31 -3.5 -6.25 -8.25 -6.25c-0.5 0 -1.75 2.75 -1.75 6.25c0 3.5 1.25 6.25 1.75 6.25c4.75 0 8.25 -2.94 8.25 -6.25Z" fill="#fff" fill-opacity="0" stroke-dasharray="40" stroke-dashoffset="40">
				<animate attributeName="fill-opacity" values="0;0.3" begin="0.6s" dur="0.15s" fill="freeze" />
				<animate attributeName="stroke-dashoffset" values="40;0" dur="0.5s" fill="freeze" />
			</path>
			<path d="M-1 11h26" stroke="#000" stroke-dasharray="28" stroke-dashoffset="28" transform="rotate(45 12 12)">
				<animate attributeName="stroke-dashoffset" values="28;0" begin="2.15s" dur="0.4s" fill="freeze" />
			</path>
			<path d="M-1 13h26" stroke-dasharray="28" stroke-dashoffset="28" transform="rotate(45 12 12)">
				<animate attributeName="stroke-dashoffset" values="28;0" begin="2.15s" dur="0.4s" fill="freeze" />
			</path>
		</g>
	</mask>
	<rect mask="url(#car-light-mask)" width="24" height="24" fill="currentColor" />
</svg>
