<svg xmlns="http://www.w3.org/2000/svg" width="24" height="24" viewBox="0 0 24 24">
	<defs>
		<mask id="SVGuDDbJEOD">
			<path d="M7 16.82c-2.41 -1.25 -4 -3.39 -4 -5.82c0 -3.87 4.03 -7 9 -7c4.97 0 9 3.13 9 7c0 3.87 -4.03 7 -9 7c-1.85 0 -3.57 -0.43 -5 -1.18Z" stroke="#fff" fill="none" stroke-width="2" stroke-linecap="round" stroke-linejoin="round" stroke-dasharray="54">
				<animate attributeName="stroke-dashoffset" dur="0.6s" fill="freeze" values="54;0" />
			</path>
			<path d="M5 15.5c1 1 2.5 2 4 2.5c-2 2 -5 3 -7 3c2 -2 3 -3.5 3 -5.5Z" fill="#fff" opacity="0">
				<set attributeName="opacity" to="1" begin="0.7s" fill="freeze" />
				<animate attributeName="d" begin="0.7s" dur="0.2s" fill="freeze" values="M5 15.5c1 1 2.5 2 4 2.5c-0.71 -0.24 -1.43 -0.59 -2.09 -1c-0.72 -0.45 -1.39 -0.98 -1.91 -1.5Z;M5 15.5c1 1 2.5 2 4 2.5c-2 2 -5 3 -7 3c2 -2 3 -3.5 3 -5.5Z" />
			</path>
			<path d="M-1 11h26" stroke="#000" fill="none" stroke-width="2" stroke-linecap="round" stroke-linejoin="round" transform="rotate(45 12 12)" stroke-dasharray="28" stroke-dashoffset="28">
				<animate attributeName="stroke-dashoffset" begin="0.9s" dur="0.4s" fill="freeze" to="0" />
			</path>
		</mask>
	</defs>
	<path d="M0 0h24v24H0z" fill="currentColor" mask="url(#SVGuDDbJEOD)" />
	<path d="M-1 13h26" stroke="currentColor" fill="none" stroke-width="2" stroke-linecap="round" stroke-linejoin="round" transform="rotate(45 12 12)" stroke-dasharray="28" stroke-dashoffset="28">
		<animate attributeName="stroke-dashoffset" begin="0.9s" dur="0.4s" fill="freeze" to="0" />
	</path>
</svg>
