<svg xmlns="http://www.w3.org/2000/svg" width="24" height="24" viewBox="0 0 24 24">
	<defs>
		<mask id="SVGXq5Hnrrj">
			<g fill="#fff">
				<path d="M7 16.82c-2.41 -1.25 -4 -3.39 -4 -5.82c0 -3.87 4.03 -7 9 -7c4.97 0 9 3.13 9 7c0 3.87 -4.03 7 -9 7c-1.85 0 -3.57 -0.43 -5 -1.18Z" stroke="#fff" stroke-width="2" stroke-linecap="round" stroke-linejoin="round" stroke-dasharray="54" fill-opacity="0">
					<animate attributeName="stroke-dashoffset" dur="0.6s" fill="freeze" values="54;0" />
					<animate attributeName="fill-opacity" begin="0.9s" dur="0.4s" fill="freeze" to="1" />
				</path>
				<path d="M5 15.5c1 1 2.5 2 4 2.5c-2 2 -5 3 -7 3c2 -2 3 -3.5 3 -5.5Z" opacity="0">
					<set attributeName="opacity" to="1" begin="0.7s" fill="freeze" />
					<animate attributeName="d" begin="0.7s" dur="0.2s" fill="freeze" values="M5 15.5c1 1 2.5 2 4 2.5c-0.71 -0.24 -1.43 -0.59 -2.09 -1c-0.72 -0.45 -1.39 -0.98 -1.91 -1.5Z;M5 15.5c1 1 2.5 2 4 2.5c-2 2 -5 3 -7 3c2 -2 3 -3.5 3 -5.5Z" />
				</path>
			</g>
			<g fill="none" stroke="#000" stroke-linecap="round" stroke-linejoin="round" stroke-width="2" stroke-dasharray="4">
				<path d="M8 11h0.01" stroke-dashoffset="4">
					<animate attributeName="stroke-dashoffset" begin="1.4s" dur="0.2s" fill="freeze" to="0" />
				</path>
				<path d="M12 11h0.01" stroke-dashoffset="4">
					<animate attributeName="stroke-dashoffset" begin="1.5s" dur="0.2s" fill="freeze" to="0" />
				</path>
				<path d="M16 11h0.01" stroke-dashoffset="4">
					<animate attributeName="stroke-dashoffset" begin="1.6s" dur="0.2s" fill="freeze" to="0" />
				</path>
			</g>
		</mask>
	</defs>
	<path d="M0 0h24v24H0z" fill="currentColor" mask="url(#SVGXq5Hnrrj)" />
</svg>
