<svg xmlns="http://www.w3.org/2000/svg" width="24" height="24" viewBox="0 0 24 24">
	<path d="M9 6L12 4L15 6L21 14L17 19H7L3 14L9 6Z" fill="currentColor" fill-opacity="0">
		<animate attributeName="fill-opacity" values="0;0.3" begin="1.3s" dur="0.15s" fill="freeze" />
	</path>
	<g fill="none" stroke="currentColor" stroke-width="2" stroke-linecap="round" stroke-linejoin="round">
		<path d="M8 18H7C4.5 18 3 16 3 14C3 12 4.5 10 7 10C8 10 8.5 10.5 8.5 10.5M16 18H17C19.5 18 21 16 21 14C21 12 19.5 10 17 10C16 10 15.5 10.5 15.5 10.5" stroke-dasharray="16" stroke-dashoffset="16">
			<animate attributeName="stroke-dashoffset" values="16;0" dur="0.4s" fill="freeze" />
		</path>
		<path d="M17 10C17 10 17 9.5 17 9C17 6.5 15 4 12 4M7 10V9C7 6.5 9 4 12 4" stroke-dasharray="9" stroke-dashoffset="9">
			<animate attributeName="stroke-dashoffset" values="9;0" begin="0.5s" dur="0.3s" fill="freeze" />
		</path>
		<path d="M12 20V14" stroke-dasharray="8" stroke-dashoffset="8">
			<animate attributeName="stroke-dashoffset" values="8;0" begin="0.9s" dur="0.2s" fill="freeze" />
		</path>
		<path d="M12 13L14 15M12 13L10 15" stroke-dasharray="4" stroke-dashoffset="4">
			<animate attributeName="stroke-dashoffset" values="4;0" begin="1.1s" dur="0.2s" fill="freeze" />
		</path>
	</g>
</svg>
