<svg xmlns="http://www.w3.org/2000/svg" width="24" height="24" viewBox="0 0 24 24">
	<g fill="none" stroke="currentColor" stroke-width="2" stroke-linecap="round" stroke-linejoin="round">
		<path d="M8 19h-1c-2.5 0 -4 -2 -4 -4c0 -2 1.5 -4 4 -4c1 0 1.5 0.5 1.5 0.5M16 19h1c2.5 0 4 -2 4 -4c0 -2 -1.5 -4 -4 -4c-1 0 -1.5 0.5 -1.5 0.5" stroke-dasharray="20" stroke-dashoffset="20">
			<animate attributeName="stroke-dashoffset" values="20;0" dur="0.4s" fill="freeze" />
		</path>
		<path d="M7 11v-1c0 -2.5 2 -5 5 -5M17 11v-1c0 -2.5 -2 -5 -5 -5" stroke-dasharray="20" stroke-dashoffset="20">
			<animate attributeName="stroke-dashoffset" values="20;0" begin="0.4s" dur="0.3s" fill="freeze" />
		</path>
		<path d="M12 20v-6" stroke-dasharray="8" stroke-dashoffset="8">
			<animate attributeName="stroke-dashoffset" values="8;0" begin="0.8s" dur="0.2s" fill="freeze" />
		</path>
		<path d="M12 13l2 2M12 13l-2 2" stroke-dasharray="4" stroke-dashoffset="4">
			<animate attributeName="stroke-dashoffset" values="4;0" begin="1s" dur="0.2s" fill="freeze" />
		</path>
	</g>
</svg>
