<svg xmlns="http://www.w3.org/2000/svg" width="24" height="24" viewBox="0 0 24 24">
	<defs>
		<mask id="SVGebYJadhC">
			<g stroke-linecap="round" stroke-linejoin="round" stroke-width="2">
				<path d="M7 19h11c2.21 0 4 -1.79 4 -4c0 -2.21 -1.79 -4 -4 -4h-1v-1c0 -2.76 -2.24 -5 -5 -5c-2.42 0 -4.44 1.72 -4.9 4h-0.1c-2.76 0 -5 2.24 -5 5c0 2.76 2.24 5 5 5Z" stroke="#fff" fill="#fff" fill-opacity="0" stroke-dasharray="60">
					<animate attributeName="d" dur="12s" repeatCount="indefinite" keyTimes="0;0.25;0.5;0.75;1" values="M7 19h11c2.21 0 4 -1.79 4 -4c0 -2.21 -1.79 -4 -4 -4h-1v-1c0 -2.76 -2.24 -5 -5 -5c-2.42 0 -4.44 1.72 -4.9 4h-0.1c-2.76 0 -5 2.24 -5 5c0 2.76 2.24 5 5 5Z;M6 19h12c2.21 0 4 -1.79 4 -4c0 -2.21 -1.79 -4 -4 -4h0v-1c0 -2.76 -2.24 -5 -5 -5c-2.42 0 -4.44 1.72 -4.9 4h-2.1c-2.76 0 -5 2.24 -5 5c0 2.76 2.24 5 5 5Z;M6 19h11c2.21 0 4 -1.79 4 -4c0 -2.21 -1.79 -4 -4 -4h0v-1c0 -2.76 -2.24 -5 -5 -5c-2.42 0 -4.44 1.72 -4.9 4h-1.1c-2.76 0 -5 2.24 -5 5c0 2.76 2.24 5 5 5Z;M7 19h10c2.21 0 4 -1.79 4 -4c0 -2.21 -1.79 -4 -4 -4h0v-1c0 -2.76 -2.24 -5 -5 -5c-2.42 0 -4.44 1.72 -4.9 4h-0.1c-2.76 0 -5 2.24 -5 5c0 2.76 2.24 5 5 5Z;M7 19h11c2.21 0 4 -1.79 4 -4c0 -2.21 -1.79 -4 -4 -4h-1v-1c0 -2.76 -2.24 -5 -5 -5c-2.42 0 -4.44 1.72 -4.9 4h-0.1c-2.76 0 -5 2.24 -5 5c0 2.76 2.24 5 5 5Z" />
					<animate attributeName="stroke-dashoffset" dur="0.6s" fill="freeze" values="60;0" />
					<animate attributeName="fill-opacity" begin="0.6s" dur="0.15s" fill="freeze" to="0.3" />
				</path>
				<path d="M-1 11h26" stroke="#000" fill="none" transform="rotate(45 12 12)" stroke-dasharray="28" stroke-dashoffset="28">
					<animate attributeName="stroke-dashoffset" begin="0.85s" dur="0.4s" fill="freeze" to="0" />
				</path>
			</g>
		</mask>
	</defs>
	<path d="M0 0h24v24H0z" fill="currentColor" mask="url(#SVGebYJadhC)" />
	<path d="M-2 13h26" stroke="currentColor" fill="none" stroke-width="2" stroke-linecap="round" stroke-linejoin="round" transform="rotate(45 12 12)" stroke-dasharray="28" stroke-dashoffset="28">
		<animate attributeName="d" dur="6s" repeatCount="indefinite" keyTimes="0;0.5;1" values="M-2 13h26;M0 13h26;M-2 13h26" />
		<animate attributeName="stroke-dashoffset" begin="0.85s" dur="0.4s" fill="freeze" to="0" />
	</path>
</svg>
