<svg xmlns="http://www.w3.org/2000/svg" width="24" height="24" viewBox="0 0 24 24">
	<defs>
		<mask id="SVGuzV1Xc1p">
			<g stroke-linecap="round" stroke-linejoin="round" stroke-width="2">
				<path d="M7 19h11c2.21 0 4 -1.79 4 -4c0 -2.21 -1.79 -4 -4 -4h-1v-1c0 -2.76 -2.24 -5 -5 -5c-2.42 0 -4.44 1.72 -4.9 4h-0.1c-2.76 0 -5 2.24 -5 5c0 2.76 2.24 5 5 5Z" stroke="#fff" fill="#fff" stroke-dasharray="60" fill-opacity="0">
					<animate attributeName="stroke-dashoffset" dur="0.6s" fill="freeze" values="60;0" />
					<animate attributeName="fill-opacity" begin="0.6s" dur="0.4s" fill="freeze" to="1" />
				</path>
				<path d="M6 13l3 3M6 13l3 -3M17 13l-3 3M17 13l-3 -3" stroke="#000" fill="none" opacity="0" stroke-dasharray="8">
					<set attributeName="opacity" to="1" begin="1.1s" fill="freeze" />
					<animate attributeName="stroke-dashoffset" begin="1.1s" dur="0.4s" fill="freeze" values="8;0" />
				</path>
			</g>
		</mask>
	</defs>
	<path d="M0 0h24v24H0z" fill="currentColor" mask="url(#SVGuzV1Xc1p)" />
</svg>
