<svg xmlns="http://www.w3.org/2000/svg" width="24" height="24" viewBox="0 0 24 24">
	<path d="M7 19c-2.5 0 -4 -2 -4 -4c0 -2 1.5 -4 4 -4c0 -3.5 2 -6 5 -6c3 0 5 2.5 5 5v1c2.5 0 4 2 4 4c0 2 -1.5 4 -4 4Z" fill="currentColor" fill-opacity="0">
		<animate attributeName="fill-opacity" begin="0.9s" dur="0.4s" fill="freeze" to="1" />
	</path>
	<g fill="none" stroke="currentColor" stroke-linecap="round" stroke-linejoin="round" stroke-width="2">
		<path d="M12 19h-5c-2.5 0 -4 -2 -4 -4c0 -2 1.5 -4 4 -4c1 0 1.5 0.5 1.5 0.5M12 19h5c2.5 0 4 -2 4 -4c0 -2 -1.5 -4 -4 -4c-1 0 -1.5 0.5 -1.5 0.5" stroke-dasharray="22">
			<animate attributeName="stroke-dashoffset" dur="0.5s" fill="freeze" values="22;0" />
		</path>
		<path d="M7 11v-1c0 -2.5 2 -5 5 -5M17 11v-1c0 -2.5 -2 -5 -5 -5" stroke-dasharray="12" stroke-dashoffset="12">
			<animate attributeName="stroke-dashoffset" begin="0.5s" dur="0.4s" fill="freeze" to="0" />
		</path>
	</g>
</svg>
