<svg xmlns="http://www.w3.org/2000/svg" xmlns:xlink="http://www.w3.org/1999/xlink" viewBox="0 0 24 24" class="iconify iconify--line-md" width="24" height="24"><g fill="none"><path d="M9 6L12 4L15 6L21 14L17 19H7L3 14L9 6Z" fill="currentColor" fill-opacity="0.3" class="il-md-fill il-md-duration-0 il-md-delay-8"/><path d="M8 18H7C4.5 18 3 16 3 14C3 12 4.5 10 7 10C8 10 8.5 10.5 8.5 10.5" stroke="currentColor" stroke-width="2" stroke-linecap="round" stroke-linejoin="round" class="il-md-length-25 il-md-duration-2 il-md-delay-0"/><path d="M16 18H17C19.5 18 21 16 21 14C21 12 19.5 10 17 10C16 10 15.5 10.5 15.5 10.5" stroke="currentColor" stroke-width="2" stroke-linecap="round" stroke-linejoin="round" class="il-md-length-25 il-md-duration-2 il-md-delay-0"/><path d="M17 10C17 10 17 9.5 17 9C17 6.5 15 4 12 4" stroke="currentColor" stroke-width="2" stroke-linecap="round" stroke-linejoin="round" class="il-md-length-15 il-md-duration-2 il-md-delay-2"/><path d="M7 10V9C7 6.5 9 4 12 4" stroke="currentColor" stroke-width="2" stroke-linecap="round" stroke-linejoin="round" class="il-md-length-15 il-md-duration-2 il-md-delay-2"/><path d="M12 20V14" stroke="currentColor" stroke-width="2" stroke-linecap="round" class="il-md-length-15 il-md-duration-2 il-md-delay-4"/><path d="M12 13L14 15" stroke="currentColor" stroke-width="2" stroke-linecap="round" class="il-md-length-15 il-md-duration-2 il-md-delay-6"/><path d="M12 13L10 15" stroke="currentColor" stroke-width="2" stroke-linecap="round" class="il-md-length-15 il-md-duration-2 il-md-delay-6"/></g></svg>