<svg xmlns="http://www.w3.org/2000/svg" width="24" height="24" viewBox="0 0 24 24">
	<g fill="none" stroke="currentColor" stroke-width="2" stroke-linecap="round" stroke-linejoin="round">
		<path d="M17 9v9a3 3 0 0 1-3 3H8a3 3 0 0 1-3-3V9z" stroke-dasharray="48" stroke-dashoffset="48">
			<animate attributeName="stroke-dashoffset" values="48;0" dur="0.6s" fill="freeze" />
		</path>
		<path d="M17 14H20C20.55 14 21 13.55 21 13V10C21 9.45 20.55 9 20 9H17" stroke-dasharray="14" stroke-dashoffset="14">
			<animate attributeName="stroke-dashoffset" values="14;28" begin="0.6s" dur="0.2s" fill="freeze" />
		</path>
	</g>
	<mask id="coffee-mask">
		<path d="M8 0c0 2-2 2-2 4s2 2 2 4-2 2-2 4 2 2 2 4M12 0c0 2-2 2-2 4s2 2 2 4-2 2-2 4 2 2 2 4M16 0c0 2-2 2-2 4s2 2 2 4-2 2-2 4 2 2 2 4" stroke="white" stroke-width="2" fill="none">
			<animateMotion path="M0 0v-8" calcMode="linear" dur="3s" repeatCount="indefinite" />
		</path>
	</mask>
	<rect mask="url(#coffee-mask)" width="24" y="7" height="0" fill="currentColor">
		<animate attributeName="y" values="7;2" begin="0.8s" dur="0.6s" fill="freeze" />
		<animate attributeName="height" values="0;5" begin="0.8s" dur="0.6s" fill="freeze" />
	</rect>
</svg>
