<svg xmlns="http://www.w3.org/2000/svg" width="24" height="24" viewBox="0 0 24 24">
	<g fill="none" stroke="currentColor" stroke-width="2" stroke-linecap="round" stroke-linejoin="round">
		<path d="M17 9v9c0 1.66 -1.34 3 -3 3h-6c-1.66 0 -3 -1.34 -3 -3v-9Z" fill="currentColor" fill-opacity="0" stroke-dasharray="48" stroke-dashoffset="48">
			<animate attributeName="fill-opacity" values="0;0.3" begin="0.8s" dur="0.15s" fill="freeze" />
			<animate attributeName="stroke-dashoffset" values="48;0" dur="0.6s" fill="freeze" />
		</path>
		<path d="M17 9h3c0.55 0 1 0.45 1 1v3c0 0.55 -0.45 1 -1 1h-3" stroke-dasharray="14" stroke-dashoffset="14">
			<animate attributeName="stroke-dashoffset" values="14;0" begin="0.6s" dur="0.2s" fill="freeze" />
		</path>
		<mask id="coffee-mask">
			<path d="M8 0c0 2-2 2-2 4s2 2 2 4-2 2-2 4 2 2 2 4M12 0c0 2-2 2-2 4s2 2 2 4-2 2-2 4 2 2 2 4M16 0c0 2-2 2-2 4s2 2 2 4-2 2-2 4 2 2 2 4" fill="none" stroke="#fff" stroke-width="2">
				<animateMotion path="M0 0v-8" dur="3s" calcMode="linear" repeatCount="indefinite" />
			</path>
		</mask>
		<rect y="7" width="24" height="0" fill="currentColor" mask="url(#coffee-mask)">
			<animate attributeName="y" values="7;2" begin="0.8s" dur="0.6s" fill="freeze" />
			<animate attributeName="height" values="0;5" begin="0.8s" dur="0.6s" fill="freeze" />
		</rect>
	</g>
</svg>
