<svg xmlns="http://www.w3.org/2000/svg" width="24" height="24" viewBox="0 0 24 24">
	<path d="M12 7c2.76 0 5 2.24 5 5c0 2.76 -2.24 5 -5 5c-2.76 0 -5 -2.24 -5 -5c0 -2.76 2.24 -5 5 -5Z" stroke="currentColor" fill="none" stroke-width="5" stroke-linecap="round" stroke-linejoin="round" stroke-dasharray="34">
		<animate attributeName="stroke-dashoffset" dur="0.4s" fill="freeze" values="34;0" />
		<set attributeName="opacity" to="0" begin="0.4s" fill="freeze" />
	</path>
	<g fill="currentColor">
		<path d="M11 13l4.74 -7.5c0.29 0.17 0.57 0.35 0.83 0.55c0 0 2.52 -1.01 2.52 -1.01c0.16 -0.06 0.43 -0.03 0.51 0.13c0 0 2.07 3.58 2.07 3.58c0.1 0.17 0.06 0.45 -0.07 0.57c0 0 -2.17 1.68 -2.17 1.68c0.05 0.33 0.07 0.66 0.07 1Z" opacity="0">
			<set attributeName="opacity" to="1" begin="0.4s" fill="freeze" />
			<animate attributeName="d" begin="0.4s" dur="0.2s" fill="freeze" values="M11 13l4.74 -7.5c0.29 0.17 0.57 0.35 0.83 0.55c0 0 0 0 0 0c0.07 0.05 0.14 0.11 0.2 0.17c1.37 1.12 2.32 2.72 2.63 4.53c0.01 0.09 0.02 0.17 0.03 0.25c0 0 0 0 0 0c0.05 0.33 0.07 0.66 0.07 1Z;M11 13l4.74 -7.5c0.29 0.17 0.57 0.35 0.83 0.55c0 0 2.52 -1.01 2.52 -1.01c0.16 -0.06 0.43 -0.03 0.51 0.13c0 0 2.07 3.58 2.07 3.58c0.1 0.17 0.06 0.45 -0.07 0.57c0 0 -2.17 1.68 -2.17 1.68c0.05 0.33 0.07 0.66 0.07 1Z" />
		</path>
		<path d="M10.63 11.63l8.87 0.35c0 0.34 -0.02 0.67 -0.06 0.99c0 0 2.13 1.68 2.13 1.68c0.13 0.11 0.24 0.36 0.14 0.51c0 0 -2.07 3.58 -2.07 3.58c-0.1 0.17 -0.36 0.28 -0.53 0.22c0 0 -2.54 -1.04 -2.54 -1.04c-0.26 0.21 -0.54 0.39 -0.83 0.56Z" opacity="0">
			<set attributeName="opacity" to="1" begin="0.4s" fill="freeze" />
			<animate attributeName="d" begin="0.4s" dur="0.2s" fill="freeze" values="M10.63 11.63l8.87 0.35c0 0.34 -0.02 0.67 -0.06 0.99c0 0 0 0 0 0c-0.01 0.09 -0.03 0.18 -0.05 0.26c-0.28 1.75 -1.2 3.37 -2.61 4.54c-0.07 0.05 -0.14 0.1 -0.2 0.15c0 0 0 0 0 0c-0.26 0.21 -0.54 0.39 -0.83 0.56Z;M10.63 11.63l8.87 0.35c0 0.34 -0.02 0.67 -0.06 0.99c0 0 2.13 1.68 2.13 1.68c0.13 0.11 0.24 0.36 0.14 0.51c0 0 -2.07 3.58 -2.07 3.58c-0.1 0.17 -0.36 0.28 -0.53 0.22c0 0 -2.54 -1.04 -2.54 -1.04c-0.26 0.21 -0.54 0.39 -0.83 0.56Z" />
		</path>
		<path d="M11.63 10.63l4.13 7.85c-0.29 0.17 -0.59 0.32 -0.89 0.44c0 0 -0.39 2.69 -0.39 2.69c-0.03 0.17 -0.19 0.39 -0.37 0.38c0 0 -4.14 0 -4.14 0c-0.2 0 -0.42 -0.17 -0.46 -0.35c0 0 -0.37 -2.72 -0.37 -2.72c-0.31 -0.12 -0.61 -0.27 -0.9 -0.44Z" opacity="0">
			<set attributeName="opacity" to="1" begin="0.4s" fill="freeze" />
			<animate attributeName="d" begin="0.4s" dur="0.2s" fill="freeze" values="M11.63 10.63l4.13 7.85c-0.29 0.17 -0.59 0.32 -0.89 0.44c0 0 0 0 0 0c-0.08 0.04 -0.17 0.07 -0.25 0.09c-1.65 0.63 -3.52 0.65 -5.24 0.01c-0.08 -0.04 -0.16 -0.07 -0.23 -0.1c0 0 0 0 0 0c-0.31 -0.12 -0.61 -0.27 -0.9 -0.44Z;M11.63 10.63l4.13 7.85c-0.29 0.17 -0.59 0.32 -0.89 0.44c0 0 -0.39 2.69 -0.39 2.69c-0.03 0.17 -0.19 0.39 -0.37 0.38c0 0 -4.14 0 -4.14 0c-0.2 0 -0.42 -0.17 -0.46 -0.35c0 0 -0.37 -2.72 -0.37 -2.72c-0.31 -0.12 -0.61 -0.27 -0.9 -0.44Z" />
		</path>
		<path d="M13 11l-4.74 7.5c-0.29 -0.17 -0.57 -0.35 -0.83 -0.55c0 0 -2.52 1.01 -2.52 1.01c-0.16 0.06 -0.43 0.03 -0.51 -0.13c0 0 -2.07 -3.58 -2.07 -3.58c-0.1 -0.17 -0.06 -0.45 0.07 -0.57c0 0 2.17 -1.68 2.17 -1.68c-0.05 -0.33 -0.07 -0.66 -0.07 -1Z" opacity="0">
			<set attributeName="opacity" to="1" begin="0.4s" fill="freeze" />
			<animate attributeName="d" begin="0.4s" dur="0.2s" fill="freeze" values="M13 11l-4.74 7.5c-0.29 -0.17 -0.57 -0.35 -0.83 -0.55c0 0 0 0 0 0c-0.07 -0.05 -0.14 -0.11 -0.2 -0.17c-1.37 -1.12 -2.32 -2.72 -2.63 -4.53c-0.01 -0.09 -0.02 -0.17 -0.03 -0.25c0 0 0 0 0 0c-0.05 -0.33 -0.07 -0.66 -0.07 -1Z;M13 11l-4.74 7.5c-0.29 -0.17 -0.57 -0.35 -0.83 -0.55c0 0 -2.52 1.01 -2.52 1.01c-0.16 0.06 -0.43 0.03 -0.51 -0.13c0 0 -2.07 -3.58 -2.07 -3.58c-0.1 -0.17 -0.06 -0.45 0.07 -0.57c0 0 2.17 -1.68 2.17 -1.68c-0.05 -0.33 -0.07 -0.66 -0.07 -1Z" />
		</path>
		<path d="M13.37 12.37l-8.87 -0.35c0 -0.34 0.02 -0.67 0.06 -0.99c0 0 -2.13 -1.68 -2.13 -1.68c-0.13 -0.11 -0.24 -0.36 -0.14 -0.51c0 0 2.07 -3.58 2.07 -3.58c0.1 -0.17 0.36 -0.28 0.53 -0.22c0 0 2.54 1.04 2.54 1.04c0.26 -0.21 0.54 -0.39 0.83 -0.56Z" opacity="0">
			<set attributeName="opacity" to="1" begin="0.4s" fill="freeze" />
			<animate attributeName="d" begin="0.4s" dur="0.2s" fill="freeze" values="M13.37 12.37l-8.87 -0.35c0 -0.34 0.02 -0.67 0.06 -0.99c0 0 0 0 0 0c0.01 -0.09 0.03 -0.18 0.05 -0.26c0.28 -1.75 1.2 -3.37 2.61 -4.54c0.07 -0.05 0.14 -0.1 0.2 -0.15c0 0 0 0 0 0c0.26 -0.21 0.54 -0.39 0.83 -0.56Z;M13.37 12.37l-8.87 -0.35c0 -0.34 0.02 -0.67 0.06 -0.99c0 0 -2.13 -1.68 -2.13 -1.68c-0.13 -0.11 -0.24 -0.36 -0.14 -0.51c0 0 2.07 -3.58 2.07 -3.58c0.1 -0.17 0.36 -0.28 0.53 -0.22c0 0 2.54 1.04 2.54 1.04c0.26 -0.21 0.54 -0.39 0.83 -0.56Z" />
		</path>
		<path d="M12.37 13.37l-4.13 -7.85c0.29 -0.17 0.59 -0.32 0.89 -0.44c0 0 0.39 -2.69 0.39 -2.69c0.03 -0.17 0.19 -0.39 0.37 -0.38c0 0 4.14 0 4.14 0c0.2 0 0.42 0.17 0.46 0.35c0 0 0.37 2.72 0.37 2.72c0.31 0.12 0.61 0.27 0.9 0.44Z" opacity="0">
			<set attributeName="opacity" to="1" begin="0.4s" fill="freeze" />
			<animate attributeName="d" begin="0.4s" dur="0.2s" fill="freeze" values="M12.37 13.37l-4.13 -7.85c0.29 -0.17 0.59 -0.32 0.89 -0.44c0 0 0 0 0 0c0.08 -0.04 0.17 -0.07 0.25 -0.09c1.65 -0.63 3.52 -0.65 5.24 -0.01c0.08 0.04 0.16 0.07 0.23 0.1c0 0 0 0 0 0c0.31 0.12 0.61 0.27 0.9 0.44Z;M12.37 13.37l-4.13 -7.85c0.29 -0.17 0.59 -0.32 0.89 -0.44c0 0 0.39 -2.69 0.39 -2.69c0.03 -0.17 0.19 -0.39 0.37 -0.38c0 0 4.14 0 4.14 0c0.2 0 0.42 0.17 0.46 0.35c0 0 0.37 2.72 0.37 2.72c0.31 0.12 0.61 0.27 0.9 0.44Z" />
		</path>
	</g>
</svg>
