<svg xmlns="http://www.w3.org/2000/svg" width="24" height="24" viewBox="0 0 24 24">
	<mask id="cog-mask">
		<defs>
			<symbol id="cog-part">
				<path d="M15.24 6.37C15.65 6.6 16.04 6.88 16.38 7.2C16.6 7.4 16.8 7.61 16.99 7.83C17.46 8.4 17.85 9.05 18.11 9.77C18.2 10.03 18.28 10.31 18.35 10.59C18.45 11.04 18.5 11.52 18.5 12">
					<animate attributeName="d" values="M15.24 6.37C15.65 6.6 16.04 6.88 16.38 7.2C16.6 7.4 16.8 7.61 16.99 7.83C17.46 8.4 17.85 9.05 18.11 9.77C18.2 10.03 18.28 10.31 18.35 10.59C18.45 11.04 18.5 11.52 18.5 12;M15.24 6.37C15.65 6.6 16.04 6.88 16.38 7.2C16.38 7.2 19 6.12 19.01 6.14C19.01 6.14 20.57 8.84 20.57 8.84C20.58 8.87 18.35 10.59 18.35 10.59C18.45 11.04 18.5 11.52 18.5 12" begin="0.9s" dur="0.2s" fill="freeze" />
				</path>
			</symbol>
		</defs>
		<g fill="none" stroke="#fff" stroke-width="2">
			<g stroke-linecap="round">
				<path d="M12 9c1.66 0 3 1.34 3 3c0 1.66 -1.34 3 -3 3c-1.66 0 -3 -1.34 -3 -3c0 -1.66 1.34 -3 3 -3Z" stroke-dasharray="20" stroke-dashoffset="20">
					<animate attributeName="stroke-dashoffset" values="20;0" dur="0.2s" fill="freeze" />
				</path>
				<path d="M12 5.5c3.59 0 6.5 2.91 6.5 6.5c0 3.59 -2.91 6.5 -6.5 6.5c-3.59 0 -6.5 -2.91 -6.5 -6.5c0 -3.59 2.91 -6.5 6.5 -6.5Z" stroke-dasharray="48" stroke-dashoffset="48" opacity="1">
					<animate attributeName="stroke-dashoffset" values="48;0" begin="0.2s" dur="0.6s" fill="freeze" />
					<set attributeName="opacity" to="0" begin="0.9s" fill="freeze" />
				</path>
			</g>
			<g stroke-width="2" opacity="0">
				<use href="#cog-part" />
				<use href="#cog-part" transform="rotate(60 12 12)" />
				<use href="#cog-part" transform="rotate(120 12 12)" />
				<use href="#cog-part" transform="rotate(180 12 12)" />
				<use href="#cog-part" transform="rotate(240 12 12)" />
				<use href="#cog-part" transform="rotate(300 12 12)" />
				<set attributeName="opacity" to="1" begin="0.9s" fill="freeze" />
			</g>
		</g>
		<g fill="none" stroke="#fff" stroke-width="2" stroke-linecap="round" stroke-linejoin="round">
			<path d="M0 11h24" stroke="#000" stroke-dasharray="28" stroke-dashoffset="28" transform="rotate(45 12 12)">
				<animate attributeName="stroke-dashoffset" values="28;0" begin="1.2s" dur="0.4s" fill="freeze" />
			</path>
			<path d="M0 13h24" stroke-dasharray="28" stroke-dashoffset="28" transform="rotate(45 12 12)">
				<animate attributeName="stroke-dashoffset" values="28;0" begin="1.2s" dur="0.4s" fill="freeze" />
			</path>
		</g>
	</mask>
	<rect mask="url(#cog-mask)" width="24" height="24" fill="currentColor" />
</svg>
