<svg xmlns="http://www.w3.org/2000/svg" width="24" height="24" viewBox="0 0 24 24">
	<g fill="none" stroke="currentColor" stroke-linecap="round" stroke-linejoin="round" stroke-width="2">
		<path d="M12 9c1.66 0 3 1.34 3 3c0 1.66 -1.34 3 -3 3c-1.66 0 -3 -1.34 -3 -3c0 -1.66 1.34 -3 3 -3Z" stroke-dasharray="22">
			<animate attributeName="stroke-dashoffset" dur="0.3s" fill="freeze" values="22;0" />
		</path>
		<path d="M12 5.5c3.59 0 6.5 2.91 6.5 6.5c0 3.59 -2.91 6.5 -6.5 6.5c-3.59 0 -6.5 -2.91 -6.5 -6.5c0 -3.59 2.91 -6.5 6.5 -6.5Z" stroke-dasharray="44" stroke-dashoffset="44">
			<animate attributeName="stroke-dashoffset" begin="0.3s" dur="0.5s" fill="freeze" to="0" />
			<set attributeName="opacity" to="0" begin="0.8s" fill="freeze" />
		</path>
		<path d="M15.24 6.37c0.41 0.23 0.8 0.51 1.14 0.83c0 0 2.62 -1.08 2.63 -1.06c0 0 1.56 2.7 1.56 2.7c0.01 0.03 -2.22 1.75 -2.22 1.75c0.1 0.45 0.15 0.93 0.15 1.41" opacity="0">
			<set attributeName="opacity" to="1" begin="0.8s" fill="freeze" />
			<animate attributeName="d" begin="0.8s" dur="0.2s" fill="freeze" values="M15.24 6.37c0.41 0.23 0.8 0.51 1.14 0.83c0.22 0.2 0.42 0.41 0.61 0.63c0.47 0.57 0.86 1.22 1.12 1.94c0.09 0.26 0.17 0.54 0.24 0.82c0.1 0.45 0.15 0.93 0.15 1.41;M15.24 6.37c0.41 0.23 0.8 0.51 1.14 0.83c0 0 2.62 -1.08 2.63 -1.06c0 0 1.56 2.7 1.56 2.7c0.01 0.03 -2.22 1.75 -2.22 1.75c0.1 0.45 0.15 0.93 0.15 1.41" />
		</path>
		<path d="M18.5 11.99c0.01 0.47 -0.04 0.95 -0.15 1.4c0 0 2.25 1.73 2.23 1.75c0 0 -1.56 2.7 -1.56 2.7c-0.02 0.02 -2.63 -1.05 -2.63 -1.05c-0.34 0.31 -0.73 0.59 -1.15 0.83" opacity="0">
			<set attributeName="opacity" to="1" begin="0.8s" fill="freeze" />
			<animate attributeName="d" begin="0.8s" dur="0.2s" fill="freeze" values="M18.5 11.99c0.01 0.47 -0.04 0.95 -0.15 1.4c-0.06 0.29 -0.15 0.57 -0.24 0.84c-0.26 0.69 -0.63 1.35 -1.12 1.94c-0.18 0.21 -0.38 0.42 -0.59 0.62c-0.34 0.31 -0.73 0.59 -1.15 0.83;M18.5 11.99c0.01 0.47 -0.04 0.95 -0.15 1.4c0 0 2.25 1.73 2.23 1.75c0 0 -1.56 2.7 -1.56 2.7c-0.02 0.02 -2.63 -1.05 -2.63 -1.05c-0.34 0.31 -0.73 0.59 -1.15 0.83" />
		</path>
		<path d="M15.26 17.62c-0.4 0.24 -0.84 0.44 -1.29 0.57c0 0 -0.37 2.81 -0.4 2.81c0 0 -3.12 0 -3.12 0c-0.03 -0.01 -0.41 -2.8 -0.41 -2.8c-0.44 -0.14 -0.88 -0.34 -1.3 -0.58" opacity="0">
			<set attributeName="opacity" to="1" begin="0.8s" fill="freeze" />
			<animate attributeName="d" begin="0.8s" dur="0.2s" fill="freeze" values="M15.26 17.62c-0.4 0.24 -0.84 0.44 -1.29 0.57c-0.28 0.09 -0.57 0.16 -0.85 0.21c-0.73 0.12 -1.49 0.13 -2.24 0c-0.27 -0.05 -0.55 -0.12 -0.83 -0.2c-0.44 -0.14 -0.88 -0.34 -1.3 -0.58;M15.26 17.62c-0.4 0.24 -0.84 0.44 -1.29 0.57c0 0 -0.37 2.81 -0.4 2.81c0 0 -3.12 0 -3.12 0c-0.03 -0.01 -0.41 -2.8 -0.41 -2.8c-0.44 -0.14 -0.88 -0.34 -1.3 -0.58" />
		</path>
		<path d="M8.76 17.63c-0.41 -0.23 -0.8 -0.51 -1.14 -0.83c0 0 -2.62 1.08 -2.63 1.06c0 0 -1.56 -2.7 -1.56 -2.7c-0.01 -0.03 2.22 -1.75 2.22 -1.75c-0.1 -0.45 -0.15 -0.93 -0.15 -1.41" opacity="0">
			<set attributeName="opacity" to="1" begin="0.8s" fill="freeze" />
			<animate attributeName="d" begin="0.8s" dur="0.2s" fill="freeze" values="M8.76 17.63c-0.41 -0.23 -0.8 -0.51 -1.14 -0.83c-0.22 -0.2 -0.42 -0.41 -0.61 -0.63c-0.47 -0.57 -0.86 -1.22 -1.12 -1.94c-0.09 -0.26 -0.17 -0.54 -0.24 -0.82c-0.1 -0.45 -0.15 -0.93 -0.15 -1.41;M8.76 17.63c-0.41 -0.23 -0.8 -0.51 -1.14 -0.83c0 0 -2.62 1.08 -2.63 1.06c0 0 -1.56 -2.7 -1.56 -2.7c-0.01 -0.03 2.22 -1.75 2.22 -1.75c-0.1 -0.45 -0.15 -0.93 -0.15 -1.41" />
		</path>
		<path d="M5.5 12.01c-0.01 -0.47 0.04 -0.95 0.15 -1.4c0 0 -2.25 -1.73 -2.23 -1.75c0 0 1.56 -2.7 1.56 -2.7c0.02 -0.02 2.63 1.05 2.63 1.05c0.34 -0.31 0.73 -0.59 1.15 -0.83" opacity="0">
			<set attributeName="opacity" to="1" begin="0.8s" fill="freeze" />
			<animate attributeName="d" begin="0.8s" dur="0.2s" fill="freeze" values="M5.5 12.01c-0.01 -0.47 0.04 -0.95 0.15 -1.4c0.06 -0.29 0.15 -0.57 0.24 -0.84c0.26 -0.69 0.63 -1.35 1.12 -1.94c0.18 -0.21 0.38 -0.42 0.59 -0.62c0.34 -0.31 0.73 -0.59 1.15 -0.83;M5.5 12.01c-0.01 -0.47 0.04 -0.95 0.15 -1.4c0 0 -2.25 -1.73 -2.23 -1.75c0 0 1.56 -2.7 1.56 -2.7c0.02 -0.02 2.63 1.05 2.63 1.05c0.34 -0.31 0.73 -0.59 1.15 -0.83" />
		</path>
		<path d="M8.74 6.38c0.4 -0.24 0.84 -0.44 1.29 -0.57c0 0 0.37 -2.81 0.4 -2.81c0 0 3.12 0 3.12 0c0.03 0.01 0.41 2.8 0.41 2.8c0.44 0.14 0.88 0.34 1.3 0.58" opacity="0">
			<set attributeName="opacity" to="1" begin="0.8s" fill="freeze" />
			<animate attributeName="d" begin="0.8s" dur="0.2s" fill="freeze" values="M8.74 6.38c0.4 -0.24 0.84 -0.44 1.29 -0.57c0.28 -0.09 0.57 -0.16 0.85 -0.21c0.73 -0.12 1.49 -0.13 2.24 0c0.27 0.05 0.55 0.12 0.83 0.2c0.44 0.14 0.88 0.34 1.3 0.58;M8.74 6.38c0.4 -0.24 0.84 -0.44 1.29 -0.57c0 0 0.37 -2.81 0.4 -2.81c0 0 3.12 0 3.12 0c0.03 0.01 0.41 2.8 0.41 2.8c0.44 0.14 0.88 0.34 1.3 0.58" />
		</path>
	</g>
</svg>
