<svg xmlns="http://www.w3.org/2000/svg" width="24" height="24" viewBox="0 0 24 24">
	<defs>
		<mask id="SVGBBrTieHk">
			<path d="M12 3c-4.42 0 -8 3.58 -8 8c0 4.42 3.58 8 8 8c4.42 0 8 -3.58 8 -8v-1h-2c-0.55 0 -1 -0.45 -1 -1v-1h-2c-0.55 0 -1 -0.45 -1 -1v-1h-1c-0.55 0 -1 -0.45 -1 -1Z" stroke="#fff" fill="#fff" stroke-width="2" stroke-linecap="round" stroke-linejoin="round" stroke-dasharray="56" fill-opacity="0">
				<animate attributeName="stroke-dashoffset" dur="0.6s" fill="freeze" values="56;0" />
				<animate attributeName="fill-opacity" begin="0.6s" dur="0.4s" fill="freeze" to="1" />
			</path>
			<g fill="#000">
				<circle cx="9.5" cy="6.5" r="1.5" opacity="0">
					<animate attributeName="opacity" begin="1.1s" dur="0.1s" fill="freeze" to="1" />
				</circle>
				<circle cx="11" cy="16.5" r="1.5" opacity="0">
					<animate attributeName="opacity" begin="1.2s" dur="0.1s" fill="freeze" to="1" />
				</circle>
				<circle cx="6.5" cy="10.5" r="1.5" opacity="0">
					<animate attributeName="opacity" begin="1.3s" dur="0.1s" fill="freeze" to="1" />
				</circle>
				<circle cx="16.5" cy="13.5" r="1.5" opacity="0">
					<animate attributeName="opacity" begin="1.4s" dur="0.1s" fill="freeze" to="1" />
				</circle>
				<circle cx="11.5" cy="11.5" r="1.5" opacity="0">
					<animate attributeName="opacity" begin="1.5s" dur="0.1s" fill="freeze" to="1" />
				</circle>
			</g>
		</mask>
	</defs>
	<path d="M0 0h24v24H0z" fill="currentColor" mask="url(#SVGBBrTieHk)" />
	<g fill="none" stroke="currentColor" stroke-linecap="round" stroke-linejoin="round" stroke-width="2" stroke-dasharray="4">
		<path d="M8 23h0.01" stroke-dashoffset="4">
			<animate attributeName="stroke-dashoffset" begin="1.6s" dur="0.2s" fill="freeze" to="0" />
		</path>
		<path d="M12 23h0.01" stroke-dashoffset="4">
			<animate attributeName="stroke-dashoffset" begin="1.9s" dur="0.2s" fill="freeze" to="0" />
		</path>
		<path d="M16 23h0.01" stroke-dashoffset="4">
			<animate attributeName="stroke-dashoffset" begin="2.2s" dur="0.2s" fill="freeze" to="0" />
		</path>
	</g>
</svg>
