<svg xmlns="http://www.w3.org/2000/svg" width="24" height="24" viewBox="0 0 24 24">
	<g fill="currentColor">
		<circle cx="9" cy="12" r="1.5" fill-opacity="0">
			<animate attributeName="fill-opacity" values="0;1" begin="1.3s" dur="0.15s" fill="freeze" />
		</circle>
		<circle cx="15" cy="12" r="1.5" fill-opacity="0">
			<animate attributeName="fill-opacity" values="0;1" begin="1.45s" dur="0.15s" fill="freeze" />
		</circle>
		<path d="M5 5l7 0.2l7 -0.2l3 10l-3 3.4h-14l-3.5 -3.4l3.5 -10Z" fill-opacity="0">
			<animate attributeName="fill-opacity" values="0;0.3" begin="1.7s" dur="0.15s" fill="freeze" />
		</path>
	</g>
	<g fill="none" stroke="currentColor" stroke-width="2" stroke-linecap="round" stroke-linejoin="round">
		<path d="M12 6h2l1 -2c0 0 2.5 0.5 4 1.5c3.53 2.35 3 9.5 3 10.5c-1.33 2.17 -5.5 3.5 -5.5 3.5l-1 -2M12 6h-2l-0.97 -2c0 0 -2.5 0.5 -4 1.5c-3.53 2.35 -3 9.5 -3 10.5c1.33 2.17 5.5 3.5 5.5 3.5l1 -2" stroke-dasharray="32" stroke-dashoffset="32">
			<animate attributeName="stroke-dashoffset" values="32;0" dur="0.7s" fill="freeze" />
		</path>
		<path d="M5.5 16c5 2.5 8 2.5 13 0" stroke-dasharray="16" stroke-dashoffset="16">
			<animate attributeName="stroke-dashoffset" values="16;0" begin="0.8s" dur="0.4s" fill="freeze" />
		</path>
	</g>
</svg>
