<svg xmlns="http://www.w3.org/2000/svg" width="24" height="24" viewBox="0 0 24 24">
	<defs>
		<mask id="SVGltqhzeeb">
			<path d="M12 11l-8 -5h16l-8 5Z" fill="#fff" fill-opacity="0">
				<animate attributeName="fill-opacity" begin="0.9s" dur="0.15s" fill="freeze" to="0.3" />
			</path>
			<g fill="none" stroke="#fff" stroke-linecap="round" stroke-linejoin="round" stroke-width="2">
				<path d="M4 5h16c0.55 0 1 0.45 1 1v12c0 0.55 -0.45 1 -1 1h-16c-0.55 0 -1 -0.45 -1 -1v-12c0 -0.55 0.45 -1 1 -1Z" stroke-dasharray="66">
					<animate attributeName="stroke-dashoffset" dur="0.6s" fill="freeze" values="66;0" />
				</path>
				<path d="M3 6.5l9 5.5l9 -5.5" stroke-dasharray="24" stroke-dashoffset="24">
					<animate attributeName="stroke-dashoffset" begin="0.6s" dur="0.3s" fill="freeze" to="0" />
				</path>
			</g>
			<path d="M19 13c3.31 0 6 2.69 6 6c0 3.31 -2.69 6 -6 6c-3.31 0 -6 -2.69 -6 -6c0 -3.31 2.69 -6 6 -6Z" fill="#000" opacity="0">
				<set attributeName="opacity" to="1" begin="1.15s" fill="freeze" />
			</path>
		</mask>
	</defs>
	<path d="M0 0h24v24H0z" fill="currentColor" mask="url(#SVGltqhzeeb)" />
	<g fill="none" stroke="currentColor" stroke-linecap="round" stroke-linejoin="round" stroke-width="2" stroke-dasharray="8">
		<path d="M17 17l4 4" stroke-dashoffset="8">
			<animate attributeName="stroke-dashoffset" begin="1.15s" dur="0.2s" fill="freeze" to="0" />
		</path>
		<path d="M21 17l-4 4" stroke-dashoffset="8">
			<animate attributeName="stroke-dashoffset" begin="1.35s" dur="0.2s" fill="freeze" to="0" />
		</path>
	</g>
</svg>
