<svg xmlns="http://www.w3.org/2000/svg" width="24" height="24" viewBox="0 0 24 24">
	<g fill="currentColor">
		<path d="M14 13l-8 -5l8 -5l8 5l-8 5Z" fill-opacity="0">
			<animate attributeName="fill-opacity" values="0;0.3" begin="0.8s" dur="0.15s" fill="freeze" />
		</path>
	</g>
	<g fill="none" stroke="currentColor" stroke-width="2" stroke-linecap="round" stroke-linejoin="round">
		<path d="M5 8.06c0 -0.35 0.18 -0.67 0.48 -0.85l8.52 -5.21l8.52 5.21c0.3 0.18 0.48 0.5 0.48 0.85v9.94c0 0.55 -0.45 1 -1 1h-16c-0.55 0 -1 -0.45 -1 -1v-9.94Z" stroke-dasharray="64" stroke-dashoffset="64">
			<animate attributeName="stroke-dashoffset" values="64;0" dur="0.6s" fill="freeze" />
		</path>
		<path d="M19 23h-17c-0.55 0 -1 -0.45 -1 -1v-13" stroke-dasharray="36" stroke-dashoffset="36">
			<animate attributeName="stroke-dashoffset" values="36;0" begin="0.3s" dur="0.3s" fill="freeze" />
		</path>
		<path d="M5 8.5l9 5.5l9 -5.5" stroke-dasharray="24" stroke-dashoffset="24">
			<animate attributeName="stroke-dashoffset" values="24;0" begin="0.6s" dur="0.2s" fill="freeze" />
		</path>
	</g>
</svg>
