<svg xmlns="http://www.w3.org/2000/svg" xmlns:xlink="http://www.w3.org/1999/xlink" width="24" height="24" preserveAspectRatio="xMidYMid meet" viewBox="0 0 24 24"><g fill="none" stroke="currentColor" stroke-linecap="round" stroke-width="2"><path stroke-dasharray="60" stroke-dashoffset="60" d="M12 3C16.9706 3 21 7.02944 21 12C21 16.9706 16.9706 21 12 21C7.02944 21 3 16.9706 3 12C3 7.02944 7.02944 3 12 3Z"><animate fill="freeze" attributeName="stroke-dashoffset" dur="0.5s" values="60;0"/><animate fill="freeze" attributeName="fill-opacity" begin="1.2s" dur="0.15s" values="0;0.3"/></path><path stroke-dasharray="14" stroke-dashoffset="14" d="M8 14C8.5 15.5 9.79086 17 12 17C14.2091 17 15.5 15.5 16 14"><animate fill="freeze" attributeName="stroke-dashoffset" begin="1s" dur="0.2s" values="14;0"/></path></g><g fill="none"><ellipse cx="9" cy="9.5" rx="1" ry="1.5"><animate fill="freeze" attributeName="fill-opacity" begin="0.6s" dur="0.2s" values="0;1"/></ellipse><path d="M15 8.5C15.8284 8.5 16.5 8.94772 16.5 9.5C16.5 10.0523 15.8284 10.5 15 10.5C14.1716 10.5 13.5 10.0523 13.5 9.5C13.5 8.94772 14.1716 8.5 15 8.5Z"><animate fill="freeze" attributeName="fill-opacity" begin="0.8s" dur="0.2s" values="0;1"/></path></g></svg>