<svg xmlns="http://www.w3.org/2000/svg" width="24" height="24" viewBox="0 0 24 24">
	<g stroke="currentColor" stroke-width="2" stroke-linecap="round">
		<path d="M12 3C16.9706 3 21 7.02944 21 12C21 16.9706 16.9706 21 12 21C7.02944 21 3 16.9706 3 12C3 7.02944 7.02944 3 12 3Z" fill="currentColor" fill-opacity="0" stroke-dasharray="60" stroke-dashoffset="60">
			<animate attributeName="stroke-dashoffset" values="60;0" dur="0.5s" fill="freeze" />
			<animate attributeName="fill-opacity" values="0;0.3" begin="1.2s" dur="0.15s" fill="freeze" />
		</path>
		<path d="M8 14C8.5 15.5 9.79086 17 12 17C14.2091 17 15.5 15.5 16 14" fill="none" stroke-dasharray="14" stroke-dashoffset="14">
			<animate attributeName="stroke-dashoffset" values="14;0" begin="1s" dur="0.2s" fill="freeze" />
		</path>
	</g>
	<g fill="currentColor">
		<ellipse cx="9" cy="9.5" rx="1" ry="1.5" fill-opacity="0">
			<animate attributeName="fill-opacity" values="0;1" begin="0.6s" dur="0.2s" fill="freeze" />
		</ellipse>
		<path d="M15 8.5C15.8284 8.5 16.5 8.94772 16.5 9.5C16.5 10.0523 15.8284 10.5 15 10.5C14.1716 10.5 13.5 10.0523 13.5 9.5C13.5 8.94772 14.1716 8.5 15 8.5Z" fill-opacity="0">
			<animate attributeName="fill-opacity" values="0;1" begin="0.8s" dur="0.2s" fill="freeze" />
		</path>
	</g>
</svg>
