<svg xmlns="http://www.w3.org/2000/svg" width="24" height="24" viewBox="0 0 24 24">
	<mask id="emoji-frown-open-mask">
		<g fill="none" stroke="#fff" stroke-width="2" stroke-linecap="round" stroke-linejoin="round">
			<path d="M12 3c4.97 0 9 4.03 9 9c0 4.97 -4.03 9 -9 9c-4.97 0 -9 -4.03 -9 -9c0 -4.97 4.03 -9 9 -9" fill="#fff" fill-opacity="0" stroke-dasharray="64" stroke-dashoffset="64">
				<animate attributeName="fill-opacity" values="0;1" begin="0.7s" dur="0.5s" fill="freeze" />
				<animate attributeName="stroke-dashoffset" values="64;0" dur="0.6s" fill="freeze" />
			</path>
			<path d="M9 9v1" stroke="#000" stroke-dasharray="2" stroke-dashoffset="2">
				<animate attributeName="stroke-dashoffset" values="2;0" begin="1.2s" dur="0.2s" fill="freeze" />
			</path>
			<path d="M15 9v1" stroke="#000" stroke-dasharray="2" stroke-dashoffset="2">
				<animate attributeName="stroke-dashoffset" values="2;0" begin="1.4s" dur="0.2s" fill="freeze" />
			</path>
			<path d="M12 15c-3.25 0 -4.5 0 -4.5 0c0 0 0.45 0 1 0c0.75 0 0.5 0 3.5 0c3 0 2.75 0 3.5 0c0.55 0 1 0 1 0c0 0 -1.25 0 -4.5 0Z" fill="#000" stroke="none">
				<animate attributeName="d" values="M12 15c-3.25 0 -4.5 0 -4.5 0c0 0 0.45 0 1 0c0.75 0 0.5 0 3.5 0c3 0 2.75 0 3.5 0c0.55 0 1 0 1 0c0 0 -1.25 0 -4.5 0Z;M12 13c-3.25 0 -4.5 2.45 -4.5 3c0 0.55 0.45 1 1 1c0.75 0 0.5 -0.5 3.5 -0.5c3 0 2.75 0.5 3.5 0.5c0.55 0 1 -0.45 1 -1c0 -0.55 -1.25 -3 -4.5 -3Z" begin="1.6s" dur="0.2s" fill="freeze" />
			</path>
		</g>
	</mask>
	<rect mask="url(#emoji-frown-open-mask)" width="24" height="24" fill="currentColor" />
</svg>
