<svg xmlns="http://www.w3.org/2000/svg" xmlns:xlink="http://www.w3.org/1999/xlink" width="24" height="24" preserveAspectRatio="xMidYMid meet" viewBox="0 0 24 24"><mask id="svgIDa"><path fill="none" stroke="#fff" stroke-linecap="round" stroke-width="2" d="M8.5 16C9 15 10 14 12 14C14 14 15 15 15.5 16M8.5 16C9.5 15.5 11 15.5 12 15.5C13 15.5 14.5 15.5 15.5 16"/></mask><path fill="none" stroke="currentColor" stroke-dasharray="60" stroke-dashoffset="60" stroke-linecap="round" stroke-width="2" d="M12 3C16.9706 3 21 7.02944 21 12C21 16.9706 16.9706 21 12 21C7.02944 21 3 16.9706 3 12C3 7.02944 7.02944 3 12 3Z"><animate fill="freeze" attributeName="stroke-dashoffset" dur="0.5s" values="60;0"/></path><g fill="currentColor"><rect width="0" height="7" x="6" y="12" mask="url(#svgIDa)"><animate fill="freeze" attributeName="width" begin="1s" dur="0.2s" values="0;12"/></rect><ellipse cx="9" cy="9.5" fill="none" rx="1" ry="1.5"><animate fill="freeze" attributeName="fill-opacity" begin="0.6s" dur="0.2s" values="0;1"/></ellipse><ellipse cx="15" cy="9.5" fill="none" rx="1" ry="1.5"><animate fill="freeze" attributeName="fill-opacity" begin="0.8s" dur="0.2s" values="0;1"/></ellipse></g></svg>