<svg xmlns="http://www.w3.org/2000/svg" xmlns:xlink="http://www.w3.org/1999/xlink" class="iconify iconify--line-md" width="24" height="24" preserveAspectRatio="xMidYMid meet" viewBox="0 0 24 24"><g fill="none"><circle cx="12" cy="12" r="9" fill="currentColor" fill-opacity="0.3" class="il-md-fill il-md-duration-0 il-md-delay-12"/><path d="M12 3C16.9706 3 21 7.02944 21 12C21 16.9706 16.9706 21 12 21C7.02944 21 3 16.9706 3 12C3 7.02944 7.02944 3 12 3Z" stroke="currentColor" stroke-width="2" stroke-linecap="round" class="il-md-length-70 il-md-duration-4 il-md-delay-0"/><path d="M8 14C8.5 15.5 9.79086 17 12 17C14.2091 17 15.5 15.5 16 14" stroke="currentColor" stroke-width="2" stroke-linecap="round" class="il-md-length-15 il-md-duration-2 il-md-delay-10"/><ellipse cx="9" cy="9.5" rx="1" ry="1.5" fill="currentColor" class="il-md-fill il-md-delay-4"></ellipse><path d="M15 8.5C15.8284 8.5 16.5 8.94772 16.5 9.5C16.5 10.0523 15.8284 10.5 15 10.5C14.1716 10.5 13.5 10.0523 13.5 9.5C13.5 8.94772 14.1716 8.5 15 8.5Z" fill="currentColor" class="il-md-fill il-md-delay-7"/></g></svg>