<svg xmlns="http://www.w3.org/2000/svg" width="24" height="24" viewBox="0 0 24 24">
	<mask id="emoji-cry-mask">
		<g fill="none" stroke="#fff" stroke-width="2" stroke-linecap="round" stroke-linejoin="round">
			<path d="M12 3c4.97 0 9 4.03 9 9c0 4.97 -4.03 9 -9 9c-4.97 0 -9 -4.03 -9 -9c0 -4.97 4.03 -9 9 -9" fill="#fff" fill-opacity="0" stroke-dasharray="64" stroke-dashoffset="64">
				<animate attributeName="fill-opacity" values="0;1" begin="0.7s" dur="0.5s" fill="freeze" />
				<animate attributeName="stroke-dashoffset" values="64;0" dur="0.6s" fill="freeze" />
			</path>
			<path d="M9 9v1" stroke="#000" stroke-dasharray="2" stroke-dashoffset="2">
				<animate attributeName="stroke-dashoffset" values="2;0" begin="1.2s" dur="0.2s" fill="freeze" />
			</path>
			<path d="M15 9v1" stroke="#000" stroke-dasharray="2" stroke-dashoffset="2">
				<animate attributeName="stroke-dashoffset" values="2;0" begin="1.4s" dur="0.2s" fill="freeze" />
			</path>
			<path d="M8 16c0.5 -1 1.79 -2 4 -2c2.21 0 3.5 1 4 2" stroke="#000" stroke-dasharray="12" stroke-dashoffset="12">
				<animate attributeName="stroke-dashoffset" values="12;0" begin="1.6s" dur="0.2s" fill="freeze" />
			</path>
			<path d="M9.55 12c1.19 1.88 2.45 4.18 2.45 5.5c0 2.5 -2 4.5 -4.5 4.5c-2.5 0 -4.5 -2 -4.5 -4.5c0 -1.32 1.26 -3.62 2.45 -5.5Z" fill="#fff" fill-opacity="0" stroke="none">
				<animate attributeName="fill-opacity" values="0;1" begin="1.4s" dur="0.2s" fill="freeze" />
			</path>
			<path d="M7.5 13c0 0 2.5 3.12 2.5 4.5c0 1.38 -1.12 2.5 -2.5 2.5c-1.38 0 -2.5 -1.12 -2.5 -2.5c0 -1.38 2.5 -4.5 2.5 -4.5Z" fill="#000" fill-opacity="0" stroke="none">
				<animate attributeName="fill-opacity" values="0;1" begin="1.4s" dur="0.2s" fill="freeze" />
			</path>
		</g>
	</mask>
	<rect mask="url(#emoji-cry-mask)" width="24" height="24" fill="currentColor" />
</svg>
