<svg xmlns="http://www.w3.org/2000/svg" width="24" height="24" viewBox="0 0 24 24">
	<defs>
		<mask id="SVGOILP8eDi">
			<g stroke="#fff" stroke-linecap="round" stroke-linejoin="round" stroke-width="2">
				<path d="M13.5 3l5.5 5.5v11.5c0 0.55 -0.45 1 -1 1h-12c-0.55 0 -1 -0.45 -1 -1v-16c0 -0.55 0.45 -1 1 -1Z" fill="none" stroke-dasharray="62">
					<animate attributeName="stroke-dashoffset" dur="0.6s" fill="freeze" values="62;0" />
				</path>
				<path d="M14 3.5l0 4.5l4.5 0Z" fill="#fff" opacity="0">
					<set attributeName="opacity" to="1" begin="0.6s" fill="freeze" />
					<animate attributeName="d" begin="0.6s" dur="0.2s" fill="freeze" values="M14 3.5l2.25 2.25l2.25 2.25Z;M14 3.5l0 4.5l4.5 0Z" />
				</path>
			</g>
			<path d="M19 13c3.31 0 6 2.69 6 6c0 3.31 -2.69 6 -6 6c-3.31 0 -6 -2.69 -6 -6c0 -3.31 2.69 -6 6 -6Z" fill="#000" opacity="0">
				<set attributeName="opacity" to="1" begin="0.8s" fill="freeze" />
			</path>
		</mask>
	</defs>
	<path d="M0 0h24v24H0z" fill="currentColor" mask="url(#SVGOILP8eDi)" />
	<path d="M16 19h6" stroke="currentColor" fill="none" stroke-width="2" stroke-linecap="round" stroke-linejoin="round" stroke-dasharray="8" stroke-dashoffset="8">
		<animate attributeName="stroke-dashoffset" begin="0.8s" dur="0.2s" fill="freeze" to="0" />
	</path>
</svg>
