<svg xmlns="http://www.w3.org/2000/svg" width="24" height="24" viewBox="0 0 24 24">
	<defs>
		<mask id="SVGMeXG1cVI">
			<g stroke="#fff" stroke-linecap="round" stroke-linejoin="round" stroke-width="2">
				<g fill="#fff">
					<path d="M13.5 3l5.5 5.5v11.5c0 0.55 -0.45 1 -1 1h-12c-0.55 0 -1 -0.45 -1 -1v-16c0 -0.55 0.45 -1 1 -1Z" fill-opacity="0" stroke-dasharray="62">
						<animate attributeName="stroke-dashoffset" dur="0.6s" fill="freeze" values="62;0" />
						<animate attributeName="fill-opacity" begin="1.6s" dur="0.15s" fill="freeze" to="0.3" />
					</path>
					<path d="M14 3.5l0 4.5l4.5 0Z" opacity="0">
						<set attributeName="opacity" to="1" begin="0.6s" fill="freeze" />
						<animate attributeName="d" begin="0.6s" dur="0.2s" fill="freeze" values="M14 3.5l2.25 2.25l2.25 2.25Z;M14 3.5l0 4.5l4.5 0Z" />
					</path>
				</g>
				<g fill="none">
					<path d="M9 13h6" stroke-dasharray="8" stroke-dashoffset="8">
						<animate attributeName="stroke-dashoffset" begin="0.8s" dur="0.2s" fill="freeze" to="0" />
					</path>
					<path d="M9 17h3" stroke-dasharray="6" stroke-dashoffset="6">
						<animate attributeName="stroke-dashoffset" begin="1s" dur="0.2s" fill="freeze" to="0" />
					</path>
				</g>
			</g>
			<path d="M19 13c3.31 0 6 2.69 6 6c0 3.31 -2.69 6 -6 6c-3.31 0 -6 -2.69 -6 -6c0 -3.31 2.69 -6 6 -6Z" fill="#000" opacity="0">
				<set attributeName="opacity" to="1" begin="1.2s" fill="freeze" />
			</path>
		</mask>
	</defs>
	<path d="M0 0h24v24H0z" fill="currentColor" mask="url(#SVGMeXG1cVI)" />
	<g fill="none" stroke="currentColor" stroke-linecap="round" stroke-linejoin="round" stroke-width="2" stroke-dasharray="8">
		<path d="M17 17l4 4" stroke-dashoffset="8">
			<animate attributeName="stroke-dashoffset" begin="1.2s" dur="0.2s" fill="freeze" to="0" />
		</path>
		<path d="M21 17l-4 4" stroke-dashoffset="8">
			<animate attributeName="stroke-dashoffset" begin="1.4s" dur="0.2s" fill="freeze" to="0" />
		</path>
	</g>
</svg>
