<svg xmlns="http://www.w3.org/2000/svg" width="24" height="24" viewBox="0 0 24 24">
	<defs>
		<mask id="SVG1yafpbgM">
			<g stroke="#fff" stroke-linecap="round" stroke-linejoin="round" stroke-width="2">
				<path d="M12 7h8c0.55 0 1 0.45 1 1v10c0 0.55 -0.45 1 -1 1h-16c-0.55 0 -1 -0.45 -1 -1v-11Z" fill="#fff" fill-opacity="0" stroke-dasharray="62">
					<animate attributeName="stroke-dashoffset" dur="0.6s" fill="freeze" values="62;0" />
					<animate attributeName="fill-opacity" begin="1.2s" dur="0.15s" fill="freeze" to="0.3" />
				</path>
				<path d="M12 7h-9v-1c0 -0.55 0.45 -1 1 -1h6Z" fill="none" opacity="0">
					<set attributeName="opacity" to="1" begin="0.6s" fill="freeze" />
					<animate attributeName="d" begin="0.6s" dur="0.2s" fill="freeze" values="M12 7h-9v0c0 0 0.45 0 1 0h6Z;M12 7h-9v-1c0 -0.55 0.45 -1 1 -1h6Z" />
				</path>
			</g>
			<path d="M19 13c3.31 0 6 2.69 6 6c0 3.31 -2.69 6 -6 6c-3.31 0 -6 -2.69 -6 -6c0 -3.31 2.69 -6 6 -6Z" fill="#000" opacity="0">
				<set attributeName="opacity" to="1" begin="0.8s" fill="freeze" />
			</path>
		</mask>
	</defs>
	<path d="M0 0h24v24H0z" fill="currentColor" mask="url(#SVG1yafpbgM)" />
	<g fill="none" stroke="currentColor" stroke-linecap="round" stroke-linejoin="round" stroke-width="2">
		<path d="M21 19h-5" stroke-dasharray="8" stroke-dashoffset="8">
			<animate attributeName="stroke-dashoffset" begin="0.8s" dur="0.2s" fill="freeze" to="0" />
		</path>
		<path d="M16 19l2 2M16 19l2 -2" stroke-dasharray="6" stroke-dashoffset="6">
			<animate attributeName="stroke-dashoffset" begin="1s" dur="0.2s" fill="freeze" to="0" />
		</path>
	</g>
</svg>
