<svg xmlns="http://www.w3.org/2000/svg" width="24" height="24" viewBox="0 0 24 24">
	<defs>
		<mask id="SVGHlEEIekn">
			<g stroke-linecap="round" stroke-linejoin="round">
				<g stroke="#fff" stroke-width="2">
					<path d="M12 7h8c0.55 0 1 0.45 1 1v10c0 0.55 -0.45 1 -1 1h-16c-0.55 0 -1 -0.45 -1 -1v-11Z" fill="#fff" fill-opacity="0" stroke-dasharray="62">
						<animate attributeName="stroke-dashoffset" dur="0.6s" fill="freeze" values="62;0" />
						<animate attributeName="fill-opacity" begin="1.4s" dur="0.15s" fill="freeze" to="0.3" />
					</path>
					<path d="M12 7h-9v-1c0 -0.55 0.45 -1 1 -1h6Z" fill="none" opacity="0">
						<set attributeName="opacity" to="1" begin="0.6s" fill="freeze" />
						<animate attributeName="d" begin="0.6s" dur="0.2s" fill="freeze" values="M12 7h-9v0c0 0 0.45 0 1 0h6Z;M12 7h-9v-1c0 -0.55 0.45 -1 1 -1h6Z" />
					</path>
				</g>
				<path d="M21 14h-2v6.5h2ZM19 20.5c0 0.83 -0.67 1.5 -1.5 1.5c-0.83 0 -1.5 -0.67 -1.5 -1.5c0 -0.83 0.67 -1.5 1.5 -1.5c0.83 0 1.5 0.67 1.5 1.5Z" stroke="#000" fill="#000" stroke-width="6" opacity="0">
					<set attributeName="opacity" to="1" begin="0.8s" fill="freeze" />
				</path>
			</g>
		</mask>
	</defs>
	<path d="M0 0h24v24H0z" fill="currentColor" mask="url(#SVGHlEEIekn)" />
	<g stroke="currentColor" stroke-linecap="round" stroke-linejoin="round" stroke-width="2" stroke-dasharray="12">
		<path d="M21 14h-2v6.5" fill="none" stroke-dashoffset="12">
			<animate attributeName="stroke-dashoffset" begin="0.8s" dur="0.2s" fill="freeze" to="0" />
		</path>
		<path d="M19 20.5c0 0.83 -0.67 1.5 -1.5 1.5c-0.83 0 -1.5 -0.67 -1.5 -1.5c0 -0.83 0.67 -1.5 1.5 -1.5c0.83 0 1.5 0.67 1.5 1.5Z" fill="currentColor" stroke-dashoffset="12" fill-opacity="0">
			<animate attributeName="stroke-dashoffset" begin="1s" dur="0.2s" fill="freeze" to="0" />
			<animate attributeName="fill-opacity" begin="1.2s" dur="0.2s" fill="freeze" to="1" />
		</path>
	</g>
</svg>
