<svg xmlns="http://www.w3.org/2000/svg" width="24" height="24" viewBox="0 0 24 24">
	<mask id="eyes" x="0" y="0" width="24" height="24">
		<g fill="white">
			<ellipse cx="9.5" cy="9" rx="1.5" ry="1" />
			<ellipse cx="14.5" cy="9" rx="1.5" ry="1" />
		</g>
	</mask>
	<g fill="none" stroke="currentColor" stroke-width="2" stroke-linecap="round" stroke-linejoin="round">
		<path d="M12 4C13.6683 4 14.6122 4.39991 15 4.5C15.5255 4.07463 16.9375 3 18.5 3C18.8438 4 18.7863 5.21921 18.5 6C19.25 7 19.5 8 19.5 9.5C19.5 11.6875 19.017 13.0822 18 14C16.983 14.9178 15.8887 15.3749 14.5 15.5C15.1506 16.038 15 17.3743 15 18C15 18.7256 15 21 15 21M12 4C10.3317 4 9.38784 4.39991 9 4.5C8.47455 4.07463 7.0625 3 5.5 3C5.15625 4 5.21371 5.21921 5.5 6C4.75 7 4.5 8 4.5 9.5C4.5 11.6875 4.98301 13.0822 6 14C7.01699 14.9178 8.1113 15.3749 9.5 15.5C8.84944 16.038 9 17.3743 9 18C9 18.7256 9 21 9 21" stroke-dasharray="30" stroke-dashoffset="30">
			<animate attributeName="stroke-dashoffset" values="30;0" dur="0.6s" fill="freeze" />
		</path>
		<path d="M9 19" stroke-dasharray="10" stroke-dashoffset="10">
			<animate attributeName="stroke-dashoffset" values="10;0" begin="0.7s" dur="0.2s" fill="freeze" />
			<animate attributeName="d" values="M9 19c-1.406 0-2.844-.563-3.688-1.188C4.47 17.188 4.22 16.157 3 15.5;M9 19c-1.406 0-3-.5-4-.5-.532 0-1 0-2-.5;M9 19c-1.406 0-2.844-.563-3.688-1.188C4.47 17.188 4.22 16.157 3 15.5" dur="3s" repeatCount="indefinite" />
		</path>
	</g>
	<rect mask="url(#eyes)" x="8" y="11" width="8" height="4" fill="currentColor">
		<animate attributeName="y" values="11;11;7;7;11;11" keyTimes="0;0.45;0.46;0.54;0.55;1" dur="10s" repeatCount="indefinite" />
	</rect>
</svg>
