<svg xmlns="http://www.w3.org/2000/svg" width="24" height="24" viewBox="0 0 24 24">
	<g fill="currentColor" stroke="currentColor" stroke-linecap="round" stroke-linejoin="round" stroke-dasharray="12">
		<path d="M3.5 5c0 -0.83 0.67 -1.5 1.5 -1.5c0.83 0 1.5 0.67 1.5 1.5c0 0.83 -0.67 1.5 -1.5 1.5c-0.83 0 -1.5 -0.67 -1.5 -1.5ZM10.5 5c0 -0.83 0.67 -1.5 1.5 -1.5c0.83 0 1.5 0.67 1.5 1.5c0 0.83 -0.67 1.5 -1.5 1.5c-0.83 0 -1.5 -0.67 -1.5 -1.5ZM17.5 5c0 -0.83 0.67 -1.5 1.5 -1.5c0.83 0 1.5 0.67 1.5 1.5c0 0.83 -0.67 1.5 -1.5 1.5c-0.83 0 -1.5 -0.67 -1.5 -1.5Z" fill-opacity="0">
			<animate attributeName="stroke-dashoffset" dur="0.2s" fill="freeze" values="12;0" />
			<animate attributeName="fill-opacity" begin="0.6s" dur="0.4s" fill="freeze" to="1" />
		</path>
		<path d="M3.5 12c0 -0.83 0.67 -1.5 1.5 -1.5c0.83 0 1.5 0.67 1.5 1.5c0 0.83 -0.67 1.5 -1.5 1.5c-0.83 0 -1.5 -0.67 -1.5 -1.5ZM10.5 12c0 -0.83 0.67 -1.5 1.5 -1.5c0.83 0 1.5 0.67 1.5 1.5c0 0.83 -0.67 1.5 -1.5 1.5c-0.83 0 -1.5 -0.67 -1.5 -1.5ZM17.5 12c0 -0.83 0.67 -1.5 1.5 -1.5c0.83 0 1.5 0.67 1.5 1.5c0 0.83 -0.67 1.5 -1.5 1.5c-0.83 0 -1.5 -0.67 -1.5 -1.5Z" stroke-dashoffset="12" fill-opacity="0">
			<animate attributeName="stroke-dashoffset" begin="0.2s" dur="0.2s" fill="freeze" to="0" />
			<animate attributeName="fill-opacity" begin="1.1s" dur="0.4s" fill="freeze" to="1" />
		</path>
		<path d="M3.5 19c0 -0.83 0.67 -1.5 1.5 -1.5c0.83 0 1.5 0.67 1.5 1.5c0 0.83 -0.67 1.5 -1.5 1.5c-0.83 0 -1.5 -0.67 -1.5 -1.5ZM10.5 19c0 -0.83 0.67 -1.5 1.5 -1.5c0.83 0 1.5 0.67 1.5 1.5c0 0.83 -0.67 1.5 -1.5 1.5c-0.83 0 -1.5 -0.67 -1.5 -1.5ZM17.5 19c0 -0.83 0.67 -1.5 1.5 -1.5c0.83 0 1.5 0.67 1.5 1.5c0 0.83 -0.67 1.5 -1.5 1.5c-0.83 0 -1.5 -0.67 -1.5 -1.5Z" stroke-dashoffset="12" fill-opacity="0">
			<animate attributeName="stroke-dashoffset" begin="0.4s" dur="0.2s" fill="freeze" to="0" />
			<animate attributeName="fill-opacity" begin="1.6s" dur="0.4s" fill="freeze" to="1" />
		</path>
	</g>
</svg>
