<svg xmlns="http://www.w3.org/2000/svg" xmlns:xlink="http://www.w3.org/1999/xlink" viewBox="0 0 24 24" class="iconify iconify--line-md" width="24" height="24"><g fill="none"><path d="M4 7V21" stroke="currentColor" stroke-width="2" class="il-md-length-15 il-md-duration-2 il-md-delay-0"/><path d="M4 3V5" stroke="currentColor" stroke-width="2" class="il-md-length-15 il-md-duration-2 il-md-delay-0"/><path d="M18 4.25204C17.3608 4.08751 16.6906 4 16 4C11.5817 4 8 7.58172 8 12C8 16.4183 11.5817 20 16 20C16.6906 20 17.3608 19.9125 18 19.748" stroke="currentColor" stroke-width="2" stroke-linecap="round" class="il-md-length-40 il-md-duration-3 il-md-delay-2"/><g><path d="M16 8C13.7909 8 12 9.79086 12 12C12 14.2091 13.7909 16 16 16C18.2091 16 20 14.2091 20 12C20 9.79086 18.2091 8 16 8Z" stroke="currentColor" stroke-width="2" stroke-linecap="round" class="il-md-length-40 il-md-duration-5 il-md-delay-5"/></g></g></svg>