<svg xmlns="http://www.w3.org/2000/svg" width="24" height="24" viewBox="0 0 24 24">
	<g fill="currentColor">
		<path d="M9.5 9c0 -0.52 -0.48 -1 -1 -1c-0.52 0 -1 0.48 -1 1v1.44c0 0.52 0.48 1.06 1 1.06c0.52 0 1 -0.48 1 -1v-1.5Z" fill-opacity="0">
			<animate attributeName="fill-opacity" values="0;1" begin="0.7s" dur="0.15s" fill="freeze" />
		</path>
		<path d="M16.5 9c0 -0.52 -0.48 -1 -1 -1c-0.52 0 -1 0.48 -1 1v1.44c0 0.52 0.48 1.06 1 1.06c0.52 0 1 -0.48 1 -1v-1.5Z" fill-opacity="0">
			<animate attributeName="fill-opacity" values="0;1" begin="0.85s" dur="0.15s" fill="freeze" />
		</path>
		<path d="M12 18c3.13 0 5.33 -2.88 5 -3.5c-0.33 -0.63 -1.5 1.5 -5 1.5c-3.5 0 -4.69 -2.13 -5 -1.5c-0.31 0.63 1.88 3.5 5 3.5Z" fill-opacity="0" fill-rule="evenodd" clip-rule="evenodd">
			<animate attributeName="fill-opacity" values="0;1" begin="1s" dur="0.15s" fill="freeze" />
		</path>
	</g>
	<g fill="none" stroke="currentColor" stroke-width="2" stroke-linecap="round" stroke-linejoin="round">
		<path d="M12 3c4.97 0 9 4.03 9 9c0 4.97 -4.03 9 -9 9c-4.97 0 -9 -4.03 -9 -9c0 -4.97 4.03 -9 9 -9Z" stroke-dasharray="64" stroke-dashoffset="64">
			<animate attributeName="stroke-dashoffset" values="64;0" dur="0.6s" fill="freeze" />
		</path>
	</g>
</svg>
