<svg xmlns="http://www.w3.org/2000/svg" width="24" height="24" viewBox="0 0 24 24">
	<g fill="none" stroke="currentColor" stroke-width="2" stroke-linecap="round" stroke-linejoin="round">
		<path d="M12 3H8C5.23858 3 3 5.23858 3 8V16C3 18.7614 5.23858 21 8 21H16C18.7614 21 21 18.7614 21 16V8C21 5.23858 18.7614 3 16 3z" stroke-dasharray="66" stroke-dashoffset="66">
			<animate attributeName="stroke-dashoffset" values="66;132" dur="0.6s" fill="freeze" />
		</path>
		<path d="M12 8C14.20914 8 16 9.79086 16 12C16 14.20914 14.20914 16 12 16C9.79086 16 8 14.2091 8 12C8 9.79086 9.79086 8 12 8" stroke-dasharray="26" stroke-dashoffset="26">
			<animate attributeName="stroke-dashoffset" values="26;0" begin="0.7s" dur="0.4s" fill="freeze" />
		</path>
	</g>
	<circle cx="17" cy="7" r="1.5" fill="currentColor" fill-opacity="0">
		<animate attributeName="fill-opacity" values="0;1" begin="1.1s" dur="0.4s" fill="freeze" />
	</circle>
</svg>
