<svg xmlns="http://www.w3.org/2000/svg" width="24" height="24" viewBox="0 0 24 24">
	<g fill="currentColor">
		<circle cx="17" cy="7" r="1.5" fill-opacity="0">
			<animate attributeName="fill-opacity" values="0;1" begin="1.3s" dur="0.15s" fill="freeze" />
		</circle>
	</g>
	<g fill="none" stroke="currentColor" stroke-width="2" stroke-linecap="round" stroke-linejoin="round">
		<path d="M16 3c2.76 0 5 2.24 5 5v8c0 2.76 -2.24 5 -5 5h-8c-2.76 0 -5 -2.24 -5 -5v-8c0 -2.76 2.24 -5 5 -5h4Z" stroke-dasharray="72" stroke-dashoffset="72">
			<animate attributeName="stroke-dashoffset" values="72;0" dur="0.6s" fill="freeze" />
		</path>
		<path d="M12 8c2.21 0 4 1.79 4 4c0 2.21 -1.79 4 -4 4c-2.21 0 -4 -1.79 -4 -4c0 -2.21 1.79 -4 4 -4" stroke-dasharray="28" stroke-dashoffset="28">
			<animate attributeName="stroke-dashoffset" values="28;0" begin="0.7s" dur="0.6s" fill="freeze" />
		</path>
	</g>
</svg>
