<svg xmlns="http://www.w3.org/2000/svg" width="24" height="24" viewBox="0 0 24 24">
	<defs>
		<mask id="SVGvQl53caQ">
			<g stroke-linecap="round" stroke-linejoin="round" stroke-dasharray="48">
				<path d="M10 20.5c0 0 -6 -7 -6 -11.5c0 -3.31 2.69 -6 6 -6c3.31 0 6 2.69 6 6c0 4.5 -6 11.5 -6 11.5Z" stroke="#fff" fill="none" stroke-width="2">
					<animate attributeName="stroke-dashoffset" dur="0.6s" fill="freeze" values="48;0" />
					<animateTransform attributeName="transform" type="rotate" dur="3s" repeatCount="indefinite" keyTimes="0;0.3;0.4;0.54;0.6;0.68;0.7;1" values="0 10 20.5;0 10 20.5;-8 10 20.5;0 10 20.5;5 10 20.5;-2 10 20.5;0 10 20.5;0 10 20.5" />
				</path>
				<path d="M14 20.5c0 0 -6 -7 -6 -11.5c0 -3.31 2.69 -6 6 -6c3.31 0 6 2.69 6 6c0 4.5 -6 11.5 -6 11.5Z" stroke="#000" fill="#000" stroke-width="4">
					<animate attributeName="stroke-dashoffset" dur="0.6s" fill="freeze" values="48;0" />
					<animateTransform attributeName="transform" type="rotate" dur="3s" repeatCount="indefinite" keyTimes="0;0.3;0.4;0.54;0.6;0.68;0.7;1" values="0 14 20.5;0 14 20.5;-8 14 20.5;0 14 20.5;5 14 20.5;-2 14 20.5;0 14 20.5;0 14 20.5" />
				</path>
			</g>
		</mask>
	</defs>
	<path d="M0 0h24v24H0z" fill="currentColor" mask="url(#SVGvQl53caQ)" />
	<path d="M14 20.5c0 0 -6 -7 -6 -11.5c0 -3.31 2.69 -6 6 -6c3.31 0 6 2.69 6 6c0 4.5 -6 11.5 -6 11.5Z" stroke="currentColor" fill="none" stroke-width="2" stroke-linecap="round" stroke-linejoin="round" stroke-dasharray="48">
		<animate attributeName="stroke-dashoffset" dur="0.6s" fill="freeze" values="48;0" />
		<animateTransform attributeName="transform" type="rotate" dur="3s" repeatCount="indefinite" keyTimes="0;0.3;0.4;0.54;0.6;0.68;0.7;1" values="0 14 20.5;0 14 20.5;-8 14 20.5;0 14 20.5;5 14 20.5;-2 14 20.5;0 14 20.5;0 14 20.5" />
	</path>
	<circle cx="14" cy="9" fill="currentColor">
		<animate attributeName="r" begin="0.7s" dur="0.2s" fill="freeze" to="2.5" />
	</circle>
</svg>
