<svg xmlns="http://www.w3.org/2000/svg" width="24" height="24" viewBox="0 0 24 24">
	<defs>
		<mask id="SVGEYFCcVmx">
			<g stroke-linecap="round" stroke-linejoin="round">
				<path d="M10 20.5c0 0 -6 -7 -6 -11.5c0 -3.31 2.69 -6 6 -6c3.31 0 6 2.69 6 6c0 4.5 -6 11.5 -6 11.5Z" stroke="#fff" fill="#fff" stroke-width="2" fill-opacity="0">
					<animate attributeName="d" dur="0.4s" fill="freeze" keyTimes="0;0.7;1" values="M10 20.5c0 0 -1 -1.5 -1 -2.5c0 -0.5 0.5 -1 1 -1c0.5 0 1 0.5 1 1c0 1 -1 2.5 -1 2.5Z;M10 20.5c0 0 -7 -7.5 -7 -12.5c0 -3.5 3 -7 7 -7c4 0 7 3.5 7 7c0 5 -7 12.5 -7 12.5Z;M10 20.5c0 0 -6 -7 -6 -11.5c0 -3.31 2.69 -6 6 -6c3.31 0 6 2.69 6 6c0 4.5 -6 11.5 -6 11.5Z" />
					<animate attributeName="fill-opacity" begin="0.4s" dur="0.15s" fill="freeze" to="0.3" />
				</path>
				<path d="M14 20.5c0 0 -6 -7 -6 -11.5c0 -3.31 2.69 -6 6 -6c3.31 0 6 2.69 6 6c0 4.5 -6 11.5 -6 11.5Z" stroke="#000" fill="#000" stroke-width="4" fill-opacity="0">
					<animate attributeName="d" dur="0.4s" fill="freeze" keyTimes="0;0.7;1" values="M14 20.5c0 0 -1 -1.5 -1 -2.5c0 -0.5 0.5 -1 1 -1c0.5 0 1 0.5 1 1c0 1 -1 2.5 -1 2.5Z;M14 20.5c0 0 -7 -7.5 -7 -12.5c0 -3.5 3 -7 7 -7c4 0 7 3.5 7 7c0 5 -7 12.5 -7 12.5Z;M14 20.5c0 0 -6 -7 -6 -11.5c0 -3.31 2.69 -6 6 -6c3.31 0 6 2.69 6 6c0 4.5 -6 11.5 -6 11.5Z" />
					<animate attributeName="fill-opacity" begin="0.4s" dur="0.15s" fill="freeze" to="1" />
				</path>
			</g>
		</mask>
	</defs>
	<g fill="currentColor">
		<path d="M0 0h24v24H0z" mask="url(#SVGEYFCcVmx)" />
		<path d="M14 20.5c0 0 -6 -7 -6 -11.5c0 -3.31 2.69 -6 6 -6c3.31 0 6 2.69 6 6c0 4.5 -6 11.5 -6 11.5Z" stroke="currentColor" stroke-width="2" stroke-linecap="round" stroke-linejoin="round" fill-opacity="0">
			<animate attributeName="d" dur="0.4s" fill="freeze" keyTimes="0;0.7;1" values="M14 20.5c0 0 -1 -1.5 -1 -2.5c0 -0.5 0.5 -1 1 -1c0.5 0 1 0.5 1 1c0 1 -1 2.5 -1 2.5Z;M14 20.5c0 0 -7 -7.5 -7 -12.5c0 -3.5 3 -7 7 -7c4 0 7 3.5 7 7c0 5 -7 12.5 -7 12.5Z;M14 20.5c0 0 -6 -7 -6 -11.5c0 -3.31 2.69 -6 6 -6c3.31 0 6 2.69 6 6c0 4.5 -6 11.5 -6 11.5Z" />
			<animate attributeName="fill-opacity" begin="0.4s" dur="0.15s" fill="freeze" to="0.3" />
		</path>
		<circle cx="14" cy="9">
			<animate attributeName="r" begin="0.65s" dur="0.2s" fill="freeze" to="2.5" />
		</circle>
	</g>
</svg>
