<svg xmlns="http://www.w3.org/2000/svg" width="24" height="24" viewBox="0 0 24 24">
	<defs>
		<mask id="SVGfSRVddCX">
			<g stroke-linecap="round" stroke-linejoin="round" stroke-dasharray="48">
				<path d="M10 20.5c0 0 -6 -7 -6 -11.5c0 -3.31 2.69 -6 6 -6c3.31 0 6 2.69 6 6c0 4.5 -6 11.5 -6 11.5Z" stroke="#fff" fill="none" stroke-width="2">
					<animate attributeName="stroke-dashoffset" dur="0.6s" fill="freeze" values="48;0" />
				</path>
				<path d="M14 20.5c0 0 -6 -7 -6 -11.5c0 -3.31 2.69 -6 6 -6c3.31 0 6 2.69 6 6c0 4.5 -6 11.5 -6 11.5Z" stroke="#000" fill="#000" stroke-width="4">
					<animate attributeName="stroke-dashoffset" dur="0.6s" fill="freeze" values="48;0" />
				</path>
				<path d="M14 20.5c0 0 -6 -7 -6 -11.5c0 -3.31 2.69 -6 6 -6c3.31 0 6 2.69 6 6c0 4.5 -6 11.5 -6 11.5Z" stroke="#fff" fill="none" stroke-width="2">
					<animate attributeName="stroke-dashoffset" dur="0.6s" fill="freeze" values="48;0" />
				</path>
			</g>
			<circle cx="14" cy="9" fill="#fff">
				<animate attributeName="r" begin="0.7s" dur="0.2s" fill="freeze" to="2.5" />
			</circle>
			<path d="M-1 11h26" stroke="#000" fill="none" stroke-width="2" stroke-linecap="round" stroke-linejoin="round" transform="rotate(45 12 12)" stroke-dasharray="28" stroke-dashoffset="28">
				<animate attributeName="stroke-dashoffset" begin="0.9s" dur="0.4s" fill="freeze" to="0" />
			</path>
		</mask>
	</defs>
	<path d="M0 0h24v24H0z" fill="currentColor" mask="url(#SVGfSRVddCX)" />
	<path d="M-1 13h26" stroke="currentColor" fill="none" stroke-width="2" stroke-linecap="round" stroke-linejoin="round" transform="rotate(45 12 12)" stroke-dasharray="28" stroke-dashoffset="28">
		<animate attributeName="stroke-dashoffset" begin="0.9s" dur="0.4s" fill="freeze" to="0" />
	</path>
</svg>
