<svg xmlns="http://www.w3.org/2000/svg" width="24" height="24" viewBox="0 0 24 24">
	<g stroke="currentColor" stroke-width="2" stroke-linecap="round" stroke-linejoin="round">
		<path d="M15.5 21.5C6 23.5 6.5 16.5 7.5 16.5C11 16.5 21 19 21 12.5V8.5C21 4.5 18.5 3 14 3H10C5.5 3 3 4 3 10V13C3 19 5 24 15.5 21.5Z" fill="currentColor" fill-opacity="0" stroke-dasharray="80" stroke-dashoffset="80">
			<animate attributeName="stroke-dashoffset" values="80;160" dur="0.6s" fill="freeze" />
			<animate attributeName="fill-opacity" values="0;0.3" begin="1.2s" dur="0.15s" fill="freeze" />
		</path>
		<path d="M7 13.5L7 8C7 8 7.5 6 9.5 6C11.5 6 12 8 12 8L12 10.5L12 8C12 8 12.5 6 14.5 6C16.5 6 17 8 17 8L17 13.5" fill="none" stroke-dasharray="32" stroke-dashoffset="32">
			<animate attributeName="stroke-dashoffset" values="32;0" dur="0.4s" begin="0.7s" fill="freeze" />
		</path>
	</g>
</svg>
