<svg xmlns="http://www.w3.org/2000/svg" width="24" height="24" viewBox="0 0 24 24">
	<g fill="none" stroke="currentColor" stroke-width="2" stroke-linecap="round" stroke-linejoin="round">
		<path d="M15.5 21.5c-10.5 2.5 -12.5 -2.5 -12.5 -8.5v-3c0 -6 2.5 -7 7 -7h4c4.5 0 7 1.5 7 5.5v4c0 6.5 -10 4 -13.5 4c-1 0 -1.5 7 8 5Z" stroke-dasharray="88" stroke-dashoffset="88">
			<animate attributeName="stroke-dashoffset" values="88;0" dur="0.6s" fill="freeze" />
		</path>
		<path d="M7 13.5l0 -5.5c0 0 0.5 -2 2.5 -2c2 0 2.5 2 2.5 2l0 2.5l0 -2.5c0 0 0.5 -2 2.5 -2c2 0 2.5 2 2.5 2l0 5.5" stroke-dasharray="32" stroke-dashoffset="32">
			<animate attributeName="stroke-dashoffset" values="32;0" begin="0.7s" dur="0.7s" fill="freeze" />
		</path>
	</g>
</svg>
