<svg xmlns="http://www.w3.org/2000/svg" width="24" height="24" viewBox="0 0 24 24">
	<defs>
		<mask id="SVG3NHnFRLV">
			<g stroke-linecap="round" stroke-linejoin="round">
				<path d="M7 6c0 6.08 4.92 11 11 11c0.53 0 1.05 -0.04 1.56 -0.11c-1.61 2.47 -4.39 4.11 -7.56 4.11c-4.97 0 -9 -4.03 -9 -9c0 -3.17 1.64 -5.95 4.11 -7.56c-0.07 0.51 -0.11 1.03 -0.11 1.56Z" stroke="#fff" fill="#fff" stroke-width="2" stroke-dasharray="56" fill-opacity="0">
					<animate attributeName="stroke-dashoffset" dur="0.6s" fill="freeze" values="56;0" />
					<animate attributeName="fill-opacity" begin="0.7s" dur="0.4s" fill="freeze" to="1" />
				</path>
				<g fill="none">
					<g stroke="#fff" stroke-dasharray="4">
						<path d="M12 5h1.5M12 5h-1.5M12 5v1.5M12 5v-1.5" stroke-dashoffset="4">
							<animate attributeName="stroke-dashoffset" begin="1.2s" dur="0.2s" fill="freeze" to="0" />
						</path>
						<path d="M17 11h1.5M17 11h-1.5M17 11v1.5M17 11v-1.5" stroke-dashoffset="4">
							<animate attributeName="stroke-dashoffset" begin="1.5s" dur="0.2s" fill="freeze" to="0" />
						</path>
						<path d="M20 5h1.5M20 5h-1.5M20 5v1.5M20 5v-1.5" stroke-dashoffset="4">
							<animate attributeName="stroke-dashoffset" begin="1.8s" dur="0.2s" fill="freeze" to="0" />
						</path>
					</g>
					<path d="M-1 11h26" stroke="#000" stroke-width="2" transform="rotate(45 12 12)" stroke-dasharray="28" stroke-dashoffset="28">
						<animate attributeName="stroke-dashoffset" begin="2.1s" dur="0.4s" fill="freeze" to="0" />
					</path>
				</g>
			</g>
		</mask>
	</defs>
	<path d="M0 0h24v24H0z" fill="currentColor" mask="url(#SVG3NHnFRLV)" />
	<path d="M-1 13h26" stroke="currentColor" fill="none" stroke-width="2" stroke-linecap="round" stroke-linejoin="round" transform="rotate(45 12 12)" stroke-dasharray="28" stroke-dashoffset="28">
		<animate attributeName="stroke-dashoffset" begin="2.1s" dur="0.4s" fill="freeze" to="0" />
	</path>
</svg>
