<svg xmlns="http://www.w3.org/2000/svg" width="24" height="24" viewBox="0 0 24 24">
	<g fill="currentColor" fill-opacity="0">
		<path d="M15.22 6.03L17.75 4.09L14.56 4L13.5 1L12.44 4L9.25 4.09L11.78 6.03L10.87 9.09L13.5 7.28L16.13 9.09L15.22 6.03Z">
			<animate attributeName="fill-opacity" values="0;1" begin="0.7s" dur="0.4s" fill="freeze" />
		</path>
		<path d="M19.61 12.25L21.25 11L19.19 10.95L18.5 9L17.81 10.95L15.75 11L17.39 12.25L16.8 14.23L18.5 13.06L20.2 14.23L19.61 12.25Z">
			<animate attributeName="fill-opacity" values="0;1" begin="1.1s" dur="0.4s" fill="freeze" />
		</path>
	</g>
	<g fill="currentColor" fill-opacity="0" stroke="currentColor" stroke-linecap="round" stroke-linejoin="round" stroke-width="2">
		<path d="M7 6 C7 12.08 11.92 17 18 17 C18.53 17 19.05 16.96 19.56 16.89 C17.95 19.36 15.17 21 12 21 C7.03 21 3 16.97 3 12 C3 8.83 4.64 6.05 7.11 4.44 C7.04 4.95 7 5.47 7 6 Z" stroke-dashoffset="56" stroke-dasharray="56">
			<animate attributeName="stroke-dashoffset" values="56;0" dur="0.6s" fill="freeze" />
			<animate attributeName="fill-opacity" values="0;0.3" begin="1.5s" dur="0.15s" fill="freeze" />
		</path>
	</g>
</svg>
