<svg xmlns="http://www.w3.org/2000/svg" width="24" height="24" viewBox="0 0 24 24">
	<defs>
		<mask id="SVGjixZJdFv">
			<path d="M12 6c3.31 0 6 2.69 6 6c0 3.31 -2.69 6 -6 6c-3.31 0 -6 -2.69 -6 -6c0 -3.31 2.69 -6 6 -6Z" fill="#fff">
				<animate attributeName="d" dur="0.4s" fill="freeze" values="M12 2c5.52 0 10 4.48 10 10c0 5.52 -4.48 10 -10 10c-5.52 0 -10 -4.48 -10 -10c0 -5.52 4.48 -10 10 -10Z;M12 6c3.31 0 6 2.69 6 6c0 3.31 -2.69 6 -6 6c-3.31 0 -6 -2.69 -6 -6c0 -3.31 2.69 -6 6 -6Z" />
			</path>
			<path d="M22 -4c3.31 0 6 2.69 6 6c0 3.31 -2.69 6 -6 6c-3.31 0 -6 -2.69 -6 -6c0 -3.31 2.69 -6 6 -6Z" fill="#000">
				<animate attributeName="d" dur="0.4s" fill="freeze" values="M18 -4c5.52 0 10 4.48 10 10c0 5.52 -4.48 10 -10 10c-5.52 0 -10 -4.48 -10 -10c0 -5.52 4.48 -10 10 -10Z;M22 -4c3.31 0 6 2.69 6 6c0 3.31 -2.69 6 -6 6c-3.31 0 -6 -2.69 -6 -6c0 -3.31 2.69 -6 6 -6Z" />
				<set attributeName="opacity" to="0" begin="0.4s" fill="freeze" />
			</path>
		</mask>
	</defs>
	<path d="M0 0h24v24H0z" fill="currentColor" mask="url(#SVGjixZJdFv)" />
	<g fill="none" stroke="currentColor" stroke-linecap="round" stroke-linejoin="round" stroke-width="2">
		<path d="M12 21v1M21 12h1M12 3v-1M3 12h-1" opacity="0">
			<animateTransform attributeName="transform" type="rotate" dur="30s" repeatCount="indefinite" values="0 12 12;360 12 12" />
			<set attributeName="opacity" to="1" begin="0.4s" fill="freeze" />
			<animate attributeName="d" begin="0.4s" dur="0.2s" fill="freeze" values="M12 19v1M19 12h1M12 5v-1M5 12h-1;M12 21v1M21 12h1M12 3v-1M3 12h-1" />
		</path>
		<path d="M18.5 18.5l0.5 0.5M18.5 5.5l0.5 -0.5M5.5 5.5l-0.5 -0.5M5.5 18.5l-0.5 0.5" opacity="0">
			<animateTransform attributeName="transform" type="rotate" dur="30s" repeatCount="indefinite" values="0 12 12;360 12 12" />
			<set attributeName="opacity" to="1" begin="0.6s" fill="freeze" />
			<animate attributeName="d" begin="0.6s" dur="0.2s" fill="freeze" values="M17 17l0.5 0.5M17 7l0.5 -0.5M7 7l-0.5 -0.5M7 17l-0.5 0.5;M18.5 18.5l0.5 0.5M18.5 5.5l0.5 -0.5M5.5 5.5l-0.5 -0.5M5.5 18.5l-0.5 0.5" />
		</path>
	</g>
</svg>
