<svg xmlns="http://www.w3.org/2000/svg" width="24" height="24" viewBox="0 0 24 24">
	<defs>
		<mask id="SVGCexKLYRo">
			<g fill="none" stroke="#fff" stroke-linecap="round" stroke-linejoin="round" stroke-width="2">
				<path d="M12 21h2.5c0.5 0 0.85 -0.5 0.85 -1c0 -0.5 -1.1 -4 -1.1 -4h-2.25M12 21h-2.5c-0.5 0 -0.85 -0.5 -0.85 -1c0 -0.5 1.1 -4 1.1 -4h2.25" stroke-dasharray="14">
					<animate attributeName="stroke-dashoffset" dur="0.4s" fill="freeze" values="14;0" />
				</path>
				<path d="M12 13h8c0.55 0 1 -0.45 1 -1c0 -4.97 -4.03 -9 -9 -9M12 13h-8c-0.55 0 -1 -0.45 -1 -1c0 -4.97 4.03 -9 9 -9" stroke-dasharray="26" stroke-dashoffset="26">
					<animate attributeName="stroke-dashoffset" begin="0.4s" dur="0.6s" fill="freeze" to="0" />
				</path>
			</g>
			<g fill="#fff">
				<circle cx="11" cy="4">
					<animate attributeName="r" begin="1s" dur="0.2s" fill="freeze" to="2" />
				</circle>
				<circle cx="7" cy="8">
					<animate attributeName="r" begin="1.2s" dur="0.2s" fill="freeze" to="2" />
				</circle>
				<circle cx="15" cy="8">
					<animate attributeName="r" begin="1.4s" dur="0.2s" fill="freeze" to="2" />
				</circle>
			</g>
			<path d="M-1 11h26" stroke="#000" fill="none" stroke-width="2" stroke-linecap="round" stroke-linejoin="round" transform="rotate(45 12 12)" stroke-dasharray="28" stroke-dashoffset="28">
				<animate attributeName="stroke-dashoffset" begin="1.6s" dur="0.4s" fill="freeze" to="0" />
			</path>
		</mask>
	</defs>
	<path d="M0 0h24v24H0z" fill="currentColor" mask="url(#SVGCexKLYRo)" />
	<path d="M-1 13h26" stroke="currentColor" fill="none" stroke-width="2" stroke-linecap="round" stroke-linejoin="round" transform="rotate(45 12 12)" stroke-dasharray="28" stroke-dashoffset="28">
		<animate attributeName="stroke-dashoffset" begin="1.6s" dur="0.4s" fill="freeze" to="0" />
	</path>
</svg>
