<svg xmlns="http://www.w3.org/2000/svg" width="24" height="24" viewBox="0 0 24 24">
	<path d="M6 15C6 9 12 4 12 4C12 4 14.9522 6.46019 16.715 10L6.8347 18C6.31173 17.2671 6 16.2894 6 15Z" fill="currentColor" fill-opacity="0">
		<animate attributeName="fill-opacity" values="0;1" begin="0.4s" dur="0.5s" fill="freeze" />
	</path>
	<path d="M12 4C12 4 18 9 18 15C18 19 15 20 12 20C9 20 6 19 6 15C6 9 12 4 12 4Z" fill="currentColor" fill-opacity="0">
		<animate attributeName="fill-opacity" values="0;0.3" begin="0.4s" dur="0.15s" fill="freeze" />
	</path>
	<path d="M12 3C12 3 19 9 19 15C19 17 18 21 12 21M12 3C12 3 5 9 5 15C5 17 6 21 12 21" fill="none" stroke="currentColor" stroke-width="2" stroke-linecap="round" stroke-dasharray="28" stroke-dashoffset="28">
		<animate attributeName="stroke-dashoffset" values="28;0" dur="0.4s" fill="freeze" />
	</path>
</svg>
