<svg xmlns="http://www.w3.org/2000/svg" width="24" height="24" viewBox="0 0 24 24">
	<mask id="person-search-mask">
		<g fill="none" stroke="#fff" stroke-width="2" stroke-linecap="round" stroke-linejoin="round">
			<path d="M10 5c1.66 0 3 1.34 3 3c0 1.66 -1.34 3 -3 3c-1.66 0 -3 -1.34 -3 -3c0 -1.66 1.34 -3 3 -3Z" stroke-dasharray="20" stroke-dashoffset="20">
				<animate attributeName="stroke-dashoffset" values="20;0" dur="0.4s" fill="freeze" />
			</path>
			<path d="M10 14c4 0 7 2 7 3v2h-14v-2c0 -1 3 -3 7 -3Z" stroke-dasharray="36" stroke-dashoffset="36">
				<animate attributeName="stroke-dashoffset" values="36;0" begin="0.5s" dur="0.5s" fill="freeze" />
			</path>
			<circle cx="16" cy="16" r="6" fill="black" fill-opacity="0" stroke="none">
				<animate attributeName="fill-opacity" values="0;1" begin="1.2s" dur="0.2s" fill="freeze" />
			</circle>
			<g transform="rotate(-45 16 16)">
				<path d="M16 19c-1.66 0 -3 -1.34 -3 -3c0 -1.66 1.34 -3 3 -3c1.66 0 3 1.34 3 3c0 1.66 -1.34 3 -3 3" stroke-dasharray="20" stroke-dashoffset="20">
					<animate attributeName="stroke-dashoffset" values="20;0" begin="1.2s" dur="0.2s" fill="freeze" />
				</path>
				<path d="M16 19v4" stroke-dasharray="6" stroke-dashoffset="6">
					<animate attributeName="stroke-dashoffset" values="6;0" begin="1.4s" dur="0.2s" fill="freeze" />
				</path>
			</g>
		</g>
	</mask>
	<rect mask="url(#person-search-mask)" width="24" height="24" fill="currentColor" />
</svg>
