<svg xmlns="http://www.w3.org/2000/svg" width="24" height="24" viewBox="0 0 24 24">
	<mask id="person-mask">
		<g stroke-width="2" stroke-linecap="round" stroke-linejoin="round">
			<g fill="white" stroke="white" fill-opacity="0">
				<path d="M10 5C11.66 5 13 6.34 13 8C13 9.65685 11.6569 11 10 11C8.3431 11 7 9.65685 7 8C7 6.34315 8.3431 5 10 5z" stroke-dasharray="20" stroke-dashoffset="20">
					<animate attributeName="stroke-dashoffset" values="20;0" dur="0.4s" fill="freeze" />
				</path>
				<path d="M10 15C14 15 17 17 17 18V19H3V18C3 17 6 15 10 15z" opacity="0" stroke-dasharray="36" stroke-dashoffset="36">
					<set attributeName="opacity" to="1" begin="0.5s" />
					<animate attributeName="stroke-dashoffset" values="36;0" begin="0.5s" dur="0.4s" fill="freeze" />
				</path>
				<animate attributeName="fill-opacity" values="0;1" begin="0.9s" dur="0.5s" fill="freeze" />
			</g>
			<circle cx="16" cy="16" r="6" fill="black" fill-opacity="0">
				<animate attributeName="fill-opacity" values="0;1" begin="1.5s" dur="0.15s" fill="freeze" />
			</circle>
			<path d="M16 19C14.34 19 13 17.66 13 16C13 14.34 14.34 13 16 13C 17.66 13 19 14.34 19 16C19 17.66 17.66 19 16 19v4z" fill="white" fill-opacity="0" stroke="white" transform="rotate(-45 16 16)" stroke-dasharray="30" stroke-dashoffset="30">
				<animate attributeName="stroke-dashoffset" values="30;0" begin="1.5s" dur="0.4s" fill="freeze" />
				<animate attributeName="fill-opacity" values="0;1" begin="1.9s" dur="0.4s" fill="freeze" />
			</path>
		</g>
	</mask>
	<rect mask="url(#person-mask)" width="24" height="24" fill="currentColor" />
</svg>
