<svg xmlns="http://www.w3.org/2000/svg" width="24" height="24" viewBox="0 0 24 24">
	<defs>
		<mask id="SVGdyxs1hDZ">
			<g stroke-linecap="round" stroke-linejoin="round" stroke-width="2">
				<path d="M8 3c0.5 0 2.5 4.5 2.5 5c0 1 -1.5 2 -2 3c-0.5 1 0.5 2 1.5 3c0.39 0.39 2 2 3 1.5c1 -0.5 2 -2 3 -2c0.5 0 5 2 5 2.5c0 2 -1.5 3.5 -3 4c-1.5 0.5 -2.5 0.5 -4.5 0c-2 -0.5 -3.5 -1 -6 -3.5c-2.5 -2.5 -3 -4 -3.5 -6c-0.5 -2 -0.5 -3 0 -4.5c0.5 -1.5 2 -3 4 -3Z" stroke="#fff" fill="#fff" fill-opacity="0" stroke-dasharray="62">
					<animate attributeName="stroke-dashoffset" dur="0.6s" fill="freeze" values="62;0" />
					<animate attributeName="fill-opacity" begin="0.7s" dur="0.15s" fill="freeze" to="0.3" />
				</path>
				<path d="M-1 11h26" stroke="#000" fill="none" transform="rotate(135 12 12)" stroke-dasharray="28" stroke-dashoffset="28">
					<animate attributeName="stroke-dashoffset" begin="0.95s" dur="0.4s" fill="freeze" to="0" />
				</path>
			</g>
		</mask>
	</defs>
	<path d="M0 0h24v24H0z" fill="currentColor" mask="url(#SVGdyxs1hDZ)" />
	<path d="M-1 13h26" stroke="currentColor" fill="none" stroke-width="2" stroke-linecap="round" stroke-linejoin="round" transform="rotate(135 12 12)" stroke-dasharray="28" stroke-dashoffset="28">
		<animate attributeName="stroke-dashoffset" begin="0.95s" dur="0.4s" fill="freeze" to="0" />
	</path>
</svg>
