<svg xmlns="http://www.w3.org/2000/svg" width="24" height="24" viewBox="0 0 24 24">
	<path d="M8 3c0.5 0 2.5 4.5 2.5 5c0 1 -1.5 2 -2 3c-0.5 1 0.5 2 1.5 3c0.39 0.39 2 2 3 1.5c1 -0.5 2 -2 3 -2c0.5 0 5 2 5 2.5c0 2 -1.5 3.5 -3 4c-1.5 0.5 -2.5 0.5 -4.5 0c-2 -0.5 -3.5 -1 -6 -3.5c-2.5 -2.5 -3 -4 -3.5 -6c-0.5 -2 -0.5 -3 0 -4.5c0.5 -1.5 2 -3 4 -3Z" stroke="currentColor" fill="currentColor" stroke-width="2" stroke-linecap="round" stroke-linejoin="round" stroke-dasharray="62" fill-opacity="0">
		<animate attributeName="stroke-dashoffset" dur="0.6s" fill="freeze" values="62;0" />
		<animateTransform attributeName="transform" type="rotate" dur="2.7s" repeatCount="indefinite" keyTimes="0;0.035;0.07;0.105;0.14;0.175;0.21;0.245;0.28;1" values="0 12 12;15 12 12;0 12 12;-12 12 12;0 12 12;12 12 12;0 12 12;-15 12 12;0 12 12;0 12 12" />
		<animate attributeName="fill-opacity" begin="0.7s" dur="0.4s" fill="freeze" to="1" />
	</path>
</svg>
