<svg xmlns="http://www.w3.org/2000/svg" width="24" height="24" viewBox="0 0 24 24">
	<g fill="currentColor" stroke="currentColor" stroke-width="2" stroke-linecap="round" stroke-linejoin="round" fill-opacity="0">
		<path d="M12 4h7c0.55 0 1 0.45 1 1v14c0 0.55 -0.45 1 -1 1h-14c-0.55 0 -1 -0.44 -1 -1v-14c0 -0.55 0.45 -1 1 -1Z" stroke-dasharray="64" stroke-dashoffset="64">
			<animate attributeName="stroke-dashoffset" values="64;0" dur="0.6s" fill="freeze" />
		</path>
		<path d="M9 10c0 -1.66 1.34 -3 3 -3c1.66 0 3 1.34 3 3c0 0.98 -0.47 1.85 -1.2 2.4c-0.73 0.55 -1.3 0.6 -1.8 1.6" fill="none" stroke-dasharray="16" stroke-dashoffset="16">
			<animate attributeName="stroke-dashoffset" values="16;0" begin="0.6s" dur="0.2s" fill="freeze" />
		</path>
		<path d="M12 17v0.01" fill="none" stroke-dasharray="2" stroke-dashoffset="2">
			<animate attributeName="stroke-dashoffset" values="2;0" begin="0.8s" dur="0.2s" fill="freeze" />
		</path>
		<animate attributeName="fill-opacity" values="0;0.3" begin="1.1s" dur="0.15s" fill="freeze" />
	</g>
</svg>
