<svg xmlns="http://www.w3.org/2000/svg" width="24" height="24" viewBox="0 0 24 24">
	<mask id="reddit-mask">
		<path d="M12 3c4.97 0 9 4.03 9 9c0 4.97 -4.03 9 -9 9c-4.97 0 -9 -4.03 -9 -9c0 -4.97 4.03 -9 9 -9Z" fill="#fff" fill-opacity="0" stroke="#fff" stroke-width="2" stroke-dasharray="64" stroke-dashoffset="64">
			<animate attributeName="fill-opacity" values="0;1" begin="0.6s" dur="0.5s" fill="freeze" />
			<animate attributeName="stroke-dashoffset" values="64;0" dur="0.5s" fill="freeze" />
		</path>
		<g fill="#000">
			<path d="M12 9.71c3.22 0 5.83 1.82 5.83 4.06c0 2.24 -2.61 4.06 -5.83 4.06c-3.22 0 -5.83 -1.82 -5.83 -4.06c0 -2.24 2.61 -4.06 5.83 -4.06Z" fill-opacity="0">
				<animate attributeName="fill-opacity" values="0;1" begin="1.1s" dur="0.4s" fill="freeze" />
			</path>
			<circle cx="8.99" cy="11.99" r="1.45" opacity="0">
				<animate attributeName="cx" values="8.99;6.79" begin="1.5s" dur="0.2s" fill="freeze" />
				<set attributeName="opacity" to="1" begin="1.5s" fill="freeze" />
			</circle>
			<circle cx="15.01" cy="11.99" r="1.45" opacity="0">
				<animate attributeName="cx" values="15.01;17.21" begin="1.5s" dur="0.2s" fill="freeze" />
				<set attributeName="opacity" to="1" begin="1.5s" fill="freeze" />
			</circle>
			<circle cx="16.18" cy="7.01" r="1.04" opacity="0">
				<set attributeName="opacity" to="1" begin="3.1s" fill="freeze" />
			</circle>
		</g>
		<path d="M12 9.91l0.76 -3.64l3.24 0.71" fill="none" stroke="#000" stroke-width="0.54" stroke-dasharray="10" stroke-dashoffset="10" stroke-linecap="round" stroke-linejoin="round">
			<animate attributeName="stroke-dashoffset" values="10;0" begin="2.9s" dur="0.2s" fill="freeze" />
		</path>
		<g fill="#fff">
			<circle cx="9.71" cy="13.04" r="1.04" fill-opacity="0">
				<animate attributeName="fill-opacity" values="0;1" begin="1.7s" dur="0.4s" fill="freeze" />
			</circle>
			<circle cx="14.29" cy="13.04" r="1.04" fill-opacity="0">
				<animate attributeName="fill-opacity" values="0;1" begin="2.1s" dur="0.4s" fill="freeze" />
			</circle>
		</g>
		<path d="M9.72 15.6c0 0 0.61 0.69 2.28 0.69c1.67 -0 2.28 -0.69 2.28 -0.69" fill="none" stroke="#fff" stroke-width="0.54" stroke-dasharray="6" stroke-dashoffset="6" stroke-linecap="round" stroke-linejoin="round">
			<animate attributeName="stroke-dashoffset" values="6;0" begin="2.5s" dur="0.2s" fill="freeze" />
		</path>
	</mask>
	<rect mask="url(#reddit-mask)" width="24" height="24" fill="currentColor" />
</svg>
