<svg xmlns="http://www.w3.org/2000/svg" width="24" height="24" viewBox="0 0 24 24">
	<mask id="reddit">
		<g stroke="#fff" stroke-linecap="round" stroke-width="2" fill="#fff">
			<path d="M12 3C16.9706 3 21 7.02944 21 12C21 16.9706 16.9706 21 12 21C7.02944 21 3 16.9706 3 12C3 7.02944 7.02944 3 12 3Z" fill-opacity="0" stroke-dasharray="60" stroke-dashoffset="60">
				<animate attributeName="stroke-dashoffset" values="60;0" dur="0.5s" fill="freeze" />
				<animate attributeName="fill-opacity" values="0;1" begin="0.6s" dur="0.5s" fill="freeze" />
			</path>
		</g>
		<g fill="#000" fill-opacity="0">
			<ellipse cx="12" cy="13.77" rx="5.83" ry="4.06">
				<animate attributeName="fill-opacity" values="0;1" begin="1.1s" dur="0.4s" fill="freeze" />
			</ellipse>
			<circle cx="8.99" cy="11.99" r="1.45">
				<set attributeName="fill-opacity" to="1" begin="1.5s" />
				<animate attributeName="cx" values="8.99;6.79" begin="1.5s" dur="0.2s" fill="freeze" />
			</circle>
			<circle cx="15.01" cy="11.99" r="1.45">
				<set attributeName="fill-opacity" to="1" begin="1.5s" />
				<animate attributeName="cx" values="15.01;17.21" begin="1.5s" dur="0.2s" fill="freeze" />
			</circle>
			<circle cx="16.18" cy="7.01" r="1.04">
				<set attributeName="fill-opacity" to="1" begin="3.1s" />
			</circle>
		</g>
		<path d="M12 9.91L12.76 6.27L16 6.98" stroke="#000" stroke-linecap="round" stroke-linejoin="round" stroke-width="0.54" fill="none" stroke-dasharray="8" stroke-dashoffset="8">
			<animate attributeName="stroke-dashoffset" values="8;0" begin="2.9s" dur="0.2s" fill="freeze" />
		</path>
		<g fill="#fff" fill-opacity="0">
			<circle cx="9.71" cy="13.04" r="1.04">
				<animate attributeName="fill-opacity" values="0;1" begin="1.7s" dur="0.4s" fill="freeze" />
			</circle>
			<circle cx="14.29" cy="13.04" r="1.04">
				<animate attributeName="fill-opacity" values="0;1" begin="2.1s" dur="0.4s" fill="freeze" />
			</circle>
		</g>
		<path d="M9.72 15.6C9.72 15.6 10.33 16.29 12 16.291C13.67 16.29 14.28 15.6 14.28 15.6" fill="none" stroke="#fff" stroke-linecap="round" stroke-width="0.54" stroke-dasharray="6" stroke-dashoffset="6">
			<animate attributeName="stroke-dashoffset" values="6;0" begin="2.5s" dur="0.2s" fill="freeze" />
		</path>
	</mask>
	<rect mask="url(#reddit)" width="24" height="24" fill="currentColor" />
</svg>
