<svg xmlns="http://www.w3.org/2000/svg" width="24" height="24" viewBox="0 0 24 24">
	<mask id="speed-mask">
		<path d="M5.64 19.36c-3.52 -3.51 -3.52 -9.21 0 -12.72c3.51 -3.52 9.21 -3.52 12.72 -0c3.52 3.51 3.52 9.21 0 12.72" fill="none" stroke="#fff" stroke-width="2" stroke-dasharray="48" stroke-dashoffset="48" stroke-linecap="round" stroke-linejoin="round">
			<animate attributeName="stroke-dashoffset" values="48;0" dur="0.6s" fill="freeze" />
		</path>
		<g transform="rotate(-100 12 13)">
			<path d="M12 14C12 14 12 14 12 14C12 14 12 14 12 14C12 14 12 14 12 14C12 14 12 14 12 14Z" fill="#000">
				<animate attributeName="d" values="M12 14C12 14 12 14 12 14C12 14 12 14 12 14C12 14 12 14 12 14C12 14 12 14 12 14Z;M17 13C17 15.7614 14.7614 18 12 18C9.23858 18 7 15.7614 7 13C7 10.2386 12 -2 12 -2C12 -2 17 10.2386 17 13Z" begin="0.4s" dur="0.2s" fill="freeze" />
			</path>
			<path d="M12 14C12 14 12 14 12 14C12 14 12 14 12 14C12 14 12 14 12 14C12 14 12 14 12 14Z" fill="#fff">
				<animate attributeName="d" values="M12 14C12 14 12 14 12 14C12 14 12 14 12 14C12 14 12 14 12 14C12 14 12 14 12 14Z;M15 13C15 14.6568 13.6569 16 12 16C10.3431 16 9 14.6568 9 13C9 11.3431 12 2 12 2C12 2 15 11.3431 15 13Z" begin="0.4s" dur="0.2s" fill="freeze" />
			</path>
			<animateTransform attributeName="transform" type="rotate" values="-100 12 13;65 12 13" begin="0.4s" dur="0.3s" fill="freeze" />
		</g>
	</mask>
	<rect mask="url(#speed-mask)" width="24" height="24" fill="currentColor" />
</svg>
