<svg xmlns="http://www.w3.org/2000/svg" width="24" height="24" viewBox="0 0 24 24">
	<mask id="speed-mask">
		<path d="M5 19v0c-0.3 0 -0.59 -0.15 -0.74 -0.41c-0.8 -1.34 -1.26 -2.91 -1.26 -4.59c0 -4.97 4.03 -9 9 -9c4.97 0 9 4.03 9 9c0 1.68 -0.46 3.25 -1.26 4.59c-0.15 0.26 -0.44 0.41 -0.74 0.41Z" fill="none" stroke="#fff" stroke-width="2" stroke-dasharray="56" stroke-dashoffset="56" stroke-linecap="round" stroke-linejoin="round">
			<animate attributeName="stroke-dashoffset" values="56;0" dur="0.6s" fill="freeze" />
		</path>
		<g transform="rotate(-100 12 14)">
			<path d="M12 14C12 14 12 14 12 14C12 14 12 14 12 14C12 14 12 14 12 14C12 14 12 14 12 14Z" fill="#000">
				<animate attributeName="d" values="M12 14C12 14 12 14 12 14C12 14 12 14 12 14C12 14 12 14 12 14C12 14 12 14 12 14Z;M16 14C16 16.21 14.21 18 12 18C9.79 18 8 16.21 8 14C8 11.79 12 0 12 0C12 0 16 11.79 16 14Z" begin="0.4s" dur="0.2s" fill="freeze" />
			</path>
			<path d="M12 14C12 14 12 14 12 14C12 14 12 14 12 14C12 14 12 14 12 14C12 14 12 14 12 14Z" fill="#fff">
				<animate attributeName="d" values="M12 14C12 14 12 14 12 14C12 14 12 14 12 14C12 14 12 14 12 14C12 14 12 14 12 14Z;M14 14C14 15.1 13.1 16 12 16C10.9 16 10 15.1 10 14C10 12.9 12 4 12 4C12 4 14 12.9 14 14Z" begin="0.4s" dur="0.2s" fill="freeze" />
			</path>
			<animateTransform attributeName="transform" type="rotate" values="-100 12 14;45 12 14;45 12 14;45 12 14;20 12 14;10 12 14;0 12 14;35 12 14;45 12 14;55 12 14;50 12 14;15 12 14;-20 12 14;-100 12 14" begin="0.4s" dur="6s" repeatCount="indefinite" />
		</g>
	</mask>
	<rect mask="url(#speed-mask)" width="24" height="24" fill="currentColor" />
</svg>
