<svg xmlns="http://www.w3.org/2000/svg" width="24" height="24" viewBox="0 0 24 24">
	<defs>
		<mask id="SVGMiOwteMk">
			<g stroke-linecap="round" stroke-linejoin="round" stroke-width="2">
				<path d="M12 7c2.76 0 5 2.24 5 5c0 2.76 -2.24 5 -5 5c-2.76 0 -5 -2.24 -5 -5c0 -2.76 2.24 -5 5 -5Z" stroke="#fff" fill="#fff" stroke-dasharray="34" fill-opacity="0">
					<animate attributeName="stroke-dashoffset" dur="0.4s" fill="freeze" values="34;0" />
					<animate attributeName="fill-opacity" begin="0.5s" dur="0.4s" fill="freeze" to="1" />
				</path>
				<g fill="none">
					<g stroke="#fff">
						<path d="M12 21v1M21 12h1M12 3v-1M3 12h-1" opacity="0">
							<set attributeName="opacity" to="1" begin="1s" fill="freeze" />
							<animate attributeName="d" begin="1s" dur="0.2s" fill="freeze" values="M12 19v1M19 12h1M12 5v-1M5 12h-1;M12 21v1M21 12h1M12 3v-1M3 12h-1" />
						</path>
						<path d="M18.5 18.5l0.5 0.5M18.5 5.5l0.5 -0.5M5.5 5.5l-0.5 -0.5M5.5 18.5l-0.5 0.5" opacity="0">
							<set attributeName="opacity" to="1" begin="1.2s" fill="freeze" />
							<animate attributeName="d" begin="1.2s" dur="0.2s" fill="freeze" values="M17 17l0.5 0.5M17 7l0.5 -0.5M7 7l-0.5 -0.5M7 17l-0.5 0.5;M18.5 18.5l0.5 0.5M18.5 5.5l0.5 -0.5M5.5 5.5l-0.5 -0.5M5.5 18.5l-0.5 0.5" />
						</path>
					</g>
					<path d="M-1 11h26" stroke="#000" transform="rotate(45 12 12)" stroke-dasharray="28" stroke-dashoffset="28">
						<animate attributeName="stroke-dashoffset" begin="1.4s" dur="0.4s" fill="freeze" to="0" />
					</path>
				</g>
			</g>
		</mask>
	</defs>
	<path d="M0 0h24v24H0z" fill="currentColor" mask="url(#SVGMiOwteMk)" />
	<path d="M-1 13h26" stroke="currentColor" fill="none" stroke-width="2" stroke-linecap="round" stroke-linejoin="round" transform="rotate(45 12 12)" stroke-dasharray="28" stroke-dashoffset="28">
		<animate attributeName="stroke-dashoffset" begin="1.4s" dur="0.4s" fill="freeze" to="0" />
	</path>
</svg>
