<svg xmlns="http://www.w3.org/2000/svg" xmlns:xlink="http://www.w3.org/1999/xlink" viewBox="0 0 24 24" class="iconify iconify--line-md" width="24" height="24"><g fill="none"><path d="M18.7219 9.29669C19.4001 8.50548 19.7969 7.67188 19.8906 7.34375L19.9453 7.15625C20.2262 6.427 19.6797 6.28125 19.2734 6.49219C18.5859 6.64844 18.125 6.55469 17.8047 6.34375C15.9297 4.3125 13.8616 4.94505 12.8726 5.65148C11.1489 6.97958 11.4597 8.562 11.4597 9.29669C10.8381 9.57926 7.02333 9.29669 4.64971 6.1036C3.63244 5.82103 3.23684 12.6876 8.26665 15.259C6.93856 17.2653 3.29335 16.8414 4.08456 17.8869C9.84907 20.7974 18.2698 17.9717 18.7219 9.29669Z" fill="currentColor" fill-opacity="0.3" class="il-md-fill il-md-duration-0 il-md-delay-8"/><path d="M19.8906 7.34375C19.7969 7.67188 19.4001 8.50548 18.7219 9.29669C18.2698 17.9717 9.84908 20.7974 4.08457 17.8869C3.29336 16.8414 6.93857 17.2653 8.26666 15.259C3.23684 12.6876 3.63245 5.82103 4.64971 6.1036C7.02334 9.29669 10.8381 9.57926 11.4597 9.29669C11.4597 8.562 11.1489 6.97958 12.8726 5.65148C13.8616 4.94505 15.9297 4.3125 17.8047 6.34375C18.125 6.55469 18.5859 6.64844 19.2734 6.49219C19.6797 6.28125 20.2262 6.427 19.9453 7.15625" stroke="currentColor" stroke-width="2" stroke-linecap="round" stroke-linejoin="round" class="il-md-length-70 il-md-duration-8 il-md-delay-0"/></g></svg>