<svg xmlns="http://www.w3.org/2000/svg" width="24" height="24" viewBox="0 0 24 24">
	<defs>
		<mask id="SVGZbtqGcoX">
			<g fill="#fff">
				<path d="M4 10h3.5l3.5 -3.5v10.5l-3.5 -3.5h-3.5Z" stroke="#fff" stroke-width="2" stroke-linecap="round" stroke-linejoin="round" fill-opacity="0" stroke-dasharray="34">
					<animate attributeName="stroke-dashoffset" dur="0.4s" fill="freeze" values="34;0" />
					<animate attributeName="fill-opacity" begin="0.8s" dur="0.15s" fill="freeze" to="0.3" />
				</path>
				<path d="M14 12c0 0 0 0 0 0c0 0 0 0 0 0Z">
					<animate attributeName="d" begin="0.4s" dur="0.2s" fill="freeze" to="M14 16c1.5 -0.71 2.5 -2.24 2.5 -4c0 -1.77 -1 -3.26 -2.5 -4Z" />
				</path>
				<path d="M14 12c0 0 0 0 0 0c0 0 0 0 0 0v0c0 0 0 0 0 0c0 0 0 0 0 0Z">
					<animate attributeName="d" begin="0.4s" dur="0.4s" fill="freeze" to="M14 3.23c4 0.91 7 4.49 7 8.77c0 4.28 -3 7.86 -7 8.77v-2.07c2.89 -0.86 5 -3.53 5 -6.7c0 -3.17 -2.11 -5.85 -5 -6.71Z" />
				</path>
			</g>
			<path d="M-1 11h26" stroke="#000" fill="none" stroke-width="2" stroke-linecap="round" stroke-linejoin="round" transform="rotate(45 12 12)" stroke-dasharray="28" stroke-dashoffset="28">
				<animate attributeName="stroke-dashoffset" begin="1.05s" dur="0.4s" fill="freeze" to="0" />
			</path>
		</mask>
	</defs>
	<path d="M0 0h24v24H0z" fill="currentColor" mask="url(#SVGZbtqGcoX)" />
	<path d="M-1 13h26" stroke="currentColor" fill="none" stroke-width="2" stroke-linecap="round" stroke-linejoin="round" transform="rotate(45 12 12)" stroke-dasharray="28" stroke-dashoffset="28">
		<animate attributeName="stroke-dashoffset" begin="1.05s" dur="0.4s" fill="freeze" to="0" />
	</path>
</svg>
