<svg xmlns="http://www.w3.org/2000/svg" width="24" height="24" viewBox="0 0 24 24">
	<defs>
		<mask id="SVG9wNSRb6i">
			<path d="M12 5c0 0 5 6 5 9c0 2.76 -2.24 5 -5 5c-2.76 0 -5 -2.24 -5 -5c0 -3 5 -9 5 -9Z" fill="#fff" fill-opacity="0">
				<animate attributeName="fill-opacity" begin="0.5s" dur="0.15s" fill="freeze" to="0.3" />
			</path>
			<g fill="none" stroke-linecap="round" stroke-linejoin="round" stroke-width="2">
				<path d="M12 5c0 0 5 6 5 9c0 2.76 -2.24 5 -5 5M12 5c0 0 -5 6 -5 9c0 2.76 2.24 5 5 5" stroke="#fff" stroke-dasharray="22">
					<animate attributeName="stroke-dashoffset" dur="0.5s" fill="freeze" values="22;0" />
				</path>
				<path d="M-1 11h26" stroke="#000" transform="rotate(45 12 12)" stroke-dasharray="28" stroke-dashoffset="28">
					<animate attributeName="stroke-dashoffset" begin="0.75s" dur="0.4s" fill="freeze" to="0" />
				</path>
			</g>
		</mask>
	</defs>
	<path d="M0 0h24v24H0z" fill="currentColor" mask="url(#SVG9wNSRb6i)" />
	<path d="M-1 13h26" stroke="currentColor" fill="none" stroke-width="2" stroke-linecap="round" stroke-linejoin="round" transform="rotate(45 12 12)" stroke-dasharray="28" stroke-dashoffset="28">
		<animate attributeName="stroke-dashoffset" begin="0.75s" dur="0.4s" fill="freeze" to="0" />
	</path>
</svg>
