<svg xmlns="http://www.w3.org/2000/svg" width="24" height="24" viewBox="0 0 24 24">
	<defs>
		<mask id="SVGKSg3zbwv">
			<g stroke-linecap="round" stroke-linejoin="round" fill-opacity="0">
				<path d="M10 20.5c0 0 -6.76 -7.38 -6.76 -12.26c0 -3.46 2.93 -6.76 6.76 -6.76c3.84 0 6.76 3.31 6.76 6.76c0 4.88 -6.76 12.26 -6.76 12.26Z" stroke="#fff" fill="#fff" stroke-width="2" />
				<path d="M14 20.5c0 0 -6.76 -7.38 -6.76 -12.26c0 -3.46 2.93 -6.76 6.76 -6.76c3.84 0 6.76 3.31 6.76 6.76c0 4.88 -6.76 12.26 -6.76 12.26Z" stroke="#000" fill="#000" stroke-width="4" />
				<path d="M14 20.5c0 0 -6.76 -7.38 -6.76 -12.26c0 -3.46 2.93 -6.76 6.76 -6.76c3.84 0 6.76 3.31 6.76 6.76c0 4.88 -6.76 12.26 -6.76 12.26Z" stroke="#fff" fill="#fff" stroke-width="2" />
			</g>
			<circle cx="14" cy="9" fill="#000" />
			<path d="M-1 11h26" stroke="#000" fill="none" stroke-width="2" stroke-linecap="round" stroke-linejoin="round" transform="rotate(45 12 12)" stroke-dasharray="28" stroke-dashoffset="28" />
		</mask>
	</defs>
	<path d="M0 0h24v24H0z" fill="currentColor" mask="url(#SVGKSg3zbwv)" />
	<path d="M-1 13h26" stroke="currentColor" fill="none" stroke-width="2" stroke-linecap="round" stroke-linejoin="round" transform="rotate(45 12 12)" stroke-dasharray="28" stroke-dashoffset="28" />
</svg>
