<svg xmlns="http://www.w3.org/2000/svg" width="24" height="24" viewBox="0 0 24 24">
	<defs>
		<mask id="SVGrEWi2bXB">
			<g stroke-linecap="round" stroke-linejoin="round" fill-opacity="0">
				<path d="M10 20.5c0 0 -6.54 -7.04 -6.54 -11.73c0 -3.27 2.81 -6.54 6.54 -6.54c3.73 0 6.54 3.27 6.54 6.54c0 4.69 -6.54 11.73 -6.54 11.73Z" stroke="#fff" fill="#fff" stroke-width="2" />
				<path d="M14 20.5c0 0 -6.54 -7.04 -6.54 -11.73c0 -3.27 2.81 -6.54 6.54 -6.54c3.73 0 6.54 3.27 6.54 6.54c0 4.69 -6.54 11.73 -6.54 11.73Z" stroke="#000" fill="#000" stroke-width="4" />
				<path d="M14 20.5c0 0 -6.54 -7.04 -6.54 -11.73c0 -3.27 2.81 -6.54 6.54 -6.54c3.73 0 6.54 3.27 6.54 6.54c0 4.69 -6.54 11.73 -6.54 11.73Z" stroke="#fff" fill="#fff" stroke-width="2" />
			</g>
			<circle cx="14" cy="9" fill="#000" />
		</mask>
	</defs>
	<path d="M0 0h24v24H0z" fill="currentColor" mask="url(#SVGrEWi2bXB)" />
</svg>
