<svg xmlns="http://www.w3.org/2000/svg" width="24" height="24" viewBox="0 0 24 24">
	<defs>
		<mask id="SVGSZ0UAbnF">
			<path d="M12 9c1.66 0 3 1.34 3 3c0 1.66 -1.34 3 -3 3c-1.66 0 -3 -1.34 -3 -3c0 -1.66 1.34 -3 3 -3ZM15.24 6.37c0.41 0.23 0.8 0.51 1.14 0.83c0.13 0.12 1.34 -0.21 1.45 -0.07c0.27 0.33 1.15 1.84 1.3 2.26c0.06 0.16 -0.83 1.04 -0.78 1.21c0.1 0.45 0.15 0.93 0.15 1.41M18.5 11.99c0.01 0.47 -0.04 0.95 -0.15 1.4c-0.04 0.17 0.85 1.05 0.79 1.22c-0.15 0.4 -1.02 1.91 -1.3 2.26c-0.11 0.13 -1.32 -0.19 -1.44 -0.08c-0.34 0.31 -0.73 0.59 -1.15 0.83M15.26 17.62c-0.4 0.24 -0.84 0.44 -1.29 0.57c-0.16 0.05 -0.49 1.26 -0.66 1.29c-0.43 0.07 -2.17 0.08 -2.61 0c-0.17 -0.03 -0.49 -1.24 -0.66 -1.28c-0.44 -0.14 -0.88 -0.34 -1.3 -0.58M8.76 17.63c-0.41 -0.23 -0.8 -0.51 -1.14 -0.83c-0.13 -0.12 -1.34 0.21 -1.45 0.07c-0.27 -0.33 -1.15 -1.84 -1.3 -2.26c-0.06 -0.16 0.83 -1.04 0.78 -1.21c-0.1 -0.45 -0.15 -0.93 -0.15 -1.41M5.5 12.01c-0.01 -0.47 0.04 -0.95 0.15 -1.4c0.04 -0.17 -0.85 -1.05 -0.79 -1.22c0.15 -0.4 1.02 -1.91 1.3 -2.26c0.11 -0.13 1.32 0.19 1.44 0.08c0.34 -0.31 0.73 -0.59 1.15 -0.83M8.74 6.38c0.4 -0.24 0.84 -0.44 1.29 -0.57c0.16 -0.05 0.49 -1.26 0.66 -1.29c0.43 -0.07 2.17 -0.08 2.61 0c0.17 0.03 0.49 1.24 0.66 1.28c0.44 0.14 0.88 0.34 1.3 0.58" fill="none" stroke="#fff" stroke-linecap="round" stroke-linejoin="round" stroke-width="2" />
		</mask>
	</defs>
	<path d="M0 0h24v24H0z" fill="currentColor" mask="url(#SVGSZ0UAbnF)" />
</svg>
