<svg xmlns="http://www.w3.org/2000/svg" width="24" height="24" viewBox="0 0 24 24">
	<defs>
		<mask id="SVGcOBdtc3B">
			<g fill="none" stroke-linecap="round" stroke-linejoin="round" stroke-width="2">
				<path d="M12 9c1.66 0 3 1.34 3 3c0 1.66 -1.34 3 -3 3c-1.66 0 -3 -1.34 -3 -3c0 -1.66 1.34 -3 3 -3ZM15.24 6.37c0.41 0.23 0.8 0.51 1.14 0.83c0.17 0.15 0.97 0.04 1.11 0.21c0.35 0.43 1.03 1.59 1.23 2.13c0.07 0.2 -0.43 0.84 -0.37 1.05c0.1 0.45 0.15 0.93 0.15 1.41M18.5 11.99c0.01 0.47 -0.04 0.95 -0.15 1.4c-0.05 0.22 0.45 0.86 0.38 1.07c-0.2 0.52 -0.86 1.69 -1.23 2.13c-0.14 0.16 -0.94 0.05 -1.1 0.2c-0.34 0.31 -0.73 0.59 -1.15 0.83M15.26 17.62c-0.4 0.24 -0.84 0.44 -1.29 0.57c-0.21 0.07 -0.52 0.82 -0.74 0.86c-0.55 0.09 -1.9 0.1 -2.46 0c-0.21 -0.04 -0.52 -0.79 -0.73 -0.85c-0.44 -0.14 -0.88 -0.34 -1.3 -0.58M8.76 17.63c-0.41 -0.23 -0.8 -0.51 -1.14 -0.83c-0.17 -0.15 -0.97 -0.04 -1.11 -0.21c-0.35 -0.43 -1.03 -1.59 -1.23 -2.13c-0.07 -0.2 0.43 -0.84 0.37 -1.05c-0.1 -0.45 -0.15 -0.93 -0.15 -1.41M5.5 12.01c-0.01 -0.47 0.04 -0.95 0.15 -1.4c0.05 -0.22 -0.45 -0.86 -0.38 -1.07c0.2 -0.52 0.86 -1.69 1.23 -2.13c0.14 -0.16 0.94 -0.05 1.1 -0.2c0.34 -0.31 0.73 -0.59 1.15 -0.83M8.74 6.38c0.4 -0.24 0.84 -0.44 1.29 -0.57c0.21 -0.07 0.52 -0.82 0.74 -0.86c0.55 -0.09 1.9 -0.1 2.46 0c0.21 0.04 0.52 0.79 0.73 0.85c0.44 0.14 0.88 0.34 1.3 0.58" stroke="#fff" />
				<path d="M0 11h24" stroke="#000" transform="rotate(45 12 12)" stroke-dasharray="26" stroke-dashoffset="26" />
			</g>
		</mask>
	</defs>
	<path d="M0 0h24v24H0z" fill="currentColor" mask="url(#SVGcOBdtc3B)" />
	<path d="M0 13h24" stroke="currentColor" fill="none" stroke-width="2" stroke-linecap="round" stroke-linejoin="round" transform="rotate(45 12 12)" stroke-dasharray="26" stroke-dashoffset="26" />
</svg>
