<svg xmlns="http://www.w3.org/2000/svg" width="24" height="24" viewBox="0 0 24 24">
	<defs>
		<mask id="SVG1nuVjdwE">
			<path d="M12 9c1.66 0 3 1.34 3 3c0 1.66 -1.34 3 -3 3c-1.66 0 -3 -1.34 -3 -3c0 -1.66 1.34 -3 3 -3ZM15.24 6.37c0.41 0.23 0.8 0.51 1.14 0.83c0.08 0.08 1.79 -0.52 1.87 -0.43c0.18 0.21 1.3 2.14 1.39 2.41c0.04 0.12 -1.32 1.3 -1.3 1.4c0.1 0.45 0.15 0.93 0.15 1.41M18.5 11.99c0.01 0.47 -0.04 0.95 -0.15 1.4c-0.02 0.11 1.35 1.29 1.3 1.41c-0.1 0.26 -1.21 2.19 -1.39 2.41c-0.08 0.09 -1.79 -0.5 -1.86 -0.42c-0.34 0.31 -0.73 0.59 -1.15 0.83M15.26 17.62c-0.4 0.24 -0.84 0.44 -1.29 0.57c-0.11 0.03 -0.45 1.82 -0.57 1.83c-0.27 0.05 -2.51 0.05 -2.79 0c-0.12 -0.03 -0.46 -1.79 -0.57 -1.82c-0.44 -0.14 -0.88 -0.34 -1.3 -0.58M8.76 17.63c-0.41 -0.23 -0.8 -0.51 -1.14 -0.83c-0.08 -0.08 -1.79 0.52 -1.87 0.43c-0.18 -0.21 -1.3 -2.14 -1.39 -2.41c-0.04 -0.12 1.32 -1.3 1.3 -1.4c-0.1 -0.45 -0.15 -0.93 -0.15 -1.41M5.5 12.01c-0.01 -0.47 0.04 -0.95 0.15 -1.4c0.02 -0.11 -1.35 -1.29 -1.3 -1.41c0.1 -0.26 1.21 -2.19 1.39 -2.41c0.08 -0.09 1.79 0.5 1.86 0.42c0.34 -0.31 0.73 -0.59 1.15 -0.83M8.74 6.38c0.4 -0.24 0.84 -0.44 1.29 -0.57c0.11 -0.03 0.45 -1.82 0.57 -1.83c0.27 -0.05 2.51 -0.05 2.79 0c0.12 0.03 0.46 1.79 0.57 1.82c0.44 0.14 0.88 0.34 1.3 0.58" fill="none" stroke="#fff" stroke-linecap="round" stroke-linejoin="round" stroke-width="2" />
		</mask>
	</defs>
	<path d="M0 0h24v24H0z" fill="currentColor" mask="url(#SVG1nuVjdwE)" />
</svg>
