<svg xmlns="http://www.w3.org/2000/svg" width="24" height="24" viewBox="0 0 24 24">
	<defs>
		<mask id="SVGJJOvUbJb">
			<path d="M12 9c1.66 0 3 1.34 3 3c0 1.66 -1.34 3 -3 3c-1.66 0 -3 -1.34 -3 -3c0 -1.66 1.34 -3 3 -3ZM15.24 6.37c0.41 0.23 0.8 0.51 1.14 0.83c0.05 0.04 2.16 -0.77 2.21 -0.71c0.1 0.12 1.41 2.39 1.47 2.54c0.03 0.08 -1.72 1.5 -1.71 1.56c0.1 0.45 0.15 0.93 0.15 1.41M18.5 11.99c0.01 0.47 -0.04 0.95 -0.15 1.4c-0.01 0.06 1.75 1.49 1.72 1.56c-0.05 0.14 -1.37 2.42 -1.47 2.54c-0.05 0.06 -2.16 -0.74 -2.21 -0.7c-0.34 0.31 -0.73 0.59 -1.15 0.83M15.26 17.62c-0.4 0.24 -0.84 0.44 -1.29 0.57c-0.06 0.02 -0.41 2.26 -0.49 2.27c-0.15 0.02 -2.78 0.03 -2.94 0c-0.08 -0.02 -0.44 -2.24 -0.5 -2.26c-0.44 -0.14 -0.88 -0.34 -1.3 -0.58M8.76 17.63c-0.41 -0.23 -0.8 -0.51 -1.14 -0.83c-0.05 -0.04 -2.16 0.77 -2.21 0.71c-0.1 -0.12 -1.41 -2.39 -1.47 -2.54c-0.03 -0.08 1.72 -1.5 1.71 -1.56c-0.1 -0.45 -0.15 -0.93 -0.15 -1.41M5.5 12.01c-0.01 -0.47 0.04 -0.95 0.15 -1.4c0.01 -0.06 -1.75 -1.49 -1.72 -1.56c0.05 -0.14 1.37 -2.42 1.47 -2.54c0.05 -0.06 2.16 0.74 2.21 0.7c0.34 -0.31 0.73 -0.59 1.15 -0.83M8.74 6.38c0.4 -0.24 0.84 -0.44 1.29 -0.57c0.06 -0.02 0.41 -2.26 0.49 -2.27c0.15 -0.02 2.78 -0.03 2.94 0c0.08 0.02 0.44 2.24 0.5 2.26c0.44 0.14 0.88 0.34 1.3 0.58" fill="none" stroke="#fff" stroke-linecap="round" stroke-linejoin="round" stroke-width="2" />
		</mask>
	</defs>
	<path d="M0 0h24v24H0z" fill="currentColor" mask="url(#SVGJJOvUbJb)" />
</svg>
