<svg xmlns="http://www.w3.org/2000/svg" width="24" height="24" viewBox="0 0 24 24">
	<path d="M12 18c0 0 -5.14 -6 -5.14 -9.86c0 -2.84 2.3 -5.14 5.14 -5.14c2.84 0 5.14 2.3 5.14 5.14c0 3.86 -5.14 9.86 -5.14 9.86Z" stroke="currentColor" fill="none" stroke-width="2" stroke-linecap="round" stroke-linejoin="round" stroke-dasharray="42" stroke-dashoffset="12.6" />
	<g fill="currentColor">
		<circle cx="12" cy="8.143" />
		<path d="M12 18c0 0 0 0 0 0c0 0 0 0 0 0l0 0c0 0 0 0 0 0c0 0 0 0 0 0c0 0 0 0 0 0c0 0 0 0 0 0l0 0c0 0 0 0 0 0c0 0 0 0 0 0Z" />
	</g>
</svg>
