<svg xmlns="http://www.w3.org/2000/svg" width="24" height="24" viewBox="0 0 24 24">
	<path d="M12 18c0 0 -5.14 -6 -5.14 -9.86c0 -2.84 2.3 -5.14 5.14 -5.14c2.84 0 5.14 2.3 5.14 5.14c0 3.86 -5.14 9.86 -5.14 9.86Z" stroke="currentColor" fill="none" stroke-width="2" stroke-linecap="round" stroke-linejoin="round" />
	<g fill="currentColor">
		<circle cx="12" cy="8.143" r="2.5" />
		<path d="M12 18.38c0.41 0 0.75 -0.14 0.75 -0.31c0 -0.09 -0.09 -0.16 -0.23 -0.23l0.07 -0.11c0.25 0.1 0.4 0.24 0.4 0.4c0 0.28 -0.45 0.5 -1 0.5c-0.55 0 -1 -0.23 -1 -0.5c0 -0.16 0.15 -0.3 0.39 -0.4l0.07 0.11c-0.13 0.06 -0.21 0.14 -0.21 0.23c0 0.17 0.34 0.31 0.75 0.31Z" />
	</g>
</svg>
