<svg xmlns="http://www.w3.org/2000/svg" width="24" height="24" viewBox="0 0 24 24">
	<path d="M12 18c0 0 -5.14 -6 -5.14 -9.86c0 -2.84 2.3 -5.14 5.14 -5.14c2.84 0 5.14 2.3 5.14 5.14c0 3.86 -5.14 9.86 -5.14 9.86Z" stroke="currentColor" fill="none" stroke-width="2" stroke-linecap="round" stroke-linejoin="round" />
	<g fill="currentColor">
		<circle cx="12" cy="8.143" r="2.5" />
		<path d="M12 20.63c2.89 0 5.25 -0.96 5.25 -2.19c0 -0.61 -0.61 -1.14 -1.57 -1.57l0.53 -0.79c1.75 0.7 2.8 1.66 2.8 2.8c0 1.93 -3.15 3.5 -7 3.5c-3.85 0 -7 -1.57 -7 -3.5c0 -1.14 1.05 -2.1 2.71 -2.8l0.53 0.79c-0.88 0.44 -1.49 0.96 -1.49 1.57c0 1.22 2.36 2.19 5.25 2.19Z" />
	</g>
</svg>
