<svg xmlns="http://www.w3.org/2000/svg" width="24" height="24" viewBox="0 0 24 24">
	<path d="M12 18c0 0 -5.14 -6 -5.14 -9.86c0 -2.84 2.3 -5.14 5.14 -5.14c2.84 0 5.14 2.3 5.14 5.14c0 3.86 -5.14 9.86 -5.14 9.86Z" stroke="currentColor" fill="none" stroke-width="2" stroke-linecap="round" stroke-linejoin="round" />
	<g fill="currentColor">
		<circle cx="12" cy="8.143" r="2.5" />
		<path d="M12 20.5c2.75 0 5 -0.92 5 -2.08c0 -0.58 -0.58 -1.08 -1.5 -1.5l0.5 -0.75c1.67 0.67 2.67 1.58 2.67 2.67c0 1.83 -3 3.33 -6.67 3.33c-3.67 0 -6.67 -1.5 -6.67 -3.33c0 -1.08 1 -2 2.58 -2.67l0.5 0.75c-0.83 0.42 -1.42 0.92 -1.42 1.5c0 1.17 2.25 2.08 5 2.08Z" />
	</g>
</svg>
