<svg xmlns="http://www.w3.org/2000/svg" width="24" height="24" viewBox="0 0 24 24">
	<path d="M12 21h8v-9c0 -1.1 -0.9 -2 -2 -2h-6M12 21h-8v-9c0 -1.1 0.9 -2 2 -2h6M12 10v-2M4 16h1c2 0 3.5 -2 3.5 -2c0 0 1.5 2 3.5 2c2 0 3.5 -2 3.5 -2c0 0 1.5 2 3.5 2h1" fill="none" stroke="currentColor" stroke-linecap="round" stroke-linejoin="round" stroke-width="2" />
	<path d="M13.87 4.13c0 1.02 -0.85 1.87 -1.87 1.87c-1.02 0 -1.87 -0.85 -1.87 -1.87c0 -1.02 1.87 -3.62 1.87 -3.62c0 0 1.87 2.6 1.87 3.62Z" fill="currentColor" />
</svg>
