<svg xmlns="http://www.w3.org/2000/svg" width="24" height="24" viewBox="0 0 24 24">
	<defs>
		<mask id="SVGDTOqddHG">
			<path d="M12 5.58c3.54 0 6.42 2.88 6.42 6.42c0 3.54 -2.88 6.42 -6.42 6.42c-3.54 0 -6.42 -2.88 -6.42 -6.42c0 -3.54 2.88 -6.42 6.42 -6.42Z" fill="#fff" />
			<path d="M21.58 -4c3.54 0 6.42 2.88 6.42 6.42c0 3.54 -2.88 6.42 -6.42 6.42c-3.54 0 -6.42 -2.88 -6.42 -6.42c0 -3.54 2.88 -6.42 6.42 -6.42ZM12 7.58c2.44 0 4.42 1.98 4.42 4.42c0 2.44 -1.98 4.42 -4.42 4.42c-2.44 0 -4.42 -1.98 -4.42 -4.42c0 -2.44 1.98 -4.42 4.42 -4.42Z" fill="#000" />
		</mask>
		<mask id="SVGEtOSxd7m">
			<path d="M21.58 -6c4.65 0 8.42 3.77 8.42 8.42c0 4.65 -3.77 8.42 -8.42 8.42c-4.65 0 -8.42 -3.77 -8.42 -8.42c0 -4.65 3.77 -8.42 8.42 -8.42Z" fill="#fff" />
			<path d="M21.58 -4c3.54 0 6.42 2.88 6.42 6.42c0 3.54 -2.88 6.42 -6.42 6.42c-3.54 0 -6.42 -2.88 -6.42 -6.42c0 -3.54 2.88 -6.42 6.42 -6.42ZM5.58 12v-20h26.42v26.42h-20c3.54 0 6.42 -2.88 6.42 -6.42c0 -3.54 -2.88 -6.42 -6.42 -6.42c-3.54 0 -6.42 2.88 -6.42 6.42Z" fill="#000" />
		</mask>
	</defs>
	<path d="M12 21v1M21 12h1M12 3v-1M3 12h-1M18.5 18.5l0.5 0.5M18.5 5.5l0.5 -0.5M5.5 5.5l-0.5 -0.5M5.5 18.5l-0.5 0.5" stroke="currentColor" fill="none" stroke-width="2" stroke-linecap="round" stroke-linejoin="round" opacity="0.896" />
	<g fill="currentColor">
		<path d="M0 0h24v24H0z" mask="url(#SVGDTOqddHG)" />
		<path d="M0 0h24v24H0z" mask="url(#SVGEtOSxd7m)" />
	</g>
	<path d="M12 5h1.5M12 5h-1.5M12 5v1.5M12 5v-1.5M17 11h1.5M17 11h-1.5M17 11v1.5M17 11v-1.5M20 5h1.5M20 5h-1.5M20 5v1.5M20 5v-1.5M12 4h1.5M12 4h-1.5M12 4v1.5M12 4v-1.5M18 12h1.5M18 12h-1.5M18 12v1.5M18 12v-1.5M19 4h1.5M19 4h-1.5M19 4v1.5M19 4v-1.5M13 4h1.5M13 4h-1.5M13 4v1.5M13 4v-1.5M19 11h1.5M19 11h-1.5M19 11v1.5M19 11v-1.5M20 5h1.5M20 5h-1.5M20 5v1.5M20 5v-1.5" stroke-dashoffset="4" fill="none" stroke="currentColor" stroke-linecap="round" stroke-linejoin="round" stroke-dasharray="4" />
</svg>
