<svg xmlns="http://www.w3.org/2000/svg" width="24" height="24" viewBox="0 0 24 24">
	<defs>
		<mask id="SVGlGc0Ydwz">
			<path d="M12 4.5c4.14 0 7.5 3.36 7.5 7.5c0 4.14 -3.36 7.5 -7.5 7.5c-4.14 0 -7.5 -3.36 -7.5 -7.5c0 -4.14 3.36 -7.5 7.5 -7.5Z" fill="#fff" />
			<path d="M20.5 -4c4.14 0 7.5 3.36 7.5 7.5c0 4.14 -3.36 7.5 -7.5 7.5c-4.14 0 -7.5 -3.36 -7.5 -7.5c0 -4.14 3.36 -7.5 7.5 -7.5ZM12 6.5c3.04 0 5.5 2.46 5.5 5.5c0 3.04 -2.46 5.5 -5.5 5.5c-3.04 0 -5.5 -2.46 -5.5 -5.5c0 -3.04 2.46 -5.5 5.5 -5.5Z" fill="#000" />
		</mask>
		<mask id="SVGgxhyjdhS">
			<path d="M20.5 -6c5.25 0 9.5 4.26 9.5 9.5c0 5.25 -4.26 9.5 -9.5 9.5c-5.25 0 -9.5 -4.26 -9.5 -9.5c0 -5.25 4.26 -9.5 9.5 -9.5Z" fill="#fff" />
			<path d="M20.5 -4c4.14 0 7.5 3.36 7.5 7.5c0 4.14 -3.36 7.5 -7.5 7.5c-4.14 0 -7.5 -3.36 -7.5 -7.5c0 -4.14 3.36 -7.5 7.5 -7.5ZM4.5 12v-20h27.5v27.5h-20c4.14 0 7.5 -3.36 7.5 -7.5c0 -4.14 -3.36 -7.5 -7.5 -7.5c-4.14 0 -7.5 3.36 -7.5 7.5Z" fill="#000" />
		</mask>
	</defs>
	<path d="M12 21v1M21 12h1M12 3v-1M3 12h-1M18.5 18.5l0.5 0.5M18.5 5.5l0.5 -0.5M5.5 5.5l-0.5 -0.5M5.5 18.5l-0.5 0.5" stroke="currentColor" fill="none" stroke-width="2" stroke-linecap="round" stroke-linejoin="round" opacity="0.625" />
	<g fill="currentColor">
		<path d="M0 0h24v24H0z" mask="url(#SVGlGc0Ydwz)" />
		<path d="M0 0h24v24H0z" mask="url(#SVGgxhyjdhS)" />
	</g>
</svg>
