<svg xmlns="http://www.w3.org/2000/svg" width="24" height="24" viewBox="0 0 24 24">
	<defs>
		<mask id="SVGtl9l2dhE">
			<path d="M12 4.83c3.95 0 7.17 3.21 7.17 7.17c0 3.95 -3.21 7.17 -7.17 7.17c-3.95 0 -7.17 -3.21 -7.17 -7.17c0 -3.95 3.21 -7.17 7.17 -7.17Z" fill="#fff" />
			<path d="M20.83 -4c3.95 0 7.17 3.21 7.17 7.17c0 3.95 -3.21 7.17 -7.17 7.17c-3.95 0 -7.17 -3.21 -7.17 -7.17c0 -3.95 3.21 -7.17 7.17 -7.17ZM12 6.83c2.85 0 5.17 2.31 5.17 5.17c0 2.85 -2.31 5.17 -5.17 5.17c-2.85 0 -5.17 -2.31 -5.17 -5.17c0 -2.85 2.31 -5.17 5.17 -5.17Z" fill="#000" />
		</mask>
		<mask id="SVGkDXiKbpD">
			<path d="M20.83 -6c5.06 0 9.17 4.11 9.17 9.17c0 5.06 -4.11 9.17 -9.17 9.17c-5.06 0 -9.17 -4.11 -9.17 -9.17c0 -5.06 4.11 -9.17 9.17 -9.17Z" fill="#fff" />
			<path d="M20.83 -4c3.95 0 7.17 3.21 7.17 7.17c0 3.95 -3.21 7.17 -7.17 7.17c-3.95 0 -7.17 -3.21 -7.17 -7.17c0 -3.95 3.21 -7.17 7.17 -7.17ZM4.83 12v-20h27.17v27.17h-20c3.95 0 7.17 -3.21 7.17 -7.17c0 -3.95 -3.21 -7.17 -7.17 -7.17c-3.95 0 -7.17 3.21 -7.17 7.17Z" fill="#000" />
		</mask>
	</defs>
	<path d="M12 21v1M21 12h1M12 3v-1M3 12h-1M18.5 18.5l0.5 0.5M18.5 5.5l0.5 -0.5M5.5 5.5l-0.5 -0.5M5.5 18.5l-0.5 0.5" stroke="currentColor" fill="none" stroke-width="2" stroke-linecap="round" stroke-linejoin="round" opacity="0.708" />
	<g fill="currentColor">
		<path d="M0 0h24v24H0z" mask="url(#SVGtl9l2dhE)" />
		<path d="M0 0h24v24H0z" mask="url(#SVGkDXiKbpD)" />
	</g>
	<path d="M12 5h1.5M12 5h-1.5M12 5v1.5M12 5v-1.5M17 11h1.5M17 11h-1.5M17 11v1.5M17 11v-1.5M20 5h1.5M20 5h-1.5M20 5v1.5M20 5v-1.5M12 4h1.5M12 4h-1.5M12 4v1.5M12 4v-1.5M18 12h1.5M18 12h-1.5M18 12v1.5M18 12v-1.5M19 4h1.5M19 4h-1.5M19 4v1.5M19 4v-1.5M13 4h1.5M13 4h-1.5M13 4v1.5M13 4v-1.5M19 11h1.5M19 11h-1.5M19 11v1.5M19 11v-1.5M20 5h1.5M20 5h-1.5M20 5v1.5M20 5v-1.5" stroke-dashoffset="4" fill="none" stroke="currentColor" stroke-linecap="round" stroke-linejoin="round" stroke-dasharray="4" />
</svg>
