<svg xmlns="http://www.w3.org/2000/svg" width="24" height="24" viewBox="0 0 24 24">
	<defs>
		<mask id="SVG8TSwCc9K">
			<path d="M12 4.08c4.37 0 7.92 3.55 7.92 7.92c0 4.37 -3.55 7.92 -7.92 7.92c-4.37 0 -7.92 -3.55 -7.92 -7.92c0 -4.37 3.55 -7.92 7.92 -7.92Z" fill="#fff" />
			<path d="M20.08 -4c4.37 0 7.92 3.55 7.92 7.92c0 4.37 -3.55 7.92 -7.92 7.92c-4.37 0 -7.92 -3.55 -7.92 -7.92c0 -4.37 3.55 -7.92 7.92 -7.92ZM12 6.08c3.27 0 5.92 2.65 5.92 5.92c0 3.27 -2.65 5.92 -5.92 5.92c-3.27 0 -5.92 -2.65 -5.92 -5.92c0 -3.27 2.65 -5.92 5.92 -5.92Z" fill="#000" />
		</mask>
		<mask id="SVGoSu3sejz">
			<path d="M20.08 -6c5.47 0 9.92 4.44 9.92 9.92c0 5.47 -4.44 9.92 -9.92 9.92c-5.47 0 -9.92 -4.44 -9.92 -9.92c0 -5.47 4.44 -9.92 9.92 -9.92Z" fill="#fff" />
			<path d="M20.08 -4c4.37 0 7.92 3.55 7.92 7.92c0 4.37 -3.55 7.92 -7.92 7.92c-4.37 0 -7.92 -3.55 -7.92 -7.92c0 -4.37 3.55 -7.92 7.92 -7.92ZM4.08 12v-20h27.92v27.92h-20c4.37 0 7.92 -3.55 7.92 -7.92c0 -4.37 -3.55 -7.92 -7.92 -7.92c-4.37 0 -7.92 3.55 -7.92 7.92Z" fill="#000" />
		</mask>
	</defs>
	<path d="M12 21v1M21 12h1M12 3v-1M3 12h-1M18.5 18.5l0.5 0.5M18.5 5.5l0.5 -0.5M5.5 5.5l-0.5 -0.5M5.5 18.5l-0.5 0.5" stroke="currentColor" fill="none" stroke-width="2" stroke-linecap="round" stroke-linejoin="round" opacity="0.521" />
	<g fill="currentColor">
		<path d="M0 0h24v24H0z" mask="url(#SVG8TSwCc9K)" />
		<path d="M0 0h24v24H0z" mask="url(#SVGoSu3sejz)" />
	</g>
	<path d="M12 5h1.5M12 5h-1.5M12 5v1.5M12 5v-1.5M17 11h1.5M17 11h-1.5M17 11v1.5M17 11v-1.5M20 5h1.5M20 5h-1.5M20 5v1.5M20 5v-1.5M12 4h1.5M12 4h-1.5M12 4v1.5M12 4v-1.5M18 12h1.5M18 12h-1.5M18 12v1.5M18 12v-1.5M19 4h1.5M19 4h-1.5M19 4v1.5M19 4v-1.5M13 4h1.5M13 4h-1.5M13 4v1.5M13 4v-1.5M19 11h1.5M19 11h-1.5M19 11v1.5M19 11v-1.5M20 5h1.5M20 5h-1.5M20 5v1.5M20 5v-1.5" stroke-dashoffset="4" fill="none" stroke="currentColor" stroke-linecap="round" stroke-linejoin="round" stroke-dasharray="4" />
</svg>
