<svg xmlns="http://www.w3.org/2000/svg" width="24" height="24" viewBox="0 0 24 24">
	<defs>
		<mask id="SVGKJY0Ld8b">
			<path d="M12 4.17c4.32 0 7.83 3.51 7.83 7.83c0 4.32 -3.51 7.83 -7.83 7.83c-4.32 0 -7.83 -3.51 -7.83 -7.83c0 -4.32 3.51 -7.83 7.83 -7.83Z" fill="#fff" />
			<path d="M20.17 -4c4.32 0 7.83 3.51 7.83 7.83c0 4.32 -3.51 7.83 -7.83 7.83c-4.32 0 -7.83 -3.51 -7.83 -7.83c0 -4.32 3.51 -7.83 7.83 -7.83ZM12 6.17c3.22 0 5.83 2.61 5.83 5.83c0 3.22 -2.61 5.83 -5.83 5.83c-3.22 0 -5.83 -2.61 -5.83 -5.83c0 -3.22 2.61 -5.83 5.83 -5.83Z" fill="#000" />
		</mask>
		<mask id="SVGhY4BhcKz">
			<path d="M20.17 -6c5.43 0 9.83 4.41 9.83 9.83c0 5.43 -4.41 9.83 -9.83 9.83c-5.43 0 -9.83 -4.41 -9.83 -9.83c0 -5.43 4.41 -9.83 9.83 -9.83Z" fill="#fff" />
			<path d="M20.17 -4c4.32 0 7.83 3.51 7.83 7.83c0 4.32 -3.51 7.83 -7.83 7.83c-4.32 0 -7.83 -3.51 -7.83 -7.83c0 -4.32 3.51 -7.83 7.83 -7.83ZM4.17 12v-20h27.83v27.83h-20c4.32 0 7.83 -3.51 7.83 -7.83c0 -4.32 -3.51 -7.83 -7.83 -7.83c-4.32 0 -7.83 3.51 -7.83 7.83Z" fill="#000" />
		</mask>
	</defs>
	<path d="M12 21v1M21 12h1M12 3v-1M3 12h-1M18.5 18.5l0.5 0.5M18.5 5.5l0.5 -0.5M5.5 5.5l-0.5 -0.5M5.5 18.5l-0.5 0.5" stroke="currentColor" fill="none" stroke-width="2" stroke-linecap="round" stroke-linejoin="round" opacity="0.542" />
	<g fill="currentColor">
		<path d="M0 0h24v24H0z" mask="url(#SVGKJY0Ld8b)" />
		<path d="M0 0h24v24H0z" mask="url(#SVGhY4BhcKz)" />
	</g>
	<path d="M12 5h1.5M12 5h-1.5M12 5v1.5M12 5v-1.5M17 11h1.5M17 11h-1.5M17 11v1.5M17 11v-1.5M20 5h1.5M20 5h-1.5M20 5v1.5M20 5v-1.5M12 4h1.5M12 4h-1.5M12 4v1.5M12 4v-1.5M18 12h1.5M18 12h-1.5M18 12v1.5M18 12v-1.5M19 4h1.5M19 4h-1.5M19 4v1.5M19 4v-1.5M13 4h1.5M13 4h-1.5M13 4v1.5M13 4v-1.5M19 11h1.5M19 11h-1.5M19 11v1.5M19 11v-1.5M20 5h1.5M20 5h-1.5M20 5v1.5M20 5v-1.5" stroke-dashoffset="4" fill="none" stroke="currentColor" stroke-linecap="round" stroke-linejoin="round" stroke-dasharray="4" />
</svg>
