<svg xmlns="http://www.w3.org/2000/svg" width="24" height="24" viewBox="0 0 24 24">
	<defs>
		<mask id="SVGX7gHeb3k">
			<path d="M12 4c4.42 0 8 3.59 8 8c0 4.42 -3.59 8 -8 8c-4.42 0 -8 -3.59 -8 -8c0 -4.42 3.59 -8 8 -8Z" fill="#fff" />
			<path d="M20 -4c4.42 0 8 3.59 8 8c0 4.42 -3.59 8 -8 8c-4.42 0 -8 -3.59 -8 -8c0 -4.42 3.59 -8 8 -8ZM12 6c3.32 0 6 2.69 6 6c0 3.32 -2.69 6 -6 6c-3.32 0 -6 -2.69 -6 -6c0 -3.32 2.69 -6 6 -6Z" fill="#000" />
		</mask>
		<mask id="SVG1Xr2peJI">
			<path d="M20 -6c5.52 0 10 4.48 10 10c0 5.52 -4.48 10 -10 10c-5.52 0 -10 -4.48 -10 -10c0 -5.52 4.48 -10 10 -10Z" fill="#fff" />
			<path d="M20 -4c4.42 0 8 3.59 8 8c0 4.42 -3.59 8 -8 8c-4.42 0 -8 -3.59 -8 -8c0 -4.42 3.59 -8 8 -8ZM4 12v-20h28v28h-20c4.42 0 8 -3.59 8 -8c0 -4.42 -3.59 -8 -8 -8c-4.42 0 -8 3.59 -8 8Z" fill="#000" />
		</mask>
	</defs>
	<path d="M12 21v1M21 12h1M12 3v-1M3 12h-1M18.5 18.5l0.5 0.5M18.5 5.5l0.5 -0.5M5.5 5.5l-0.5 -0.5M5.5 18.5l-0.5 0.5" stroke="currentColor" fill="none" stroke-width="2" stroke-linecap="round" stroke-linejoin="round" opacity="0.5" />
	<g fill="currentColor">
		<path d="M0 0h24v24H0z" mask="url(#SVGX7gHeb3k)" />
		<path d="M0 0h24v24H0z" mask="url(#SVG1Xr2peJI)" />
	</g>
	<path d="M12 5h1.5M12 5h-1.5M12 5v1.5M12 5v-1.5M17 11h1.5M17 11h-1.5M17 11v1.5M17 11v-1.5M20 5h1.5M20 5h-1.5M20 5v1.5M20 5v-1.5M12 4h1.5M12 4h-1.5M12 4v1.5M12 4v-1.5M18 12h1.5M18 12h-1.5M18 12v1.5M18 12v-1.5M19 4h1.5M19 4h-1.5M19 4v1.5M19 4v-1.5M13 4h1.5M13 4h-1.5M13 4v1.5M13 4v-1.5M19 11h1.5M19 11h-1.5M19 11v1.5M19 11v-1.5M20 5h1.5M20 5h-1.5M20 5v1.5M20 5v-1.5" stroke-dashoffset="4" fill="none" stroke="currentColor" stroke-linecap="round" stroke-linejoin="round" stroke-dasharray="4" />
</svg>
