<svg xmlns="http://www.w3.org/2000/svg" width="24" height="24" viewBox="0 0 24 24">
	<defs>
		<mask id="SVGQTyGMIud">
			<path d="M12 3.75c4.55 0 8.25 3.7 8.25 8.25c0 4.55 -3.7 8.25 -8.25 8.25c-4.55 0 -8.25 -3.7 -8.25 -8.25c0 -4.55 3.7 -8.25 8.25 -8.25Z" fill="#fff" />
			<path d="M19.75 -4c4.55 0 8.25 3.7 8.25 8.25c0 4.55 -3.7 8.25 -8.25 8.25c-4.55 0 -8.25 -3.7 -8.25 -8.25c0 -4.55 3.7 -8.25 8.25 -8.25ZM12 5.75c3.45 0 6.25 2.8 6.25 6.25c0 3.45 -2.8 6.25 -6.25 6.25c-3.45 0 -6.25 -2.8 -6.25 -6.25c0 -3.45 2.8 -6.25 6.25 -6.25Z" fill="#000" />
		</mask>
		<mask id="SVGB9G5pZhD">
			<path d="M19.75 -6c5.66 0 10.25 4.59 10.25 10.25c0 5.66 -4.59 10.25 -10.25 10.25c-5.66 0 -10.25 -4.59 -10.25 -10.25c0 -5.66 4.59 -10.25 10.25 -10.25Z" fill="#fff" />
			<path d="M19.75 -4c4.55 0 8.25 3.7 8.25 8.25c0 4.55 -3.7 8.25 -8.25 8.25c-4.55 0 -8.25 -3.7 -8.25 -8.25c0 -4.55 3.7 -8.25 8.25 -8.25ZM3.75 12v-20h28.25v28.25h-20c4.55 0 8.25 -3.7 8.25 -8.25c0 -4.55 -3.7 -8.25 -8.25 -8.25c-4.55 0 -8.25 3.7 -8.25 8.25Z" fill="#000" />
		</mask>
	</defs>
	<path d="M12 21v1M21 12h1M12 3v-1M3 12h-1M18.5 18.5l0.5 0.5M18.5 5.5l0.5 -0.5M5.5 5.5l-0.5 -0.5M5.5 18.5l-0.5 0.5" stroke="currentColor" fill="none" stroke-width="2" stroke-linecap="round" stroke-linejoin="round" opacity="0.437" />
	<g fill="currentColor">
		<path d="M0 0h24v24H0z" mask="url(#SVGQTyGMIud)" />
		<path d="M0 0h24v24H0z" mask="url(#SVGB9G5pZhD)" />
	</g>
	<path d="M12 5h1.5M12 5h-1.5M12 5v1.5M12 5v-1.5M17 11h1.5M17 11h-1.5M17 11v1.5M17 11v-1.5M20 5h1.5M20 5h-1.5M20 5v1.5M20 5v-1.5M12 4h1.5M12 4h-1.5M12 4v1.5M12 4v-1.5M18 12h1.5M18 12h-1.5M18 12v1.5M18 12v-1.5M19 4h1.5M19 4h-1.5M19 4v1.5M19 4v-1.5M13 4h1.5M13 4h-1.5M13 4v1.5M13 4v-1.5M19 11h1.5M19 11h-1.5M19 11v1.5M19 11v-1.5M20 5h1.5M20 5h-1.5M20 5v1.5M20 5v-1.5" stroke-dashoffset="4" fill="none" stroke="currentColor" stroke-linecap="round" stroke-linejoin="round" stroke-dasharray="4" />
</svg>
