<svg xmlns="http://www.w3.org/2000/svg" width="24" height="24" viewBox="0 0 24 24">
	<defs>
		<mask id="SVGZtuRQcIe">
			<path d="M12 3.5c4.69 0 8.5 3.81 8.5 8.5c0 4.69 -3.81 8.5 -8.5 8.5c-4.69 0 -8.5 -3.81 -8.5 -8.5c0 -4.69 3.81 -8.5 8.5 -8.5Z" fill="#fff" />
			<path d="M19.5 -4c4.69 0 8.5 3.81 8.5 8.5c0 4.69 -3.81 8.5 -8.5 8.5c-4.69 0 -8.5 -3.81 -8.5 -8.5c0 -4.69 3.81 -8.5 8.5 -8.5ZM12 5.5c3.59 0 6.5 2.91 6.5 6.5c0 3.59 -2.91 6.5 -6.5 6.5c-3.59 0 -6.5 -2.91 -6.5 -6.5c0 -3.59 2.91 -6.5 6.5 -6.5Z" fill="#000" />
		</mask>
		<mask id="SVGmGlZ2dRH">
			<path d="M19.5 -6c5.8 0 10.5 4.71 10.5 10.5c0 5.8 -4.71 10.5 -10.5 10.5c-5.8 0 -10.5 -4.71 -10.5 -10.5c0 -5.8 4.71 -10.5 10.5 -10.5Z" fill="#fff" />
			<path d="M19.5 -4c4.69 0 8.5 3.81 8.5 8.5c0 4.69 -3.81 8.5 -8.5 8.5c-4.69 0 -8.5 -3.81 -8.5 -8.5c0 -4.69 3.81 -8.5 8.5 -8.5ZM3.5 12v-20h28.5v28.5h-20c4.69 0 8.5 -3.81 8.5 -8.5c0 -4.69 -3.81 -8.5 -8.5 -8.5c-4.69 0 -8.5 3.81 -8.5 8.5Z" fill="#000" />
		</mask>
	</defs>
	<path d="M12 21v1M21 12h1M12 3v-1M3 12h-1M18.5 18.5l0.5 0.5M18.5 5.5l0.5 -0.5M5.5 5.5l-0.5 -0.5M5.5 18.5l-0.5 0.5" stroke="currentColor" fill="none" stroke-width="2" stroke-linecap="round" stroke-linejoin="round" opacity="0.375" />
	<g fill="currentColor">
		<path d="M0 0h24v24H0z" mask="url(#SVGZtuRQcIe)" />
		<path d="M0 0h24v24H0z" mask="url(#SVGmGlZ2dRH)" />
	</g>
	<path d="M12 5h1.5M12 5h-1.5M12 5v1.5M12 5v-1.5M17 11h1.5M17 11h-1.5M17 11v1.5M17 11v-1.5M20 5h1.5M20 5h-1.5M20 5v1.5M20 5v-1.5M12 4h1.5M12 4h-1.5M12 4v1.5M12 4v-1.5M18 12h1.5M18 12h-1.5M18 12v1.5M18 12v-1.5M19 4h1.5M19 4h-1.5M19 4v1.5M19 4v-1.5M13 4h1.5M13 4h-1.5M13 4v1.5M13 4v-1.5M19 11h1.5M19 11h-1.5M19 11v1.5M19 11v-1.5M20 5h1.5M20 5h-1.5M20 5v1.5M20 5v-1.5" stroke-dashoffset="4" fill="none" stroke="currentColor" stroke-linecap="round" stroke-linejoin="round" stroke-dasharray="4" />
</svg>
