<svg xmlns="http://www.w3.org/2000/svg" width="24" height="24" viewBox="0 0 24 24">
	<defs>
		<mask id="SVGlmQ5ibfl">
			<path d="M12 3.08c4.92 0 8.92 4 8.92 8.92c0 4.92 -4 8.92 -8.92 8.92c-4.92 0 -8.92 -4 -8.92 -8.92c0 -4.92 4 -8.92 8.92 -8.92Z" fill="#fff" />
			<path d="M19.08 -4c4.92 0 8.92 4 8.92 8.92c0 4.92 -4 8.92 -8.92 8.92c-4.92 0 -8.92 -4 -8.92 -8.92c0 -4.92 4 -8.92 8.92 -8.92ZM12 5.08c3.82 0 6.92 3.1 6.92 6.92c0 3.82 -3.1 6.92 -6.92 6.92c-3.82 0 -6.92 -3.1 -6.92 -6.92c0 -3.82 3.1 -6.92 6.92 -6.92Z" fill="#000" />
		</mask>
		<mask id="SVGzgm2ocKJ">
			<path d="M19.08 -6c6.02 0 10.92 4.89 10.92 10.92c0 6.02 -4.89 10.92 -10.92 10.92c-6.02 0 -10.92 -4.89 -10.92 -10.92c0 -6.02 4.89 -10.92 10.92 -10.92Z" fill="#fff" />
			<path d="M19.08 -4c4.92 0 8.92 4 8.92 8.92c0 4.92 -4 8.92 -8.92 8.92c-4.92 0 -8.92 -4 -8.92 -8.92c0 -4.92 4 -8.92 8.92 -8.92ZM3.08 12v-20h28.92v28.92h-20c4.92 0 8.92 -4 8.92 -8.92c0 -4.92 -4 -8.92 -8.92 -8.92c-4.92 0 -8.92 4 -8.92 8.92Z" fill="#000" />
		</mask>
	</defs>
	<path d="M12 21v1M21 12h1M12 3v-1M3 12h-1M18.5 18.5l0.5 0.5M18.5 5.5l0.5 -0.5M5.5 5.5l-0.5 -0.5M5.5 18.5l-0.5 0.5" stroke="currentColor" fill="none" stroke-width="2" stroke-linecap="round" stroke-linejoin="round" opacity="0.271" />
	<g fill="currentColor">
		<path d="M0 0h24v24H0z" mask="url(#SVGlmQ5ibfl)" />
		<path d="M0 0h24v24H0z" mask="url(#SVGzgm2ocKJ)" />
	</g>
</svg>
