<svg xmlns="http://www.w3.org/2000/svg" width="24" height="24" viewBox="0 0 24 24">
	<defs>
		<mask id="SVGcRqTcuLr">
			<path d="M12 2.92c5.01 0 9.08 4.07 9.08 9.08c0 5.01 -4.07 9.08 -9.08 9.08c-5.01 0 -9.08 -4.07 -9.08 -9.08c0 -5.01 4.07 -9.08 9.08 -9.08Z" fill="#fff" />
			<path d="M18.92 -4c5.01 0 9.08 4.07 9.08 9.08c0 5.01 -4.07 9.08 -9.08 9.08c-5.01 0 -9.08 -4.07 -9.08 -9.08c0 -5.01 4.07 -9.08 9.08 -9.08ZM12 4.92c3.91 0 7.08 3.17 7.08 7.08c0 3.91 -3.17 7.08 -7.08 7.08c-3.91 0 -7.08 -3.17 -7.08 -7.08c0 -3.91 3.17 -7.08 7.08 -7.08Z" fill="#000" />
		</mask>
		<mask id="SVGvlbhgbhN">
			<path d="M18.92 -6c6.12 0 11.08 4.97 11.08 11.08c0 6.12 -4.97 11.08 -11.08 11.08c-6.12 0 -11.08 -4.97 -11.08 -11.08c0 -6.12 4.97 -11.08 11.08 -11.08Z" fill="#fff" />
			<path d="M18.92 -4c5.01 0 9.08 4.07 9.08 9.08c0 5.01 -4.07 9.08 -9.08 9.08c-5.01 0 -9.08 -4.07 -9.08 -9.08c0 -5.01 4.07 -9.08 9.08 -9.08ZM2.92 12v-20h29.08v29.08h-20c5.01 0 9.08 -4.07 9.08 -9.08c0 -5.01 -4.07 -9.08 -9.08 -9.08c-5.01 0 -9.08 4.07 -9.08 9.08Z" fill="#000" />
		</mask>
	</defs>
	<path d="M12 21v1M21 12h1M12 3v-1M3 12h-1M18.5 18.5l0.5 0.5M18.5 5.5l0.5 -0.5M5.5 5.5l-0.5 -0.5M5.5 18.5l-0.5 0.5" stroke="currentColor" fill="none" stroke-width="2" stroke-linecap="round" stroke-linejoin="round" opacity="0.229" />
	<g fill="currentColor">
		<path d="M0 0h24v24H0z" mask="url(#SVGcRqTcuLr)" />
		<path d="M0 0h24v24H0z" mask="url(#SVGvlbhgbhN)" />
	</g>
</svg>
