<svg xmlns="http://www.w3.org/2000/svg" width="24" height="24" viewBox="0 0 24 24">
	<defs>
		<mask id="SVGDQTGhbTf">
			<path d="M12 2.08c5.47 0 9.92 4.44 9.92 9.92c0 5.47 -4.44 9.92 -9.92 9.92c-5.47 0 -9.92 -4.44 -9.92 -9.92c0 -5.47 4.44 -9.92 9.92 -9.92Z" fill="#fff" />
			<path d="M18.08 -4c5.47 0 9.92 4.44 9.92 9.92c0 5.47 -4.44 9.92 -9.92 9.92c-5.47 0 -9.92 -4.44 -9.92 -9.92c0 -5.47 4.44 -9.92 9.92 -9.92ZM12 4.08c4.37 0 7.92 3.54 7.92 7.92c0 4.37 -3.54 7.92 -7.92 7.92c-4.37 0 -7.92 -3.54 -7.92 -7.92c0 -4.37 3.54 -7.92 7.92 -7.92Z" fill="#000" />
		</mask>
		<mask id="SVGKAkcRpfO">
			<path d="M18.08 -6c6.57 0 11.92 5.34 11.92 11.92c0 6.57 -5.34 11.92 -11.92 11.92c-6.57 0 -11.92 -5.34 -11.92 -11.92c0 -6.57 5.34 -11.92 11.92 -11.92Z" fill="#fff" />
			<path d="M18.08 -4c5.47 0 9.92 4.44 9.92 9.92c0 5.47 -4.44 9.92 -9.92 9.92c-5.47 0 -9.92 -4.44 -9.92 -9.92c0 -5.47 4.44 -9.92 9.92 -9.92ZM2.08 12v-20h29.92v29.92h-20c5.47 0 9.92 -4.44 9.92 -9.92c0 -5.47 -4.44 -9.92 -9.92 -9.92c-5.47 0 -9.92 4.44 -9.92 9.92Z" fill="#000" />
		</mask>
	</defs>
	<path d="M12 21v1M21 12h1M12 3v-1M3 12h-1M18.5 18.5l0.5 0.5M18.5 5.5l0.5 -0.5M5.5 5.5l-0.5 -0.5M5.5 18.5l-0.5 0.5" stroke="currentColor" fill="none" stroke-width="2" stroke-linecap="round" stroke-linejoin="round" opacity="0.021" />
	<g fill="currentColor">
		<path d="M0 0h24v24H0z" mask="url(#SVGDQTGhbTf)" />
		<path d="M0 0h24v24H0z" mask="url(#SVGKAkcRpfO)" />
	</g>
	<path d="M12 5h1.5M12 5h-1.5M12 5v1.5M12 5v-1.5M17 11h1.5M17 11h-1.5M17 11v1.5M17 11v-1.5M20 5h1.5M20 5h-1.5M20 5v1.5M20 5v-1.5M12 4h1.5M12 4h-1.5M12 4v1.5M12 4v-1.5M18 12h1.5M18 12h-1.5M18 12v1.5M18 12v-1.5M19 4h1.5M19 4h-1.5M19 4v1.5M19 4v-1.5M13 4h1.5M13 4h-1.5M13 4v1.5M13 4v-1.5M19 11h1.5M19 11h-1.5M19 11v1.5M19 11v-1.5M20 5h1.5M20 5h-1.5M20 5v1.5M20 5v-1.5" stroke-dashoffset="4" fill="none" stroke="currentColor" stroke-linecap="round" stroke-linejoin="round" stroke-dasharray="4" />
</svg>
