<svg xmlns="http://www.w3.org/2000/svg" width="24" height="24" viewBox="0 0 24 24">
	<defs>
		<mask id="SVGIdvf0dKM">
			<path d="M12 2.58c5.2 0 9.42 4.22 9.42 9.42c0 5.2 -4.22 9.42 -9.42 9.42c-5.2 0 -9.42 -4.22 -9.42 -9.42c0 -5.2 4.22 -9.42 9.42 -9.42Z" fill="#fff" />
			<path d="M18.58 -4c5.2 0 9.42 4.22 9.42 9.42c0 5.2 -4.22 9.42 -9.42 9.42c-5.2 0 -9.42 -4.22 -9.42 -9.42c0 -5.2 4.22 -9.42 9.42 -9.42ZM12 4.58c4.1 0 7.42 3.32 7.42 7.42c0 4.1 -3.32 7.42 -7.42 7.42c-4.1 0 -7.42 -3.32 -7.42 -7.42c0 -4.1 3.32 -7.42 7.42 -7.42Z" fill="#000" />
		</mask>
		<mask id="SVGraZXOddP">
			<path d="M18.58 -6c6.3 0 11.42 5.12 11.42 11.42c0 6.3 -5.12 11.42 -11.42 11.42c-6.3 0 -11.42 -5.12 -11.42 -11.42c0 -6.3 5.12 -11.42 11.42 -11.42Z" fill="#fff" />
			<path d="M18.58 -4c5.2 0 9.42 4.22 9.42 9.42c0 5.2 -4.22 9.42 -9.42 9.42c-5.2 0 -9.42 -4.22 -9.42 -9.42c0 -5.2 4.22 -9.42 9.42 -9.42ZM2.58 12v-20h29.42v29.42h-20c5.2 0 9.42 -4.22 9.42 -9.42c0 -5.2 -4.22 -9.42 -9.42 -9.42c-5.2 0 -9.42 4.22 -9.42 9.42Z" fill="#000" />
		</mask>
	</defs>
	<path d="M12 21v1M21 12h1M12 3v-1M3 12h-1M18.5 18.5l0.5 0.5M18.5 5.5l0.5 -0.5M5.5 5.5l-0.5 -0.5M5.5 18.5l-0.5 0.5" stroke="currentColor" fill="none" stroke-width="2" stroke-linecap="round" stroke-linejoin="round" opacity="0.146" />
	<g fill="currentColor">
		<path d="M0 0h24v24H0z" mask="url(#SVGIdvf0dKM)" />
		<path d="M0 0h24v24H0z" mask="url(#SVGraZXOddP)" />
	</g>
	<path d="M12 5h1.5M12 5h-1.5M12 5v1.5M12 5v-1.5M17 11h1.5M17 11h-1.5M17 11v1.5M17 11v-1.5M20 5h1.5M20 5h-1.5M20 5v1.5M20 5v-1.5M12 4h1.5M12 4h-1.5M12 4v1.5M12 4v-1.5M18 12h1.5M18 12h-1.5M18 12v1.5M18 12v-1.5M19 4h1.5M19 4h-1.5M19 4v1.5M19 4v-1.5M13 4h1.5M13 4h-1.5M13 4v1.5M13 4v-1.5M19 11h1.5M19 11h-1.5M19 11v1.5M19 11v-1.5M20 5h1.5M20 5h-1.5M20 5v1.5M20 5v-1.5" stroke-dashoffset="4" fill="none" stroke="currentColor" stroke-linecap="round" stroke-linejoin="round" stroke-dasharray="4" />
</svg>
