<svg xmlns="http://www.w3.org/2000/svg" width="24" height="24" viewBox="0 0 24 24">
	<defs>
		<mask id="SVGVrjCMdcq">
			<path d="M12 4.92c3.91 0 7.08 3.17 7.08 7.08c0 3.91 -3.17 7.08 -7.08 7.08c-3.91 0 -7.08 -3.17 -7.08 -7.08c0 -3.91 3.17 -7.08 7.08 -7.08Z" fill="#fff" />
			<path d="M20.92 -4c3.91 0 7.08 3.17 7.08 7.08c0 3.91 -3.17 7.08 -7.08 7.08c-3.91 0 -7.08 -3.17 -7.08 -7.08c0 -3.91 3.17 -7.08 7.08 -7.08ZM12 6.92c2.81 0 5.08 2.27 5.08 5.08c0 2.81 -2.27 5.08 -5.08 5.08c-2.81 0 -5.08 -2.27 -5.08 -5.08c0 -2.81 2.27 -5.08 5.08 -5.08Z" fill="#000" />
		</mask>
		<mask id="SVGKZda6SeR">
			<path d="M20.92 -6c5.02 0 9.08 4.07 9.08 9.08c0 5.02 -4.07 9.08 -9.08 9.08c-5.02 0 -9.08 -4.07 -9.08 -9.08c0 -5.02 4.07 -9.08 9.08 -9.08Z" fill="#fff" />
			<path d="M20.92 -4c3.91 0 7.08 3.17 7.08 7.08c0 3.91 -3.17 7.08 -7.08 7.08c-3.91 0 -7.08 -3.17 -7.08 -7.08c0 -3.91 3.17 -7.08 7.08 -7.08ZM4.92 12v-20h27.08v27.08h-20c3.91 0 7.08 -3.17 7.08 -7.08c0 -3.91 -3.17 -7.08 -7.08 -7.08c-3.91 0 -7.08 3.17 -7.08 7.08Z" fill="#000" />
		</mask>
	</defs>
	<path d="M12 21v1M21 12h1M12 3v-1M3 12h-1M18.5 18.5l0.5 0.5M18.5 5.5l0.5 -0.5M5.5 5.5l-0.5 -0.5M5.5 18.5l-0.5 0.5" stroke="currentColor" fill="none" stroke-width="2" stroke-linecap="round" stroke-linejoin="round" opacity="0.729" />
	<g fill="currentColor">
		<path d="M0 0h24v24H0z" mask="url(#SVGVrjCMdcq)" />
		<path d="M0 0h24v24H0z" mask="url(#SVGKZda6SeR)" />
	</g>
</svg>
