<svg xmlns="http://www.w3.org/2000/svg" width="24" height="24" viewBox="0 0 24 24">
	<defs>
		<mask id="SVGRLRTldTc">
			<path d="M12 4.75c4 0 7.25 3.25 7.25 7.25c0 4 -3.25 7.25 -7.25 7.25c-4 0 -7.25 -3.25 -7.25 -7.25c0 -4 3.25 -7.25 7.25 -7.25Z" fill="#fff" />
			<path d="M20.75 -4c4 0 7.25 3.25 7.25 7.25c0 4 -3.25 7.25 -7.25 7.25c-4 0 -7.25 -3.25 -7.25 -7.25c0 -4 3.25 -7.25 7.25 -7.25ZM12 6.75c2.9 0 5.25 2.35 5.25 5.25c0 2.9 -2.35 5.25 -5.25 5.25c-2.9 0 -5.25 -2.35 -5.25 -5.25c0 -2.9 2.35 -5.25 5.25 -5.25Z" fill="#000" />
		</mask>
		<mask id="SVG8yhBtdtu">
			<path d="M20.75 -6c5.11 0 9.25 4.14 9.25 9.25c0 5.11 -4.14 9.25 -9.25 9.25c-5.11 0 -9.25 -4.14 -9.25 -9.25c0 -5.11 4.14 -9.25 9.25 -9.25Z" fill="#fff" />
			<path d="M20.75 -4c4 0 7.25 3.25 7.25 7.25c0 4 -3.25 7.25 -7.25 7.25c-4 0 -7.25 -3.25 -7.25 -7.25c0 -4 3.25 -7.25 7.25 -7.25ZM4.75 12v-20h27.25v27.25h-20c4 0 7.25 -3.25 7.25 -7.25c0 -4 -3.25 -7.25 -7.25 -7.25c-4 0 -7.25 3.25 -7.25 7.25Z" fill="#000" />
		</mask>
	</defs>
	<path d="M12 21v1M21 12h1M12 3v-1M3 12h-1M18.5 18.5l0.5 0.5M18.5 5.5l0.5 -0.5M5.5 5.5l-0.5 -0.5M5.5 18.5l-0.5 0.5" stroke="currentColor" fill="none" stroke-width="2" stroke-linecap="round" stroke-linejoin="round" opacity="0.688" />
	<g fill="currentColor">
		<path d="M0 0h24v24H0z" mask="url(#SVGRLRTldTc)" />
		<path d="M0 0h24v24H0z" mask="url(#SVG8yhBtdtu)" />
	</g>
</svg>
