<svg xmlns="http://www.w3.org/2000/svg" width="24" height="24" viewBox="0 0 24 24">
	<defs>
		<mask id="SVGdGcAfc1G">
			<path d="M12 3.67c4.6 0 8.33 3.73 8.33 8.33c0 4.6 -3.73 8.33 -8.33 8.33c-4.6 0 -8.33 -3.73 -8.33 -8.33c0 -4.6 3.73 -8.33 8.33 -8.33Z" fill="#fff" />
			<path d="M19.67 -4c4.6 0 8.33 3.73 8.33 8.33c0 4.6 -3.73 8.33 -8.33 8.33c-4.6 0 -8.33 -3.73 -8.33 -8.33c0 -4.6 3.73 -8.33 8.33 -8.33ZM12 5.67c3.5 0 6.33 2.83 6.33 6.33c0 3.5 -2.83 6.33 -6.33 6.33c-3.5 0 -6.33 -2.83 -6.33 -6.33c0 -3.5 2.83 -6.33 6.33 -6.33Z" fill="#000" />
		</mask>
		<mask id="SVGhpmgLcdj">
			<path d="M19.67 -6c5.7 0 10.33 4.63 10.33 10.33c0 5.7 -4.63 10.33 -10.33 10.33c-5.7 0 -10.33 -4.63 -10.33 -10.33c0 -5.7 4.63 -10.33 10.33 -10.33Z" fill="#fff" />
			<path d="M19.67 -4c4.6 0 8.33 3.73 8.33 8.33c0 4.6 -3.73 8.33 -8.33 8.33c-4.6 0 -8.33 -3.73 -8.33 -8.33c0 -4.6 3.73 -8.33 8.33 -8.33ZM3.67 12v-20h28.33v28.33h-20c4.6 0 8.33 -3.73 8.33 -8.33c0 -4.6 -3.73 -8.33 -8.33 -8.33c-4.6 0 -8.33 3.73 -8.33 8.33Z" fill="#000" />
		</mask>
	</defs>
	<path d="M12 21v1M21 12h1M12 3v-1M3 12h-1M18.5 18.5l0.5 0.5M18.5 5.5l0.5 -0.5M5.5 5.5l-0.5 -0.5M5.5 18.5l-0.5 0.5" stroke="currentColor" fill="none" stroke-width="2" stroke-linecap="round" stroke-linejoin="round" opacity="0.417" />
	<g fill="currentColor">
		<path d="M0 0h24v24H0z" mask="url(#SVGdGcAfc1G)" />
		<path d="M0 0h24v24H0z" mask="url(#SVGhpmgLcdj)" />
	</g>
</svg>
