<svg xmlns="http://www.w3.org/2000/svg" width="24" height="24" viewBox="0 0 24 24">
	<defs>
		<mask id="SVGCQdvAdad">
			<path d="M12 4.33c4.23 0 7.67 3.44 7.67 7.67c0 4.23 -3.44 7.67 -7.67 7.67c-4.23 0 -7.67 -3.44 -7.67 -7.67c0 -4.23 3.44 -7.67 7.67 -7.67Z" fill="#fff" />
			<path d="M20.33 -4c4.23 0 7.67 3.44 7.67 7.67c0 4.23 -3.44 7.67 -7.67 7.67c-4.23 0 -7.67 -3.44 -7.67 -7.67c0 -4.23 3.44 -7.67 7.67 -7.67ZM12 6.33c3.13 0 5.67 2.54 5.67 5.67c0 3.13 -2.54 5.67 -5.67 5.67c-3.13 0 -5.67 -2.54 -5.67 -5.67c0 -3.13 2.54 -5.67 5.67 -5.67Z" fill="#000" />
		</mask>
		<mask id="SVGkCO9WdUw">
			<path d="M20.33 -6c5.34 0 9.67 4.33 9.67 9.67c0 5.34 -4.33 9.67 -9.67 9.67c-5.34 0 -9.67 -4.33 -9.67 -9.67c0 -5.34 4.33 -9.67 9.67 -9.67Z" fill="#fff" />
			<path d="M20.33 -4c4.23 0 7.67 3.44 7.67 7.67c0 4.23 -3.44 7.67 -7.67 7.67c-4.23 0 -7.67 -3.44 -7.67 -7.67c0 -4.23 3.44 -7.67 7.67 -7.67ZM4.33 12v-20h27.67v27.67h-20c4.23 0 7.67 -3.44 7.67 -7.67c0 -4.23 -3.44 -7.67 -7.67 -7.67c-4.23 0 -7.67 3.44 -7.67 7.67Z" fill="#000" />
		</mask>
	</defs>
	<path d="M12 21v1M21 12h1M12 3v-1M3 12h-1M18.5 18.5l0.5 0.5M18.5 5.5l0.5 -0.5M5.5 5.5l-0.5 -0.5M5.5 18.5l-0.5 0.5" stroke="currentColor" fill="none" stroke-width="2" stroke-linecap="round" stroke-linejoin="round" opacity="0.583" />
	<g fill="currentColor">
		<path d="M0 0h24v24H0z" mask="url(#SVGCQdvAdad)" />
		<path d="M0 0h24v24H0z" mask="url(#SVGkCO9WdUw)" />
	</g>
</svg>
