<svg xmlns="http://www.w3.org/2000/svg" width="24" height="24" viewBox="0 0 24 24">
	<defs>
		<mask id="SVG5guQacuM">
			<path d="M12 3.83c4.51 0 8.17 3.66 8.17 8.17c0 4.51 -3.66 8.17 -8.17 8.17c-4.51 0 -8.17 -3.66 -8.17 -8.17c0 -4.51 3.66 -8.17 8.17 -8.17Z" fill="#fff" />
			<path d="M19.83 -4c4.51 0 8.17 3.66 8.17 8.17c0 4.51 -3.66 8.17 -8.17 8.17c-4.51 0 -8.17 -3.66 -8.17 -8.17c0 -4.51 3.66 -8.17 8.17 -8.17ZM12 5.83c3.41 0 6.17 2.76 6.17 6.17c0 3.41 -2.76 6.17 -6.17 6.17c-3.41 0 -6.17 -2.76 -6.17 -6.17c0 -3.41 2.76 -6.17 6.17 -6.17Z" fill="#000" />
		</mask>
		<mask id="SVGb4QpAdKm">
			<path d="M19.83 -6c5.61 0 10.17 4.55 10.17 10.17c0 5.61 -4.55 10.17 -10.17 10.17c-5.61 0 -10.17 -4.55 -10.17 -10.17c0 -5.61 4.55 -10.17 10.17 -10.17Z" fill="#fff" />
			<path d="M19.83 -4c4.51 0 8.17 3.66 8.17 8.17c0 4.51 -3.66 8.17 -8.17 8.17c-4.51 0 -8.17 -3.66 -8.17 -8.17c0 -4.51 3.66 -8.17 8.17 -8.17ZM3.83 12v-20h28.17v28.17h-20c4.51 0 8.17 -3.66 8.17 -8.17c0 -4.51 -3.66 -8.17 -8.17 -8.17c-4.51 0 -8.17 3.66 -8.17 8.17Z" fill="#000" />
		</mask>
	</defs>
	<path d="M12 21v1M21 12h1M12 3v-1M3 12h-1M18.5 18.5l0.5 0.5M18.5 5.5l0.5 -0.5M5.5 5.5l-0.5 -0.5M5.5 18.5l-0.5 0.5" stroke="currentColor" fill="none" stroke-width="2" stroke-linecap="round" stroke-linejoin="round" opacity="0.458" />
	<g fill="currentColor">
		<path d="M0 0h24v24H0z" mask="url(#SVG5guQacuM)" />
		<path d="M0 0h24v24H0z" mask="url(#SVGb4QpAdKm)" />
	</g>
</svg>
