<svg xmlns="http://www.w3.org/2000/svg" width="24" height="24" viewBox="0 0 24 24">
	<defs>
		<mask id="SVGbHZhWboR">
			<path d="M12 2c5.52 0 10 4.48 10 10c0 5.52 -4.48 10 -10 10c-5.52 0 -10 -4.48 -10 -10c0 -5.52 4.48 -10 10 -10Z" fill="#fff" />
			<path d="M18 -4c5.52 0 10 4.48 10 10c0 5.52 -4.48 10 -10 10c-5.52 0 -10 -4.48 -10 -10c0 -5.52 4.48 -10 10 -10ZM12 4c4.42 0 8 3.58 8 8c0 4.42 -3.58 8 -8 8c-4.42 0 -8 -3.58 -8 -8c0 -4.42 3.58 -8 8 -8Z" fill="#000" />
		</mask>
		<mask id="SVGZJs4368b">
			<path d="M18 -6c6.62 0 12 5.38 12 12c0 6.62 -5.38 12 -12 12c-6.62 0 -12 -5.38 -12 -12c0 -6.62 5.38 -12 12 -12Z" fill="#fff" />
			<path d="M18 -4c5.52 0 10 4.48 10 10c0 5.52 -4.48 10 -10 10c-5.52 0 -10 -4.48 -10 -10c0 -5.52 4.48 -10 10 -10ZM2 12v-20h30v30h-20c5.52 0 10 -4.48 10 -10c0 -5.52 -4.48 -10 -10 -10c-5.52 0 -10 4.48 -10 10Z" fill="#000" />
		</mask>
	</defs>
	<path d="M12 21v1M21 12h1M12 3v-1M3 12h-1M18.5 18.5l0.5 0.5M18.5 5.5l0.5 -0.5M5.5 5.5l-0.5 -0.5M5.5 18.5l-0.5 0.5" stroke="currentColor" fill="none" stroke-width="2" stroke-linecap="round" stroke-linejoin="round" opacity="0" />
	<g fill="currentColor">
		<path d="M0 0h24v24H0z" mask="url(#SVGbHZhWboR)" />
		<path d="M0 0h24v24H0z" mask="url(#SVGZJs4368b)" />
	</g>
</svg>
