<svg xmlns="http://www.w3.org/2000/svg" width="24" height="24" viewBox="0 0 24 24">
	<defs>
		<mask id="SVG73LKweRq">
			<path d="M8 -3.44c0 2 -2 2 -2 4s2 2 2 4s-2 2 -2 4s2 2 2 4M12 -3.44c0 2 -2 2 -2 4s2 2 2 4s-2 2 -2 4s2 2 2 4M16 -3.44c0 2 -2 2 -2 4s2 2 2 4s-2 2 -2 4s2 2 2 4" stroke="#fff" fill="none" stroke-width="2" stroke-linecap="round" stroke-linejoin="round" />
			<path d="M4 4.57h16v2.43h-16v12h16v-28.11h-16Z" fill="#000" />
		</mask>
	</defs>
	<path d="M17 9v9c0 1.66 -1.34 3 -3 3h-6c-1.66 0 -3 -1.34 -3 -3v-9ZM17 9h3c0.55 0 1 0.45 1 1v3c0 0.55 -0.45 1 -1 1h-3" fill="none" stroke="currentColor" stroke-linecap="round" stroke-linejoin="round" stroke-width="2" />
	<path d="M0 0h24v24H0z" fill="currentColor" mask="url(#SVG73LKweRq)" />
</svg>
