<svg xmlns="http://www.w3.org/2000/svg" width="24" height="24" viewBox="0 0 24 24">
	<defs>
		<mask id="SVG6kJwub5u">
			<path d="M12 18c0 0 -5.14 -6 -5.14 -9.86c0 -2.84 2.3 -5.14 5.14 -5.14c2.84 0 5.14 2.3 5.14 5.14c0 3.86 -5.14 9.86 -5.14 9.86Z" stroke="#fff" fill="#fff" stroke-width="2" stroke-linecap="round" stroke-linejoin="round" />
			<circle cx="12" cy="8.143" r="2.5" fill="#000" />
		</mask>
	</defs>
	<g fill="currentColor">
		<path d="M0 0h24v24H0z" mask="url(#SVG6kJwub5u)" />
		<path d="M12 18.13c0.14 0 0.25 -0.05 0.25 -0.1c0 -0.03 -0.03 -0.05 -0.07 -0.07l0.02 -0.04c0.08 0.03 0.13 0.08 0.13 0.13c0 0.09 -0.15 0.17 -0.33 0.17c-0.18 0 -0.33 -0.07 -0.33 -0.17c0 -0.05 0.05 -0.1 0.13 -0.13l0.02 0.04c-0.04 0.02 -0.07 0.05 -0.07 0.07c0 0.06 0.11 0.1 0.25 0.1Z" />
	</g>
</svg>
