<svg xmlns="http://www.w3.org/2000/svg" width="24" height="24" viewBox="0 0 24 24">
	<defs>
		<mask id="SVG6kJwub5u">
			<path d="M12 18c0 0 -5.14 -6 -5.14 -9.86c0 -2.84 2.3 -5.14 5.14 -5.14c2.84 0 5.14 2.3 5.14 5.14c0 3.86 -5.14 9.86 -5.14 9.86Z" stroke="#fff" fill="#fff" stroke-width="2" stroke-linecap="round" stroke-linejoin="round" />
			<circle cx="12" cy="8.143" r="2.5" fill="#000" />
		</mask>
	</defs>
	<g fill="currentColor">
		<path d="M0 0h24v24H0z" mask="url(#SVG6kJwub5u)" />
		<path d="M12 18.88c0.96 0 1.75 -0.32 1.75 -0.73c0 -0.2 -0.2 -0.38 -0.53 -0.53l0.18 -0.26c0.58 0.23 0.93 0.55 0.93 0.93c0 0.64 -1.05 1.17 -2.33 1.17c-1.28 0 -2.33 -0.53 -2.33 -1.17c0 -0.38 0.35 -0.7 0.9 -0.93l0.18 0.26c-0.29 0.15 -0.5 0.32 -0.5 0.53c0 0.41 0.79 0.73 1.75 0.73Z" />
	</g>
</svg>
