<svg xmlns="http://www.w3.org/2000/svg" width="24" height="24" viewBox="0 0 24 24">
	<defs>
		<mask id="SVG6kJwub5u">
			<path d="M12 18c0 0 -5.14 -6 -5.14 -9.86c0 -2.84 2.3 -5.14 5.14 -5.14c2.84 0 5.14 2.3 5.14 5.14c0 3.86 -5.14 9.86 -5.14 9.86Z" stroke="#fff" fill="#fff" stroke-width="2" stroke-linecap="round" stroke-linejoin="round" />
			<circle cx="12" cy="8.143" r="2.5" fill="#000" />
		</mask>
	</defs>
	<g fill="currentColor">
		<path d="M0 0h24v24H0z" mask="url(#SVG6kJwub5u)" />
		<path d="M12 19.13c1.24 0 2.25 -0.41 2.25 -0.94c0 -0.26 -0.26 -0.49 -0.68 -0.68l0.22 -0.34c0.75 0.3 1.2 0.71 1.2 1.2c0 0.83 -1.35 1.5 -3 1.5c-1.65 0 -3 -0.68 -3 -1.5c0 -0.49 0.45 -0.9 1.16 -1.2l0.22 0.34c-0.38 0.19 -0.64 0.41 -0.64 0.68c0 0.52 1.01 0.94 2.25 0.94Z" />
	</g>
</svg>
