<svg xmlns="http://www.w3.org/2000/svg" width="24" height="24" viewBox="0 0 24 24">
	<defs>
		<mask id="SVG6kJwub5u">
			<path d="M12 18c0 0 -5.14 -6 -5.14 -9.86c0 -2.84 2.3 -5.14 5.14 -5.14c2.84 0 5.14 2.3 5.14 5.14c0 3.86 -5.14 9.86 -5.14 9.86Z" stroke="#fff" fill="#fff" stroke-width="2" stroke-linecap="round" stroke-linejoin="round" />
			<circle cx="12" cy="8.143" r="2.5" fill="#000" />
		</mask>
	</defs>
	<g fill="currentColor">
		<path d="M0 0h24v24H0z" mask="url(#SVG6kJwub5u)" />
		<path d="M12 19.37c1.51 0 2.75 -0.5 2.75 -1.15c0 -0.32 -0.32 -0.6 -0.82 -0.82l0.27 -0.41c0.92 0.37 1.47 0.87 1.47 1.47c0 1.01 -1.65 1.83 -3.67 1.83c-2.02 0 -3.67 -0.82 -3.67 -1.83c0 -0.6 0.55 -1.1 1.42 -1.47l0.27 0.41c-0.46 0.23 -0.78 0.5 -0.78 0.82c0 0.64 1.24 1.15 2.75 1.15Z" />
	</g>
</svg>
