<svg xmlns="http://www.w3.org/2000/svg" width="24" height="24" viewBox="0 0 24 24">
	<defs>
		<mask id="SVG6kJwub5u">
			<path d="M12 18c0 0 -5.14 -6 -5.14 -9.86c0 -2.84 2.3 -5.14 5.14 -5.14c2.84 0 5.14 2.3 5.14 5.14c0 3.86 -5.14 9.86 -5.14 9.86Z" stroke="#fff" fill="#fff" stroke-width="2" stroke-linecap="round" stroke-linejoin="round" />
			<circle cx="12" cy="8.143" r="2.5" fill="#000" />
		</mask>
	</defs>
	<g fill="currentColor">
		<path d="M0 0h24v24H0z" mask="url(#SVG6kJwub5u)" />
		<path d="M12 19c1.1 0 2 -0.37 2 -0.83c0 -0.23 -0.23 -0.43 -0.6 -0.6l0.2 -0.3c0.67 0.27 1.07 0.63 1.07 1.07c0 0.73 -1.2 1.33 -2.67 1.33c-1.47 0 -2.67 -0.6 -2.67 -1.33c0 -0.43 0.4 -0.8 1.03 -1.07l0.2 0.3c-0.33 0.17 -0.57 0.37 -0.57 0.6c0 0.47 0.9 0.83 2 0.83Z" />
	</g>
</svg>
