<svg xmlns="http://www.w3.org/2000/svg" width="24" height="24" viewBox="0 0 24 24">
	<defs>
		<mask id="SVG6kJwub5u">
			<path d="M12 18c0 0 -5.14 -6 -5.14 -9.86c0 -2.84 2.3 -5.14 5.14 -5.14c2.84 0 5.14 2.3 5.14 5.14c0 3.86 -5.14 9.86 -5.14 9.86Z" stroke="#fff" fill="#fff" stroke-width="2" stroke-linecap="round" stroke-linejoin="round" />
			<circle cx="12" cy="8.143" r="2.5" fill="#000" />
		</mask>
	</defs>
	<g fill="currentColor">
		<path d="M0 0h24v24H0z" mask="url(#SVG6kJwub5u)" />
		<path d="M12 18.5c0.55 0 1 -0.18 1 -0.42c0 -0.12 -0.12 -0.22 -0.3 -0.3l0.1 -0.15c0.33 0.13 0.53 0.32 0.53 0.53c0 0.37 -0.6 0.67 -1.33 0.67c-0.73 0 -1.33 -0.3 -1.33 -0.67c0 -0.22 0.2 -0.4 0.52 -0.53l0.1 0.15c-0.17 0.08 -0.28 0.18 -0.28 0.3c0 0.23 0.45 0.42 1 0.42Z" />
	</g>
</svg>
