<svg xmlns="http://www.w3.org/2000/svg" width="24" height="24" viewBox="0 0 24 24">
	<defs>
		<mask id="SVG6kJwub5u">
			<path d="M12 18c0 0 -5.14 -6 -5.14 -9.86c0 -2.84 2.3 -5.14 5.14 -5.14c2.84 0 5.14 2.3 5.14 5.14c0 3.86 -5.14 9.86 -5.14 9.86Z" stroke="#fff" fill="#fff" stroke-width="2" stroke-linecap="round" stroke-linejoin="round" />
			<circle cx="12" cy="8.143" r="2.5" fill="#000" />
		</mask>
	</defs>
	<g fill="currentColor">
		<path d="M0 0h24v24H0z" mask="url(#SVG6kJwub5u)" />
		<path d="M12 19.5c1.65 0 3 -0.55 3 -1.25c0 -0.35 -0.35 -0.65 -0.9 -0.9l0.3 -0.45c1 0.4 1.6 0.95 1.6 1.6c0 1.1 -1.8 2 -4 2c-2.2 0 -4 -0.9 -4 -2c0 -0.65 0.6 -1.2 1.55 -1.6l0.3 0.45c-0.5 0.25 -0.85 0.55 -0.85 0.9c0 0.7 1.35 1.25 3 1.25Z" />
	</g>
</svg>
