<svg xmlns="http://www.w3.org/2000/svg" width="24" height="24" viewBox="0 0 24 24">
	<defs>
		<mask id="SVG6kJwub5u">
			<path d="M12 18c0 0 -5.14 -6 -5.14 -9.86c0 -2.84 2.3 -5.14 5.14 -5.14c2.84 0 5.14 2.3 5.14 5.14c0 3.86 -5.14 9.86 -5.14 9.86Z" stroke="#fff" fill="#fff" stroke-width="2" stroke-linecap="round" stroke-linejoin="round" />
			<circle cx="12" cy="8.143" r="2.5" fill="#000" />
		</mask>
	</defs>
	<g fill="currentColor">
		<path d="M0 0h24v24H0z" mask="url(#SVG6kJwub5u)" />
		<path d="M12 19.25c1.37 0 2.5 -0.46 2.5 -1.04c0 -0.29 -0.29 -0.54 -0.75 -0.75l0.25 -0.37c0.83 0.33 1.33 0.79 1.33 1.33c0 0.92 -1.5 1.67 -3.33 1.67c-1.83 0 -3.33 -0.75 -3.33 -1.67c0 -0.54 0.5 -1 1.29 -1.33l0.25 0.37c-0.42 0.21 -0.71 0.46 -0.71 0.75c0 0.58 1.12 1.04 2.5 1.04Z" />
	</g>
</svg>
