<svg xmlns="http://www.w3.org/2000/svg" width="24" height="24" viewBox="0 0 24 24">
	<defs>
		<mask id="SVG6kJwub5u">
			<path d="M12 18c0 0 -5.14 -6 -5.14 -9.86c0 -2.84 2.3 -5.14 5.14 -5.14c2.84 0 5.14 2.3 5.14 5.14c0 3.86 -5.14 9.86 -5.14 9.86Z" stroke="#fff" fill="#fff" stroke-width="2" stroke-linecap="round" stroke-linejoin="round" />
			<circle cx="12" cy="8.143" r="2.5" fill="#000" />
		</mask>
	</defs>
	<g fill="currentColor">
		<path d="M0 0h24v24H0z" mask="url(#SVG6kJwub5u)" />
		<path d="M12 20.88c3.16 0 5.75 -1.05 5.75 -2.4c0 -0.67 -0.67 -1.25 -1.73 -1.73l0.58 -0.86c1.92 0.77 3.07 1.82 3.07 3.07c0 2.11 -3.45 3.83 -7.67 3.83c-4.22 0 -7.67 -1.73 -7.67 -3.83c0 -1.25 1.15 -2.3 2.97 -3.07l0.58 0.86c-0.96 0.48 -1.63 1.05 -1.63 1.73c0 1.34 2.59 2.4 5.75 2.4Z" />
	</g>
</svg>
