<svg xmlns="http://www.w3.org/2000/svg" width="24" height="24" viewBox="0 0 24 24">
	<defs>
		<mask id="SVG6kJwub5u">
			<path d="M12 18c0 0 -5.14 -6 -5.14 -9.86c0 -2.84 2.3 -5.14 5.14 -5.14c2.84 0 5.14 2.3 5.14 5.14c0 3.86 -5.14 9.86 -5.14 9.86Z" stroke="#fff" fill="#fff" stroke-width="2" stroke-linecap="round" stroke-linejoin="round" />
			<circle cx="12" cy="8.143" r="2.5" fill="#000" />
		</mask>
	</defs>
	<g fill="currentColor">
		<path d="M0 0h24v24H0z" mask="url(#SVG6kJwub5u)" />
		<path d="M12 20.13c2.34 0 4.25 -0.78 4.25 -1.77c0 -0.5 -0.5 -0.92 -1.28 -1.28l0.43 -0.64c1.42 0.57 2.27 1.35 2.27 2.27c0 1.56 -2.55 2.83 -5.67 2.83c-3.12 0 -5.67 -1.28 -5.67 -2.83c0 -0.92 0.85 -1.7 2.2 -2.27l0.43 0.64c-0.71 0.35 -1.2 0.78 -1.2 1.28c0 0.99 1.91 1.77 4.25 1.77Z" />
	</g>
</svg>
