<svg xmlns="http://www.w3.org/2000/svg" width="24" height="24" viewBox="0 0 24 24">
	<defs>
		<mask id="SVGhmxQJdsM">
			<path d="M6.65 19h11.35c2.21 0 4 -1.79 4 -4c0 -2.21 -1.79 -4 -4 -4h-0.65v-1c0 -2.76 -2.24 -5 -5 -5c-2.42 0 -4.44 1.72 -4.9 4h-0.79c-2.76 0 -5 2.24 -5 5c0 2.76 2.24 5 5 5Z" stroke="#fff" fill="none" stroke-width="2" stroke-linecap="round" stroke-linejoin="round" />
			<path d="M6 11h12v6.82h-12Z" fill="#fff" />
			<path d="M8 13h8v2.82h-8Z" fill="#000" />
		</mask>
	</defs>
	<g fill="currentColor">
		<path d="M0 0h24v24H0z" mask="url(#SVGhmxQJdsM)" />
		<path d="M9 12h6v1h-6ZM9 12h6v1h-6ZM9 12.44h6v1h-6ZM9 14.44h6v1h-6Z" />
	</g>
</svg>
