<svg xmlns="http://www.w3.org/2000/svg" width="24" height="24" viewBox="0 0 24 24">
	<defs>
		<mask id="SVGv0WFyc1z">
			<path d="M6 19h11.33c2.21 0 4 -1.79 4 -4c0 -2.21 -1.79 -4 -4 -4h0v-1c0 -2.76 -2.24 -5 -5 -5c-2.42 0 -4.44 1.72 -4.9 4h-1.43c-2.76 0 -5 2.24 -5 5c0 2.76 2.24 5 5 5Z" stroke="#fff" fill="none" stroke-width="2" stroke-linecap="round" stroke-linejoin="round" />
			<path d="M6 11h12v11h-12Z" fill="#fff" />
			<path d="M8 13h8v7h-8Z" fill="#000" />
		</mask>
	</defs>
	<g fill="currentColor">
		<path d="M0 0h24v24H0z" mask="url(#SVGv0WFyc1z)" />
		<path d="M9 12.04h6v1h-6ZM9 14.04h6v1h-6ZM9 16.04h6v1h-6ZM9 18.04h6v1h-6Z" />
	</g>
</svg>
