<svg xmlns="http://www.w3.org/2000/svg" width="24" height="24" viewBox="0 0 24 24">
	<defs>
		<mask id="SVGKm1qFdrx">
			<g stroke-linecap="round" stroke-linejoin="round">
				<g stroke="#fff" stroke-width="2">
					<path d="M12 7h8c0.55 0 1 0.45 1 1v10c0 0.55 -0.45 1 -1 1h-16c-0.55 0 -1 -0.45 -1 -1v-11Z" fill="#fff" />
					<path d="M12 7h-9v-1c0 -0.55 0.45 -1 1 -1h6Z" fill="none" />
				</g>
				<path d="M18.5 14c2.48 0 4.5 2.02 4.5 4.5c0 2.48 -2.02 4.5 -4.5 4.5c-2.48 0 -4.5 -2.02 -4.5 -4.5c0 -2.48 2.02 -4.5 4.5 -4.5Z" stroke="#000" fill="#000" stroke-width="6" />
			</g>
		</mask>
	</defs>
	<path d="M0 0h24v24H0z" fill="currentColor" mask="url(#SVGKm1qFdrx)" />
	<g fill="none" stroke="currentColor" stroke-linecap="round" stroke-linejoin="round" stroke-width="2">
		<path d="M18.5 14c2.48 0 4.5 2.02 4.5 4.5c0 2.48 -2.02 4.5 -4.5 4.5c-2.48 0 -4.5 -2.02 -4.5 -4.5c0 -2.48 2.02 -4.5 4.5 -4.5Z" stroke-dasharray="32" stroke-dashoffset="2.667" />
		<path d="M16 16l5 5" stroke-dasharray="10" stroke-dashoffset="10" />
	</g>
</svg>
