<svg xmlns="http://www.w3.org/2000/svg" width="24" height="24" viewBox="0 0 24 24">
	<defs>
		<mask id="SVGyTVuFahi">
			<path d="M12 7c2.76 0 5 2.24 5 5c0 2.76 -2.24 5 -5 5c-2.76 0 -5 -2.24 -5 -5c0 -2.76 2.24 -5 5 -5ZM12 21v1M21 12h1M12 3v-1M3 12h-1M17.13 17.13l0.5 0.5M17.13 6.88l0.5 -0.5M6.88 6.88l-0.5 -0.5M6.88 17.13l-0.5 0.5" fill="none" stroke="#fff" stroke-linecap="round" stroke-linejoin="round" stroke-width="2" />
		</mask>
	</defs>
	<path d="M0 0h24v24H0z" fill="currentColor" mask="url(#SVGyTVuFahi)" />
</svg>
