<svg xmlns="http://www.w3.org/2000/svg" width="24" height="24" viewBox="0 0 24 24">
	<g stroke="currentColor" stroke-linecap="round" stroke-linejoin="round" stroke-width="2">
		<path d="M12 3c4.97 0 9 4.03 9 9c0 4.97 -4.03 9 -9 9c-4.97 0 -9 -4.03 -9 -9c0 -4.97 4.03 -9 9 -9" fill="currentColor" fill-opacity="0" />
		<path d="M9 9v1M15 9v1" fill="none" />
	</g>
	<path d="M12 13.5c-3.25 0 -4.5 1.84 -4.5 2.25c0 0.41 0.45 0.75 1 0.75c0.75 0 0.5 -0.38 3.5 -0.38c3 0 2.75 0.38 3.5 0.38c0.55 0 1 -0.34 1 -0.75c0 -0.41 -1.25 -2.25 -4.5 -2.25Z" fill="currentColor" />
</svg>
