<svg xmlns="http://www.w3.org/2000/svg" width="24" height="24" viewBox="0 0 24 24">
	<g stroke="currentColor" stroke-linecap="round" stroke-linejoin="round" stroke-width="2">
		<path d="M12 3c4.97 0 9 4.03 9 9c0 4.97 -4.03 9 -9 9c-4.97 0 -9 -4.03 -9 -9c0 -4.97 4.03 -9 9 -9" fill="currentColor" fill-opacity="0" />
		<path d="M9 9v1M15 9v1" fill="none" />
	</g>
	<path d="M12 13c-3.25 0 -4.5 2.45 -4.5 3c0 0.55 0.45 1 1 1c0.75 0 0.5 -0.5 3.5 -0.5c3 0 2.75 0.5 3.5 0.5c0.55 0 1 -0.45 1 -1c0 -0.55 -1.25 -3 -4.5 -3Z" fill="currentColor" />
</svg>
