<svg xmlns="http://www.w3.org/2000/svg" width="24" height="24" viewBox="0 0 24 24">
	<g fill="currentColor">
		<path d="M7 19c-2.5 0 -4 -2 -4 -4c0 -2 1.5 -4 4 -4c0 -3.5 2 -6 5 -6c3 0 5 2.5 5 5v1c2.5 0 4 2 4 4c0 2 -1.5 4 -4 4Z" fill-opacity="0">
			<animate attributeName="fill-opacity" values="0;1" begin="0.8s" dur="0.5s" fill="freeze" />
		</path>
	</g>
	<g fill="none" stroke="currentColor" stroke-width="2" stroke-linecap="round" stroke-linejoin="round">
		<path d="M12 19h-5c-2.5 0 -4 -2 -4 -4c0 -2 1.5 -4 4 -4c1 0 1.5 0.5 1.5 0.5M12 19h5c2.5 0 4 -2 4 -4c0 -2 -1.5 -4 -4 -4c-1 0 -1.5 0.5 -1.5 0.5" stroke-dasharray="24" stroke-dashoffset="24">
			<animate attributeName="stroke-dashoffset" values="24;0" dur="0.4s" fill="freeze" />
		</path>
		<path d="M7 11v-1c0 -2.5 2 -5 5 -5M17 11v-1c0 -2.5 -2 -5 -5 -5" stroke-dasharray="24" stroke-dashoffset="24">
			<animate attributeName="stroke-dashoffset" values="24;0" begin="0.4s" dur="0.3s" fill="freeze" />
		</path>
	</g>
</svg>
