<svg xmlns="http://www.w3.org/2000/svg" width="24" height="24" viewBox="0 0 24 24">
	<g fill="none" stroke="currentColor" stroke-width="2" stroke-linecap="round" stroke-linejoin="round">
		<path d="M7 19h11c2.21 0 4 -1.79 4 -4c0 -2.21 -1.79 -4 -4 -4h-1v-1c0 -2.76 -2.24 -5 -5 -5c-2.42 0 -4.44 1.72 -4.9 4h-0.1c-2.76 0 -5 2.24 -5 5c0 2.76 2.24 5 5 5Z" stroke-dasharray="64" stroke-dashoffset="64">
			<animate attributeName="stroke-dashoffset" values="64;0" dur="0.6s" fill="freeze" />
		</path>
		<g stroke-linejoin="miter" stroke-linecap="square">
			<path d="M7 14l2 2M7 14l2 -2M15 14l-2 2M15 14l-2 -2" stroke-dasharray="6" stroke-dashoffset="6">
				<animate attributeName="stroke-dashoffset" values="6;0" begin="0.7s" dur="0.3s" fill="freeze" />
			</path>
		</g>
	</g>
</svg>
