<svg xmlns="http://www.w3.org/2000/svg" width="24" height="24" viewBox="0 0 24 24">
	<defs>
		<mask id="SVG64bB5ckL">
			<g stroke-linecap="round" stroke-linejoin="round" stroke-dasharray="48" fill-opacity="0">
				<path d="M10 20.5c0 0 -6 -7 -6 -11.5c0 -3.31 2.69 -6 6 -6c3.31 0 6 2.69 6 6c0 4.5 -6 11.5 -6 11.5Z" stroke="#fff" fill="#fff" stroke-width="2" stroke-dashoffset="37.333" />
				<path d="M14 20.5c0 0 -6 -7 -6 -11.5c0 -3.31 2.69 -6 6 -6c3.31 0 6 2.69 6 6c0 4.5 -6 11.5 -6 11.5Z" stroke="#000" fill="#000" stroke-width="4" stroke-dashoffset="37.333" />
			</g>
			<g fill="#fff">
				<path d="M14 20.5c0 0 -6 -7 -6 -11.5c0 -3.31 2.69 -6 6 -6c3.31 0 6 2.69 6 6c0 4.5 -6 11.5 -6 11.5Z" stroke="#fff" stroke-width="2" stroke-linecap="round" stroke-linejoin="round" fill-opacity="0" stroke-dasharray="48" stroke-dashoffset="37.333" />
				<circle cx="14" cy="9" />
			</g>
		</mask>
	</defs>
	<path d="M0 0h24v24H0z" fill="currentColor" mask="url(#SVG64bB5ckL)" />
</svg>
