<svg xmlns="http://www.w3.org/2000/svg" width="24" height="24" viewBox="0 0 24 24">
	<defs>
		<mask id="SVGvvzpEebA">
			<g stroke-linecap="round" stroke-linejoin="round" stroke-width="2">
				<path d="M13.5 3l5.5 5.5v11.5c0 0.55 -0.45 1 -1 1h-12c-0.55 0 -1 -0.45 -1 -1v-16c0 -0.55 0.45 -1 1 -1Z" stroke="#fff" fill="#fff" />
				<path d="M14 3.5l0 4.5l4.5 0Z" stroke="#000" fill="#000" />
				<g fill="none">
					<path d="M13.5 3l5.5 5.5" stroke="#fff" />
					<path d="M7 13h10M7 17h7" stroke="#000" />
				</g>
			</g>
			<path d="M19 13c3.31 0 6 2.69 6 6c0 3.31 -2.69 6 -6 6c-3.31 0 -6 -2.69 -6 -6c0 -3.31 2.69 -6 6 -6Z" fill="#000" />
		</mask>
	</defs>
	<path d="M0 0h24v24H0z" fill="currentColor" mask="url(#SVGvvzpEebA)" />
	<g fill="none" stroke="currentColor" stroke-linecap="round" stroke-linejoin="round" stroke-width="2" stroke-dasharray="8">
		<path d="M16 19h6" stroke-dashoffset="2" />
		<path d="M19 16v6" stroke-dashoffset="8" />
	</g>
</svg>
