<svg xmlns="http://www.w3.org/2000/svg" width="24" height="24" viewBox="0 0 24 24">
	<defs>
		<mask id="SVGLEg85Apw">
			<g stroke-linecap="round" stroke-linejoin="round" fill-opacity="0">
				<path d="M10 20.5c0 0 -6.83 -7.42 -6.83 -12.33c0 -3.47 2.95 -6.83 6.83 -6.83c3.88 0 6.83 3.37 6.83 6.83c0 4.92 -6.83 12.33 -6.83 12.33Z" stroke="#fff" fill="#fff" stroke-width="2" />
				<path d="M14 20.5c0 0 -6.83 -7.42 -6.83 -12.33c0 -3.47 2.95 -6.83 6.83 -6.83c3.88 0 6.83 3.37 6.83 6.83c0 4.92 -6.83 12.33 -6.83 12.33Z" stroke="#000" fill="#000" stroke-width="4" />
				<path d="M14 20.5c0 0 -6.83 -7.42 -6.83 -12.33c0 -3.47 2.95 -6.83 6.83 -6.83c3.88 0 6.83 3.37 6.83 6.83c0 4.92 -6.83 12.33 -6.83 12.33Z" stroke="#fff" fill="#fff" stroke-width="2" />
			</g>
			<circle cx="14" cy="9" fill="#000" />
		</mask>
	</defs>
	<path d="M0 0h24v24H0z" fill="currentColor" mask="url(#SVGLEg85Apw)" />
</svg>
