<svg xmlns="http://www.w3.org/2000/svg" width="24" height="24" viewBox="0 0 24 24">
	<g fill="none" stroke="currentColor" stroke-width="2" stroke-linecap="round" stroke-linejoin="round">
		<path d="M3 5l2 2l4 -4" stroke-dasharray="10" stroke-dashoffset="10">
			<animate attributeName="stroke-dashoffset" values="10;0" dur="0.2s" fill="freeze" />
		</path>
		<path d="M3 12l2 2l4 -4" stroke-dasharray="10" stroke-dashoffset="10">
			<animate attributeName="stroke-dashoffset" values="10;0" begin="0.4s" dur="0.2s" fill="freeze" />
		</path>
		<path d="M3 19l2 2l4 -4" stroke-dasharray="10" stroke-dashoffset="10">
			<animate attributeName="stroke-dashoffset" values="10;0" begin="0.8s" dur="0.2s" fill="freeze" />
		</path>
		<g fill="currentColor" stroke-width="1">
			<path d="M11.5 5c0 -0.83 0.67 -1.5 1.5 -1.5h6c0.83 0 1.5 0.67 1.5 1.5c0 0.83 -0.67 1.5 -1.5 1.5h-6c-0.83 0 -1.5 -0.67 -1.5 -1.5Z" fill-opacity="0" stroke-dasharray="24" stroke-dashoffset="24">
				<animate attributeName="fill-opacity" values="0;0.3" begin="1.3s" dur="0.15s" fill="freeze" />
				<animate attributeName="stroke-dashoffset" values="24;0" begin="0.2s" dur="0.2s" fill="freeze" />
			</path>
			<path d="M11.5 12c0 -0.83 0.67 -1.5 1.5 -1.5h6c0.83 0 1.5 0.67 1.5 1.5c0 0.83 -0.67 1.5 -1.5 1.5h-6c-0.83 0 -1.5 -0.67 -1.5 -1.5Z" fill-opacity="0" stroke-dasharray="24" stroke-dashoffset="24">
				<animate attributeName="fill-opacity" values="0;0.3" begin="1.7s" dur="0.15s" fill="freeze" />
				<animate attributeName="stroke-dashoffset" values="24;0" begin="0.6s" dur="0.2s" fill="freeze" />
			</path>
			<path d="M11.5 19c0 -0.83 0.67 -1.5 1.5 -1.5h6c0.83 0 1.5 0.67 1.5 1.5c0 0.83 -0.67 1.5 -1.5 1.5h-6c-0.83 0 -1.5 -0.67 -1.5 -1.5Z" fill-opacity="0" stroke-dasharray="24" stroke-dashoffset="24">
				<animate attributeName="fill-opacity" values="0;0.3" begin="2.1s" dur="0.15s" fill="freeze" />
				<animate attributeName="stroke-dashoffset" values="24;0" begin="1s" dur="0.2s" fill="freeze" />
			</path>
		</g>
	</g>
</svg>
