<svg xmlns="http://www.w3.org/2000/svg" width="24" height="24" viewBox="0 0 24 24">
	<g fill="currentColor" stroke="currentColor" stroke-width="1" stroke-linecap="round" stroke-linejoin="round">
		<path d="M3.5 5c0 -0.83 0.67 -1.5 1.5 -1.5c0.83 0 1.5 0.67 1.5 1.5c0 0.83 -0.67 1.5 -1.5 1.5c-0.83 0 -1.5 -0.67 -1.5 -1.5Z" fill-opacity="0" stroke-dasharray="12" stroke-dashoffset="12">
			<animate attributeName="fill-opacity" values="0;0.3" begin="1.7s" dur="0.15s" fill="freeze" />
			<animate attributeName="stroke-dashoffset" values="12;0" dur="0.2s" fill="freeze" />
		</path>
		<path d="M3.5 12c0 -0.83 0.67 -1.5 1.5 -1.5c0.83 0 1.5 0.67 1.5 1.5c0 0.83 -0.67 1.5 -1.5 1.5c-0.83 0 -1.5 -0.67 -1.5 -1.5Z" fill-opacity="0" stroke-dasharray="12" stroke-dashoffset="12">
			<animate attributeName="fill-opacity" values="0;0.3" begin="2.3s" dur="0.15s" fill="freeze" />
			<animate attributeName="stroke-dashoffset" values="12;0" begin="0.6s" dur="0.2s" fill="freeze" />
		</path>
		<path d="M3.5 19c0 -0.83 0.67 -1.5 1.5 -1.5c0.83 0 1.5 0.67 1.5 1.5c0 0.83 -0.67 1.5 -1.5 1.5c-0.83 0 -1.5 -0.67 -1.5 -1.5Z" fill-opacity="0" stroke-dasharray="12" stroke-dashoffset="12">
			<animate attributeName="fill-opacity" values="0;0.3" begin="2.9s" dur="0.15s" fill="freeze" />
			<animate attributeName="stroke-dashoffset" values="12;0" begin="1.2s" dur="0.2s" fill="freeze" />
		</path>
		<path d="M9.5 5c0 -0.83 0.67 -1.5 1.5 -1.5h8c0.83 0 1.5 0.67 1.5 1.5c0 0.83 -0.67 1.5 -1.5 1.5h-8c-0.83 0 -1.5 -0.67 -1.5 -1.5Z" fill-opacity="0" stroke-dasharray="28" stroke-dashoffset="28">
			<animate attributeName="fill-opacity" values="0;0.3" begin="1.9s" dur="0.15s" fill="freeze" />
			<animate attributeName="stroke-dashoffset" values="28;0" begin="0.2s" dur="0.4s" fill="freeze" />
		</path>
		<path d="M9.5 12c0 -0.83 0.67 -1.5 1.5 -1.5h8c0.83 0 1.5 0.67 1.5 1.5c0 0.83 -0.67 1.5 -1.5 1.5h-8c-0.83 0 -1.5 -0.67 -1.5 -1.5Z" fill-opacity="0" stroke-dasharray="28" stroke-dashoffset="28">
			<animate attributeName="fill-opacity" values="0;0.3" begin="2.5s" dur="0.15s" fill="freeze" />
			<animate attributeName="stroke-dashoffset" values="28;0" begin="0.8s" dur="0.4s" fill="freeze" />
		</path>
		<path d="M9.5 19c0 -0.83 0.67 -1.5 1.5 -1.5h8c0.83 0 1.5 0.67 1.5 1.5c0 0.83 -0.67 1.5 -1.5 1.5h-8c-0.83 0 -1.5 -0.67 -1.5 -1.5Z" fill-opacity="0" stroke-dasharray="28" stroke-dashoffset="28">
			<animate attributeName="fill-opacity" values="0;0.3" begin="3.1s" dur="0.15s" fill="freeze" />
			<animate attributeName="stroke-dashoffset" values="28;0" begin="1.4s" dur="0.4s" fill="freeze" />
		</path>
	</g>
</svg>
