<svg xmlns="http://www.w3.org/2000/svg" width="24" height="24" viewBox="0 0 24 24">
	<path d="M12 9c1.66 0 3 1.34 3 3c0 1.66 -1.34 3 -3 3c-1.66 0 -3 -1.34 -3 -3c0 -1.66 1.34 -3 3 -3ZM15.24 6.37c0.41 0.23 0.8 0.51 1.14 0.83c0.18 0.17 0.79 0.16 0.95 0.35c0.39 0.47 0.98 1.47 1.19 2.07c0.08 0.22 -0.23 0.74 -0.17 0.98c0.1 0.45 0.15 0.93 0.15 1.41M18.5 11.99c0.01 0.47 -0.04 0.95 -0.15 1.4c-0.05 0.24 0.25 0.76 0.17 0.99c-0.22 0.57 -0.79 1.58 -1.19 2.07c-0.15 0.18 -0.76 0.17 -0.93 0.34c-0.34 0.31 -0.73 0.59 -1.15 0.83M15.26 17.62c-0.4 0.24 -0.84 0.44 -1.29 0.57c-0.23 0.07 -0.54 0.6 -0.77 0.64c-0.61 0.1 -1.76 0.11 -2.39 0c-0.23 -0.04 -0.53 -0.57 -0.76 -0.63c-0.44 -0.14 -0.88 -0.34 -1.3 -0.58M8.76 17.63c-0.41 -0.23 -0.8 -0.51 -1.14 -0.83c-0.18 -0.17 -0.79 -0.16 -0.95 -0.35c-0.39 -0.47 -0.98 -1.47 -1.19 -2.07c-0.08 -0.22 0.23 -0.74 0.17 -0.98c-0.1 -0.45 -0.15 -0.93 -0.15 -1.41M5.5 12.01c-0.01 -0.47 0.04 -0.95 0.15 -1.4c0.05 -0.24 -0.25 -0.76 -0.17 -0.99c0.22 -0.57 0.79 -1.58 1.19 -2.07c0.15 -0.18 0.76 -0.17 0.93 -0.34c0.34 -0.31 0.73 -0.59 1.15 -0.83M8.74 6.38c0.4 -0.24 0.84 -0.44 1.29 -0.57c0.23 -0.07 0.54 -0.6 0.77 -0.64c0.61 -0.1 1.76 -0.11 2.39 0c0.23 0.04 0.53 0.57 0.76 0.63c0.44 0.14 0.88 0.34 1.3 0.58" fill="none" stroke="currentColor" stroke-linecap="round" stroke-linejoin="round" stroke-width="2" />
</svg>
