<svg xmlns="http://www.w3.org/2000/svg" width="24" height="24" viewBox="0 0 24 24">
	<path d="M12 9c1.66 0 3 1.34 3 3c0 1.66 -1.34 3 -3 3c-1.66 0 -3 -1.34 -3 -3c0 -1.66 1.34 -3 3 -3ZM15.24 6.37c0.41 0.23 0.8 0.51 1.14 0.83c0.07 0.07 1.89 -0.58 1.96 -0.5c0.16 0.19 1.33 2.21 1.41 2.45c0.04 0.11 -1.42 1.35 -1.4 1.44c0.1 0.45 0.15 0.93 0.15 1.41M18.5 11.99c0.01 0.47 -0.04 0.95 -0.15 1.4c-0.02 0.1 1.45 1.34 1.41 1.45c-0.09 0.23 -1.25 2.25 -1.41 2.45c-0.07 0.08 -1.88 -0.56 -1.95 -0.49c-0.34 0.31 -0.73 0.59 -1.15 0.83M15.26 17.62c-0.4 0.24 -0.84 0.44 -1.29 0.57c-0.09 0.03 -0.44 1.93 -0.55 1.94c-0.24 0.04 -2.58 0.04 -2.83 0c-0.11 -0.02 -0.46 -1.91 -0.55 -1.93c-0.44 -0.14 -0.88 -0.34 -1.3 -0.58M8.76 17.63c-0.41 -0.23 -0.8 -0.51 -1.14 -0.83c-0.07 -0.07 -1.89 0.58 -1.96 0.5c-0.16 -0.19 -1.33 -2.21 -1.41 -2.45c-0.04 -0.11 1.42 -1.35 1.4 -1.44c-0.1 -0.45 -0.15 -0.93 -0.15 -1.41M5.5 12.01c-0.01 -0.47 0.04 -0.95 0.15 -1.4c0.02 -0.1 -1.45 -1.34 -1.41 -1.45c0.09 -0.23 1.25 -2.25 1.41 -2.45c0.07 -0.08 1.88 0.56 1.95 0.49c0.34 -0.31 0.73 -0.59 1.15 -0.83M8.74 6.38c0.4 -0.24 0.84 -0.44 1.29 -0.57c0.09 -0.03 0.44 -1.93 0.55 -1.94c0.24 -0.04 2.58 -0.04 2.83 0c0.11 0.02 0.46 1.91 0.55 1.93c0.44 0.14 0.88 0.34 1.3 0.58" fill="none" stroke="currentColor" stroke-linecap="round" stroke-linejoin="round" stroke-width="2" />
</svg>
