<svg xmlns="http://www.w3.org/2000/svg" width="24" height="24" viewBox="0 0 24 24">
	<defs>
		<mask id="SVG51z8CnnN">
			<path d="M5 19v0c-0.3 0 -0.59 -0.15 -0.74 -0.41c-0.8 -1.34 -1.26 -2.91 -1.26 -4.59c0 -4.97 4.03 -9 9 -9c4.97 0 9 4.03 9 9c0 1.68 -0.46 3.25 -1.26 4.59c-0.15 0.26 -0.44 0.41 -0.74 0.41Z" stroke="#fff" fill="#fff" stroke-width="2" stroke-linecap="round" stroke-linejoin="round" fill-opacity="0" />
			<path d="M12.83 14c0 0.46 -0.37 0.83 -0.83 0.83c-0.46 0 -0.83 -0.37 -0.83 -0.83c0 -0.46 0.83 -2.92 0.83 -2.92c0 0 0.83 2.46 0.83 2.92Z" fill="#000" transform="rotate(-100 12 14)" />
		</mask>
	</defs>
	<g fill="currentColor">
		<path d="M0 0h24v24H0z" mask="url(#SVG51z8CnnN)" />
		<path d="M12.42 14c0 0.23 -0.19 0.42 -0.42 0.42c-0.23 0 -0.42 -0.19 -0.42 -0.42c0 -0.23 0.42 -2.08 0.42 -2.08c0 0 0.42 1.85 0.42 2.08Z" transform="rotate(-100 12 14)" />
	</g>
</svg>
