<svg xmlns="http://www.w3.org/2000/svg" width="24" height="24" viewBox="0 0 24 24">
	<defs>
		<mask id="SVGorSfAdSt">
			<path d="M5 19v0c-0.3 0 -0.59 -0.15 -0.74 -0.41c-0.8 -1.34 -1.26 -2.91 -1.26 -4.59c0 -4.97 4.03 -9 9 -9c4.97 0 9 4.03 9 9c0 1.68 -0.46 3.25 -1.26 4.59c-0.15 0.26 -0.44 0.41 -0.74 0.41Z" stroke="#fff" fill="#fff" stroke-width="2" stroke-linecap="round" stroke-linejoin="round" fill-opacity="0" />
			<path d="M14.83 14c0 1.57 -1.27 2.83 -2.83 2.83c-1.57 0 -2.83 -1.27 -2.83 -2.83c0 -1.57 2.83 -9.92 2.83 -9.92c0 0 2.83 8.35 2.83 9.92Z" fill="#000" transform="rotate(-100 12 14)" />
		</mask>
	</defs>
	<g fill="currentColor">
		<path d="M0 0h24v24H0z" mask="url(#SVGorSfAdSt)" />
		<path d="M13.42 14c0 0.78 -0.64 1.42 -1.42 1.42c-0.78 0 -1.42 -0.64 -1.42 -1.42c0 -0.78 1.42 -7.08 1.42 -7.08c0 0 1.42 6.3 1.42 7.08Z" transform="rotate(-100 12 14)" />
	</g>
</svg>
