<svg xmlns="http://www.w3.org/2000/svg" width="24" height="24" viewBox="0 0 24 24">
	<defs>
		<mask id="SVG5iJIkcHS">
			<path d="M5 19v0c-0.3 0 -0.59 -0.15 -0.74 -0.41c-0.8 -1.34 -1.26 -2.91 -1.26 -4.59c0 -4.97 4.03 -9 9 -9c4.97 0 9 4.03 9 9c0 1.68 -0.46 3.25 -1.26 4.59c-0.15 0.26 -0.44 0.41 -0.74 0.41Z" stroke="#fff" fill="#fff" stroke-width="2" stroke-linecap="round" stroke-linejoin="round" fill-opacity="0" />
			<path d="M15.33 14c0 1.84 -1.49 3.33 -3.33 3.33c-1.84 0 -3.33 -1.49 -3.33 -3.33c0 -1.84 3.33 -11.67 3.33 -11.67c0 0 3.33 9.83 3.33 11.67Z" fill="#000" transform="rotate(-100 12 14)" />
		</mask>
	</defs>
	<g fill="currentColor">
		<path d="M0 0h24v24H0z" mask="url(#SVG5iJIkcHS)" />
		<path d="M13.67 14c0 0.92 -0.75 1.67 -1.67 1.67c-0.92 0 -1.67 -0.75 -1.67 -1.67c0 -0.92 1.67 -8.33 1.67 -8.33c0 0 1.67 7.42 1.67 8.33Z" transform="rotate(-100 12 14)" />
	</g>
</svg>
