<svg xmlns="http://www.w3.org/2000/svg" width="24" height="24" viewBox="0 0 24 24">
	<defs>
		<mask id="SVGKK7Lrcpl">
			<g stroke="#fff" stroke-linecap="round" stroke-linejoin="round" stroke-width="2">
				<path d="M12 7c2.76 0 5 2.24 5 5c0 2.76 -2.24 5 -5 5c-2.76 0 -5 -2.24 -5 -5c0 -2.76 2.24 -5 5 -5Z" fill="#fff" />
				<path d="M12 21v1M21 12h1M12 3v-1M3 12h-1M17.31 17.31l0.5 0.5M17.31 6.69l0.5 -0.5M6.69 6.69l-0.5 -0.5M6.69 17.31l-0.5 0.5" transform="rotate(14.9 12 12)" fill="none" />
			</g>
		</mask>
	</defs>
	<path d="M0 0h24v24H0z" fill="currentColor" mask="url(#SVGKK7Lrcpl)" />
</svg>
