<svg xmlns="http://www.w3.org/2000/svg" width="24" height="24" viewBox="0 0 24 24">
	<defs>
		<mask id="SVGvbaKLdRG">
			<g stroke="#fff" stroke-linecap="round" stroke-linejoin="round" stroke-width="2">
				<path d="M12 7c2.76 0 5 2.24 5 5c0 2.76 -2.24 5 -5 5c-2.76 0 -5 -2.24 -5 -5c0 -2.76 2.24 -5 5 -5Z" fill="#fff" />
				<path d="M12 21v1M21 12h1M12 3v-1M3 12h-1M17.81 17.81l0.5 0.5M17.81 6.19l0.5 -0.5M6.19 6.19l-0.5 -0.5M6.19 17.81l-0.5 0.5" transform="rotate(15.7 12 12)" fill="none" />
			</g>
		</mask>
	</defs>
	<path d="M0 0h24v24H0z" fill="currentColor" mask="url(#SVGvbaKLdRG)" />
</svg>
