<svg xmlns="http://www.w3.org/2000/svg" width="24" height="24" viewBox="0 0 24 24">
	<defs>
		<mask id="SVGX2aw2AsY">
			<g stroke-linecap="round" stroke-linejoin="round" stroke-width="2">
				<path d="M12 7c2.76 0 5 2.24 5 5c0 2.76 -2.24 5 -5 5c-2.76 0 -5 -2.24 -5 -5c0 -2.76 2.24 -5 5 -5Z" stroke="#fff" fill="#fff" />
				<g fill="none">
					<path d="M12 21v1M21 12h1M12 3v-1M3 12h-1M18.31 18.31l0.5 0.5M18.31 5.69l0.5 -0.5M5.69 5.69l-0.5 -0.5M5.69 18.31l-0.5 0.5" transform="rotate(16.5 12 12)" stroke="#fff" />
					<path d="M-1 11h26" stroke="#000" transform="rotate(45 12 12)" stroke-dasharray="28" stroke-dashoffset="28" />
				</g>
			</g>
		</mask>
	</defs>
	<path d="M0 0h24v24H0z" fill="currentColor" mask="url(#SVGX2aw2AsY)" />
	<path d="M-1.08 13h26" stroke="currentColor" fill="none" stroke-width="2" stroke-linecap="round" stroke-linejoin="round" transform="rotate(45 12 12)" stroke-dasharray="28" stroke-dashoffset="28" />
</svg>
