<svg xmlns="http://www.w3.org/2000/svg" width="24" height="24" viewBox="0 0 24 24">
	<defs>
		<mask id="SVGN6W2egmT">
			<path d="M12 5c0 0 5 6 5 9c0 2.76 -2.24 5 -5 5c-2.76 0 -5 -2.24 -5 -5c0 -3 5 -9 5 -9Z" fill="#fff" fill-opacity="0.979" />
			<path d="M12 5c0 0 5 6 5 9c0 2.76 -2.24 5 -5 5M12 5c0 0 -5 6 -5 9c0 2.76 2.24 5 5 5" stroke="#fff" fill="none" stroke-width="2" stroke-linecap="round" stroke-linejoin="round" />
		</mask>
	</defs>
	<path d="M0 0h24v24H0z" fill="currentColor" mask="url(#SVGN6W2egmT)" />
</svg>
