<svg xmlns="http://www.w3.org/2000/svg" width="24" height="24" viewBox="0 0 24 24">
	<g fill="none" stroke="currentColor" stroke-linecap="round" stroke-linejoin="round" stroke-width="2">
		<path d="M12 4h7c0.55 0 1 0.45 1 1v14c0 0.55 -0.45 1 -1 1h-14c-0.55 0 -1 -0.44 -1 -1v-14c0 -0.55 0.45 -1 1 -1Z" stroke-dasharray="66" stroke-dashoffset="31.167" />
		<path d="M9 10c0 -1.66 1.34 -3 3 -3c1.66 0 3 1.34 3 3c0 0.98 -0.47 1.85 -1.2 2.4c-0.73 0.55 -1.3 0.6 -1.8 1.6" stroke-dasharray="18" stroke-dashoffset="18" />
		<path d="M12 17v0.01" stroke-dasharray="4" stroke-dashoffset="4" />
	</g>
</svg>
