<svg xmlns="http://www.w3.org/2000/svg" width="24" height="24" viewBox="0 0 24 24">
	<mask id="beer-mask">
		<g transform="translate(0 16)">
			<g>
				<path d="M18 7C16 7 15 9 13 9C11 9 10 7 8 7C6 7 5 9 3 9C1 9 0 7 -2 7C-4 7 -5 9 -7 9" stroke="#fff" stroke-width="2" />
				<path d="M18 7C16 7 15 9 13 9C11 9 10 7 8 7C6 7 5 9 3 9C1 9 0 7 -2 7C-4 7 -5 9 -7 9V24H18z" fill="#fff" />
				<animateMotion path="M0 0h10" calcMode="linear" dur="3s" repeatCount="indefinite" />
			</g>
			<animateMotion path="M0 0v-16" calcMode="linear" begin="0.6s" dur="0.6s" fill="freeze" />
		</g>
	</mask>
	<path d="M18 3L16 21H7L5 3z" fill="none" stroke="currentColor" stroke-width="2" stroke-linecap="round" stroke-linejoin="round" stroke-dasharray="60" stroke-dashoffset="60">
		<animate attributeName="stroke-dashoffset" values="60;0" dur="0.6s" fill="freeze" />
	</path>
	<path d="M18 3L16 21H7L5 3z" fill="currentColor" mask="url(#beer-mask)" />
</svg>
