<svg xmlns="http://www.w3.org/2000/svg" width="24" height="24" viewBox="0 0 24 24">
	<defs>
		<mask id="SVGZ9W9hc5S">
			<path d="M5 23.67h1c0.6 -0.37 1.22 -0.67 2 -0.67c2 0 3 2 5 2c1.64 0 2.6 -1.34 4 -1.83h1" stroke="#fff" fill="none" stroke-width="2" stroke-linecap="round" stroke-linejoin="round" />
			<path d="M18 23c-2 0 -3 2 -5 2c-2 0 -3 -2 -5 -2c-2 0 -3 2 -5 2c-2 0 -3 -2 -5 -2c-2 0 -3 2 -5 2v15h25Z" fill="#fff" fill-opacity="0.3" />
			<path d="M18 3l-2 18h-9l-2 -18h-5v21h24v-20Z" fill="#000" />
		</mask>
	</defs>
	<path d="M0 0h24v24H0z" fill="currentColor" mask="url(#SVGZ9W9hc5S)" />
	<path d="M18 3l-2 18h-9l-2 -18Z" stroke="currentColor" fill="none" stroke-width="2" stroke-linecap="round" stroke-linejoin="round" stroke-dasharray="62" stroke-dashoffset="58.556" />
</svg>
