<svg xmlns="http://www.w3.org/2000/svg" width="24" height="24" viewBox="0 0 24 24">
	<defs>
		<mask id="SVGSiQ1octd">
			<g stroke-linecap="round" stroke-linejoin="round">
				<path d="M10 20.5c0 0 -1 -1.5 -1 -2.5c0 -0.5 0.5 -1 1 -1c0.5 0 1 0.5 1 1c0 1 -1 2.5 -1 2.5Z" stroke="#fff" fill="none" stroke-width="2" />
				<path d="M14 20.5c0 0 -1 -1.5 -1 -2.5c0 -0.5 0.5 -1 1 -1c0.5 0 1 0.5 1 1c0 1 -1 2.5 -1 2.5Z" stroke="#000" fill="#000" stroke-width="4" />
			</g>
		</mask>
	</defs>
	<path d="M0 0h24v24H0z" fill="currentColor" mask="url(#SVGSiQ1octd)" />
	<path d="M14 20.5c0 0 -1 -1.5 -1 -2.5c0 -0.5 0.5 -1 1 -1c0.5 0 1 0.5 1 1c0 1 -1 2.5 -1 2.5Z" stroke="currentColor" fill="none" stroke-width="2" stroke-linecap="round" stroke-linejoin="round" />
	<circle cx="14" cy="9" fill="currentColor" />
</svg>
