<svg xmlns="http://www.w3.org/2000/svg" width="24" height="24" viewBox="0 0 24 24">
	<defs>
		<mask id="SVGiMIGLeKF">
			<g stroke-linecap="round" stroke-linejoin="round">
				<path d="M10 20.5c0 0 -3.14 -3.64 -3.14 -6.07c0 -1.57 1.39 -3.14 3.14 -3.14c1.75 0 3.14 1.57 3.14 3.14c0 2.43 -3.14 6.07 -3.14 6.07Z" stroke="#fff" fill="none" stroke-width="2" />
				<path d="M14 20.5c0 0 -3.14 -3.64 -3.14 -6.07c0 -1.57 1.39 -3.14 3.14 -3.14c1.75 0 3.14 1.57 3.14 3.14c0 2.43 -3.14 6.07 -3.14 6.07Z" stroke="#000" fill="#000" stroke-width="4" />
			</g>
		</mask>
	</defs>
	<path d="M0 0h24v24H0z" fill="currentColor" mask="url(#SVGiMIGLeKF)" />
	<path d="M14 20.5c0 0 -3.14 -3.64 -3.14 -6.07c0 -1.57 1.39 -3.14 3.14 -3.14c1.75 0 3.14 1.57 3.14 3.14c0 2.43 -3.14 6.07 -3.14 6.07Z" stroke="currentColor" fill="none" stroke-width="2" stroke-linecap="round" stroke-linejoin="round" />
	<circle cx="14" cy="9" fill="currentColor" />
</svg>
