<svg xmlns="http://www.w3.org/2000/svg" width="24" height="24" viewBox="0 0 24 24">
	<defs>
		<mask id="SVGWq3pndmO">
			<g stroke-linecap="round" stroke-linejoin="round">
				<path d="M10 20.5c0 0 -4.39 -4.89 -4.39 -8.15c0 -2.2 1.91 -4.39 4.39 -4.39c2.48 0 4.39 2.2 4.39 4.39c0 3.26 -4.39 8.15 -4.39 8.15Z" stroke="#fff" fill="none" stroke-width="2" />
				<path d="M14 20.5c0 0 -4.39 -4.89 -4.39 -8.15c0 -2.2 1.91 -4.39 4.39 -4.39c2.48 0 4.39 2.2 4.39 4.39c0 3.26 -4.39 8.15 -4.39 8.15Z" stroke="#000" fill="#000" stroke-width="4" />
			</g>
		</mask>
	</defs>
	<path d="M0 0h24v24H0z" fill="currentColor" mask="url(#SVGWq3pndmO)" />
	<path d="M14 20.5c0 0 -4.39 -4.89 -4.39 -8.15c0 -2.2 1.91 -4.39 4.39 -4.39c2.48 0 4.39 2.2 4.39 4.39c0 3.26 -4.39 8.15 -4.39 8.15Z" stroke="currentColor" fill="none" stroke-width="2" stroke-linecap="round" stroke-linejoin="round" />
	<circle cx="14" cy="9" fill="currentColor" />
</svg>
