<svg xmlns="http://www.w3.org/2000/svg" width="24" height="24" viewBox="0 0 24 24">
	<defs>
		<mask id="SVG6V20IcTq">
			<g stroke-linecap="round" stroke-linejoin="round">
				<path d="M10 20.5c0 0 -4.57 -5.07 -4.57 -8.45c0 -2.29 1.99 -4.57 4.57 -4.57c2.58 0 4.57 2.29 4.57 4.57c0 3.38 -4.57 8.45 -4.57 8.45Z" stroke="#fff" fill="none" stroke-width="2" />
				<path d="M14 20.5c0 0 -4.57 -5.07 -4.57 -8.45c0 -2.29 1.99 -4.57 4.57 -4.57c2.58 0 4.57 2.29 4.57 4.57c0 3.38 -4.57 8.45 -4.57 8.45Z" stroke="#000" fill="#000" stroke-width="4" />
			</g>
		</mask>
	</defs>
	<path d="M0 0h24v24H0z" fill="currentColor" mask="url(#SVG6V20IcTq)" />
	<path d="M14 20.5c0 0 -4.57 -5.07 -4.57 -8.45c0 -2.29 1.99 -4.57 4.57 -4.57c2.58 0 4.57 2.29 4.57 4.57c0 3.38 -4.57 8.45 -4.57 8.45Z" stroke="currentColor" fill="none" stroke-width="2" stroke-linecap="round" stroke-linejoin="round" />
	<circle cx="14" cy="9" fill="currentColor" />
</svg>
