<svg xmlns="http://www.w3.org/2000/svg" width="24" height="24" viewBox="0 0 24 24">
	<defs>
		<mask id="SVGr0bqH1ja">
			<g stroke-linecap="round" stroke-linejoin="round">
				<path d="M10 20.5c0 0 -5.11 -5.61 -5.11 -9.35c0 -2.55 2.21 -5.11 5.11 -5.11c2.9 0 5.11 2.55 5.11 5.11c0 3.74 -5.11 9.35 -5.11 9.35Z" stroke="#fff" fill="none" stroke-width="2" />
				<path d="M14 20.5c0 0 -5.11 -5.61 -5.11 -9.35c0 -2.55 2.21 -5.11 5.11 -5.11c2.9 0 5.11 2.55 5.11 5.11c0 3.74 -5.11 9.35 -5.11 9.35Z" stroke="#000" fill="#000" stroke-width="4" />
			</g>
		</mask>
	</defs>
	<path d="M0 0h24v24H0z" fill="currentColor" mask="url(#SVGr0bqH1ja)" />
	<path d="M14 20.5c0 0 -5.11 -5.61 -5.11 -9.35c0 -2.55 2.21 -5.11 5.11 -5.11c2.9 0 5.11 2.55 5.11 5.11c0 3.74 -5.11 9.35 -5.11 9.35Z" stroke="currentColor" fill="none" stroke-width="2" stroke-linecap="round" stroke-linejoin="round" />
	<circle cx="14" cy="9" fill="currentColor" />
</svg>
