<svg xmlns="http://www.w3.org/2000/svg" width="24" height="24" viewBox="0 0 24 24">
	<defs>
		<mask id="SVGB9Ud0cUV">
			<g stroke-linecap="round" stroke-linejoin="round" stroke-width="2">
				<path d="M12 3c4.97 0 9 4.03 9 9c0 4.97 -4.03 9 -9 9c-4.97 0 -9 -4.03 -9 -9c0 -4.97 4.03 -9 9 -9" stroke="#fff" fill="#fff" />
				<path d="M9 9v1" stroke="#000" fill="none" stroke-dasharray="4" stroke-dashoffset="2.667" />
			</g>
			<path d="M12 15c-3.25 0 -4.5 0 -4.5 0c0 0 0.45 0 1 0c0.75 0 0.5 0 3.5 0c3 0 2.75 0 3.5 0c0.55 0 1 0 1 0c0 0 -1.25 0 -4.5 0Z" fill="#000" />
		</mask>
	</defs>
	<path d="M0 0h24v24H0z" fill="currentColor" mask="url(#SVGB9Ud0cUV)" />
</svg>
