<svg xmlns="http://www.w3.org/2000/svg" width="24" height="24" viewBox="0 0 24 24">
	<defs>
		<mask id="SVGlypkGdZo">
			<g stroke-linecap="round" stroke-linejoin="round" stroke-width="2">
				<path d="M12 3c4.97 0 9 4.03 9 9c0 4.97 -4.03 9 -9 9c-4.97 0 -9 -4.03 -9 -9c0 -4.97 4.03 -9 9 -9" stroke="#fff" fill="#fff" />
				<path d="M9 9v1M15 9v1" fill="none" stroke="#000" />
			</g>
			<path d="M12 14.92c-3.25 0 -4.5 0.1 -4.5 0.12c0 0.02 0.45 0.04 1 0.04c0.75 0 0.5 -0.02 3.5 -0.02c3 0 2.75 0.02 3.5 0.02c0.55 0 1 -0.02 1 -0.04c0 -0.02 -1.25 -0.12 -4.5 -0.12Z" fill="#000" />
		</mask>
	</defs>
	<path d="M0 0h24v24H0z" fill="currentColor" mask="url(#SVGlypkGdZo)" />
</svg>
