<svg xmlns="http://www.w3.org/2000/svg" width="24" height="24" viewBox="0 0 24 24">
	<defs>
		<mask id="SVGDT9KNofJ">
			<g stroke-linecap="round" stroke-linejoin="round" stroke-width="2">
				<path d="M12 3c4.97 0 9 4.03 9 9c0 4.97 -4.03 9 -9 9c-4.97 0 -9 -4.03 -9 -9c0 -4.97 4.03 -9 9 -9" stroke="#fff" fill="#fff" />
				<path d="M9 9v1M15 9v1" fill="none" stroke="#000" />
			</g>
			<path d="M12 14.58c-3.25 0 -4.5 0.51 -4.5 0.63c0 0.11 0.45 0.21 1 0.21c0.75 0 0.5 -0.1 3.5 -0.1c3 0 2.75 0.1 3.5 0.1c0.55 0 1 -0.09 1 -0.21c0 -0.11 -1.25 -0.63 -4.5 -0.63Z" fill="#000" />
		</mask>
	</defs>
	<path d="M0 0h24v24H0z" fill="currentColor" mask="url(#SVGDT9KNofJ)" />
</svg>
