<svg xmlns="http://www.w3.org/2000/svg" width="24" height="24" viewBox="0 0 24 24">
	<defs>
		<mask id="SVGMmCKmetP">
			<g fill="#fff">
				<path d="M12 4c4.42 0 8 3.58 8 8c0 4.42 -3.58 8 -8 8c-4.42 0 -8 -3.58 -8 -8c0 -4.42 3.58 -8 8 -8Z" stroke="#fff" stroke-width="2" stroke-linecap="round" stroke-linejoin="round" fill-opacity="0.3" />
				<circle cx="12" cy="12" r="4" />
			</g>
			<g fill="none" stroke-linecap="round" stroke-linejoin="round" stroke-width="2">
				<path d="M12 4v-2M20 12h2M12 20v2M4 12h-2" stroke="#fff" transform="rotate(192.8 12 12)" />
				<path d="M-1 11h26" stroke="#000" transform="rotate(45 12 12)" />
			</g>
		</mask>
	</defs>
	<path d="M0 0h24v24H0z" fill="currentColor" mask="url(#SVGMmCKmetP)" />
	<path d="M-1 13h26" stroke="currentColor" fill="none" stroke-width="2" stroke-linecap="round" stroke-linejoin="round" transform="rotate(45 12 12)" />
</svg>
