<svg xmlns="http://www.w3.org/2000/svg" width="24" height="24" viewBox="0 0 24 24">
	<defs>
		<mask id="SVGuWt7FbAb">
			<g fill="none" stroke="#fff" stroke-linecap="round" stroke-linejoin="round" stroke-width="2">
				<path d="M12 3c4.97 0 9 4.03 9 9c0 4.97 -4.03 9 -9 9c-4.97 0 -9 -4.03 -9 -9c0 -4.97 4.03 -9 9 -9M9 9v1" />
				<path d="M15 9v1" stroke-dasharray="4" stroke-dashoffset="1.167" />
			</g>
			<path d="M9.55 12c1.19 1.88 2.45 4.18 2.45 5.5c0 2.5 -2 4.5 -4.5 4.5c-2.5 0 -4.5 -2 -4.5 -4.5c0 -1.32 1.26 -3.62 2.45 -5.5Z" fill="#000" opacity="0.708" />
		</mask>
	</defs>
	<g fill="currentColor">
		<path d="M0 0h24v24H0z" mask="url(#SVGuWt7FbAb)" />
		<path d="M7.5 13c0 0 2.5 3.12 2.5 4.5c0 1.38 -1.12 2.5 -2.5 2.5c-1.38 0 -2.5 -1.12 -2.5 -2.5c0 -1.38 2.5 -4.5 2.5 -4.5Z" opacity="0.708" />
	</g>
</svg>
