<svg xmlns="http://www.w3.org/2000/svg" width="24" height="24" viewBox="0 0 24 24">
	<defs>
		<mask id="SVGKoPf6dgx">
			<g fill="none" stroke="#fff" stroke-linecap="round" stroke-linejoin="round" stroke-width="2">
				<path d="M12 3c4.97 0 9 4.03 9 9c0 4.97 -4.03 9 -9 9c-4.97 0 -9 -4.03 -9 -9c0 -4.97 4.03 -9 9 -9M9 9v1M15 9v1" />
				<path d="M8 16c0.5 -1 1.79 -2 4 -2c2.21 0 3.5 1 4 2" stroke-dasharray="12" stroke-dashoffset="10" />
			</g>
			<path d="M9.55 12c1.19 1.88 2.45 4.18 2.45 5.5c0 2.5 -2 4.5 -4.5 4.5c-2.5 0 -4.5 -2 -4.5 -4.5c0 -1.32 1.26 -3.62 2.45 -5.5Z" fill="#000" />
		</mask>
	</defs>
	<g fill="currentColor">
		<path d="M0 0h24v24H0z" mask="url(#SVGKoPf6dgx)" />
		<path d="M7.5 13c0 0 2.5 3.12 2.5 4.5c0 1.38 -1.12 2.5 -2.5 2.5c-1.38 0 -2.5 -1.12 -2.5 -2.5c0 -1.38 2.5 -4.5 2.5 -4.5Z" />
	</g>
</svg>
