<svg xmlns="http://www.w3.org/2000/svg" width="24" height="24" viewBox="0 0 24 24">
	<g fill="currentColor">
		<path d="M12 18c0 0 -5.14 -6 -5.14 -9.86c0 -2.84 2.3 -5.14 5.14 -5.14c2.84 0 5.14 2.3 5.14 5.14c0 3.86 -5.14 9.86 -5.14 9.86Z" stroke="currentColor" stroke-width="2" stroke-linecap="round" stroke-linejoin="round" fill-opacity="0.3" />
		<circle cx="12" cy="8.143" r="2.5" />
		<path d="M12 18.25c0.28 0 0.5 -0.09 0.5 -0.21c0 -0.06 -0.06 -0.11 -0.15 -0.15l0.05 -0.08c0.17 0.07 0.27 0.16 0.27 0.27c0 0.18 -0.3 0.33 -0.67 0.33c-0.37 0 -0.67 -0.15 -0.67 -0.33c0 -0.11 0.1 -0.2 0.26 -0.27l0.05 0.08c-0.08 0.04 -0.14 0.09 -0.14 0.15c0 0.12 0.23 0.21 0.5 0.21Z" />
	</g>
</svg>
