<svg xmlns="http://www.w3.org/2000/svg" width="24" height="24" viewBox="0 0 24 24">
	<g fill="currentColor">
		<path d="M12 18c0 0 -5.14 -6 -5.14 -9.86c0 -2.84 2.3 -5.14 5.14 -5.14c2.84 0 5.14 2.3 5.14 5.14c0 3.86 -5.14 9.86 -5.14 9.86Z" stroke="currentColor" stroke-width="2" stroke-linecap="round" stroke-linejoin="round" fill-opacity="0.3" />
		<circle cx="12" cy="8.143" r="2.5" />
		<path d="M12 18.62c0.69 0 1.25 -0.23 1.25 -0.52c0 -0.15 -0.15 -0.27 -0.37 -0.37l0.12 -0.19c0.42 0.17 0.67 0.4 0.67 0.67c0 0.46 -0.75 0.83 -1.67 0.83c-0.92 0 -1.67 -0.37 -1.67 -0.83c0 -0.27 0.25 -0.5 0.65 -0.67l0.12 0.19c-0.21 0.1 -0.35 0.23 -0.35 0.37c0 0.29 0.56 0.52 1.25 0.52Z" />
	</g>
</svg>
