<svg xmlns="http://www.w3.org/2000/svg" width="24" height="24" viewBox="0 0 24 24">
	<g fill="currentColor">
		<path d="M12 18c0 0 -5.14 -6 -5.14 -9.86c0 -2.84 2.3 -5.14 5.14 -5.14c2.84 0 5.14 2.3 5.14 5.14c0 3.86 -5.14 9.86 -5.14 9.86Z" stroke="currentColor" stroke-width="2" stroke-linecap="round" stroke-linejoin="round" fill-opacity="0.3" />
		<circle cx="12" cy="8.143" r="2.5" />
		<path d="M12 20.75c3.03 0 5.5 -1.01 5.5 -2.29c0 -0.64 -0.64 -1.19 -1.65 -1.65l0.55 -0.83c1.83 0.73 2.93 1.74 2.93 2.93c0 2.02 -3.3 3.67 -7.33 3.67c-4.03 0 -7.33 -1.65 -7.33 -3.67c0 -1.19 1.1 -2.2 2.84 -2.93l0.55 0.83c-0.92 0.46 -1.56 1.01 -1.56 1.65c0 1.28 2.48 2.29 5.5 2.29Z" />
	</g>
</svg>
