<svg xmlns="http://www.w3.org/2000/svg" width="24" height="24" viewBox="0 0 24 24">
	<g fill="currentColor">
		<path d="M12 18c0 0 -5.14 -6 -5.14 -9.86c0 -2.84 2.3 -5.14 5.14 -5.14c2.84 0 5.14 2.3 5.14 5.14c0 3.86 -5.14 9.86 -5.14 9.86Z" stroke="currentColor" stroke-width="2" stroke-linecap="round" stroke-linejoin="round" fill-opacity="0.3" />
		<circle cx="12" cy="8.143" r="2.5" />
		<path d="M12 20.38c2.61 0 4.75 -0.87 4.75 -1.98c0 -0.55 -0.55 -1.03 -1.42 -1.42l0.47 -0.71c1.58 0.63 2.53 1.5 2.53 2.53c0 1.74 -2.85 3.17 -6.33 3.17c-3.48 0 -6.33 -1.42 -6.33 -3.17c0 -1.03 0.95 -1.9 2.45 -2.53l0.47 0.71c-0.79 0.4 -1.35 0.87 -1.35 1.42c0 1.11 2.14 1.98 4.75 1.98Z" />
	</g>
</svg>
