<svg xmlns="http://www.w3.org/2000/svg" width="24" height="24" viewBox="0 0 24 24">
	<defs>
		<mask id="SVG4mA1ebah">
			<path d="M12 2.75c5.11 0 9.25 4.14 9.25 9.25c0 5.11 -4.14 9.25 -9.25 9.25c-5.11 0 -9.25 -4.14 -9.25 -9.25c0 -5.11 4.14 -9.25 9.25 -9.25Z" fill="#fff" />
			<path d="M18.75 -4c5.11 0 9.25 4.14 9.25 9.25c0 5.11 -4.14 9.25 -9.25 9.25c-5.11 0 -9.25 -4.14 -9.25 -9.25c0 -5.11 4.14 -9.25 9.25 -9.25ZM12 4.75c4.01 0 7.25 3.24 7.25 7.25c0 4.01 -3.24 7.25 -7.25 7.25c-4.01 0 -7.25 -3.24 -7.25 -7.25c0 -4.01 3.24 -7.25 7.25 -7.25Z" fill="#000" />
		</mask>
		<mask id="SVGQ96ZuccC">
			<path d="M18.75 -6c6.21 0 11.25 5.04 11.25 11.25c0 6.21 -5.04 11.25 -11.25 11.25c-6.21 0 -11.25 -5.04 -11.25 -11.25c0 -6.21 5.04 -11.25 11.25 -11.25Z" fill="#fff" />
			<path d="M18.75 -4c5.11 0 9.25 4.14 9.25 9.25c0 5.11 -4.14 9.25 -9.25 9.25c-5.11 0 -9.25 -4.14 -9.25 -9.25c0 -5.11 4.14 -9.25 9.25 -9.25ZM2.75 12v-20h29.25v29.25h-20c5.11 0 9.25 -4.14 9.25 -9.25c0 -5.11 -4.14 -9.25 -9.25 -9.25c-5.11 0 -9.25 4.14 -9.25 9.25Z" fill="#000" />
		</mask>
	</defs>
	<g fill="currentColor">
		<path d="M0 0h24v24H0z" mask="url(#SVG4mA1ebah)" />
		<path d="M0 0h24v24H0z" mask="url(#SVGQ96ZuccC)" />
	</g>
</svg>
