<svg xmlns="http://www.w3.org/2000/svg" width="24" height="24" viewBox="0 0 24 24">
	<defs>
		<mask id="SVGIHyBNbcG">
			<path d="M12 2.25c5.38 0 9.75 4.37 9.75 9.75c0 5.38 -4.37 9.75 -9.75 9.75c-5.38 0 -9.75 -4.37 -9.75 -9.75c0 -5.38 4.37 -9.75 9.75 -9.75Z" fill="#fff" />
			<path d="M18.25 -4c5.38 0 9.75 4.37 9.75 9.75c0 5.38 -4.37 9.75 -9.75 9.75c-5.38 0 -9.75 -4.37 -9.75 -9.75c0 -5.38 4.37 -9.75 9.75 -9.75ZM12 4.25c4.28 0 7.75 3.47 7.75 7.75c0 4.28 -3.47 7.75 -7.75 7.75c-4.28 0 -7.75 -3.47 -7.75 -7.75c0 -4.28 3.47 -7.75 7.75 -7.75Z" fill="#000" />
		</mask>
		<mask id="SVG4GMcFUlC">
			<path d="M18.25 -6c6.48 0 11.75 5.27 11.75 11.75c0 6.48 -5.27 11.75 -11.75 11.75c-6.48 0 -11.75 -5.27 -11.75 -11.75c0 -6.48 5.27 -11.75 11.75 -11.75Z" fill="#fff" />
			<path d="M18.25 -4c5.38 0 9.75 4.37 9.75 9.75c0 5.38 -4.37 9.75 -9.75 9.75c-5.38 0 -9.75 -4.37 -9.75 -9.75c0 -5.38 4.37 -9.75 9.75 -9.75ZM2.25 12v-20h29.75v29.75h-20c5.38 0 9.75 -4.37 9.75 -9.75c0 -5.38 -4.37 -9.75 -9.75 -9.75c-5.38 0 -9.75 4.37 -9.75 9.75Z" fill="#000" />
		</mask>
	</defs>
	<g fill="currentColor">
		<path d="M0 0h24v24H0z" mask="url(#SVGIHyBNbcG)" />
		<path d="M0 0h24v24H0z" mask="url(#SVG4GMcFUlC)" />
	</g>
</svg>
