<svg xmlns="http://www.w3.org/2000/svg" width="24" height="24" viewBox="0 0 24 24">
	<defs>
		<mask id="SVGZtuRQcIe">
			<path d="M12 3.5c4.69 0 8.5 3.81 8.5 8.5c0 4.69 -3.81 8.5 -8.5 8.5c-4.69 0 -8.5 -3.81 -8.5 -8.5c0 -4.69 3.81 -8.5 8.5 -8.5Z" fill="#fff" />
			<path d="M19.5 -4c4.69 0 8.5 3.81 8.5 8.5c0 4.69 -3.81 8.5 -8.5 8.5c-4.69 0 -8.5 -3.81 -8.5 -8.5c0 -4.69 3.81 -8.5 8.5 -8.5ZM12 5.5c3.59 0 6.5 2.91 6.5 6.5c0 3.59 -2.91 6.5 -6.5 6.5c-3.59 0 -6.5 -2.91 -6.5 -6.5c0 -3.59 2.91 -6.5 6.5 -6.5Z" fill="#000" />
		</mask>
		<mask id="SVG0JA2nwyf">
			<path d="M19.5 -6c5.79 0 10.5 4.71 10.5 10.5c0 5.79 -4.71 10.5 -10.5 10.5c-5.79 0 -10.5 -4.71 -10.5 -10.5c0 -5.79 4.71 -10.5 10.5 -10.5Z" fill="#fff" />
			<path d="M19.5 -4c4.69 0 8.5 3.81 8.5 8.5c0 4.69 -3.81 8.5 -8.5 8.5c-4.69 0 -8.5 -3.81 -8.5 -8.5c0 -4.69 3.81 -8.5 8.5 -8.5ZM3.5 12v-20h28.5v28.5h-20c4.69 0 8.5 -3.81 8.5 -8.5c0 -4.69 -3.81 -8.5 -8.5 -8.5c-4.69 0 -8.5 3.81 -8.5 8.5Z" fill="#000" />
		</mask>
	</defs>
	<g fill="currentColor">
		<path d="M0 0h24v24H0z" mask="url(#SVGZtuRQcIe)" />
		<path d="M0 0h24v24H0z" mask="url(#SVG0JA2nwyf)" />
	</g>
</svg>
