<svg xmlns="http://www.w3.org/2000/svg" width="24" height="24" viewBox="0 0 24 24">
	<defs>
		<mask id="SVGpDYPmcaq">
			<path d="M12 3.58c4.65 0 8.42 3.77 8.42 8.42c0 4.65 -3.77 8.42 -8.42 8.42c-4.65 0 -8.42 -3.77 -8.42 -8.42c0 -4.65 3.77 -8.42 8.42 -8.42Z" fill="#fff" />
			<path d="M19.58 -4c4.65 0 8.42 3.77 8.42 8.42c0 4.65 -3.77 8.42 -8.42 8.42c-4.65 0 -8.42 -3.77 -8.42 -8.42c0 -4.65 3.77 -8.42 8.42 -8.42ZM12 5.58c3.55 0 6.42 2.87 6.42 6.42c0 3.55 -2.87 6.42 -6.42 6.42c-3.55 0 -6.42 -2.87 -6.42 -6.42c0 -3.55 2.87 -6.42 6.42 -6.42Z" fill="#000" />
		</mask>
		<mask id="SVG6UGNudYv">
			<path d="M19.58 -6c5.75 0 10.42 4.67 10.42 10.42c0 5.75 -4.67 10.42 -10.42 10.42c-5.75 0 -10.42 -4.67 -10.42 -10.42c0 -5.75 4.67 -10.42 10.42 -10.42Z" fill="#fff" />
			<path d="M19.58 -4c4.65 0 8.42 3.77 8.42 8.42c0 4.65 -3.77 8.42 -8.42 8.42c-4.65 0 -8.42 -3.77 -8.42 -8.42c0 -4.65 3.77 -8.42 8.42 -8.42ZM3.58 12v-20h28.42v28.42h-20c4.65 0 8.42 -3.77 8.42 -8.42c0 -4.65 -3.77 -8.42 -8.42 -8.42c-4.65 0 -8.42 3.77 -8.42 8.42Z" fill="#000" />
		</mask>
	</defs>
	<g fill="currentColor">
		<path d="M0 0h24v24H0z" mask="url(#SVGpDYPmcaq)" />
		<path d="M0 0h24v24H0z" mask="url(#SVG6UGNudYv)" />
	</g>
</svg>
