<svg xmlns="http://www.w3.org/2000/svg" width="24" height="24" viewBox="0 0 24 24">
	<defs>
		<mask id="SVGatfEeb5m">
			<path d="M12 3.92c4.46 0 8.08 3.62 8.08 8.08c0 4.46 -3.62 8.08 -8.08 8.08c-4.46 0 -8.08 -3.62 -8.08 -8.08c0 -4.46 3.62 -8.08 8.08 -8.08Z" fill="#fff" />
			<path d="M19.92 -4c4.46 0 8.08 3.62 8.08 8.08c0 4.46 -3.62 8.08 -8.08 8.08c-4.46 0 -8.08 -3.62 -8.08 -8.08c0 -4.46 3.62 -8.08 8.08 -8.08ZM12 5.92c3.36 0 6.08 2.72 6.08 6.08c0 3.36 -2.72 6.08 -6.08 6.08c-3.36 0 -6.08 -2.72 -6.08 -6.08c0 -3.36 2.72 -6.08 6.08 -6.08Z" fill="#000" />
		</mask>
		<mask id="SVGA4RTwbvp">
			<path d="M19.92 -6c5.57 0 10.08 4.52 10.08 10.08c0 5.57 -4.52 10.08 -10.08 10.08c-5.57 0 -10.08 -4.52 -10.08 -10.08c0 -5.57 4.52 -10.08 10.08 -10.08Z" fill="#fff" />
			<path d="M19.92 -4c4.46 0 8.08 3.62 8.08 8.08c0 4.46 -3.62 8.08 -8.08 8.08c-4.46 0 -8.08 -3.62 -8.08 -8.08c0 -4.46 3.62 -8.08 8.08 -8.08ZM3.92 12v-20h28.08v28.08h-20c4.46 0 8.08 -3.62 8.08 -8.08c0 -4.46 -3.62 -8.08 -8.08 -8.08c-4.46 0 -8.08 3.62 -8.08 8.08Z" fill="#000" />
		</mask>
	</defs>
	<g fill="currentColor">
		<path d="M0 0h24v24H0z" mask="url(#SVGatfEeb5m)" />
		<path d="M0 0h24v24H0z" mask="url(#SVGA4RTwbvp)" />
	</g>
</svg>
