<svg xmlns="http://www.w3.org/2000/svg" width="24" height="24" viewBox="0 0 24 24">
	<defs>
		<mask id="SVGlGc0Ydwz">
			<path d="M12 4.5c4.14 0 7.5 3.36 7.5 7.5c0 4.14 -3.36 7.5 -7.5 7.5c-4.14 0 -7.5 -3.36 -7.5 -7.5c0 -4.14 3.36 -7.5 7.5 -7.5Z" fill="#fff" />
			<path d="M20.5 -4c4.14 0 7.5 3.36 7.5 7.5c0 4.14 -3.36 7.5 -7.5 7.5c-4.14 0 -7.5 -3.36 -7.5 -7.5c0 -4.14 3.36 -7.5 7.5 -7.5ZM12 6.5c3.04 0 5.5 2.46 5.5 5.5c0 3.04 -2.46 5.5 -5.5 5.5c-3.04 0 -5.5 -2.46 -5.5 -5.5c0 -3.04 2.46 -5.5 5.5 -5.5Z" fill="#000" />
		</mask>
		<mask id="SVGTAEMFdSK">
			<path d="M20.5 -6c5.25 0 9.5 4.25 9.5 9.5c0 5.25 -4.25 9.5 -9.5 9.5c-5.25 0 -9.5 -4.25 -9.5 -9.5c0 -5.25 4.25 -9.5 9.5 -9.5Z" fill="#fff" />
			<path d="M20.5 -4c4.14 0 7.5 3.36 7.5 7.5c0 4.14 -3.36 7.5 -7.5 7.5c-4.14 0 -7.5 -3.36 -7.5 -7.5c0 -4.14 3.36 -7.5 7.5 -7.5ZM4.5 12v-20h27.5v27.5h-20c4.14 0 7.5 -3.36 7.5 -7.5c0 -4.14 -3.36 -7.5 -7.5 -7.5c-4.14 0 -7.5 3.36 -7.5 7.5Z" fill="#000" />
		</mask>
	</defs>
	<g fill="currentColor">
		<path d="M0 0h24v24H0z" mask="url(#SVGlGc0Ydwz)" />
		<path d="M0 0h24v24H0z" mask="url(#SVGTAEMFdSK)" />
	</g>
</svg>
