<svg xmlns="http://www.w3.org/2000/svg" width="24" height="24" viewBox="0 0 24 24">
	<defs>
		<mask id="SVGsCop5dfQ">
			<path d="M12 5.17c3.77 0 6.83 3.06 6.83 6.83c0 3.77 -3.06 6.83 -6.83 6.83c-3.77 0 -6.83 -3.06 -6.83 -6.83c0 -3.77 3.06 -6.83 6.83 -6.83Z" fill="#fff" />
			<path d="M21.17 -4c3.77 0 6.83 3.06 6.83 6.83c0 3.77 -3.06 6.83 -6.83 6.83c-3.77 0 -6.83 -3.06 -6.83 -6.83c0 -3.77 3.06 -6.83 6.83 -6.83ZM12 7.17c2.67 0 4.83 2.16 4.83 4.83c0 2.67 -2.16 4.83 -4.83 4.83c-2.67 0 -4.83 -2.16 -4.83 -4.83c0 -2.67 2.16 -4.83 4.83 -4.83Z" fill="#000" />
		</mask>
		<mask id="SVGiqe3BbvV">
			<path d="M21.17 -6c4.88 0 8.83 3.96 8.83 8.83c0 4.88 -3.96 8.83 -8.83 8.83c-4.88 0 -8.83 -3.96 -8.83 -8.83c0 -4.88 3.96 -8.83 8.83 -8.83Z" fill="#fff" />
			<path d="M21.17 -4c3.77 0 6.83 3.06 6.83 6.83c0 3.77 -3.06 6.83 -6.83 6.83c-3.77 0 -6.83 -3.06 -6.83 -6.83c0 -3.77 3.06 -6.83 6.83 -6.83ZM5.17 12v-20h26.83v26.83h-20c3.77 0 6.83 -3.06 6.83 -6.83c0 -3.77 -3.06 -6.83 -6.83 -6.83c-3.77 0 -6.83 3.06 -6.83 6.83Z" fill="#000" />
		</mask>
	</defs>
	<g fill="currentColor">
		<path d="M0 0h24v24H0z" mask="url(#SVGsCop5dfQ)" />
		<path d="M0 0h24v24H0z" mask="url(#SVGiqe3BbvV)" />
	</g>
</svg>
