<svg xmlns="http://www.w3.org/2000/svg" width="24" height="24" viewBox="0 0 24 24">
	<defs>
		<mask id="SVG58qi3NmE">
			<path d="M12 4.67c4.05 0 7.33 3.29 7.33 7.33c0 4.05 -3.29 7.33 -7.33 7.33c-4.05 0 -7.33 -3.29 -7.33 -7.33c0 -4.05 3.29 -7.33 7.33 -7.33Z" fill="#fff" />
			<path d="M20.67 -4c4.05 0 7.33 3.29 7.33 7.33c0 4.05 -3.29 7.33 -7.33 7.33c-4.05 0 -7.33 -3.29 -7.33 -7.33c0 -4.05 3.29 -7.33 7.33 -7.33ZM12 6.67c2.95 0 5.33 2.39 5.33 5.33c0 2.95 -2.39 5.33 -5.33 5.33c-2.95 0 -5.33 -2.39 -5.33 -5.33c0 -2.95 2.39 -5.33 5.33 -5.33Z" fill="#000" />
		</mask>
		<mask id="SVGjFGABdUo">
			<path d="M20.67 -6c5.15 0 9.33 4.18 9.33 9.33c0 5.15 -4.18 9.33 -9.33 9.33c-5.15 0 -9.33 -4.18 -9.33 -9.33c0 -5.15 4.18 -9.33 9.33 -9.33Z" fill="#fff" />
			<path d="M20.67 -4c4.05 0 7.33 3.29 7.33 7.33c0 4.05 -3.29 7.33 -7.33 7.33c-4.05 0 -7.33 -3.29 -7.33 -7.33c0 -4.05 3.29 -7.33 7.33 -7.33ZM4.67 12v-20h27.33v27.33h-20c4.05 0 7.33 -3.29 7.33 -7.33c0 -4.05 -3.29 -7.33 -7.33 -7.33c-4.05 0 -7.33 3.29 -7.33 7.33Z" fill="#000" />
		</mask>
	</defs>
	<g fill="currentColor">
		<path d="M0 0h24v24H0z" mask="url(#SVG58qi3NmE)" />
		<path d="M0 0h24v24H0z" mask="url(#SVGjFGABdUo)" />
	</g>
</svg>
