<svg xmlns="http://www.w3.org/2000/svg" width="24" height="24" viewBox="0 0 24 24">
	<defs>
		<mask id="SVG65lMVbnS">
			<path d="M12 5.67c3.49 0 6.33 2.84 6.33 6.33c0 3.49 -2.84 6.33 -6.33 6.33c-3.49 0 -6.33 -2.84 -6.33 -6.33c0 -3.49 2.84 -6.33 6.33 -6.33Z" fill="#fff" />
			<path d="M21.67 -4c3.49 0 6.33 2.84 6.33 6.33c0 3.49 -2.84 6.33 -6.33 6.33c-3.49 0 -6.33 -2.84 -6.33 -6.33c0 -3.49 2.84 -6.33 6.33 -6.33ZM12 7.67c2.39 0 4.33 1.94 4.33 4.33c0 2.39 -1.94 4.33 -4.33 4.33c-2.39 0 -4.33 -1.94 -4.33 -4.33c0 -2.39 1.94 -4.33 4.33 -4.33Z" fill="#000" />
		</mask>
		<mask id="SVGXlPRQcXZ">
			<path d="M21.67 -6c4.6 0 8.33 3.73 8.33 8.33c0 4.6 -3.73 8.33 -8.33 8.33c-4.6 0 -8.33 -3.73 -8.33 -8.33c0 -4.6 3.73 -8.33 8.33 -8.33Z" fill="#fff" />
			<path d="M21.67 -4c3.49 0 6.33 2.84 6.33 6.33c0 3.49 -2.84 6.33 -6.33 6.33c-3.49 0 -6.33 -2.84 -6.33 -6.33c0 -3.49 2.84 -6.33 6.33 -6.33ZM5.67 12v-20h26.33v26.33h-20c3.49 0 6.33 -2.84 6.33 -6.33c0 -3.49 -2.84 -6.33 -6.33 -6.33c-3.49 0 -6.33 2.84 -6.33 6.33Z" fill="#000" />
		</mask>
	</defs>
	<g fill="currentColor">
		<path d="M0 0h24v24H0z" mask="url(#SVG65lMVbnS)" />
		<path d="M0 0h24v24H0z" mask="url(#SVGXlPRQcXZ)" />
	</g>
</svg>
