<svg xmlns="http://www.w3.org/2000/svg" width="24" height="24" viewBox="0 0 24 24">
	<defs>
		<mask id="SVGT1xp5bQh">
			<path d="M12 5.5c3.59 0 6.5 2.91 6.5 6.5c0 3.59 -2.91 6.5 -6.5 6.5c-3.59 0 -6.5 -2.91 -6.5 -6.5c0 -3.59 2.91 -6.5 6.5 -6.5Z" fill="#fff" />
			<path d="M21.5 -4c3.59 0 6.5 2.91 6.5 6.5c0 3.59 -2.91 6.5 -6.5 6.5c-3.59 0 -6.5 -2.91 -6.5 -6.5c0 -3.59 2.91 -6.5 6.5 -6.5ZM12 7.5c2.49 0 4.5 2.01 4.5 4.5c0 2.49 -2.01 4.5 -4.5 4.5c-2.49 0 -4.5 -2.01 -4.5 -4.5c0 -2.49 2.01 -4.5 4.5 -4.5Z" fill="#000" />
		</mask>
		<mask id="SVGprW7RbwP">
			<path d="M21.5 -6c4.69 0 8.5 3.8 8.5 8.5c0 4.69 -3.8 8.5 -8.5 8.5c-4.69 0 -8.5 -3.8 -8.5 -8.5c0 -4.69 3.8 -8.5 8.5 -8.5Z" fill="#fff" />
			<path d="M21.5 -4c3.59 0 6.5 2.91 6.5 6.5c0 3.59 -2.91 6.5 -6.5 6.5c-3.59 0 -6.5 -2.91 -6.5 -6.5c0 -3.59 2.91 -6.5 6.5 -6.5ZM5.5 12v-20h26.5v26.5h-20c3.59 0 6.5 -2.91 6.5 -6.5c0 -3.59 -2.91 -6.5 -6.5 -6.5c-3.59 0 -6.5 2.91 -6.5 6.5Z" fill="#000" />
		</mask>
	</defs>
	<g fill="currentColor">
		<path d="M0 0h24v24H0z" mask="url(#SVGT1xp5bQh)" />
		<path d="M0 0h24v24H0z" mask="url(#SVGprW7RbwP)" />
	</g>
</svg>
