<svg xmlns="http://www.w3.org/2000/svg" width="24" height="24" viewBox="0 0 24 24">
	<defs>
		<mask id="SVGtME6ssDF">
			<path d="M12 5.75c3.45 0 6.25 2.8 6.25 6.25c0 3.45 -2.8 6.25 -6.25 6.25c-3.45 0 -6.25 -2.8 -6.25 -6.25c0 -3.45 2.8 -6.25 6.25 -6.25Z" fill="#fff" />
			<path d="M21.75 -4c3.45 0 6.25 2.8 6.25 6.25c0 3.45 -2.8 6.25 -6.25 6.25c-3.45 0 -6.25 -2.8 -6.25 -6.25c0 -3.45 2.8 -6.25 6.25 -6.25ZM12 7.75c2.35 0 4.25 1.9 4.25 4.25c0 2.35 -1.9 4.25 -4.25 4.25c-2.35 0 -4.25 -1.9 -4.25 -4.25c0 -2.35 1.9 -4.25 4.25 -4.25Z" fill="#000" />
		</mask>
		<mask id="SVGoG1WOeBI">
			<path d="M21.75 -6c4.56 0 8.25 3.69 8.25 8.25c0 4.56 -3.69 8.25 -8.25 8.25c-4.56 0 -8.25 -3.69 -8.25 -8.25c0 -4.56 3.69 -8.25 8.25 -8.25Z" fill="#fff" />
			<path d="M21.75 -4c3.45 0 6.25 2.8 6.25 6.25c0 3.45 -2.8 6.25 -6.25 6.25c-3.45 0 -6.25 -2.8 -6.25 -6.25c0 -3.45 2.8 -6.25 6.25 -6.25ZM5.75 12v-20h26.25v26.25h-20c3.45 0 6.25 -2.8 6.25 -6.25c0 -3.45 -2.8 -6.25 -6.25 -6.25c-3.45 0 -6.25 2.8 -6.25 6.25Z" fill="#000" />
		</mask>
	</defs>
	<g fill="currentColor">
		<path d="M0 0h24v24H0z" mask="url(#SVGtME6ssDF)" />
		<path d="M0 0h24v24H0z" mask="url(#SVGoG1WOeBI)" />
	</g>
</svg>
