<svg xmlns="http://www.w3.org/2000/svg" width="24" height="24" viewBox="0 0 24 24">
	<defs>
		<mask id="SVGFyQiwiXI">
			<path d="M12 6c3.31 0 6 2.69 6 6c0 3.31 -2.69 6 -6 6c-3.31 0 -6 -2.69 -6 -6c0 -3.31 2.69 -6 6 -6Z" fill="#fff" />
			<path d="M12 8c2.21 0 4 1.79 4 4c0 2.21 -1.79 4 -4 4c-2.21 0 -4 -1.79 -4 -4c0 -2.21 1.79 -4 4 -4Z" fill="#000" />
		</mask>
	</defs>
	<path d="M0 0h24v24H0z" fill="currentColor" mask="url(#SVGFyQiwiXI)" />
	<path d="M12 20.67v1M20.67 12h1M12 3.33v-1M3.33 12h-1" stroke="currentColor" fill="none" stroke-width="2" stroke-linecap="round" stroke-linejoin="round" />
</svg>
