<svg xmlns="http://www.w3.org/2000/svg" width="24" height="24" viewBox="0 0 24 24">
	<defs>
		<mask id="SVG1oc0OiST">
			<g stroke-linecap="round" stroke-linejoin="round">
				<path d="M12 3c4.97 0 9 4.03 9 9c0 4.97 -4.03 9 -9 9c-4.97 0 -9 -4.03 -9 -9c0 -4.97 4.03 -9 9 -9" stroke="#fff" fill="#fff" stroke-width="2" stroke-dasharray="60" fill-opacity="0" stroke-dashoffset="39.167" />
				<g fill="none" stroke="#000">
					<path d="M9 9v1" stroke-width="2" stroke-dasharray="4" stroke-dashoffset="4" />
					<path d="M9.5 8.5l-2 -1" stroke-dasharray="6" stroke-dashoffset="6" />
					<path d="M15 9v1" stroke-width="2" stroke-dasharray="4" stroke-dashoffset="4" />
					<path d="M14.5 8.5l2 -1" stroke-dasharray="6" stroke-dashoffset="6" />
					<path d="M8 16c0.5 -1 1.79 -2 4 -2c2.21 0 3.5 1 4 2" stroke-width="2" stroke-dasharray="12" stroke-dashoffset="12" />
				</g>
			</g>
		</mask>
	</defs>
	<path d="M0 0h24v24H0z" fill="currentColor" mask="url(#SVG1oc0OiST)" />
</svg>
