<svg xmlns="http://www.w3.org/2000/svg" width="24" height="24" viewBox="0 0 24 24">
	<defs>
		<mask id="SVGaYJ94C2G">
			<path d="M11 13l4.74 -7.5c0.29 0.17 0.57 0.35 0.83 0.55c0 0 0.1 -0.04 0.1 -0.04c0.07 0.05 0.15 0.1 0.21 0.17c1.31 1.07 2.31 2.76 2.61 4.49c0.01 0.09 0.02 0.18 0.03 0.26c0 0 -0.09 0.07 -0.09 0.07c0.05 0.33 0.07 0.66 0.07 1ZM10.63 11.63l8.87 0.35c0 0.34 -0.02 0.67 -0.06 0.99c0 0 0.09 0.07 0.09 0.07c-0 0.09 -0.02 0.19 -0.04 0.27c-0.27 1.68 -1.24 3.38 -2.59 4.5c-0.07 0.05 -0.15 0.11 -0.21 0.15c0 0 -0.11 -0.04 -0.11 -0.04c-0.26 0.21 -0.54 0.39 -0.83 0.56ZM11.63 10.63l4.13 7.85c-0.29 0.17 -0.59 0.32 -0.89 0.44c0 0 -0.02 0.11 -0.02 0.11c-0.08 0.05 -0.17 0.08 -0.26 0.1c-1.58 0.6 -3.55 0.62 -5.19 0.01c-0.08 -0.04 -0.17 -0.07 -0.24 -0.11c0 0 -0.02 -0.11 -0.02 -0.11c-0.31 -0.12 -0.61 -0.27 -0.9 -0.44ZM13 11l-4.74 7.5c-0.29 -0.17 -0.57 -0.35 -0.83 -0.55c0 0 -0.1 0.04 -0.1 0.04c-0.07 -0.05 -0.15 -0.1 -0.21 -0.17c-1.31 -1.07 -2.31 -2.76 -2.61 -4.49c-0.01 -0.09 -0.02 -0.18 -0.03 -0.26c0 0 0.09 -0.07 0.09 -0.07c-0.05 -0.33 -0.07 -0.66 -0.07 -1ZM13.37 12.37l-8.87 -0.35c0 -0.34 0.02 -0.67 0.06 -0.99c0 0 -0.09 -0.07 -0.09 -0.07c0 -0.09 0.02 -0.19 0.04 -0.27c0.27 -1.68 1.24 -3.38 2.59 -4.5c0.07 -0.05 0.15 -0.11 0.21 -0.15c0 0 0.11 0.04 0.11 0.04c0.26 -0.21 0.54 -0.39 0.83 -0.56ZM12.37 13.37l-4.13 -7.85c0.29 -0.17 0.59 -0.32 0.89 -0.44c0 0 0.02 -0.11 0.02 -0.11c0.08 -0.05 0.17 -0.08 0.26 -0.1c1.58 -0.6 3.55 -0.62 5.19 -0.01c0.08 0.04 0.17 0.07 0.24 0.11c0 0 0.02 0.11 0.02 0.11c0.31 0.12 0.61 0.27 0.9 0.44Z" transform="rotate(4.9 12 12)" fill="#fff" />
			<path d="M0 11h24" stroke="#000" fill="none" stroke-width="2" stroke-linecap="round" stroke-linejoin="round" transform="rotate(45 12 12)" stroke-dasharray="26" stroke-dashoffset="26" />
		</mask>
	</defs>
	<path d="M0 0h24v24H0z" fill="currentColor" mask="url(#SVGaYJ94C2G)" />
	<path d="M-0.73 13h24" stroke="currentColor" fill="none" stroke-width="2" stroke-linecap="round" stroke-linejoin="round" transform="rotate(45 12 12)" stroke-dasharray="26" stroke-dashoffset="26" />
</svg>
