<svg xmlns="http://www.w3.org/2000/svg" width="24" height="24" viewBox="0 0 24 24">
	<defs>
		<mask id="SVG3quZ5d4j">
			<path d="M11 13l4.74 -7.5c0.29 0.17 0.57 0.35 0.83 0.55c0 0 0 0 0 0c0.07 0.05 0.14 0.11 0.2 0.17c1.37 1.12 2.32 2.72 2.63 4.53c0.01 0.09 0.02 0.17 0.03 0.25c0 0 0 0 0 0c0.05 0.33 0.07 0.66 0.07 1ZM10.63 11.63l8.87 0.35c0 0.34 -0.02 0.67 -0.06 0.99c0 0 0 0 0 0c-0.01 0.09 -0.03 0.18 -0.05 0.26c-0.28 1.75 -1.2 3.37 -2.61 4.54c-0.07 0.05 -0.14 0.1 -0.2 0.15c0 0 0 0 0 0c-0.26 0.21 -0.54 0.39 -0.83 0.56ZM11.63 10.63l4.13 7.85c-0.29 0.17 -0.59 0.32 -0.89 0.44c0 0 0 0 0 0c-0.08 0.04 -0.17 0.07 -0.25 0.09c-1.65 0.63 -3.52 0.65 -5.24 0.01c-0.08 -0.04 -0.16 -0.07 -0.23 -0.1c0 0 0 0 0 0c-0.31 -0.12 -0.61 -0.27 -0.9 -0.44ZM13 11l-4.74 7.5c-0.29 -0.17 -0.57 -0.35 -0.83 -0.55c0 0 0 0 0 0c-0.07 -0.05 -0.14 -0.11 -0.2 -0.17c-1.37 -1.12 -2.32 -2.72 -2.63 -4.53c-0.01 -0.09 -0.02 -0.17 -0.03 -0.25c0 0 0 0 0 0c-0.05 -0.33 -0.07 -0.66 -0.07 -1ZM13.37 12.37l-8.87 -0.35c0 -0.34 0.02 -0.67 0.06 -0.99c0 0 0 0 0 0c0.01 -0.09 0.03 -0.18 0.05 -0.26c0.28 -1.75 1.2 -3.37 2.61 -4.54c0.07 -0.05 0.14 -0.1 0.2 -0.15c0 0 0 0 0 0c0.26 -0.21 0.54 -0.39 0.83 -0.56ZM12.37 13.37l-4.13 -7.85c0.29 -0.17 0.59 -0.32 0.89 -0.44c0 0 0 0 0 0c0.08 -0.04 0.17 -0.07 0.25 -0.09c1.65 -0.63 3.52 -0.65 5.24 -0.01c0.08 0.04 0.16 0.07 0.23 0.1c0 0 0 0 0 0c0.31 0.12 0.61 0.27 0.9 0.44Z" transform="rotate(4.8 12 12)" fill="#fff" />
		</mask>
	</defs>
	<path d="M0 0h24v24H0z" fill="currentColor" mask="url(#SVG3quZ5d4j)" />
</svg>
