<svg xmlns="http://www.w3.org/2000/svg" width="24" height="24" viewBox="0 0 24 24">
	<defs>
		<mask id="SVGZ2Upxe9n">
			<path d="M11 13l4.74 -7.5c0.29 0.17 0.57 0.35 0.83 0.55c0 0 0.95 -0.38 0.95 -0.38c0.1 0.01 0.25 0.06 0.32 0.15c0.86 0.7 2.23 3.04 2.42 4.17c0.04 0.12 0.03 0.28 -0.01 0.37c0 0 -0.81 0.63 -0.81 0.63c0.05 0.33 0.07 0.66 0.07 1ZM10.63 11.63l8.87 0.35c0 0.34 -0.02 0.67 -0.06 0.99c0 0 0.8 0.63 0.8 0.63c0.04 0.1 0.07 0.25 0.02 0.35c-0.18 1.09 -1.53 3.45 -2.41 4.18c-0.08 0.1 -0.22 0.17 -0.32 0.18c0 0 -0.95 -0.39 -0.95 -0.39c-0.26 0.21 -0.54 0.39 -0.83 0.56ZM11.63 10.63l4.13 7.85c-0.29 0.17 -0.59 0.32 -0.89 0.44c0 0 -0.15 1.01 -0.15 1.01c-0.06 0.09 -0.18 0.19 -0.29 0.2c-1.03 0.39 -3.75 0.41 -4.83 0.01c-0.13 -0.03 -0.26 -0.11 -0.32 -0.19c0 0 -0.14 -1.02 -0.14 -1.02c-0.31 -0.12 -0.61 -0.27 -0.9 -0.44ZM13 11l-4.74 7.5c-0.29 -0.17 -0.57 -0.35 -0.83 -0.55c0 0 -0.95 0.38 -0.95 0.38c-0.1 -0.01 -0.25 -0.06 -0.32 -0.15c-0.86 -0.7 -2.23 -3.04 -2.42 -4.17c-0.04 -0.12 -0.03 -0.28 0.01 -0.37c0 0 0.81 -0.63 0.81 -0.63c-0.05 -0.33 -0.07 -0.66 -0.07 -1ZM13.37 12.37l-8.87 -0.35c0 -0.34 0.02 -0.67 0.06 -0.99c0 0 -0.8 -0.63 -0.8 -0.63c-0.04 -0.1 -0.07 -0.25 -0.02 -0.35c0.18 -1.09 1.53 -3.45 2.41 -4.18c0.08 -0.1 0.22 -0.17 0.32 -0.18c0 0 0.95 0.39 0.95 0.39c0.26 -0.21 0.54 -0.39 0.83 -0.56ZM12.37 13.37l-4.13 -7.85c0.29 -0.17 0.59 -0.32 0.89 -0.44c0 0 0.15 -1.01 0.15 -1.01c0.06 -0.09 0.18 -0.19 0.29 -0.2c1.03 -0.39 3.75 -0.41 4.83 -0.01c0.13 0.03 0.26 0.11 0.32 0.19c0 0 0.14 1.02 0.14 1.02c0.31 0.12 0.61 0.27 0.9 0.44Z" transform="rotate(5.7 12 12)" fill="#fff" />
			<path d="M0 11h24" stroke="#000" fill="none" stroke-width="2" stroke-linecap="round" stroke-linejoin="round" transform="rotate(45 12 12)" stroke-dasharray="26" stroke-dashoffset="26" />
		</mask>
	</defs>
	<path d="M0 0h24v24H0z" fill="currentColor" mask="url(#SVGZ2Upxe9n)" />
	<path d="M-0.68 13h24" stroke="currentColor" fill="none" stroke-width="2" stroke-linecap="round" stroke-linejoin="round" transform="rotate(45 12 12)" stroke-dasharray="26" stroke-dashoffset="26" />
</svg>
