<svg xmlns="http://www.w3.org/2000/svg" width="24" height="24" viewBox="0 0 24 24">
	<defs>
		<mask id="SVGf2gpue9I">
			<path d="M11 13l4.74 -7.5c0.29 0.17 0.57 0.35 0.83 0.55c0 0 1.05 -0.42 1.05 -0.42c0.11 0 0.26 0.05 0.33 0.15c0.8 0.65 2.22 3.08 2.4 4.13c0.05 0.12 0.04 0.29 -0.01 0.38c0 0 -0.9 0.7 -0.9 0.7c0.05 0.33 0.07 0.66 0.07 1ZM10.63 11.63l8.87 0.35c0 0.34 -0.02 0.67 -0.06 0.99c0 0 0.89 0.7 0.89 0.7c0.05 0.1 0.08 0.26 0.03 0.36c-0.16 1.02 -1.56 3.46 -2.38 4.14c-0.08 0.1 -0.23 0.17 -0.34 0.18c0 0 -1.06 -0.43 -1.06 -0.43c-0.26 0.21 -0.54 0.39 -0.83 0.56ZM11.63 10.63l4.13 7.85c-0.29 0.17 -0.59 0.32 -0.89 0.44c0 0 -0.16 1.12 -0.16 1.12c-0.06 0.09 -0.18 0.2 -0.3 0.21c-0.96 0.37 -3.78 0.38 -4.78 0.01c-0.13 -0.02 -0.27 -0.11 -0.33 -0.2c0 0 -0.15 -1.13 -0.15 -1.13c-0.31 -0.12 -0.61 -0.27 -0.9 -0.44ZM13 11l-4.74 7.5c-0.29 -0.17 -0.57 -0.35 -0.83 -0.55c0 0 -1.05 0.42 -1.05 0.42c-0.11 -0 -0.26 -0.05 -0.33 -0.15c-0.8 -0.65 -2.22 -3.08 -2.4 -4.13c-0.05 -0.12 -0.04 -0.29 0.01 -0.38c0 0 0.9 -0.7 0.9 -0.7c-0.05 -0.33 -0.07 -0.66 -0.07 -1ZM13.37 12.37l-8.87 -0.35c0 -0.34 0.02 -0.67 0.06 -0.99c0 0 -0.89 -0.7 -0.89 -0.7c-0.05 -0.1 -0.08 -0.26 -0.03 -0.36c0.16 -1.02 1.56 -3.46 2.38 -4.14c0.08 -0.1 0.23 -0.17 0.34 -0.18c0 0 1.06 0.43 1.06 0.43c0.26 -0.21 0.54 -0.39 0.83 -0.56ZM12.37 13.37l-4.13 -7.85c0.29 -0.17 0.59 -0.32 0.89 -0.44c0 0 0.16 -1.12 0.16 -1.12c0.06 -0.09 0.18 -0.2 0.3 -0.21c0.96 -0.37 3.78 -0.38 4.78 -0.01c0.13 0.02 0.27 0.11 0.33 0.2c0 0 0.15 1.13 0.15 1.13c0.31 0.12 0.61 0.27 0.9 0.44Z" transform="rotate(5.8 12 12)" fill="#fff" />
		</mask>
	</defs>
	<path d="M0 0h24v24H0z" fill="currentColor" mask="url(#SVGf2gpue9I)" />
</svg>
