<svg xmlns="http://www.w3.org/2000/svg" width="24" height="24" viewBox="0 0 24 24">
	<defs>
		<mask id="SVGupM98lMH">
			<path d="M11 13l4.74 -7.5c0.29 0.17 0.57 0.35 0.83 0.55c0 0 1.15 -0.46 1.15 -0.46c0.11 -0 0.27 0.05 0.34 0.15c0.74 0.61 2.21 3.11 2.37 4.09c0.05 0.13 0.04 0.3 -0.02 0.4c0 0 -0.99 0.77 -0.99 0.77c0.05 0.33 0.07 0.66 0.07 1ZM10.63 11.63l8.87 0.35c0 0.34 -0.02 0.67 -0.06 0.99c0 0 0.98 0.77 0.98 0.77c0.05 0.1 0.09 0.26 0.04 0.37c-0.15 0.95 -1.6 3.47 -2.36 4.1c-0.08 0.1 -0.24 0.18 -0.35 0.18c0 0 -1.16 -0.48 -1.16 -0.48c-0.26 0.21 -0.54 0.39 -0.83 0.56ZM11.63 10.63l4.13 7.85c-0.29 0.17 -0.59 0.32 -0.89 0.44c0 0 -0.18 1.23 -0.18 1.23c-0.06 0.1 -0.18 0.22 -0.3 0.22c-0.89 0.34 -3.8 0.35 -4.74 0.01c-0.13 -0.02 -0.28 -0.12 -0.34 -0.21c0 0 -0.17 -1.25 -0.17 -1.25c-0.31 -0.12 -0.61 -0.27 -0.9 -0.44ZM13 11l-4.74 7.5c-0.29 -0.17 -0.57 -0.35 -0.83 -0.55c0 0 -1.15 0.46 -1.15 0.46c-0.11 0 -0.27 -0.05 -0.34 -0.15c-0.74 -0.61 -2.21 -3.11 -2.37 -4.09c-0.05 -0.13 -0.04 -0.3 0.02 -0.4c0 0 0.99 -0.77 0.99 -0.77c-0.05 -0.33 -0.07 -0.66 -0.07 -1ZM13.37 12.37l-8.87 -0.35c0 -0.34 0.02 -0.67 0.06 -0.99c0 0 -0.98 -0.77 -0.98 -0.77c-0.05 -0.1 -0.09 -0.26 -0.04 -0.37c0.15 -0.95 1.6 -3.47 2.36 -4.1c0.08 -0.1 0.24 -0.18 0.35 -0.18c0 0 1.16 0.48 1.16 0.48c0.26 -0.21 0.54 -0.39 0.83 -0.56ZM12.37 13.37l-4.13 -7.85c0.29 -0.17 0.59 -0.32 0.89 -0.44c0 0 0.18 -1.23 0.18 -1.23c0.06 -0.1 0.18 -0.22 0.3 -0.22c0.89 -0.34 3.8 -0.35 4.74 -0.01c0.13 0.02 0.28 0.12 0.34 0.21c0 0 0.17 1.25 0.17 1.25c0.31 0.12 0.61 0.27 0.9 0.44Z" transform="rotate(5.9 12 12)" fill="#fff" />
		</mask>
	</defs>
	<path d="M0 0h24v24H0z" fill="currentColor" mask="url(#SVGupM98lMH)" />
</svg>
