<svg xmlns="http://www.w3.org/2000/svg" width="24" height="24" viewBox="0 0 24 24">
	<defs>
		<mask id="SVGN2unneQl">
			<path d="M11 13l4.74 -7.5c0.29 0.17 0.57 0.35 0.83 0.55c0 0 2.1 -0.84 2.1 -0.84c0.14 -0.04 0.38 -0.01 0.46 0.14c0.23 0.19 2.11 3.44 2.16 3.74c0.08 0.16 0.05 0.4 -0.05 0.52c0 0 -1.81 1.4 -1.81 1.4c0.05 0.33 0.07 0.66 0.07 1ZM10.63 11.63l8.87 0.35c0 0.34 -0.02 0.67 -0.06 0.99c0 0 1.77 1.4 1.77 1.4c0.11 0.11 0.19 0.33 0.11 0.47c-0.05 0.29 -1.92 3.54 -2.16 3.74c-0.1 0.15 -0.32 0.25 -0.47 0.21c0 0 -2.12 -0.87 -2.12 -0.87c-0.26 0.21 -0.54 0.39 -0.83 0.56ZM11.63 10.63l4.13 7.85c-0.29 0.17 -0.59 0.32 -0.89 0.44c0 0 -0.32 2.24 -0.32 2.24c-0.04 0.15 -0.19 0.34 -0.35 0.33c-0.28 0.11 -4.04 0.11 -4.32 0c-0.18 -0.01 -0.38 -0.15 -0.42 -0.31c0 0 -0.31 -2.27 -0.31 -2.27c-0.31 -0.12 -0.61 -0.27 -0.9 -0.44ZM13 11l-4.74 7.5c-0.29 -0.17 -0.57 -0.35 -0.83 -0.55c0 0 -2.1 0.84 -2.1 0.84c-0.14 0.04 -0.38 0.01 -0.46 -0.14c-0.23 -0.19 -2.11 -3.44 -2.16 -3.74c-0.08 -0.16 -0.05 -0.4 0.05 -0.52c0 0 1.81 -1.4 1.81 -1.4c-0.05 -0.33 -0.07 -0.66 -0.07 -1ZM13.37 12.37l-8.87 -0.35c0 -0.34 0.02 -0.67 0.06 -0.99c0 0 -1.77 -1.4 -1.77 -1.4c-0.11 -0.11 -0.19 -0.33 -0.11 -0.47c0.05 -0.29 1.92 -3.54 2.16 -3.74c0.1 -0.15 0.32 -0.25 0.47 -0.21c0 0 2.12 0.87 2.12 0.87c0.26 -0.21 0.54 -0.39 0.83 -0.56ZM12.37 13.37l-4.13 -7.85c0.29 -0.17 0.59 -0.32 0.89 -0.44c0 0 0.32 -2.24 0.32 -2.24c0.04 -0.15 0.19 -0.34 0.35 -0.33c0.28 -0.11 4.04 -0.11 4.32 -0c0.18 0.01 0.38 0.15 0.42 0.31c0 0 0.31 2.27 0.31 2.27c0.31 0.12 0.61 0.27 0.9 0.44Z" transform="rotate(6.8 12 12)" fill="#fff" />
			<path d="M0 11h24" stroke="#000" fill="none" stroke-width="2" stroke-linecap="round" stroke-linejoin="round" transform="rotate(45 12 12)" stroke-dasharray="26" stroke-dashoffset="26" />
		</mask>
	</defs>
	<path d="M0 0h24v24H0z" fill="currentColor" mask="url(#SVGN2unneQl)" />
	<path d="M-0.62 13h24" stroke="currentColor" fill="none" stroke-width="2" stroke-linecap="round" stroke-linejoin="round" transform="rotate(45 12 12)" stroke-dasharray="26" stroke-dashoffset="26" />
</svg>
