<svg xmlns="http://www.w3.org/2000/svg" width="24" height="24" viewBox="0 0 24 24">
	<defs>
		<mask id="SVGnjRbyRoh">
			<path d="M11 13l4.74 -7.5c0.29 0.17 0.57 0.35 0.83 0.55c0 0 1.26 -0.51 1.26 -0.51c0.12 -0 0.29 0.04 0.35 0.15c0.69 0.56 2.19 3.15 2.35 4.05c0.06 0.13 0.04 0.31 -0.02 0.41c0 0 -1.08 0.84 -1.08 0.84c0.05 0.33 0.07 0.66 0.07 1ZM10.63 11.63l8.87 0.35c0 0.34 -0.02 0.67 -0.06 0.99c0 0 1.06 0.84 1.06 0.84c0.06 0.1 0.11 0.27 0.04 0.39c-0.14 0.88 -1.63 3.48 -2.34 4.06c-0.09 0.11 -0.25 0.19 -0.36 0.18c0 0 -1.27 -0.52 -1.27 -0.52c-0.26 0.21 -0.54 0.39 -0.83 0.56ZM11.63 10.63l4.13 7.85c-0.29 0.17 -0.59 0.32 -0.89 0.44c0 0 -0.2 1.34 -0.2 1.34c-0.06 0.11 -0.18 0.23 -0.31 0.24c-0.82 0.32 -3.83 0.33 -4.69 0.01c-0.14 -0.02 -0.29 -0.12 -0.35 -0.22c0 0 -0.18 -1.36 -0.18 -1.36c-0.31 -0.12 -0.61 -0.27 -0.9 -0.44ZM13 11l-4.74 7.5c-0.29 -0.17 -0.57 -0.35 -0.83 -0.55c0 0 -1.26 0.51 -1.26 0.51c-0.12 0 -0.29 -0.04 -0.35 -0.15c-0.69 -0.56 -2.19 -3.15 -2.35 -4.05c-0.06 -0.13 -0.04 -0.31 0.02 -0.41c0 0 1.08 -0.84 1.08 -0.84c-0.05 -0.33 -0.07 -0.66 -0.07 -1ZM13.37 12.37l-8.87 -0.35c0 -0.34 0.02 -0.67 0.06 -0.99c0 0 -1.06 -0.84 -1.06 -0.84c-0.06 -0.1 -0.11 -0.27 -0.04 -0.39c0.14 -0.88 1.63 -3.48 2.34 -4.06c0.09 -0.11 0.25 -0.19 0.36 -0.18c0 0 1.27 0.52 1.27 0.52c0.26 -0.21 0.54 -0.39 0.83 -0.56ZM12.37 13.37l-4.13 -7.85c0.29 -0.17 0.59 -0.32 0.89 -0.44c0 0 0.2 -1.34 0.2 -1.34c0.06 -0.11 0.18 -0.23 0.31 -0.24c0.82 -0.32 3.83 -0.33 4.69 -0.01c0.14 0.02 0.29 0.12 0.35 0.22c0 0 0.18 1.36 0.18 1.36c0.31 0.12 0.61 0.27 0.9 0.44Z" transform="rotate(6 12 12)" fill="#fff" />
			<path d="M0 11h24" stroke="#000" fill="none" stroke-width="2" stroke-linecap="round" stroke-linejoin="round" transform="rotate(45 12 12)" stroke-dasharray="26" stroke-dashoffset="26" />
		</mask>
	</defs>
	<path d="M0 0h24v24H0z" fill="currentColor" mask="url(#SVGnjRbyRoh)" />
	<path d="M-0.67 13h24" stroke="currentColor" fill="none" stroke-width="2" stroke-linecap="round" stroke-linejoin="round" transform="rotate(45 12 12)" stroke-dasharray="26" stroke-dashoffset="26" />
</svg>
