<svg xmlns="http://www.w3.org/2000/svg" width="24" height="24" viewBox="0 0 24 24">
	<defs>
		<mask id="SVGM6qxDebv">
			<path d="M11 13l4.74 -7.5c0.29 0.17 0.57 0.35 0.83 0.55c0 0 2.21 -0.88 2.21 -0.88c0.15 -0.05 0.39 -0.01 0.47 0.14c0.17 0.14 2.1 3.47 2.14 3.7c0.09 0.16 0.05 0.42 -0.06 0.53c0 0 -1.9 1.47 -1.9 1.47c0.05 0.33 0.07 0.66 0.07 1ZM10.63 11.63l8.87 0.35c0 0.34 -0.02 0.67 -0.06 0.99c0 0 1.86 1.47 1.86 1.47c0.11 0.11 0.21 0.34 0.12 0.48c-0.04 0.22 -1.96 3.55 -2.14 3.7c-0.1 0.16 -0.33 0.26 -0.49 0.21c0 0 -2.22 -0.91 -2.22 -0.91c-0.26 0.21 -0.54 0.39 -0.83 0.56ZM11.63 10.63l4.13 7.85c-0.29 0.17 -0.59 0.32 -0.89 0.44c0 0 -0.34 2.35 -0.34 2.35c-0.04 0.15 -0.19 0.35 -0.35 0.34c-0.21 0.08 -4.06 0.08 -4.28 0c-0.18 -0 -0.39 -0.16 -0.43 -0.32c0 0 -0.32 -2.38 -0.32 -2.38c-0.31 -0.12 -0.61 -0.27 -0.9 -0.44ZM13 11l-4.74 7.5c-0.29 -0.17 -0.57 -0.35 -0.83 -0.55c0 0 -2.21 0.88 -2.21 0.88c-0.15 0.05 -0.39 0.01 -0.47 -0.14c-0.17 -0.14 -2.1 -3.47 -2.14 -3.7c-0.09 -0.16 -0.05 -0.42 0.06 -0.53c0 0 1.9 -1.47 1.9 -1.47c-0.05 -0.33 -0.07 -0.66 -0.07 -1ZM13.37 12.37l-8.87 -0.35c0 -0.34 0.02 -0.67 0.06 -0.99c0 0 -1.86 -1.47 -1.86 -1.47c-0.11 -0.11 -0.21 -0.34 -0.12 -0.48c0.04 -0.22 1.96 -3.55 2.14 -3.7c0.1 -0.16 0.33 -0.26 0.49 -0.21c0 0 2.22 0.91 2.22 0.91c0.26 -0.21 0.54 -0.39 0.83 -0.56ZM12.37 13.37l-4.13 -7.85c0.29 -0.17 0.59 -0.32 0.89 -0.44c0 0 0.34 -2.35 0.34 -2.35c0.04 -0.15 0.19 -0.35 0.35 -0.34c0.21 -0.08 4.06 -0.08 4.28 -0c0.18 0 0.39 0.16 0.43 0.32c0 0 0.32 2.38 0.32 2.38c0.31 0.12 0.61 0.27 0.9 0.44Z" transform="rotate(6.9 12 12)" fill="#fff" />
			<path d="M0 11h24" stroke="#000" fill="none" stroke-width="2" stroke-linecap="round" stroke-linejoin="round" transform="rotate(45 12 12)" stroke-dasharray="26" stroke-dashoffset="26" />
		</mask>
	</defs>
	<path d="M0 0h24v24H0z" fill="currentColor" mask="url(#SVGM6qxDebv)" />
	<path d="M-0.62 13h24" stroke="currentColor" fill="none" stroke-width="2" stroke-linecap="round" stroke-linejoin="round" transform="rotate(45 12 12)" stroke-dasharray="26" stroke-dashoffset="26" />
</svg>
