<svg xmlns="http://www.w3.org/2000/svg" width="24" height="24" viewBox="0 0 24 24">
	<defs>
		<mask id="SVGQCbwKSma">
			<path d="M11 13l4.74 -7.5c0.29 0.17 0.57 0.35 0.83 0.55c0 0 2 -0.8 2 -0.8c0.14 -0.04 0.37 -0 0.45 0.14c0.29 0.23 2.12 3.4 2.19 3.78c0.08 0.15 0.05 0.39 -0.05 0.5c0 0 -1.72 1.33 -1.72 1.33c0.05 0.33 0.07 0.66 0.07 1ZM10.63 11.63l8.87 0.35c0 0.34 -0.02 0.67 -0.06 0.99c0 0 1.69 1.33 1.69 1.33c0.1 0.11 0.18 0.32 0.1 0.46c-0.06 0.36 -1.89 3.54 -2.18 3.78c-0.09 0.15 -0.31 0.24 -0.46 0.21c0 0 -2.01 -0.82 -2.01 -0.82c-0.26 0.21 -0.54 0.39 -0.83 0.56ZM11.63 10.63l4.13 7.85c-0.29 0.17 -0.59 0.32 -0.89 0.44c0 0 -0.31 2.13 -0.31 2.13c-0.04 0.14 -0.19 0.32 -0.35 0.32c-0.34 0.13 -4.01 0.14 -4.37 0c-0.18 -0.01 -0.37 -0.15 -0.41 -0.3c0 0 -0.29 -2.15 -0.29 -2.15c-0.31 -0.12 -0.61 -0.27 -0.9 -0.44ZM13 11l-4.74 7.5c-0.29 -0.17 -0.57 -0.35 -0.83 -0.55c0 0 -2 0.8 -2 0.8c-0.14 0.04 -0.37 0 -0.45 -0.14c-0.29 -0.23 -2.12 -3.4 -2.19 -3.78c-0.08 -0.15 -0.05 -0.39 0.05 -0.5c0 0 1.72 -1.33 1.72 -1.33c-0.05 -0.33 -0.07 -0.66 -0.07 -1ZM13.37 12.37l-8.87 -0.35c0 -0.34 0.02 -0.67 0.06 -0.99c0 0 -1.69 -1.33 -1.69 -1.33c-0.1 -0.11 -0.18 -0.32 -0.1 -0.46c0.06 -0.36 1.89 -3.54 2.18 -3.78c0.09 -0.15 0.31 -0.24 0.46 -0.21c0 0 2.01 0.82 2.01 0.82c0.26 -0.21 0.54 -0.39 0.83 -0.56ZM12.37 13.37l-4.13 -7.85c0.29 -0.17 0.59 -0.32 0.89 -0.44c0 0 0.31 -2.13 0.31 -2.13c0.04 -0.14 0.19 -0.32 0.35 -0.32c0.34 -0.13 4.01 -0.14 4.37 -0c0.18 0.01 0.37 0.15 0.41 0.3c0 0 0.29 2.15 0.29 2.15c0.31 0.12 0.61 0.27 0.9 0.44Z" transform="rotate(6.7 12 12)" fill="#fff" />
			<path d="M0 11h24" stroke="#000" fill="none" stroke-width="2" stroke-linecap="round" stroke-linejoin="round" transform="rotate(45 12 12)" stroke-dasharray="26" stroke-dashoffset="26" />
		</mask>
	</defs>
	<path d="M0 0h24v24H0z" fill="currentColor" mask="url(#SVGQCbwKSma)" />
	<path d="M-0.63 13h24" stroke="currentColor" fill="none" stroke-width="2" stroke-linecap="round" stroke-linejoin="round" transform="rotate(45 12 12)" stroke-dasharray="26" stroke-dashoffset="26" />
</svg>
