<svg xmlns="http://www.w3.org/2000/svg" width="24" height="24" viewBox="0 0 24 24">
	<defs>
		<mask id="SVGCUuXbdJJ">
			<path d="M11 13l4.74 -7.5c0.29 0.17 0.57 0.35 0.83 0.55c0 0 1.68 -0.67 1.68 -0.67c0.13 -0.02 0.33 0.02 0.41 0.14c0.46 0.37 2.15 3.29 2.26 3.9c0.07 0.14 0.05 0.36 -0.04 0.46c0 0 -1.45 1.12 -1.45 1.12c0.05 0.33 0.07 0.66 0.07 1ZM10.63 11.63l8.87 0.35c0 0.34 -0.02 0.67 -0.06 0.99c0 0 1.42 1.12 1.42 1.12c0.08 0.1 0.15 0.3 0.08 0.43c-0.09 0.58 -1.78 3.51 -2.25 3.9c-0.09 0.13 -0.29 0.22 -0.42 0.2c0 0 -1.69 -0.69 -1.69 -0.69c-0.26 0.21 -0.54 0.39 -0.83 0.56ZM11.63 10.63l4.13 7.85c-0.29 0.17 -0.59 0.32 -0.89 0.44c0 0 -0.26 1.79 -0.26 1.79c-0.05 0.13 -0.18 0.28 -0.33 0.28c-0.55 0.21 -3.93 0.22 -4.51 0c-0.16 -0.01 -0.33 -0.14 -0.38 -0.27c0 0 -0.25 -1.81 -0.25 -1.81c-0.31 -0.12 -0.61 -0.27 -0.9 -0.44ZM13 11l-4.74 7.5c-0.29 -0.17 -0.57 -0.35 -0.83 -0.55c0 0 -1.68 0.67 -1.68 0.67c-0.13 0.02 -0.33 -0.02 -0.41 -0.14c-0.46 -0.37 -2.15 -3.29 -2.26 -3.9c-0.07 -0.14 -0.05 -0.36 0.04 -0.46c0 0 1.45 -1.12 1.45 -1.12c-0.05 -0.33 -0.07 -0.66 -0.07 -1ZM13.37 12.37l-8.87 -0.35c0 -0.34 0.02 -0.67 0.06 -0.99c0 0 -1.42 -1.12 -1.42 -1.12c-0.08 -0.1 -0.15 -0.3 -0.08 -0.43c0.09 -0.58 1.78 -3.51 2.25 -3.9c0.09 -0.13 0.29 -0.22 0.42 -0.2c0 0 1.69 0.69 1.69 0.69c0.26 -0.21 0.54 -0.39 0.83 -0.56ZM12.37 13.37l-4.13 -7.85c0.29 -0.17 0.59 -0.32 0.89 -0.44c0 0 0.26 -1.79 0.26 -1.79c0.05 -0.13 0.18 -0.28 0.33 -0.28c0.55 -0.21 3.93 -0.22 4.51 -0c0.16 0.01 0.33 0.14 0.38 0.27c0 0 0.25 1.81 0.25 1.81c0.31 0.12 0.61 0.27 0.9 0.44Z" transform="rotate(6.4 12 12)" fill="#fff" />
		</mask>
	</defs>
	<path d="M0 0h24v24H0z" fill="currentColor" mask="url(#SVGCUuXbdJJ)" />
</svg>
