<svg xmlns="http://www.w3.org/2000/svg" width="24" height="24" viewBox="0 0 24 24">
	<defs>
		<mask id="SVGgHx1ve5L">
			<path d="M11 13l4.74 -7.5c0.29 0.17 0.57 0.35 0.83 0.55c0 0 1.57 -0.63 1.57 -0.63c0.13 -0.02 0.32 0.02 0.39 0.15c0.51 0.42 2.16 3.26 2.28 3.94c0.07 0.14 0.04 0.35 -0.03 0.45c0 0 -1.36 1.05 -1.36 1.05c0.05 0.33 0.07 0.66 0.07 1ZM10.63 11.63l8.87 0.35c0 0.34 -0.02 0.67 -0.06 0.99c0 0 1.33 1.05 1.33 1.05c0.08 0.1 0.14 0.29 0.07 0.42c-0.11 0.66 -1.74 3.5 -2.27 3.94c-0.09 0.13 -0.28 0.21 -0.41 0.19c0 0 -1.59 -0.65 -1.59 -0.65c-0.26 0.21 -0.54 0.39 -0.83 0.56ZM11.63 10.63l4.13 7.85c-0.29 0.17 -0.59 0.32 -0.89 0.44c0 0 -0.24 1.68 -0.24 1.68c-0.05 0.12 -0.18 0.27 -0.33 0.27c-0.62 0.24 -3.91 0.24 -4.55 0c-0.16 -0.01 -0.32 -0.13 -0.37 -0.26c0 0 -0.23 -1.7 -0.23 -1.7c-0.31 -0.12 -0.61 -0.27 -0.9 -0.44ZM13 11l-4.74 7.5c-0.29 -0.17 -0.57 -0.35 -0.83 -0.55c0 0 -1.57 0.63 -1.57 0.63c-0.13 0.02 -0.32 -0.02 -0.39 -0.15c-0.51 -0.42 -2.16 -3.26 -2.28 -3.94c-0.07 -0.14 -0.04 -0.35 0.03 -0.45c0 0 1.36 -1.05 1.36 -1.05c-0.05 -0.33 -0.07 -0.66 -0.07 -1ZM13.37 12.37l-8.87 -0.35c0 -0.34 0.02 -0.67 0.06 -0.99c0 0 -1.33 -1.05 -1.33 -1.05c-0.08 -0.1 -0.14 -0.29 -0.07 -0.42c0.11 -0.66 1.74 -3.5 2.27 -3.94c0.09 -0.13 0.28 -0.21 0.41 -0.19c0 0 1.59 0.65 1.59 0.65c0.26 -0.21 0.54 -0.39 0.83 -0.56ZM12.37 13.37l-4.13 -7.85c0.29 -0.17 0.59 -0.32 0.89 -0.44c0 0 0.24 -1.68 0.24 -1.68c0.05 -0.12 0.18 -0.27 0.33 -0.27c0.62 -0.24 3.91 -0.24 4.55 -0c0.16 0.01 0.32 0.13 0.37 0.26c0 0 0.23 1.7 0.23 1.7c0.31 0.12 0.61 0.27 0.9 0.44Z" transform="rotate(6.3 12 12)" fill="#fff" />
			<path d="M0 11h24" stroke="#000" fill="none" stroke-width="2" stroke-linecap="round" stroke-linejoin="round" transform="rotate(45 12 12)" stroke-dasharray="26" stroke-dashoffset="26" />
		</mask>
	</defs>
	<path d="M0 0h24v24H0z" fill="currentColor" mask="url(#SVGgHx1ve5L)" />
	<path d="M-0.65 13h24" stroke="currentColor" fill="none" stroke-width="2" stroke-linecap="round" stroke-linejoin="round" transform="rotate(45 12 12)" stroke-dasharray="26" stroke-dashoffset="26" />
</svg>
