<svg xmlns="http://www.w3.org/2000/svg" width="24" height="24" viewBox="0 0 24 24">
	<defs>
		<mask id="SVGCQNcvdXk">
			<path d="M11 13l4.74 -7.5c0.29 0.17 0.57 0.35 0.83 0.55c0 0 1.89 -0.76 1.89 -0.76c0.14 -0.03 0.36 0 0.43 0.14c0.34 0.28 2.13 3.37 2.21 3.82c0.08 0.15 0.05 0.38 -0.05 0.49c0 0 -1.63 1.26 -1.63 1.26c0.05 0.33 0.07 0.66 0.07 1ZM10.63 11.63l8.87 0.35c0 0.34 -0.02 0.67 -0.06 0.99c0 0 1.6 1.26 1.6 1.26c0.1 0.1 0.17 0.32 0.09 0.45c-0.07 0.44 -1.85 3.53 -2.21 3.82c-0.09 0.14 -0.3 0.24 -0.45 0.2c0 0 -1.91 -0.78 -1.91 -0.78c-0.26 0.21 -0.54 0.39 -0.83 0.56ZM11.63 10.63l4.13 7.85c-0.29 0.17 -0.59 0.32 -0.89 0.44c0 0 -0.29 2.02 -0.29 2.02c-0.04 0.14 -0.18 0.31 -0.34 0.31c-0.41 0.16 -3.98 0.16 -4.42 0c-0.17 -0.01 -0.35 -0.15 -0.4 -0.29c0 0 -0.28 -2.04 -0.28 -2.04c-0.31 -0.12 -0.61 -0.27 -0.9 -0.44ZM13 11l-4.74 7.5c-0.29 -0.17 -0.57 -0.35 -0.83 -0.55c0 0 -1.89 0.76 -1.89 0.76c-0.14 0.03 -0.36 -0 -0.43 -0.14c-0.34 -0.28 -2.13 -3.37 -2.21 -3.82c-0.08 -0.15 -0.05 -0.38 0.05 -0.49c0 0 1.63 -1.26 1.63 -1.26c-0.05 -0.33 -0.07 -0.66 -0.07 -1ZM13.37 12.37l-8.87 -0.35c0 -0.34 0.02 -0.67 0.06 -0.99c0 0 -1.6 -1.26 -1.6 -1.26c-0.1 -0.1 -0.17 -0.32 -0.09 -0.45c0.07 -0.44 1.85 -3.53 2.21 -3.82c0.09 -0.14 0.3 -0.24 0.45 -0.2c0 0 1.91 0.78 1.91 0.78c0.26 -0.21 0.54 -0.39 0.83 -0.56ZM12.37 13.37l-4.13 -7.85c0.29 -0.17 0.59 -0.32 0.89 -0.44c0 0 0.29 -2.02 0.29 -2.02c0.04 -0.14 0.18 -0.31 0.34 -0.31c0.41 -0.16 3.98 -0.16 4.42 -0c0.17 0.01 0.35 0.15 0.4 0.29c0 0 0.28 2.04 0.28 2.04c0.31 0.12 0.61 0.27 0.9 0.44Z" transform="rotate(6.6 12 12)" fill="#fff" />
		</mask>
	</defs>
	<path d="M0 0h24v24H0z" fill="currentColor" mask="url(#SVGCQNcvdXk)" />
</svg>
