<svg xmlns="http://www.w3.org/2000/svg" width="24" height="24" viewBox="0 0 24 24">
	<defs>
		<mask id="SVGHtpJPcbF">
			<path d="M11 13l4.74 -7.5c0.29 0.17 0.57 0.35 0.83 0.55c0 0 1.78 -0.72 1.78 -0.72c0.13 -0.03 0.35 0.01 0.42 0.14c0.4 0.33 2.14 3.33 2.23 3.86c0.07 0.15 0.05 0.37 -0.04 0.48c0 0 -1.54 1.19 -1.54 1.19c0.05 0.33 0.07 0.66 0.07 1ZM10.63 11.63l8.87 0.35c0 0.34 -0.02 0.67 -0.06 0.99c0 0 1.51 1.19 1.51 1.19c0.09 0.1 0.16 0.31 0.08 0.44c-0.08 0.51 -1.82 3.52 -2.23 3.86c-0.09 0.13 -0.3 0.23 -0.43 0.2c0 0 -1.8 -0.74 -1.8 -0.74c-0.26 0.21 -0.54 0.39 -0.83 0.56ZM11.63 10.63l4.13 7.85c-0.29 0.17 -0.59 0.32 -0.89 0.44c0 0 -0.28 1.91 -0.28 1.91c-0.04 0.13 -0.18 0.3 -0.33 0.3c-0.48 0.18 -3.96 0.19 -4.46 0c-0.16 -0.01 -0.34 -0.14 -0.39 -0.28c0 0 -0.26 -1.93 -0.26 -1.93c-0.31 -0.12 -0.61 -0.27 -0.9 -0.44ZM13 11l-4.74 7.5c-0.29 -0.17 -0.57 -0.35 -0.83 -0.55c0 0 -1.78 0.72 -1.78 0.72c-0.13 0.03 -0.35 -0.01 -0.42 -0.14c-0.4 -0.33 -2.14 -3.33 -2.23 -3.86c-0.07 -0.15 -0.05 -0.37 0.04 -0.48c0 0 1.54 -1.19 1.54 -1.19c-0.05 -0.33 -0.07 -0.66 -0.07 -1ZM13.37 12.37l-8.87 -0.35c0 -0.34 0.02 -0.67 0.06 -0.99c0 0 -1.51 -1.19 -1.51 -1.19c-0.09 -0.1 -0.16 -0.31 -0.08 -0.44c0.08 -0.51 1.82 -3.52 2.23 -3.86c0.09 -0.13 0.3 -0.23 0.43 -0.2c0 0 1.8 0.74 1.8 0.74c0.26 -0.21 0.54 -0.39 0.83 -0.56ZM12.37 13.37l-4.13 -7.85c0.29 -0.17 0.59 -0.32 0.89 -0.44c0 0 0.28 -1.91 0.28 -1.91c0.04 -0.13 0.18 -0.3 0.33 -0.3c0.48 -0.18 3.96 -0.19 4.46 -0c0.16 0.01 0.34 0.14 0.39 0.28c0 0 0.26 1.93 0.26 1.93c0.31 0.12 0.61 0.27 0.9 0.44Z" transform="rotate(6.5 12 12)" fill="#fff" />
		</mask>
	</defs>
	<path d="M0 0h24v24H0z" fill="currentColor" mask="url(#SVGHtpJPcbF)" />
</svg>
