<svg xmlns="http://www.w3.org/2000/svg" width="24" height="24" viewBox="0 0 24 24">
	<defs>
		<mask id="SVG1p18o8Nk">
			<path d="M11 13l4.74 -7.5c0.29 0.17 0.57 0.35 0.83 0.55c0 0 2.52 -1.01 2.52 -1.01c0.16 -0.06 0.43 -0.03 0.51 0.13c0 0 2.07 3.58 2.07 3.58c0.1 0.17 0.06 0.45 -0.07 0.57c0 0 -2.17 1.68 -2.17 1.68c0.05 0.33 0.07 0.66 0.07 1ZM10.63 11.63l8.87 0.35c0 0.34 -0.02 0.67 -0.06 0.99c0 0 2.13 1.68 2.13 1.68c0.13 0.11 0.24 0.36 0.14 0.51c0 0 -2.07 3.58 -2.07 3.58c-0.1 0.17 -0.36 0.28 -0.53 0.22c0 0 -2.54 -1.04 -2.54 -1.04c-0.26 0.21 -0.54 0.39 -0.83 0.56ZM11.63 10.63l4.13 7.85c-0.29 0.17 -0.59 0.32 -0.89 0.44c0 0 -0.39 2.69 -0.39 2.69c-0.03 0.17 -0.19 0.39 -0.37 0.38c0 0 -4.14 0 -4.14 0c-0.2 0 -0.42 -0.17 -0.46 -0.35c0 0 -0.37 -2.72 -0.37 -2.72c-0.31 -0.12 -0.61 -0.27 -0.9 -0.44ZM13 11l-4.74 7.5c-0.29 -0.17 -0.57 -0.35 -0.83 -0.55c0 0 -2.52 1.01 -2.52 1.01c-0.16 0.06 -0.43 0.03 -0.51 -0.13c0 0 -2.07 -3.58 -2.07 -3.58c-0.1 -0.17 -0.06 -0.45 0.07 -0.57c0 0 2.17 -1.68 2.17 -1.68c-0.05 -0.33 -0.07 -0.66 -0.07 -1ZM13.37 12.37l-8.87 -0.35c0 -0.34 0.02 -0.67 0.06 -0.99c0 0 -2.13 -1.68 -2.13 -1.68c-0.13 -0.11 -0.24 -0.36 -0.14 -0.51c0 0 2.07 -3.58 2.07 -3.58c0.1 -0.17 0.36 -0.28 0.53 -0.22c0 0 2.54 1.04 2.54 1.04c0.26 -0.21 0.54 -0.39 0.83 -0.56ZM12.37 13.37l-4.13 -7.85c0.29 -0.17 0.59 -0.32 0.89 -0.44c0 0 0.39 -2.69 0.39 -2.69c0.03 -0.17 0.19 -0.39 0.37 -0.38c0 0 4.14 0 4.14 0c0.2 0 0.42 0.17 0.46 0.35c0 0 0.37 2.72 0.37 2.72c0.31 0.12 0.61 0.27 0.9 0.44Z" transform="rotate(201 12 12)" fill="#fff" />
			<path d="M0 11h24" stroke="#000" fill="none" stroke-width="2" stroke-linecap="round" stroke-linejoin="round" transform="rotate(45 12 12)" />
		</mask>
	</defs>
	<path d="M0 0h24v24H0z" fill="currentColor" mask="url(#SVG1p18o8Nk)" />
	<path d="M-0.17 13h24" stroke="currentColor" fill="none" stroke-width="2" stroke-linecap="round" stroke-linejoin="round" transform="rotate(45 12 12)" />
</svg>
