<svg xmlns="http://www.w3.org/2000/svg" width="24" height="24" viewBox="0 0 24 24">
	<defs>
		<mask id="SVG6ID3WcUs">
			<g stroke-linecap="round" stroke-linejoin="round" stroke-width="2">
				<path d="M6.69 19h11.31c2.21 0 4 -1.79 4 -4c0 -2.21 -1.79 -4 -4 -4h-0.69v-1c0 -2.76 -2.24 -5 -5 -5c-2.42 0 -4.44 1.72 -4.9 4h-0.72c-2.76 0 -5 2.24 -5 5c0 2.76 2.24 5 5 5Z" stroke="#fff" fill="#fff" fill-opacity="0.3" />
				<path d="M-1 11h26" stroke="#000" fill="none" transform="rotate(45 12 12)" stroke-dasharray="28" stroke-dashoffset="22.75" />
			</g>
		</mask>
	</defs>
	<path d="M0 0h24v24H0z" fill="currentColor" mask="url(#SVG6ID3WcUs)" />
	<path d="M-1.38 13h26" stroke="currentColor" fill="none" stroke-width="2" stroke-linecap="round" stroke-linejoin="round" transform="rotate(45 12 12)" stroke-dasharray="28" stroke-dashoffset="22.75" />
</svg>
