<svg xmlns="http://www.w3.org/2000/svg" width="24" height="24" viewBox="0 0 24 24">
	<defs>
		<mask id="SVGjDQFCefl">
			<path d="M12 5.25c3.72 0 6.75 3.03 6.75 6.75c0 3.72 -3.03 6.75 -6.75 6.75c-3.72 0 -6.75 -3.03 -6.75 -6.75c0 -3.72 3.03 -6.75 6.75 -6.75Z" fill="#fff" />
			<path d="M21.25 -4c3.72 0 6.75 3.03 6.75 6.75c0 3.72 -3.03 6.75 -6.75 6.75c-3.72 0 -6.75 -3.03 -6.75 -6.75c0 -3.72 3.03 -6.75 6.75 -6.75Z" fill="#000" />
		</mask>
	</defs>
	<path d="M12 21v1M21 12h1M12 3v-1M3 12h-1M18.5 18.5l0.5 0.5M18.5 5.5l0.5 -0.5M5.5 5.5l-0.5 -0.5M5.5 18.5l-0.5 0.5" stroke="currentColor" fill="none" stroke-width="2" stroke-linecap="round" stroke-linejoin="round" opacity="0.812" />
	<path d="M0 0h24v24H0z" fill="currentColor" mask="url(#SVGjDQFCefl)" />
	<path d="M12 5h1.5M12 5h-1.5M12 5v1.5M12 5v-1.5M17 11h1.5M17 11h-1.5M17 11v1.5M17 11v-1.5M20 5h1.5M20 5h-1.5M20 5v1.5M20 5v-1.5M12 4h1.5M12 4h-1.5M12 4v1.5M12 4v-1.5M18 12h1.5M18 12h-1.5M18 12v1.5M18 12v-1.5M19 4h1.5M19 4h-1.5M19 4v1.5M19 4v-1.5M13 4h1.5M13 4h-1.5M13 4v1.5M13 4v-1.5M19 11h1.5M19 11h-1.5M19 11v1.5M19 11v-1.5M20 5h1.5M20 5h-1.5M20 5v1.5M20 5v-1.5" stroke-dashoffset="4" fill="none" stroke="currentColor" stroke-linecap="round" stroke-linejoin="round" stroke-dasharray="4" />
</svg>
