<svg xmlns="http://www.w3.org/2000/svg" width="24" height="24" viewBox="0 0 24 24">
	<defs>
		<mask id="SVGUWozcc2N">
			<path d="M12 4.58c4.09 0 7.42 3.32 7.42 7.42c0 4.09 -3.32 7.42 -7.42 7.42c-4.09 0 -7.42 -3.32 -7.42 -7.42c0 -4.09 3.32 -7.42 7.42 -7.42Z" fill="#fff" />
			<path d="M20.58 -4c4.09 0 7.42 3.32 7.42 7.42c0 4.09 -3.32 7.42 -7.42 7.42c-4.09 0 -7.42 -3.32 -7.42 -7.42c0 -4.09 3.32 -7.42 7.42 -7.42Z" fill="#000" />
		</mask>
	</defs>
	<path d="M12 21v1M21 12h1M12 3v-1M3 12h-1M18.5 18.5l0.5 0.5M18.5 5.5l0.5 -0.5M5.5 5.5l-0.5 -0.5M5.5 18.5l-0.5 0.5" stroke="currentColor" fill="none" stroke-width="2" stroke-linecap="round" stroke-linejoin="round" opacity="0.646" />
	<path d="M0 0h24v24H0z" fill="currentColor" mask="url(#SVGUWozcc2N)" />
</svg>
