<svg xmlns="http://www.w3.org/2000/svg" width="24" height="24" viewBox="0 0 24 24">
	<defs>
		<mask id="SVGM2aVEcxj">
			<path d="M12 3.92c4.46 0 8.08 3.62 8.08 8.08c0 4.46 -3.62 8.08 -8.08 8.08c-4.46 0 -8.08 -3.62 -8.08 -8.08c0 -4.46 3.62 -8.08 8.08 -8.08Z" fill="#fff" />
			<path d="M19.92 -4c4.46 0 8.08 3.62 8.08 8.08c0 4.46 -3.62 8.08 -8.08 8.08c-4.46 0 -8.08 -3.62 -8.08 -8.08c0 -4.46 3.62 -8.08 8.08 -8.08Z" fill="#000" />
		</mask>
	</defs>
	<path d="M12 21v1M21 12h1M12 3v-1M3 12h-1M18.5 18.5l0.5 0.5M18.5 5.5l0.5 -0.5M5.5 5.5l-0.5 -0.5M5.5 18.5l-0.5 0.5" stroke="currentColor" fill="none" stroke-width="2" stroke-linecap="round" stroke-linejoin="round" opacity="0.479" />
	<path d="M0 0h24v24H0z" fill="currentColor" mask="url(#SVGM2aVEcxj)" />
</svg>
