<svg xmlns="http://www.w3.org/2000/svg" width="24" height="24" viewBox="0 0 24 24">
	<defs>
		<mask id="SVGVwxB1dFr">
			<path d="M12 3.33c4.78 0 8.67 3.88 8.67 8.67c0 4.78 -3.88 8.67 -8.67 8.67c-4.78 0 -8.67 -3.88 -8.67 -8.67c0 -4.78 3.88 -8.67 8.67 -8.67Z" fill="#fff" />
			<path d="M19.33 -4c4.78 0 8.67 3.88 8.67 8.67c0 4.78 -3.88 8.67 -8.67 8.67c-4.78 0 -8.67 -3.88 -8.67 -8.67c0 -4.78 3.88 -8.67 8.67 -8.67Z" fill="#000" />
		</mask>
	</defs>
	<path d="M12 21v1M21 12h1M12 3v-1M3 12h-1M18.5 18.5l0.5 0.5M18.5 5.5l0.5 -0.5M5.5 5.5l-0.5 -0.5M5.5 18.5l-0.5 0.5" stroke="currentColor" fill="none" stroke-width="2" stroke-linecap="round" stroke-linejoin="round" opacity="0.333" />
	<path d="M0 0h24v24H0z" fill="currentColor" mask="url(#SVGVwxB1dFr)" />
</svg>
