<svg xmlns="http://www.w3.org/2000/svg" width="24" height="24" viewBox="0 0 24 24">
	<defs>
		<mask id="SVGvgjN5bmD">
			<path d="M12 2.5c5.24 0 9.5 4.26 9.5 9.5c0 5.24 -4.26 9.5 -9.5 9.5c-5.24 0 -9.5 -4.26 -9.5 -9.5c0 -5.24 4.26 -9.5 9.5 -9.5Z" fill="#fff" />
			<path d="M18.5 -4c5.24 0 9.5 4.26 9.5 9.5c0 5.24 -4.26 9.5 -9.5 9.5c-5.24 0 -9.5 -4.26 -9.5 -9.5c0 -5.24 4.26 -9.5 9.5 -9.5Z" fill="#000" />
		</mask>
	</defs>
	<path d="M12 21v1M21 12h1M12 3v-1M3 12h-1M18.5 18.5l0.5 0.5M18.5 5.5l0.5 -0.5M5.5 5.5l-0.5 -0.5M5.5 18.5l-0.5 0.5" stroke="currentColor" fill="none" stroke-width="2" stroke-linecap="round" stroke-linejoin="round" opacity="0.125" />
	<path d="M0 0h24v24H0z" fill="currentColor" mask="url(#SVGvgjN5bmD)" />
</svg>
