<svg xmlns="http://www.w3.org/2000/svg" width="24" height="24" viewBox="0 0 24 24">
	<defs>
		<mask id="SVGEJ9Zse9t">
			<path d="M12 5.25c3.72 0 6.75 3.03 6.75 6.75c0 3.72 -3.03 6.75 -6.75 6.75c-3.72 0 -6.75 -3.03 -6.75 -6.75c0 -3.72 3.03 -6.75 6.75 -6.75Z" fill="#fff" />
			<path d="M21.25 -4c3.72 0 6.75 3.03 6.75 6.75c0 3.72 -3.03 6.75 -6.75 6.75c-3.72 0 -6.75 -3.03 -6.75 -6.75c0 -3.72 3.03 -6.75 6.75 -6.75ZM12 7.25c2.62 0 4.75 2.13 4.75 4.75c0 2.62 -2.13 4.75 -4.75 4.75c-2.62 0 -4.75 -2.13 -4.75 -4.75c0 -2.62 2.13 -4.75 4.75 -4.75Z" fill="#000" />
		</mask>
		<mask id="SVGoGZSYcdC">
			<path d="M21.25 -6c4.83 0 8.75 3.92 8.75 8.75c0 4.83 -3.92 8.75 -8.75 8.75c-4.83 0 -8.75 -3.92 -8.75 -8.75c0 -4.83 3.92 -8.75 8.75 -8.75Z" fill="#fff" />
			<path d="M21.25 -4c3.72 0 6.75 3.03 6.75 6.75c0 3.72 -3.03 6.75 -6.75 6.75c-3.72 0 -6.75 -3.03 -6.75 -6.75c0 -3.72 3.03 -6.75 6.75 -6.75ZM5.25 12v-20h26.75v26.75h-20c3.72 0 6.75 -3.03 6.75 -6.75c0 -3.72 -3.03 -6.75 -6.75 -6.75c-3.72 0 -6.75 3.03 -6.75 6.75Z" fill="#000" />
		</mask>
	</defs>
	<path d="M12 21v1M21 12h1M12 3v-1M3 12h-1M18.5 18.5l0.5 0.5M18.5 5.5l0.5 -0.5M5.5 5.5l-0.5 -0.5M5.5 18.5l-0.5 0.5" stroke="currentColor" fill="none" stroke-width="2" stroke-linecap="round" stroke-linejoin="round" opacity="0.813" />
	<g fill="currentColor">
		<path d="M0 0h24v24H0z" mask="url(#SVGEJ9Zse9t)" />
		<path d="M0 0h24v24H0z" mask="url(#SVGoGZSYcdC)" />
	</g>
</svg>
