<svg xmlns="http://www.w3.org/2000/svg" width="24" height="24" viewBox="0 0 24 24">
	<defs>
		<mask id="SVGk51BgezP">
			<path d="M12 2.17c5.43 0 9.83 4.41 9.83 9.83c0 5.43 -4.41 9.83 -9.83 9.83c-5.43 0 -9.83 -4.41 -9.83 -9.83c0 -5.43 4.41 -9.83 9.83 -9.83Z" fill="#fff" />
			<path d="M18.17 -4c5.43 0 9.83 4.41 9.83 9.83c0 5.43 -4.41 9.83 -9.83 9.83c-5.43 0 -9.83 -4.41 -9.83 -9.83c0 -5.43 4.41 -9.83 9.83 -9.83ZM12 4.17c4.33 0 7.83 3.51 7.83 7.83c0 4.33 -3.51 7.83 -7.83 7.83c-4.33 0 -7.83 -3.51 -7.83 -7.83c0 -4.33 3.51 -7.83 7.83 -7.83Z" fill="#000" />
		</mask>
		<mask id="SVGYjspXp5d">
			<path d="M18.17 -6c6.53 0 11.83 5.31 11.83 11.83c0 6.53 -5.31 11.83 -11.83 11.83c-6.53 0 -11.83 -5.31 -11.83 -11.83c0 -6.53 5.31 -11.83 11.83 -11.83Z" fill="#fff" />
			<path d="M18.17 -4c5.43 0 9.83 4.41 9.83 9.83c0 5.43 -4.41 9.83 -9.83 9.83c-5.43 0 -9.83 -4.41 -9.83 -9.83c0 -5.43 4.41 -9.83 9.83 -9.83ZM2.17 12v-20h29.83v29.83h-20c5.43 0 9.83 -4.41 9.83 -9.83c0 -5.43 -4.41 -9.83 -9.83 -9.83c-5.43 0 -9.83 4.41 -9.83 9.83Z" fill="#000" />
		</mask>
	</defs>
	<path d="M12 21v1M21 12h1M12 3v-1M3 12h-1M18.5 18.5l0.5 0.5M18.5 5.5l0.5 -0.5M5.5 5.5l-0.5 -0.5M5.5 18.5l-0.5 0.5" stroke="currentColor" fill="none" stroke-width="2" stroke-linecap="round" stroke-linejoin="round" opacity="0.042" />
	<g fill="currentColor">
		<path d="M0 0h24v24H0z" mask="url(#SVGk51BgezP)" />
		<path d="M0 0h24v24H0z" mask="url(#SVGYjspXp5d)" />
	</g>
</svg>
