<svg xmlns="http://www.w3.org/2000/svg" width="24" height="24" viewBox="0 0 24 24">
	<defs>
		<mask id="SVGtMmODdAU">
			<path d="M12 2.67c5.15 0 9.33 4.18 9.33 9.33c0 5.15 -4.18 9.33 -9.33 9.33c-5.15 0 -9.33 -4.18 -9.33 -9.33c0 -5.15 4.18 -9.33 9.33 -9.33Z" fill="#fff" />
			<path d="M18.67 -4c5.15 0 9.33 4.18 9.33 9.33c0 5.15 -4.18 9.33 -9.33 9.33c-5.15 0 -9.33 -4.18 -9.33 -9.33c0 -5.15 4.18 -9.33 9.33 -9.33ZM12 4.67c4.05 0 7.33 3.28 7.33 7.33c0 4.05 -3.28 7.33 -7.33 7.33c-4.05 0 -7.33 -3.28 -7.33 -7.33c0 -4.05 3.28 -7.33 7.33 -7.33Z" fill="#000" />
		</mask>
		<mask id="SVG7hjsWczy">
			<path d="M18.67 -6c6.25 0 11.33 5.08 11.33 11.33c0 6.25 -5.08 11.33 -11.33 11.33c-6.25 0 -11.33 -5.08 -11.33 -11.33c0 -6.25 5.08 -11.33 11.33 -11.33Z" fill="#fff" />
			<path d="M18.67 -4c5.15 0 9.33 4.18 9.33 9.33c0 5.15 -4.18 9.33 -9.33 9.33c-5.15 0 -9.33 -4.18 -9.33 -9.33c0 -5.15 4.18 -9.33 9.33 -9.33ZM2.67 12v-20h29.33v29.33h-20c5.15 0 9.33 -4.18 9.33 -9.33c0 -5.15 -4.18 -9.33 -9.33 -9.33c-5.15 0 -9.33 4.18 -9.33 9.33Z" fill="#000" />
		</mask>
	</defs>
	<path d="M12 21v1M21 12h1M12 3v-1M3 12h-1M18.5 18.5l0.5 0.5M18.5 5.5l0.5 -0.5M5.5 5.5l-0.5 -0.5M5.5 18.5l-0.5 0.5" stroke="currentColor" fill="none" stroke-width="2" stroke-linecap="round" stroke-linejoin="round" opacity="0.167" />
	<g fill="currentColor">
		<path d="M0 0h24v24H0z" mask="url(#SVGtMmODdAU)" />
		<path d="M0 0h24v24H0z" mask="url(#SVG7hjsWczy)" />
	</g>
</svg>
