<svg xmlns="http://www.w3.org/2000/svg" width="24" height="24" viewBox="0 0 24 24">
	<defs>
		<mask id="SVGZj8ROd7M">
			<path d="M5 6c0 -2 2 0 6.5 0c4.5 0 7.5 -2 7.5 0l0 1c0 1.5 -2 2 -6.5 2c-4.5 0 -7.5 0 -7.5 -2l0 -1Z" fill="#fff" />
			<path d="M4 4h16v5h-16Z" fill="#000" />
		</mask>
		<mask id="SVGvQqTLmEZ">
			<path d="M10.13 18.15c-0.09 -0.86 -0.72 -6.17 -0.72 -6.17c0 0 1.94 0.33 3.1 -0.25c1.16 -0.57 2.48 -0.73 2.48 -0.73c0 0 -0.58 6.96 -0.63 7.46c-0.05 0.5 -0.9 0.84 -1.4 0.84l-1.72 0c-0.5 0 -1.02 -0.3 -1.11 -1.15Z" fill="#fff" fill-opacity="0.3" />
			<path d="M8 10h8v10h-8Z" fill="#000" />
		</mask>
	</defs>
	<path d="M7.5 10.5c0 0 0.83 6.93 1 8.5c0.17 1.57 1.5 2 2.5 2l2 0c1.5 0 2.88 -1.14 3 -2c0.13 -0.86 1 -12 1 -12" stroke="currentColor" fill="none" stroke-width="2" stroke-linecap="round" stroke-linejoin="round" stroke-dasharray="32" stroke-dashoffset="24" />
	<g fill="currentColor">
		<path d="M0 0h24v24H0z" mask="url(#SVGZj8ROd7M)" />
		<path d="M0 0h24v24H0z" mask="url(#SVGvQqTLmEZ)" />
	</g>
</svg>
