<svg xmlns="http://www.w3.org/2000/svg" width="24" height="24" viewBox="0 0 24 24">
	<defs>
		<mask id="SVGlIuohdsx">
			<path d="M12 3c4.97 0 9 4.03 9 9c0 4.97 -4.03 9 -9 9c-4.97 0 -9 -4.03 -9 -9c0 -4.97 4.03 -9 9 -9Z" stroke="#fff" fill="#fff" stroke-width="2" stroke-linecap="round" stroke-linejoin="round" />
			<path d="M12 9.71c3.22 0 5.83 1.82 5.83 4.06c0 2.24 -2.61 4.06 -5.83 4.06c-3.22 0 -5.83 -1.82 -5.83 -4.06c0 -2.24 2.61 -4.06 5.83 -4.06ZM8.08 10.54c0.8 0 1.45 0.65 1.45 1.45c0 0.8 -0.65 1.45 -1.45 1.45c-0.8 0 -1.45 -0.65 -1.45 -1.45c0 -0.8 0.65 -1.45 1.45 -1.45ZM15.92 9.75c0.8 0 1.45 0.65 1.45 1.45c0 0.8 -0.65 1.45 -1.45 1.45c-0.8 0 -1.45 -0.65 -1.45 -1.45c0 -0.8 0.65 -1.45 1.45 -1.45Z" fill="#000" />
		</mask>
	</defs>
	<path d="M0 0h24v24H0z" fill="currentColor" mask="url(#SVGlIuohdsx)" />
</svg>
