<svg xmlns="http://www.w3.org/2000/svg" width="24" height="24" viewBox="0 0 24 24">
	<g fill="none" stroke="currentColor" stroke-linecap="round" stroke-linejoin="round" stroke-width="2">
		<path d="M12 19h-5c-2.5 0 -4 -2 -4 -4c0 -2 1.5 -4 4 -4c1 0 1.5 0.5 1.5 0.5M12 19h5c2.5 0 4 -2 4 -4c0 -2 -1.5 -4 -4 -4c-1 0 -1.5 0.5 -1.5 0.5" stroke-dasharray="22" stroke-dashoffset="6.233" />
		<path d="M7 11v-1c0 -2.5 2 -5 5 -5M17 11v-1c0 -2.5 -2 -5 -5 -5" stroke-dasharray="12" stroke-dashoffset="12" />
	</g>
</svg>
