<svg xmlns="http://www.w3.org/2000/svg" width="24" height="24" viewBox="0 0 24 24">
	<defs>
		<mask id="SVGTxQG4dyp">
			<g stroke-linecap="round" stroke-linejoin="round" stroke-width="2">
				<path d="M12 7c2.76 0 5 2.24 5 5c0 2.76 -2.24 5 -5 5c-2.76 0 -5 -2.24 -5 -5c0 -2.76 2.24 -5 5 -5Z" stroke="#fff" fill="#fff" fill-opacity="0.3" />
				<g fill="none">
					<path d="M12 21v1M21 12h1M12 3v-1M3 12h-1M17.19 17.19l0.5 0.5M17.19 6.81l0.5 -0.5M6.81 6.81l-0.5 -0.5M6.81 17.19l-0.5 0.5" transform="rotate(11.7 12 12)" stroke="#fff" />
					<path d="M-1 11h26" stroke="#000" transform="rotate(45 12 12)" stroke-dasharray="28" stroke-dashoffset="28" />
				</g>
			</g>
		</mask>
	</defs>
	<path d="M0 0h24v24H0z" fill="currentColor" mask="url(#SVGTxQG4dyp)" />
	<path d="M-1.35 13h26" stroke="currentColor" fill="none" stroke-width="2" stroke-linecap="round" stroke-linejoin="round" transform="rotate(45 12 12)" stroke-dasharray="28" stroke-dashoffset="28" />
</svg>
