<svg xmlns="http://www.w3.org/2000/svg" width="24" height="24" viewBox="0 0 24 24">
	<defs>
		<mask id="SVGZKImLbeW">
			<g fill="#fff">
				<path d="M4 10h3.5l3.5 -3.5v10.5l-3.5 -3.5h-3.5Z" stroke="#fff" stroke-width="2" stroke-linecap="round" stroke-linejoin="round" fill-opacity="0" />
				<path d="M14 15.33c1.25 -0.59 2.08 -1.87 2.08 -3.33c0 -1.48 -0.83 -2.72 -2.08 -3.33Z" />
				<path d="M14 8.35c1.67 0.38 2.92 1.87 2.92 3.65c0 1.78 -1.25 3.28 -2.92 3.65v-0.86c1.2 -0.36 2.08 -1.47 2.08 -2.79c0 -1.32 -0.88 -2.44 -2.08 -2.8Z" />
			</g>
			<path d="M-1 11h26" stroke="#000" fill="none" stroke-width="2" stroke-linecap="round" stroke-linejoin="round" transform="rotate(45 12 12)" stroke-dasharray="28" stroke-dashoffset="28" />
		</mask>
	</defs>
	<path d="M0 0h24v24H0z" fill="currentColor" mask="url(#SVGZKImLbeW)" />
	<path d="M-1 13h26" stroke="currentColor" fill="none" stroke-width="2" stroke-linecap="round" stroke-linejoin="round" transform="rotate(45 12 12)" stroke-dasharray="28" stroke-dashoffset="28" />
</svg>
