<svg xmlns="http://www.w3.org/2000/svg" width="24" height="24" viewBox="0 0 24 24">
	<defs>
		<mask id="SVGgp8nUcpP">
			<path d="M8 0c0 2 -2 2 -2 4s2 2 2 4s-2 2 -2 4s2 2 2 4M12 0c0 2 -2 2 -2 4s2 2 2 4s-2 2 -2 4s2 2 2 4M16 0c0 2 -2 2 -2 4s2 2 2 4s-2 2 -2 4s2 2 2 4" stroke="#fff" fill="none" stroke-width="2" stroke-linecap="round" stroke-linejoin="round" />
			<path d="M4 7h16v0h-16v12h16v-32h-16Z" fill="#000" />
		</mask>
	</defs>
	<path d="M0 0h24v24H0z" fill="currentColor" mask="url(#SVGgp8nUcpP)" />
</svg>
