<svg xmlns="http://www.w3.org/2000/svg" width="24" height="24" viewBox="0 0 24 24">
	<defs>
		<mask id="SVGZ6RWUbwM">
			<path d="M8 -1.53c0 2 -2 2 -2 4s2 2 2 4s-2 2 -2 4s2 2 2 4M12 -1.53c0 2 -2 2 -2 4s2 2 2 4s-2 2 -2 4s2 2 2 4M16 -1.53c0 2 -2 2 -2 4s2 2 2 4s-2 2 -2 4s2 2 2 4" stroke="#fff" fill="none" stroke-width="2" stroke-linecap="round" stroke-linejoin="round" />
			<path d="M4 7h16v0h-16v12h16v-32h-16Z" fill="#000" />
		</mask>
	</defs>
	<path d="M17 9v9c0 1.66 -1.34 3 -3 3h-6c-1.66 0 -3 -1.34 -3 -3v-9Z" stroke="currentColor" fill="none" stroke-width="2" stroke-linecap="round" stroke-linejoin="round" stroke-dasharray="48" stroke-dashoffset="2" />
	<path d="M0 0h24v24H0z" fill="currentColor" mask="url(#SVGZ6RWUbwM)" />
</svg>
