<svg xmlns="http://www.w3.org/2000/svg" width="24" height="24" viewBox="0 0 24 24">
	<defs>
		<mask id="SVGNt79BbHH">
			<path d="M5 19v0c-0.3 0 -0.59 -0.15 -0.74 -0.41c-0.8 -1.34 -1.26 -2.91 -1.26 -4.59c0 -4.97 4.03 -9 9 -9c4.97 0 9 4.03 9 9c0 1.68 -0.46 3.25 -1.26 4.59c-0.15 0.26 -0.44 0.41 -0.74 0.41Z" stroke="#fff" fill="#fff" stroke-width="2" stroke-linecap="round" stroke-linejoin="round" fill-opacity="0" />
			<path d="M12.17 14c0 0.09 -0.07 0.17 -0.17 0.17c-0.09 0 -0.17 -0.07 -0.17 -0.17c0 -0.09 0.17 -0.58 0.17 -0.58c0 0 0.17 0.49 0.17 0.58Z" fill="#000" transform="rotate(-100 12 14)" />
		</mask>
	</defs>
	<g fill="currentColor">
		<path d="M0 0h24v24H0z" mask="url(#SVGNt79BbHH)" />
		<path d="M12.08 14c0 0.05 -0.04 0.08 -0.08 0.08c-0.05 0 -0.08 -0.04 -0.08 -0.08c0 -0.05 0.08 -0.42 0.08 -0.42c0 0 0.08 0.37 0.08 0.42Z" transform="rotate(-100 12 14)" />
	</g>
</svg>
