<svg xmlns="http://www.w3.org/2000/svg" width="24" height="24" viewBox="0 0 24 24">
	<defs>
		<mask id="SVG237B7Tmr">
			<path d="M5 19v0c-0.3 0 -0.59 -0.15 -0.74 -0.41c-0.8 -1.34 -1.26 -2.91 -1.26 -4.59c0 -4.97 4.03 -9 9 -9c4.97 0 9 4.03 9 9c0 1.68 -0.46 3.25 -1.26 4.59c-0.15 0.26 -0.44 0.41 -0.74 0.41Z" stroke="#fff" fill="#fff" stroke-width="2" stroke-linecap="round" stroke-linejoin="round" fill-opacity="0" />
			<path d="M14 14c0 1.1 -0.9 2 -2 2c-1.1 0 -2 -0.9 -2 -2c0 -1.1 2 -7 2 -7c0 0 2 5.89 2 7Z" fill="#000" transform="rotate(-100 12 14)" />
		</mask>
	</defs>
	<g fill="currentColor">
		<path d="M0 0h24v24H0z" mask="url(#SVG237B7Tmr)" />
		<path d="M13 14c0 0.55 -0.45 1 -1 1c-0.55 0 -1 -0.45 -1 -1c0 -0.55 1 -5 1 -5c0 0 1 4.45 1 5Z" transform="rotate(-100 12 14)" />
	</g>
</svg>
