<svg xmlns="http://www.w3.org/2000/svg" width="24" height="24" viewBox="0 0 24 24">
	<defs>
		<mask id="SVGbilGleOl">
			<path d="M5 19v0c-0.3 0 -0.59 -0.15 -0.74 -0.41c-0.8 -1.34 -1.26 -2.91 -1.26 -4.59c0 -4.97 4.03 -9 9 -9c4.97 0 9 4.03 9 9c0 1.68 -0.46 3.25 -1.26 4.59c-0.15 0.26 -0.44 0.41 -0.74 0.41Z" stroke="#fff" fill="#fff" stroke-width="2" stroke-linecap="round" stroke-linejoin="round" fill-opacity="0" />
			<path d="M14.17 14c0 1.2 -0.97 2.17 -2.17 2.17c-1.2 0 -2.17 -0.97 -2.17 -2.17c0 -1.2 2.17 -7.58 2.17 -7.58c0 0 2.17 6.39 2.17 7.58Z" fill="#000" transform="rotate(-100 12 14)" />
		</mask>
	</defs>
	<g fill="currentColor">
		<path d="M0 0h24v24H0z" mask="url(#SVGbilGleOl)" />
		<path d="M13.08 14c0 0.6 -0.49 1.08 -1.08 1.08c-0.6 0 -1.08 -0.49 -1.08 -1.08c0 -0.6 1.08 -5.42 1.08 -5.42c0 0 1.08 4.82 1.08 5.42Z" transform="rotate(-100 12 14)" />
	</g>
</svg>
