<svg xmlns="http://www.w3.org/2000/svg" width="24" height="24" viewBox="0 0 24 24">
	<defs>
		<mask id="SVGS0N1BdBk">
			<path d="M5 19v0c-0.3 0 -0.59 -0.15 -0.74 -0.41c-0.8 -1.34 -1.26 -2.91 -1.26 -4.59c0 -4.97 4.03 -9 9 -9c4.97 0 9 4.03 9 9c0 1.68 -0.46 3.25 -1.26 4.59c-0.15 0.26 -0.44 0.41 -0.74 0.41Z" stroke="#fff" fill="#fff" stroke-width="2" stroke-linecap="round" stroke-linejoin="round" fill-opacity="0" />
			<path d="M15.83 14c0 2.12 -1.72 3.83 -3.83 3.83c-2.12 0 -3.83 -1.72 -3.83 -3.83c0 -2.12 3.83 -13.42 3.83 -13.42c0 0 3.83 11.3 3.83 13.42Z" fill="#000" transform="rotate(-100 12 14)" />
		</mask>
	</defs>
	<g fill="currentColor">
		<path d="M0 0h24v24H0z" mask="url(#SVGS0N1BdBk)" />
		<path d="M13.92 14c0 1.05 -0.86 1.92 -1.92 1.92c-1.05 0 -1.92 -0.86 -1.92 -1.92c0 -1.05 1.92 -9.58 1.92 -9.58c0 0 1.92 8.53 1.92 9.58Z" transform="rotate(-100 12 14)" />
	</g>
</svg>
