<svg xmlns="http://www.w3.org/2000/svg" width="24" height="24" viewBox="0 0 24 24">
	<defs>
		<mask id="SVGQQzbpcEp">
			<g fill="none" stroke-linecap="round" stroke-linejoin="round" stroke-width="2">
				<path d="M10 5c1.66 0 3 1.34 3 3c0 1.66 -1.34 3 -3 3c-1.66 0 -3 -1.34 -3 -3c0 -1.66 1.34 -3 3 -3ZM10 14c4 0 7 2 7 3v2h-14v-2c0 -1 3 -3 7 -3Z" stroke="#fff" />
				<path d="M0 11h24" stroke="#000" transform="rotate(45 12 12)" />
			</g>
		</mask>
	</defs>
	<path d="M0 0h24v24H0z" fill="currentColor" mask="url(#SVGQQzbpcEp)" />
	<path d="M0.77 13h22" stroke="currentColor" fill="none" stroke-width="2" stroke-linecap="round" stroke-linejoin="round" transform="rotate(45 12 12)" />
</svg>
