<svg xmlns="http://www.w3.org/2000/svg" width="24" height="24" viewBox="0 0 24 24">
	<defs>
		<mask id="SVG7jRQcJKD">
			<path d="M12 11l-8 -5h16l-8 5Z" fill="#fff" fill-opacity="0.3" />
			<path d="M4 5h16c0.55 0 1 0.45 1 1v12c0 0.55 -0.45 1 -1 1h-16c-0.55 0 -1 -0.45 -1 -1v-12c0 -0.55 0.45 -1 1 -1ZM3 6.5l9 5.5l9 -5.5" stroke="#fff" fill="none" stroke-width="2" stroke-linecap="round" stroke-linejoin="round" />
			<path d="M19 13c3.31 0 6 2.69 6 6c0 3.31 -2.69 6 -6 6c-3.31 0 -6 -2.69 -6 -6c0 -3.31 2.69 -6 6 -6Z" fill="#000" />
		</mask>
	</defs>
	<path d="M0 0h24v24H0z" fill="currentColor" mask="url(#SVG7jRQcJKD)" />
	<path d="M16 19h5M21 19l-2 2M21 19l-2 -2" stroke="currentColor" fill="none" stroke-width="2" stroke-linecap="round" stroke-linejoin="round" />
</svg>
