<svg xmlns="http://www.w3.org/2000/svg" width="24" height="24" viewBox="0 0 24 24">
	<defs>
		<mask id="SVGnY5zeUIY">
			<g stroke-linecap="round" stroke-linejoin="round" stroke-width="2">
				<path d="M12 4c4.42 0 8 3.58 8 8c0 4.42 -3.58 8 -8 8c-4.42 0 -8 -3.58 -8 -8c0 -4.42 3.58 -8 8 -8" stroke="#fff" fill="#fff" />
				<path d="M10.5 16v-8h3c0.55 0 1 0.45 1 1v2c0 0.55 -0.45 1 -1 1h-3" stroke="#000" fill="none" stroke-dasharray="22" stroke-dashoffset="17.967" />
			</g>
		</mask>
	</defs>
	<path d="M0 0h24v24H0z" fill="currentColor" mask="url(#SVGnY5zeUIY)" />
	<path d="M4.22 4.22c-4.29 4.3 -4.29 11.26 0 15.56M19.78 4.22c4.29 4.3 4.29 11.26 0 15.56" fill="none" stroke="currentColor" stroke-linecap="round" stroke-linejoin="round" stroke-width="2" />
</svg>
