<svg xmlns="http://www.w3.org/2000/svg" width="24" height="24" viewBox="0 0 24 24">
	<defs>
		<mask id="SVGiVyn4biI">
			<path d="M11 13l4.74 -7.5c0.29 0.17 0.57 0.35 0.83 0.55c0 0 0.52 -0.21 0.52 -0.21c0.09 0.03 0.2 0.08 0.26 0.16c1.08 0.89 2.27 2.9 2.51 4.33c0.03 0.11 0.03 0.23 0.01 0.32c0 0 -0.45 0.35 -0.45 0.35c0.05 0.33 0.07 0.66 0.07 1ZM10.63 11.63l8.87 0.35c0 0.34 -0.02 0.67 -0.06 0.99c0 0 0.44 0.35 0.44 0.35c0.02 0.09 0.03 0.22 -0.01 0.31c-0.22 1.39 -1.38 3.41 -2.5 4.34c-0.08 0.07 -0.19 0.14 -0.27 0.16c0 0 -0.53 -0.22 -0.53 -0.22c-0.26 0.21 -0.54 0.39 -0.83 0.56ZM11.63 10.63l4.13 7.85c-0.29 0.17 -0.59 0.32 -0.89 0.44c0 0 -0.08 0.56 -0.08 0.56c-0.07 0.07 -0.17 0.14 -0.27 0.15c-1.31 0.5 -3.65 0.51 -5.01 0.01c-0.1 -0.03 -0.21 -0.09 -0.28 -0.15c0 0 -0.08 -0.57 -0.08 -0.57c-0.31 -0.12 -0.61 -0.27 -0.9 -0.44ZM13 11l-4.74 7.5c-0.29 -0.17 -0.57 -0.35 -0.83 -0.55c0 0 -0.52 0.21 -0.52 0.21c-0.09 -0.03 -0.2 -0.08 -0.26 -0.16c-1.08 -0.89 -2.27 -2.9 -2.51 -4.33c-0.03 -0.11 -0.03 -0.23 -0.01 -0.32c0 0 0.45 -0.35 0.45 -0.35c-0.05 -0.33 -0.07 -0.66 -0.07 -1ZM13.37 12.37l-8.87 -0.35c0 -0.34 0.02 -0.67 0.06 -0.99c0 0 -0.44 -0.35 -0.44 -0.35c-0.02 -0.09 -0.03 -0.22 0.01 -0.31c0.22 -1.39 1.38 -3.41 2.5 -4.34c0.08 -0.07 0.19 -0.14 0.27 -0.16c0 0 0.53 0.22 0.53 0.22c0.26 -0.21 0.54 -0.39 0.83 -0.56ZM12.37 13.37l-4.13 -7.85c0.29 -0.17 0.59 -0.32 0.89 -0.44c0 0 0.08 -0.56 0.08 -0.56c0.07 -0.07 0.17 -0.14 0.27 -0.15c1.31 -0.5 3.65 -0.51 5.01 -0.01c0.1 0.03 0.21 0.09 0.28 0.15c0 0 0.08 0.57 0.08 0.57c0.31 0.12 0.61 0.27 0.9 0.44Z" fill="#fff" />
		</mask>
	</defs>
	<path d="M0 0h24v24H0z" fill="currentColor" mask="url(#SVGiVyn4biI)" />
</svg>
