<svg xmlns="http://www.w3.org/2000/svg" width="24" height="24" viewBox="0 0 24 24">
	<defs>
		<mask id="SVGxhmNreWC">
			<path d="M11 13l4.74 -7.5c0.29 0.17 0.57 0.35 0.83 0.55c0 0 0.73 -0.29 0.73 -0.29c0.1 0.02 0.22 0.07 0.29 0.16c0.97 0.79 2.25 2.97 2.47 4.25c0.04 0.11 0.03 0.25 0 0.34c0 0 -0.63 0.49 -0.63 0.49c0.05 0.33 0.07 0.66 0.07 1ZM10.63 11.63l8.87 0.35c0 0.34 -0.02 0.67 -0.06 0.99c0 0 0.62 0.49 0.62 0.49c0.03 0.1 0.05 0.23 0.01 0.33c-0.2 1.24 -1.45 3.43 -2.45 4.26c-0.08 0.08 -0.2 0.15 -0.3 0.17c0 0 -0.74 -0.3 -0.74 -0.3c-0.26 0.21 -0.54 0.39 -0.83 0.56ZM11.63 10.63l4.13 7.85c-0.29 0.17 -0.59 0.32 -0.89 0.44c0 0 -0.11 0.78 -0.11 0.78c-0.07 0.08 -0.18 0.16 -0.28 0.17c-1.17 0.45 -3.7 0.46 -4.92 0.01c-0.11 -0.03 -0.24 -0.1 -0.3 -0.17c0 0 -0.11 -0.79 -0.11 -0.79c-0.31 -0.12 -0.61 -0.27 -0.9 -0.44ZM13 11l-4.74 7.5c-0.29 -0.17 -0.57 -0.35 -0.83 -0.55c0 0 -0.73 0.29 -0.73 0.29c-0.1 -0.02 -0.22 -0.07 -0.29 -0.16c-0.97 -0.79 -2.25 -2.97 -2.47 -4.25c-0.04 -0.11 -0.03 -0.25 -0 -0.34c0 0 0.63 -0.49 0.63 -0.49c-0.05 -0.33 -0.07 -0.66 -0.07 -1ZM13.37 12.37l-8.87 -0.35c0 -0.34 0.02 -0.67 0.06 -0.99c0 0 -0.62 -0.49 -0.62 -0.49c-0.03 -0.1 -0.05 -0.23 -0.01 -0.33c0.2 -1.24 1.45 -3.43 2.45 -4.26c0.08 -0.08 0.2 -0.15 0.3 -0.17c0 0 0.74 0.3 0.74 0.3c0.26 -0.21 0.54 -0.39 0.83 -0.56ZM12.37 13.37l-4.13 -7.85c0.29 -0.17 0.59 -0.32 0.89 -0.44c0 0 0.11 -0.78 0.11 -0.78c0.07 -0.08 0.18 -0.16 0.28 -0.17c1.17 -0.45 3.7 -0.46 4.92 -0.01c0.11 0.03 0.24 0.1 0.3 0.17c0 0 0.11 0.79 0.11 0.79c0.31 0.12 0.61 0.27 0.9 0.44Z" fill="#fff" />
		</mask>
	</defs>
	<path d="M0 0h24v24H0z" fill="currentColor" mask="url(#SVGxhmNreWC)" />
</svg>
