<svg xmlns="http://www.w3.org/2000/svg" width="24" height="24" viewBox="0 0 24 24">
	<defs>
		<mask id="SVG3BQbFesF">
			<path d="M11 13l4.74 -7.5c0.29 0.17 0.57 0.35 0.83 0.55c0 0 0.84 -0.34 0.84 -0.34c0.1 0.01 0.24 0.06 0.3 0.16c0.91 0.75 2.24 3.01 2.44 4.21c0.04 0.12 0.03 0.26 -0 0.36c0 0 -0.72 0.56 -0.72 0.56c0.05 0.33 0.07 0.66 0.07 1ZM10.63 11.63l8.87 0.35c0 0.34 -0.02 0.67 -0.06 0.99c0 0 0.71 0.56 0.71 0.56c0.04 0.1 0.06 0.24 0.01 0.34c-0.19 1.17 -1.49 3.44 -2.43 4.22c-0.08 0.09 -0.21 0.16 -0.31 0.17c0 0 -0.85 -0.35 -0.85 -0.35c-0.26 0.21 -0.54 0.39 -0.83 0.56ZM11.63 10.63l4.13 7.85c-0.29 0.17 -0.59 0.32 -0.89 0.44c0 0 -0.13 0.9 -0.13 0.9c-0.06 0.08 -0.18 0.18 -0.29 0.19c-1.1 0.42 -3.73 0.43 -4.87 0.01c-0.12 -0.03 -0.25 -0.1 -0.31 -0.18c0 0 -0.12 -0.91 -0.12 -0.91c-0.31 -0.12 -0.61 -0.27 -0.9 -0.44ZM13 11l-4.74 7.5c-0.29 -0.17 -0.57 -0.35 -0.83 -0.55c0 0 -0.84 0.34 -0.84 0.34c-0.1 -0.01 -0.24 -0.06 -0.3 -0.16c-0.91 -0.75 -2.24 -3.01 -2.44 -4.21c-0.04 -0.12 -0.03 -0.26 0 -0.36c0 0 0.72 -0.56 0.72 -0.56c-0.05 -0.33 -0.07 -0.66 -0.07 -1ZM13.37 12.37l-8.87 -0.35c0 -0.34 0.02 -0.67 0.06 -0.99c0 0 -0.71 -0.56 -0.71 -0.56c-0.04 -0.1 -0.06 -0.24 -0.01 -0.34c0.19 -1.17 1.49 -3.44 2.43 -4.22c0.08 -0.09 0.21 -0.16 0.31 -0.17c0 0 0.85 0.35 0.85 0.35c0.26 -0.21 0.54 -0.39 0.83 -0.56ZM12.37 13.37l-4.13 -7.85c0.29 -0.17 0.59 -0.32 0.89 -0.44c0 0 0.13 -0.9 0.13 -0.9c0.06 -0.08 0.18 -0.18 0.29 -0.19c1.1 -0.42 3.73 -0.43 4.87 -0.01c0.12 0.03 0.25 0.1 0.31 0.18c0 0 0.12 0.91 0.12 0.91c0.31 0.12 0.61 0.27 0.9 0.44Z" fill="#fff" />
		</mask>
	</defs>
	<path d="M0 0h24v24H0z" fill="currentColor" mask="url(#SVG3BQbFesF)" />
</svg>
