<svg xmlns="http://www.w3.org/2000/svg" width="24" height="24" viewBox="0 0 24 24">
	<defs>
		<mask id="SVGzGZtcbLQ">
			<path d="M11 13l4.74 -7.5c0.29 0.17 0.57 0.35 0.83 0.55c0 0 1.47 -0.59 1.47 -0.59c0.12 -0.01 0.31 0.03 0.38 0.15c0.57 0.47 2.17 3.22 2.3 3.98c0.06 0.14 0.04 0.33 -0.03 0.44c0 0 -1.27 0.98 -1.27 0.98c0.05 0.33 0.07 0.66 0.07 1ZM10.63 11.63l8.87 0.35c0 0.34 -0.02 0.67 -0.06 0.99c0 0 1.24 0.98 1.24 0.98c0.07 0.1 0.13 0.29 0.06 0.41c-0.12 0.73 -1.71 3.49 -2.29 3.98c-0.09 0.12 -0.27 0.21 -0.39 0.19c0 0 -1.48 -0.61 -1.48 -0.61c-0.26 0.21 -0.54 0.39 -0.83 0.56ZM11.63 10.63l4.13 7.85c-0.29 0.17 -0.59 0.32 -0.89 0.44c0 0 -0.23 1.57 -0.23 1.57c-0.05 0.12 -0.18 0.26 -0.32 0.26c-0.69 0.26 -3.88 0.27 -4.6 0c-0.15 -0.02 -0.31 -0.13 -0.36 -0.25c0 0 -0.22 -1.59 -0.22 -1.59c-0.31 -0.12 -0.61 -0.27 -0.9 -0.44ZM13 11l-4.74 7.5c-0.29 -0.17 -0.57 -0.35 -0.83 -0.55c0 0 -1.47 0.59 -1.47 0.59c-0.12 0.01 -0.31 -0.03 -0.38 -0.15c-0.57 -0.47 -2.17 -3.22 -2.3 -3.98c-0.06 -0.14 -0.04 -0.33 0.03 -0.44c0 0 1.27 -0.98 1.27 -0.98c-0.05 -0.33 -0.07 -0.66 -0.07 -1ZM13.37 12.37l-8.87 -0.35c0 -0.34 0.02 -0.67 0.06 -0.99c0 0 -1.24 -0.98 -1.24 -0.98c-0.07 -0.1 -0.13 -0.29 -0.06 -0.41c0.12 -0.73 1.71 -3.49 2.29 -3.98c0.09 -0.12 0.27 -0.21 0.39 -0.19c0 0 1.48 0.61 1.48 0.61c0.26 -0.21 0.54 -0.39 0.83 -0.56ZM12.37 13.37l-4.13 -7.85c0.29 -0.17 0.59 -0.32 0.89 -0.44c0 0 0.23 -1.57 0.23 -1.57c0.05 -0.12 0.18 -0.26 0.32 -0.26c0.69 -0.26 3.88 -0.27 4.6 -0c0.15 0.02 0.31 0.13 0.36 0.25c0 0 0.22 1.59 0.22 1.59c0.31 0.12 0.61 0.27 0.9 0.44Z" fill="#fff" />
		</mask>
	</defs>
	<path d="M0 0h24v24H0z" fill="currentColor" mask="url(#SVGzGZtcbLQ)" />
</svg>
