<svg xmlns="http://www.w3.org/2000/svg" width="24" height="24" viewBox="0 0 24 24">
	<defs>
		<mask id="SVGAXMtoegj">
			<path d="M11 13l4.74 -7.5c0.29 0.17 0.57 0.35 0.83 0.55c0 0 2.41 -0.97 2.41 -0.97c0.16 -0.06 0.42 -0.02 0.5 0.13c0.06 0.05 2.08 3.54 2.09 3.62c0.1 0.17 0.06 0.44 -0.07 0.56c0 0 -2.08 1.61 -2.08 1.61c0.05 0.33 0.07 0.66 0.07 1ZM10.63 11.63l8.87 0.35c0 0.34 -0.02 0.67 -0.06 0.99c0 0 2.04 1.61 2.04 1.61c0.12 0.11 0.23 0.35 0.13 0.5c-0.01 0.07 -2.03 3.57 -2.09 3.62c-0.1 0.16 -0.35 0.27 -0.52 0.22c0 0 -2.43 -1 -2.43 -1c-0.26 0.21 -0.54 0.39 -0.83 0.56ZM11.63 10.63l4.13 7.85c-0.29 0.17 -0.59 0.32 -0.89 0.44c0 0 -0.37 2.58 -0.37 2.58c-0.03 0.16 -0.19 0.38 -0.36 0.37c-0.07 0.03 -4.11 0.03 -4.19 0c-0.2 -0 -0.41 -0.17 -0.45 -0.34c0 0 -0.35 -2.61 -0.35 -2.61c-0.31 -0.12 -0.61 -0.27 -0.9 -0.44ZM13 11l-4.74 7.5c-0.29 -0.17 -0.57 -0.35 -0.83 -0.55c0 0 -2.41 0.97 -2.41 0.97c-0.16 0.06 -0.42 0.02 -0.5 -0.13c-0.06 -0.05 -2.08 -3.54 -2.09 -3.62c-0.1 -0.17 -0.06 -0.44 0.07 -0.56c0 0 2.08 -1.61 2.08 -1.61c-0.05 -0.33 -0.07 -0.66 -0.07 -1ZM13.37 12.37l-8.87 -0.35c0 -0.34 0.02 -0.67 0.06 -0.99c0 0 -2.04 -1.61 -2.04 -1.61c-0.12 -0.11 -0.23 -0.35 -0.13 -0.5c0.01 -0.07 2.03 -3.57 2.09 -3.62c0.1 -0.16 0.35 -0.27 0.52 -0.22c0 0 2.43 1 2.43 1c0.26 -0.21 0.54 -0.39 0.83 -0.56ZM12.37 13.37l-4.13 -7.85c0.29 -0.17 0.59 -0.32 0.89 -0.44c0 0 0.37 -2.58 0.37 -2.58c0.03 -0.16 0.19 -0.38 0.36 -0.37c0.07 -0.03 4.11 -0.03 4.19 -0c0.2 0 0.41 0.17 0.45 0.34c0 0 0.35 2.61 0.35 2.61c0.31 0.12 0.61 0.27 0.9 0.44Z" fill="#fff" />
			<path d="M0 11h24" stroke="#000" fill="none" stroke-width="2" stroke-linecap="round" stroke-linejoin="round" transform="rotate(45 12 12)" stroke-dasharray="26" stroke-dashoffset="26" />
		</mask>
	</defs>
	<path d="M0 0h24v24H0z" fill="currentColor" mask="url(#SVGAXMtoegj)" />
	<path d="M0 13h24" stroke="currentColor" fill="none" stroke-width="2" stroke-linecap="round" stroke-linejoin="round" transform="rotate(45 12 12)" stroke-dasharray="26" stroke-dashoffset="26" />
</svg>
