<svg xmlns="http://www.w3.org/2000/svg" width="24" height="24" viewBox="0 0 24 24">
	<defs>
		<mask id="SVGrtUhAciv">
			<path d="M12 6c3.31 0 6 2.69 6 6c0 3.31 -2.69 6 -6 6c-3.31 0 -6 -2.69 -6 -6c0 -3.31 2.69 -6 6 -6Z" fill="#fff" />
		</mask>
	</defs>
	<path d="M0 0h24v24H0z" fill="currentColor" mask="url(#SVGrtUhAciv)" />
	<path d="M12 21v1M21 12h1M12 3v-1M3 12h-1M17.81 17.81l0.5 0.5M17.81 6.19l0.5 -0.5M6.19 6.19l-0.5 -0.5M6.19 17.81l-0.5 0.5" transform="rotate(8.5 12 12)" fill="none" stroke="currentColor" stroke-linecap="round" stroke-linejoin="round" stroke-width="2" />
</svg>
