<svg xmlns="http://www.w3.org/2000/svg" width="24" height="24" viewBox="0 0 24 24">
	<defs>
		<mask id="SVGvhGXjSGd">
			<g fill="#fff">
				<path d="M12 9.42c4.42 0 8 2.37 8 5.29c0 2.92 -3.58 5.29 -8 5.29c-4.42 0 -8 -2.37 -8 -5.29c0 -2.92 3.58 -5.29 8 -5.29Z" stroke="#fff" stroke-width="2" stroke-linecap="round" stroke-linejoin="round" />
				<path d="M4.63 9.73c1.24 0 2.24 1 2.24 2.24c0 1.24 -1 2.24 -2.24 2.24c-1.24 0 -2.24 -1 -2.24 -2.24c0 -1.24 1 -2.24 2.24 -2.24ZM19.37 9.73c1.24 0 2.24 1 2.24 2.24c0 1.24 -1 2.24 -2.24 2.24c-1.24 0 -2.24 -1 -2.24 -2.24c0 -1.24 1 -2.24 2.24 -2.24Z" />
			</g>
		</mask>
	</defs>
	<path d="M0 0h24v24H0z" fill="currentColor" mask="url(#SVGvhGXjSGd)" />
</svg>
