<svg xmlns="http://www.w3.org/2000/svg" width="24" height="24" viewBox="0 0 24 24">
	<defs>
		<mask id="SVGBwBaFbEK">
			<g fill="#fff">
				<path d="M7 16.82c-2.41 -1.25 -4 -3.39 -4 -5.82c0 -3.87 4.03 -7 9 -7c4.97 0 9 3.13 9 7c0 3.87 -4.03 7 -9 7c-1.85 0 -3.57 -0.43 -5 -1.18Z" stroke="#fff" stroke-width="2" stroke-linecap="round" stroke-linejoin="round" fill-opacity="0" />
				<path d="M5 15.5c1 1 2.5 2 4 2.5c-1.73 1.53 -4.26 2.25 -5.98 2.17c1.43 -1.68 2.09 -2.98 1.98 -4.67Z" />
			</g>
			<path d="M8 11h0.01M12 11h0.01M16 11h0.01" stroke-dashoffset="4" fill="none" stroke="#000" stroke-linecap="round" stroke-linejoin="round" stroke-width="2" stroke-dasharray="4" />
		</mask>
	</defs>
	<path d="M0 0h24v24H0z" fill="currentColor" mask="url(#SVGBwBaFbEK)" />
</svg>
