<svg xmlns="http://www.w3.org/2000/svg" width="24" height="24" viewBox="0 0 24 24">
	<defs>
		<mask id="SVGOyuz8b1t">
			<g transform="translate(1.806)">
				<path d="M18 7c-2 0 -3 2 -5 2c-2 0 -3 -2 -5 -2c-2 0 -3 2 -5 2c-2 0 -3 -2 -5 -2c-2 0 -3 2 -5 2" stroke="#fff" fill="none" stroke-width="2" stroke-linecap="round" stroke-linejoin="round" />
				<path d="M18 7c-2 0 -3 2 -5 2c-2 0 -3 -2 -5 -2c-2 0 -3 2 -5 2c-2 0 -3 -2 -5 -2c-2 0 -3 2 -5 2v15h25Z" fill="#fff" fill-opacity="0.3" />
			</g>
			<path d="M18 3l-2 18h-9l-2 -18h-5v21h24v-20Z" fill="#000" />
		</mask>
	</defs>
	<path d="M0 0h24v24H0z" fill="currentColor" mask="url(#SVGOyuz8b1t)" />
	<path d="M18 3l-2 18h-9l-2 -18Z" stroke="currentColor" fill="none" stroke-width="2" stroke-linecap="round" stroke-linejoin="round" />
</svg>
