<svg xmlns="http://www.w3.org/2000/svg" width="24" height="24" viewBox="0 0 24 24">
	<g fill="none" stroke="currentColor" stroke-linecap="round" stroke-linejoin="round" stroke-width="2">
		<path d="M12 9c1.66 0 3 1.34 3 3c0 1.66 -1.34 3 -3 3c-1.66 0 -3 -1.34 -3 -3c0 -1.66 1.34 -3 3 -3Z" />
		<path d="M15.24 6.37c0.41 0.23 0.8 0.51 1.14 0.83c0.21 0.19 0.51 0.35 0.69 0.56c0.45 0.55 0.89 1.28 1.14 1.97c0.09 0.25 0.07 0.59 0.14 0.86c0.1 0.45 0.15 0.93 0.15 1.41M18.5 11.99c0.01 0.47 -0.04 0.95 -0.15 1.4c-0.06 0.28 -0.05 0.62 -0.14 0.88c-0.25 0.66 -0.67 1.41 -1.14 1.97c-0.17 0.2 -0.47 0.36 -0.68 0.55c-0.34 0.31 -0.73 0.59 -1.15 0.83M15.26 17.62c-0.4 0.24 -0.84 0.44 -1.29 0.57c-0.27 0.09 -0.56 0.27 -0.83 0.32c-0.7 0.11 -1.56 0.12 -2.28 0c-0.26 -0.05 -0.54 -0.23 -0.81 -0.31c-0.44 -0.14 -0.88 -0.34 -1.3 -0.58M8.76 17.63c-0.41 -0.23 -0.8 -0.51 -1.14 -0.83c-0.21 -0.19 -0.51 -0.35 -0.69 -0.56c-0.45 -0.55 -0.89 -1.28 -1.14 -1.97c-0.09 -0.25 -0.07 -0.59 -0.14 -0.86c-0.1 -0.45 -0.15 -0.93 -0.15 -1.41M5.5 12.01c-0.01 -0.47 0.04 -0.95 0.15 -1.4c0.06 -0.28 0.05 -0.62 0.14 -0.88c0.25 -0.66 0.67 -1.41 1.14 -1.97c0.17 -0.2 0.47 -0.36 0.68 -0.55c0.34 -0.31 0.73 -0.59 1.15 -0.83M8.74 6.38c0.4 -0.24 0.84 -0.44 1.29 -0.57c0.27 -0.09 0.56 -0.27 0.83 -0.32c0.7 -0.11 1.56 -0.12 2.28 0c0.26 0.05 0.54 0.23 0.81 0.31c0.44 0.14 0.88 0.34 1.3 0.58" transform="rotate(9.7 12 12)" />
	</g>
</svg>
