<svg xmlns="http://www.w3.org/2000/svg" width="24" height="24" viewBox="0 0 24 24">
	<g fill="none" stroke="currentColor" stroke-linecap="round" stroke-linejoin="round" stroke-width="2">
		<path d="M12 9c1.66 0 3 1.34 3 3c0 1.66 -1.34 3 -3 3c-1.66 0 -3 -1.34 -3 -3c0 -1.66 1.34 -3 3 -3Z" />
		<path d="M15.24 6.37c0.41 0.23 0.8 0.51 1.14 0.83c0.17 0.16 0.88 0.1 1.03 0.28c0.37 0.45 1.01 1.53 1.21 2.1c0.07 0.21 -0.33 0.79 -0.27 1.01c0.1 0.45 0.15 0.93 0.15 1.41M18.5 11.99c0.01 0.47 -0.04 0.95 -0.15 1.4c-0.05 0.23 0.35 0.81 0.27 1.03c-0.21 0.55 -0.82 1.63 -1.21 2.1c-0.15 0.17 -0.85 0.11 -1.01 0.27c-0.34 0.31 -0.73 0.59 -1.15 0.83M15.26 17.62c-0.4 0.24 -0.84 0.44 -1.29 0.57c-0.22 0.07 -0.53 0.71 -0.76 0.75c-0.58 0.1 -1.83 0.1 -2.42 0c-0.22 -0.04 -0.52 -0.68 -0.74 -0.74c-0.44 -0.14 -0.88 -0.34 -1.3 -0.58M8.76 17.63c-0.41 -0.23 -0.8 -0.51 -1.14 -0.83c-0.17 -0.16 -0.88 -0.1 -1.03 -0.28c-0.37 -0.45 -1.01 -1.53 -1.21 -2.1c-0.07 -0.21 0.33 -0.79 0.27 -1.01c-0.1 -0.45 -0.15 -0.93 -0.15 -1.41M5.5 12.01c-0.01 -0.47 0.04 -0.95 0.15 -1.4c0.05 -0.23 -0.35 -0.81 -0.27 -1.03c0.21 -0.55 0.82 -1.63 1.21 -2.1c0.15 -0.17 0.85 -0.11 1.01 -0.27c0.34 -0.31 0.73 -0.59 1.15 -0.83M8.74 6.38c0.4 -0.24 0.84 -0.44 1.29 -0.57c0.22 -0.07 0.53 -0.71 0.76 -0.75c0.58 -0.1 1.83 -0.1 2.42 0c0.22 0.04 0.52 0.68 0.74 0.74c0.44 0.14 0.88 0.34 1.3 0.58" transform="rotate(10.1 12 12)" />
	</g>
</svg>
