<svg xmlns="http://www.w3.org/2000/svg" width="24" height="24" viewBox="0 0 24 24">
	<g fill="none" stroke="currentColor" stroke-linecap="round" stroke-linejoin="round" stroke-width="2">
		<path d="M12 9c1.66 0 3 1.34 3 3c0 1.66 -1.34 3 -3 3c-1.66 0 -3 -1.34 -3 -3c0 -1.66 1.34 -3 3 -3Z" />
		<path d="M15.24 6.37c0.41 0.23 0.8 0.51 1.14 0.83c0.01 0.01 2.53 -1.02 2.55 -0.99c0.02 0.02 1.53 2.64 1.54 2.67c0.01 0.04 -2.12 1.7 -2.12 1.71c0.1 0.45 0.15 0.93 0.15 1.41M18.5 11.99c0.01 0.47 -0.04 0.95 -0.15 1.4c-0 0.01 2.15 1.68 2.13 1.71c-0.01 0.03 -1.52 2.64 -1.54 2.67c-0.03 0.03 -2.54 -0.99 -2.55 -0.98c-0.34 0.31 -0.73 0.59 -1.15 0.83M15.26 17.62c-0.4 0.24 -0.84 0.44 -1.29 0.57c-0.01 0 -0.38 2.7 -0.42 2.7c-0.03 0 -3.05 0.01 -3.08 0c-0.04 -0.01 -0.42 -2.69 -0.43 -2.69c-0.44 -0.14 -0.88 -0.34 -1.3 -0.58M8.76 17.63c-0.41 -0.23 -0.8 -0.51 -1.14 -0.83c-0.01 -0.01 -2.53 1.02 -2.55 0.99c-0.02 -0.02 -1.53 -2.64 -1.54 -2.67c-0.01 -0.04 2.12 -1.7 2.12 -1.71c-0.1 -0.45 -0.15 -0.93 -0.15 -1.41M5.5 12.01c-0.01 -0.47 0.04 -0.95 0.15 -1.4c0 -0.01 -2.15 -1.68 -2.13 -1.71c0.01 -0.03 1.52 -2.64 1.54 -2.67c0.03 -0.03 2.54 0.99 2.55 0.98c0.34 -0.31 0.73 -0.59 1.15 -0.83M8.74 6.38c0.4 -0.24 0.84 -0.44 1.29 -0.57c0.01 -0 0.38 -2.7 0.42 -2.7c0.03 -0 3.05 -0.01 3.08 0c0.04 0.01 0.42 2.69 0.43 2.69c0.44 0.14 0.88 0.34 1.3 0.58" transform="rotate(11.9 12 12)" />
	</g>
</svg>
