<svg xmlns="http://www.w3.org/2000/svg" width="24" height="24" viewBox="0 0 24 24">
	<g fill="none" stroke="currentColor" stroke-linecap="round" stroke-linejoin="round" stroke-width="2">
		<path d="M12 9c1.66 0 3 1.34 3 3c0 1.66 -1.34 3 -3 3c-1.66 0 -3 -1.34 -3 -3c0 -1.66 1.34 -3 3 -3Z" />
		<path d="M15.24 6.37c0.41 0.23 0.8 0.51 1.14 0.83c0.09 0.08 1.7 -0.46 1.79 -0.36c0.2 0.24 1.27 2.08 1.38 2.38c0.04 0.13 -1.22 1.25 -1.19 1.36c0.1 0.45 0.15 0.93 0.15 1.41M18.5 11.99c0.01 0.47 -0.04 0.95 -0.15 1.4c-0.03 0.12 1.25 1.25 1.2 1.37c-0.11 0.29 -1.17 2.14 -1.38 2.38c-0.09 0.1 -1.69 -0.44 -1.78 -0.35c-0.34 0.31 -0.73 0.59 -1.15 0.83M15.26 17.62c-0.4 0.24 -0.84 0.44 -1.29 0.57c-0.12 0.04 -0.45 1.71 -0.59 1.73c-0.3 0.05 -2.44 0.05 -2.75 0c-0.13 -0.03 -0.47 -1.68 -0.59 -1.72c-0.44 -0.14 -0.88 -0.34 -1.3 -0.58M8.76 17.63c-0.41 -0.23 -0.8 -0.51 -1.14 -0.83c-0.09 -0.08 -1.7 0.46 -1.79 0.36c-0.2 -0.24 -1.27 -2.08 -1.38 -2.38c-0.04 -0.13 1.22 -1.25 1.19 -1.36c-0.1 -0.45 -0.15 -0.93 -0.15 -1.41M5.5 12.01c-0.01 -0.47 0.04 -0.95 0.15 -1.4c0.03 -0.12 -1.25 -1.25 -1.2 -1.37c0.11 -0.29 1.17 -2.14 1.38 -2.38c0.09 -0.1 1.69 0.44 1.78 0.35c0.34 -0.31 0.73 -0.59 1.15 -0.83M8.74 6.38c0.4 -0.24 0.84 -0.44 1.29 -0.57c0.12 -0.04 0.45 -1.71 0.59 -1.73c0.3 -0.05 2.44 -0.05 2.75 0c0.13 0.03 0.47 1.68 0.59 1.72c0.44 0.14 0.88 0.34 1.3 0.58" transform="rotate(11 12 12)" />
	</g>
</svg>
