<svg xmlns="http://www.w3.org/2000/svg" width="24" height="24" viewBox="0 0 24 24">
	<g fill="none" stroke="currentColor" stroke-linecap="round" stroke-linejoin="round" stroke-width="2">
		<path d="M12 9c1.66 0 3 1.34 3 3c0 1.66 -1.34 3 -3 3c-1.66 0 -3 -1.34 -3 -3c0 -1.66 1.34 -3 3 -3Z" />
		<path d="M15.24 6.37c0.41 0.23 0.8 0.51 1.14 0.83c0 0 2.62 -1.08 2.63 -1.06c0 0 1.56 2.7 1.56 2.7c0.01 0.03 -2.22 1.75 -2.22 1.75c0.1 0.45 0.15 0.93 0.15 1.41M18.5 11.99c0.01 0.47 -0.04 0.95 -0.15 1.4c0 0 2.25 1.73 2.23 1.75c0 0 -1.56 2.7 -1.56 2.7c-0.02 0.02 -2.63 -1.05 -2.63 -1.05c-0.34 0.31 -0.73 0.59 -1.15 0.83M15.26 17.62c-0.4 0.24 -0.84 0.44 -1.29 0.57c0 0 -0.37 2.81 -0.4 2.81c0 0 -3.12 0 -3.12 0c-0.03 -0.01 -0.41 -2.8 -0.41 -2.8c-0.44 -0.14 -0.88 -0.34 -1.3 -0.58M8.76 17.63c-0.41 -0.23 -0.8 -0.51 -1.14 -0.83c0 0 -2.62 1.08 -2.63 1.06c0 0 -1.56 -2.7 -1.56 -2.7c-0.01 -0.03 2.22 -1.75 2.22 -1.75c-0.1 -0.45 -0.15 -0.93 -0.15 -1.41M5.5 12.01c-0.01 -0.47 0.04 -0.95 0.15 -1.4c0 0 -2.25 -1.73 -2.23 -1.75c0 0 1.56 -2.7 1.56 -2.7c0.02 -0.02 2.63 1.05 2.63 1.05c0.34 -0.31 0.73 -0.59 1.15 -0.83M8.74 6.38c0.4 -0.24 0.84 -0.44 1.29 -0.57c0 0 0.37 -2.81 0.4 -2.81c0 0 3.12 0 3.12 0c0.03 0.01 0.41 2.8 0.41 2.8c0.44 0.14 0.88 0.34 1.3 0.58" transform="rotate(212.8 12 12)" />
	</g>
</svg>
