<svg xmlns="http://www.w3.org/2000/svg" width="24" height="24" viewBox="0 0 24 24">
	<defs>
		<mask id="SVGh3Khsefe">
			<path d="M20 13c0.55 0 1 -0.45 1 -1c0 -4.97 -4.03 -9 -9 -9c-4.97 0 -9 4.03 -9 9c0 0.55 0.45 1 1 1ZM14.5 21c0.5 0 0.85 -0.5 0.85 -1c0 -0.5 -1.1 -4 -1.1 -4h-4.5c0 0 -1.1 3.5 -1.1 4c0 0.5 0.35 1 0.85 1Z" fill="#fff" fill-opacity="0.3" />
			<path d="M12 21h2.5c0.5 0 0.85 -0.5 0.85 -1c0 -0.5 -1.1 -4 -1.1 -4h-2.25M12 21h-2.5c-0.5 0 -0.85 -0.5 -0.85 -1c0 -0.5 1.1 -4 1.1 -4h2.25M12 13h8c0.55 0 1 -0.45 1 -1c0 -4.97 -4.03 -9 -9 -9M12 13h-8c-0.55 0 -1 -0.45 -1 -1c0 -4.97 4.03 -9 9 -9" fill="none" stroke="#fff" stroke-linecap="round" stroke-linejoin="round" stroke-width="2" />
			<g fill="#fff">
				<circle cx="11" cy="4" r="2" />
				<circle cx="7" cy="8" r="1" />
				<circle cx="15" cy="8" />
			</g>
		</mask>
	</defs>
	<path d="M0 0h24v24H0z" fill="currentColor" mask="url(#SVGh3Khsefe)" />
</svg>
