<svg xmlns="http://www.w3.org/2000/svg" width="24" height="24" viewBox="0 0 24 24">
	<defs>
		<mask id="SVG574T8dSw">
			<path d="M12 2.33c5.34 0 9.67 4.33 9.67 9.67c0 5.34 -4.33 9.67 -9.67 9.67c-5.34 0 -9.67 -4.33 -9.67 -9.67c0 -5.34 4.33 -9.67 9.67 -9.67Z" fill="#fff" />
			<path d="M18.33 -4c5.34 0 9.67 4.33 9.67 9.67c0 5.34 -4.33 9.67 -9.67 9.67c-5.34 0 -9.67 -4.33 -9.67 -9.67c0 -5.34 4.33 -9.67 9.67 -9.67ZM12 4.33c4.24 0 7.67 3.43 7.67 7.67c0 4.24 -3.43 7.67 -7.67 7.67c-4.24 0 -7.67 -3.43 -7.67 -7.67c0 -4.24 3.43 -7.67 7.67 -7.67Z" fill="#000" />
		</mask>
		<mask id="SVGLbe0jd1e">
			<path d="M18.33 -6c6.44 0 11.67 5.23 11.67 11.67c0 6.44 -5.23 11.67 -11.67 11.67c-6.44 0 -11.67 -5.23 -11.67 -11.67c0 -6.44 5.23 -11.67 11.67 -11.67Z" fill="#fff" />
			<path d="M18.33 -4c5.34 0 9.67 4.33 9.67 9.67c0 5.34 -4.33 9.67 -9.67 9.67c-5.34 0 -9.67 -4.33 -9.67 -9.67c0 -5.34 4.33 -9.67 9.67 -9.67ZM2.33 12v-20h29.67v29.67h-20c5.34 0 9.67 -4.33 9.67 -9.67c0 -5.34 -4.33 -9.67 -9.67 -9.67c-5.34 0 -9.67 4.33 -9.67 9.67Z" fill="#000" />
		</mask>
	</defs>
	<g fill="currentColor">
		<path d="M0 0h24v24H0z" mask="url(#SVG574T8dSw)" />
		<path d="M0 0h24v24H0z" mask="url(#SVGLbe0jd1e)" />
	</g>
</svg>
