<svg xmlns="http://www.w3.org/2000/svg" width="24" height="24" viewBox="0 0 24 24">
	<defs>
		<mask id="SVGlr4C5cGf">
			<path d="M12 3.42c4.74 0 8.58 3.85 8.58 8.58c0 4.74 -3.85 8.58 -8.58 8.58c-4.74 0 -8.58 -3.85 -8.58 -8.58c0 -4.74 3.85 -8.58 8.58 -8.58Z" fill="#fff" />
			<path d="M19.42 -4c4.74 0 8.58 3.85 8.58 8.58c0 4.74 -3.85 8.58 -8.58 8.58c-4.74 0 -8.58 -3.85 -8.58 -8.58c0 -4.74 3.85 -8.58 8.58 -8.58ZM12 5.42c3.64 0 6.58 2.95 6.58 6.58c0 3.64 -2.95 6.58 -6.58 6.58c-3.64 0 -6.58 -2.95 -6.58 -6.58c0 -3.64 2.95 -6.58 6.58 -6.58Z" fill="#000" />
		</mask>
		<mask id="SVGBWnkwIwW">
			<path d="M19.42 -6c5.84 0 10.58 4.74 10.58 10.58c0 5.84 -4.74 10.58 -10.58 10.58c-5.84 0 -10.58 -4.74 -10.58 -10.58c0 -5.84 4.74 -10.58 10.58 -10.58Z" fill="#fff" />
			<path d="M19.42 -4c4.74 0 8.58 3.85 8.58 8.58c0 4.74 -3.85 8.58 -8.58 8.58c-4.74 0 -8.58 -3.85 -8.58 -8.58c0 -4.74 3.85 -8.58 8.58 -8.58ZM3.42 12v-20h28.58v28.58h-20c4.74 0 8.58 -3.85 8.58 -8.58c0 -4.74 -3.85 -8.58 -8.58 -8.58c-4.74 0 -8.58 3.85 -8.58 8.58Z" fill="#000" />
		</mask>
	</defs>
	<g fill="currentColor">
		<path d="M0 0h24v24H0z" mask="url(#SVGlr4C5cGf)" />
		<path d="M0 0h24v24H0z" mask="url(#SVGBWnkwIwW)" />
	</g>
</svg>
