<svg xmlns="http://www.w3.org/2000/svg" width="24" height="24" viewBox="0 0 24 24">
	<defs>
		<mask id="SVGPrvkmP4s">
			<path d="M12 4.42c4.18 0 7.58 3.4 7.58 7.58c0 4.18 -3.4 7.58 -7.58 7.58c-4.18 0 -7.58 -3.4 -7.58 -7.58c0 -4.18 3.4 -7.58 7.58 -7.58Z" fill="#fff" />
			<path d="M20.42 -4c4.18 0 7.58 3.4 7.58 7.58c0 4.18 -3.4 7.58 -7.58 7.58c-4.18 0 -7.58 -3.4 -7.58 -7.58c0 -4.18 3.4 -7.58 7.58 -7.58ZM12 6.42c3.08 0 5.58 2.5 5.58 5.58c0 3.08 -2.5 5.58 -5.58 5.58c-3.08 0 -5.58 -2.5 -5.58 -5.58c0 -3.08 2.5 -5.58 5.58 -5.58Z" fill="#000" />
		</mask>
		<mask id="SVGgL6IVcIX">
			<path d="M20.42 -6c5.29 0 9.58 4.29 9.58 9.58c0 5.29 -4.29 9.58 -9.58 9.58c-5.29 0 -9.58 -4.29 -9.58 -9.58c0 -5.29 4.29 -9.58 9.58 -9.58Z" fill="#fff" />
			<path d="M20.42 -4c4.18 0 7.58 3.4 7.58 7.58c0 4.18 -3.4 7.58 -7.58 7.58c-4.18 0 -7.58 -3.4 -7.58 -7.58c0 -4.18 3.4 -7.58 7.58 -7.58ZM4.42 12v-20h27.58v27.58h-20c4.18 0 7.58 -3.4 7.58 -7.58c0 -4.18 -3.4 -7.58 -7.58 -7.58c-4.18 0 -7.58 3.4 -7.58 7.58Z" fill="#000" />
		</mask>
	</defs>
	<g fill="currentColor">
		<path d="M0 0h24v24H0z" mask="url(#SVGPrvkmP4s)" />
		<path d="M0 0h24v24H0z" mask="url(#SVGgL6IVcIX)" />
	</g>
</svg>
