<svg xmlns="http://www.w3.org/2000/svg" width="24" height="24" viewBox="0 0 24 24">
	<defs>
		<mask id="SVGkdOwpcby">
			<path d="M12 5c3.86 0 7 3.14 7 7c0 3.86 -3.14 7 -7 7c-3.86 0 -7 -3.14 -7 -7c0 -3.86 3.14 -7 7 -7Z" fill="#fff" />
			<path d="M21 -4c3.86 0 7 3.14 7 7c0 3.86 -3.14 7 -7 7c-3.86 0 -7 -3.14 -7 -7c0 -3.86 3.14 -7 7 -7ZM12 7c2.76 0 5 2.24 5 5c0 2.76 -2.24 5 -5 5c-2.76 0 -5 -2.24 -5 -5c0 -2.76 2.24 -5 5 -5Z" fill="#000" />
		</mask>
		<mask id="SVGnri4wRXo">
			<path d="M21 -6c4.97 0 9 4.03 9 9c0 4.97 -4.03 9 -9 9c-4.97 0 -9 -4.03 -9 -9c0 -4.97 4.03 -9 9 -9Z" fill="#fff" />
			<path d="M21 -4c3.86 0 7 3.14 7 7c0 3.86 -3.14 7 -7 7c-3.86 0 -7 -3.14 -7 -7c0 -3.86 3.14 -7 7 -7ZM5 12v-20h27v27h-20c3.86 0 7 -3.14 7 -7c0 -3.86 -3.14 -7 -7 -7c-3.86 0 -7 3.14 -7 7Z" fill="#000" />
		</mask>
	</defs>
	<g fill="currentColor">
		<path d="M0 0h24v24H0z" mask="url(#SVGkdOwpcby)" />
		<path d="M0 0h24v24H0z" mask="url(#SVGnri4wRXo)" />
	</g>
</svg>
