<svg xmlns="http://www.w3.org/2000/svg" width="24" height="24" viewBox="0 0 24 24">
	<defs>
		<mask id="SVGtl9l2dhE">
			<path d="M12 4.83c3.95 0 7.17 3.21 7.17 7.17c0 3.95 -3.21 7.17 -7.17 7.17c-3.95 0 -7.17 -3.21 -7.17 -7.17c0 -3.95 3.21 -7.17 7.17 -7.17Z" fill="#fff" />
			<path d="M20.83 -4c3.95 0 7.17 3.21 7.17 7.17c0 3.95 -3.21 7.17 -7.17 7.17c-3.95 0 -7.17 -3.21 -7.17 -7.17c0 -3.95 3.21 -7.17 7.17 -7.17ZM12 6.83c2.85 0 5.17 2.31 5.17 5.17c0 2.85 -2.31 5.17 -5.17 5.17c-2.85 0 -5.17 -2.31 -5.17 -5.17c0 -2.85 2.31 -5.17 5.17 -5.17Z" fill="#000" />
		</mask>
		<mask id="SVGs1NQMczM">
			<path d="M20.83 -6c5.06 0 9.17 4.1 9.17 9.17c0 5.06 -4.1 9.17 -9.17 9.17c-5.06 0 -9.17 -4.1 -9.17 -9.17c0 -5.06 4.1 -9.17 9.17 -9.17Z" fill="#fff" />
			<path d="M20.83 -4c3.95 0 7.17 3.21 7.17 7.17c0 3.95 -3.21 7.17 -7.17 7.17c-3.95 0 -7.17 -3.21 -7.17 -7.17c0 -3.95 3.21 -7.17 7.17 -7.17ZM4.83 12v-20h27.17v27.17h-20c3.95 0 7.17 -3.21 7.17 -7.17c0 -3.95 -3.21 -7.17 -7.17 -7.17c-3.95 0 -7.17 3.21 -7.17 7.17Z" fill="#000" />
		</mask>
	</defs>
	<g fill="currentColor">
		<path d="M0 0h24v24H0z" mask="url(#SVGtl9l2dhE)" />
		<path d="M0 0h24v24H0z" mask="url(#SVGs1NQMczM)" />
	</g>
</svg>
