<svg xmlns="http://www.w3.org/2000/svg" width="24" height="24" viewBox="0 0 24 24">
	<defs>
		<mask id="SVGWO0ufdgg">
			<path d="M12 5.08c3.82 0 6.92 3.1 6.92 6.92c0 3.82 -3.1 6.92 -6.92 6.92c-3.82 0 -6.92 -3.1 -6.92 -6.92c0 -3.82 3.1 -6.92 6.92 -6.92Z" fill="#fff" />
			<path d="M21.08 -4c3.82 0 6.92 3.1 6.92 6.92c0 3.82 -3.1 6.92 -6.92 6.92c-3.82 0 -6.92 -3.1 -6.92 -6.92c0 -3.82 3.1 -6.92 6.92 -6.92ZM12 7.08c2.72 0 4.92 2.2 4.92 4.92c0 2.72 -2.2 4.92 -4.92 4.92c-2.72 0 -4.92 -2.2 -4.92 -4.92c0 -2.72 2.2 -4.92 4.92 -4.92Z" fill="#000" />
		</mask>
		<mask id="SVGbfnnnVYX">
			<path d="M21.08 -6c4.92 0 8.92 3.99 8.92 8.92c0 4.92 -3.99 8.92 -8.92 8.92c-4.92 0 -8.92 -3.99 -8.92 -8.92c0 -4.92 3.99 -8.92 8.92 -8.92Z" fill="#fff" />
			<path d="M21.08 -4c3.82 0 6.92 3.1 6.92 6.92c0 3.82 -3.1 6.92 -6.92 6.92c-3.82 0 -6.92 -3.1 -6.92 -6.92c0 -3.82 3.1 -6.92 6.92 -6.92ZM5.08 12v-20h26.92v26.92h-20c3.82 0 6.92 -3.1 6.92 -6.92c0 -3.82 -3.1 -6.92 -6.92 -6.92c-3.82 0 -6.92 3.1 -6.92 6.92Z" fill="#000" />
		</mask>
	</defs>
	<g fill="currentColor">
		<path d="M0 0h24v24H0z" mask="url(#SVGWO0ufdgg)" />
		<path d="M0 0h24v24H0z" mask="url(#SVGbfnnnVYX)" />
	</g>
</svg>
