<svg xmlns="http://www.w3.org/2000/svg" width="24" height="24" viewBox="0 0 24 24">
	<defs>
		<mask id="SVGzJKsHXyk">
			<g stroke-linecap="round" stroke-linejoin="round" stroke-width="2">
				<path d="M15.5 21.5c-10.5 2.5 -12.5 -2.5 -12.5 -8.5v-3c0 -6 2.5 -7 7 -7h4c4.5 0 7 1.5 7 5.5v4c0 6.5 -10 4 -13.5 4c-1 0 -1.5 7 8 5Z" stroke="#fff" fill="#fff" stroke-dasharray="82" fill-opacity="0" stroke-dashoffset="62.639" />
				<path d="M7 13.5l0 -5.5c0 0 0.5 -2 2.5 -2c2 0 2.5 2 2.5 2l0 2.5l0 -2.5c0 0 0.5 -2 2.5 -2c2 0 2.5 2 2.5 2l0 5.5" stroke="#000" fill="none" stroke-dasharray="32" stroke-dashoffset="32" />
			</g>
		</mask>
	</defs>
	<path d="M0 0h24v24H0z" fill="currentColor" mask="url(#SVGzJKsHXyk)" />
</svg>
