<svg xmlns="http://www.w3.org/2000/svg" width="24" height="24" viewBox="0 0 24 24">
	<defs>
		<mask id="SVGFUkBFe5J">
			<path d="M12 2c2.5 0 5 2 5 5c0 1.13 -0.37 2.16 -1 3c-0.28 0.38 -0.5 1 -0.5 1.5c0 0.5 0.2 0.91 0.5 1.23c0.93 0.98 1.5 2.31 1.5 3.77c0 3.04 -2.46 5.5 -5.5 5.5c-3.04 0 -5.5 -2.46 -5.5 -5.5c0 -1.46 0.57 -2.79 1.5 -3.77c0.3 -0.32 0.5 -0.73 0.5 -1.23c0 -0.5 -0.22 -1.12 -0.5 -1.5c-0.63 -0.84 -1 -1.87 -1 -3c0 -2.76 2 -5 5 -5Z" stroke="#fff" fill="#fff" stroke-width="2" stroke-linecap="round" stroke-linejoin="round" />
			<g fill="#000">
				<circle cx="13" cy="15" r="0.375" />
				<circle cx="13" cy="6" />
				<circle cx="11" cy="17" />
				<circle cx="14" cy="18" />
			</g>
		</mask>
	</defs>
	<path d="M0 0h24v24H0z" fill="currentColor" mask="url(#SVGFUkBFe5J)" />
</svg>
