<svg xmlns="http://www.w3.org/2000/svg" width="24" height="24" viewBox="0 0 24 24">
	<defs>
		<symbol id="cog-part">
			<path fill="white" d="M11 13L15.74 5.5C16.03 5.67 16.31 5.85 16.57 6.05C16.57 6.05 16.57 6.05 16.57 6.05C16.64 6.1 16.71 6.16 16.77 6.22C18.14 7.34 19.09 8.94 19.4 10.75C19.41 10.84 19.42 10.92 19.43 11C19.43 11 19.43 11 19.43 11C19.48 11.33 19.5 11.66 19.5 12z">
				<animate attributeName="d" values="M11 13L15.74 5.5C16.03 5.67 16.31 5.85 16.57 6.05C16.57 6.05 16.57 6.05 16.57 6.05C16.64 6.1 16.71 6.16 16.77 6.22C18.14 7.34 19.09 8.94 19.4 10.75C19.41 10.84 19.42 10.92 19.43 11C19.43 11 19.43 11 19.43 11C19.48 11.33 19.5 11.66 19.5 12z;M11 13L15.74 5.5C16.03 5.67 16.31 5.85 16.57 6.05C16.57 6.05 19.09 5.04 19.09 5.04C19.25 4.98 19.52 5.01 19.6 5.17C19.6 5.17 21.67 8.75 21.67 8.75C21.77 8.92 21.73 9.2 21.6 9.32C21.6 9.32 19.43 11 19.43 11C19.48 11.33 19.5 11.66 19.5 12z" begin="0.5s" dur="0.2s" fill="freeze" />
			</path>
		</symbol>
		<mask id="cog-mask">
			<g fill="none" stroke="white" stroke-width="5">
				<path d="M12 7C14.76 7 17 9.24 17 12C17 14.76 14.76 17 12 17C9.24 17 7 14.76 7 12C7 9.24 9.24 7 12 7z" stroke-dasharray="36" stroke-dashoffset="36">
					<animate attributeName="stroke-dashoffset" values="36;0" dur="0.4s" fill="freeze" />
					<set attributeName="opacity" to="0" begin="0.4s" />
				</path>
			</g>
			<g opacity="0">
				<use href="#cog-part" />
				<use href="#cog-part" transform="rotate(60 12 12)" />
				<use href="#cog-part" transform="rotate(120 12 12)" />
				<use href="#cog-part" transform="rotate(180 12 12)" />
				<use href="#cog-part" transform="rotate(240 12 12)" />
				<use href="#cog-part" transform="rotate(300 12 12)" />
				<set attributeName="opacity" to="1" begin="0.4s" />
			</g>
			<circle cx="12" cy="12" r="3.5" fill="black" />
			<g transform="rotate(45 12 12)" fill="none" stroke-width="2" stroke-linecap="round" stroke-dasharray="26" stroke-dashoffset="26">
				<path d="M0 11h24" stroke="black" />
				<path d="M0 13h24" stroke="white" />
				<animate attributeName="stroke-dashoffset" values="26;0" begin="0.8s" dur="0.2s" fill="freeze" />
			</g>
		</mask>
	</defs>
	<rect mask="url(#cog-mask)" width="24" height="24" fill="currentColor" />
</svg>
