<svg xmlns="http://www.w3.org/2000/svg" width="24" height="24" viewBox="0 0 24 24">
	<defs>
		<mask id="SVGT0zQzeLO">
			<path d="M12 4c-4.42 0 -8 3.58 -8 8c0 4.42 3.58 8 8 8c4.42 0 8 -3.58 8 -8v-1h-2c-0.55 0 -1 -0.45 -1 -1v-1h-2c-0.55 0 -1 -0.45 -1 -1v-1h-1c-0.55 0 -1 -0.45 -1 -1Z" stroke="#fff" fill="none" stroke-width="2" stroke-linecap="round" stroke-linejoin="round" />
			<circle cx="9.5" cy="7.5" r="1.5" fill="#fff" opacity="0.167" />
			<path d="M-1 11h26" stroke="#000" fill="none" stroke-width="2" stroke-linecap="round" stroke-linejoin="round" transform="rotate(45 12 12)" stroke-dasharray="28" stroke-dashoffset="28" />
		</mask>
	</defs>
	<path d="M0 0h24v24H0z" fill="currentColor" mask="url(#SVGT0zQzeLO)" />
	<path d="M-1 13h26" stroke="currentColor" fill="none" stroke-width="2" stroke-linecap="round" stroke-linejoin="round" transform="rotate(45 12 12)" stroke-dasharray="28" stroke-dashoffset="28" />
</svg>
