<svg xmlns="http://www.w3.org/2000/svg" width="24" height="24" viewBox="0 0 24 24">
	<path d="M12 21h8v-9c0 -1.1 -0.9 -2 -2 -2h-6M12 21h-8v-9c0 -1.1 0.9 -2 2 -2h6M12 10v-2M4 16h1c2 0 3.5 -2 3.5 -2c0 0 1.5 2 3.5 2c2 0 3.5 -2 3.5 -2c0 0 1.5 2 3.5 2h1" fill="none" stroke="currentColor" stroke-linecap="round" stroke-linejoin="round" stroke-width="2" />
	<path d="M13.79 4.21c0 0.98 -0.82 1.79 -1.79 1.79c-0.98 0 -1.79 -0.82 -1.79 -1.79c0 -0.98 1.79 -3.38 1.79 -3.38c0 0 1.79 2.4 1.79 3.38Z" fill="currentColor" />
</svg>
