<svg xmlns="http://www.w3.org/2000/svg" width="24" height="24" viewBox="0 0 24 24">
	<path d="M12 21h8v-9c0 -1.1 -0.9 -2 -2 -2h-6M12 21h-8v-9c0 -1.1 0.9 -2 2 -2h6M12 10v-2M4 16h1c2 0 3.5 -2 3.5 -2c0 0 1.5 2 3.5 2c2 0 3.5 -2 3.5 -2c0 0 1.5 2 3.5 2h1" fill="none" stroke="currentColor" stroke-linecap="round" stroke-linejoin="round" stroke-width="2" />
	<g fill="currentColor">
		<path d="M14 4c0 1.1 -0.9 2 -2 2c-1.1 0 -2 -0.9 -2 -2c0 -1.1 2 -4 2 -4c0 0 2 2.9 2 4Z" />
		<path d="M15.5 14c0 0 -1.5 2 -3.5 2c-2 0 -3.5 -2 -3.5 -2c0 0 -1.5 2 -3.5 2h-1v5h16v-5h-1c-2 0 -3.5 -2 -3.5 -2Z" fill-opacity="0.208" />
	</g>
</svg>
