<svg xmlns="http://www.w3.org/2000/svg" width="24" height="24" viewBox="0 0 24 24">
	<defs>
		<mask id="SVGZj8ROd7M">
			<path d="M5 6c0 -2 2 0 6.5 0c4.5 0 7.5 -2 7.5 0l0 1c0 1.5 -2 2 -6.5 2c-4.5 0 -7.5 0 -7.5 -2l0 -1Z" fill="#fff" />
			<path d="M4 4h16v5h-16Z" fill="#000" />
		</mask>
	</defs>
	<path d="M7.5 10.5c0 0 0.83 6.93 1 8.5c0.17 1.57 1.5 2 2.5 2l2 0c1.5 0 2.88 -1.14 3 -2c0.13 -0.86 1 -12 1 -12" stroke="currentColor" fill="none" stroke-width="2" stroke-linecap="round" stroke-linejoin="round" stroke-dasharray="32" stroke-dashoffset="29.333" />
	<path d="M0 0h24v24H0z" fill="currentColor" mask="url(#SVGZj8ROd7M)" />
</svg>
