<svg xmlns="http://www.w3.org/2000/svg" width="24" height="24" viewBox="0 0 24 24">
	<defs>
		<mask id="SVGeUplUcaQ">
			<path d="M12 5.75c3.45 0 6.25 2.8 6.25 6.25c0 3.45 -2.8 6.25 -6.25 6.25c-3.45 0 -6.25 -2.8 -6.25 -6.25c0 -3.45 2.8 -6.25 6.25 -6.25Z" fill="#fff" />
			<path d="M21.75 -4c3.45 0 6.25 2.8 6.25 6.25c0 3.45 -2.8 6.25 -6.25 6.25c-3.45 0 -6.25 -2.8 -6.25 -6.25c0 -3.45 2.8 -6.25 6.25 -6.25Z" fill="#000" />
		</mask>
	</defs>
	<path d="M12 21v1M21 12h1M12 3v-1M3 12h-1M18.5 18.5l0.5 0.5M18.5 5.5l0.5 -0.5M5.5 5.5l-0.5 -0.5M5.5 18.5l-0.5 0.5" stroke="currentColor" fill="none" stroke-width="2" stroke-linecap="round" stroke-linejoin="round" opacity="0.938" />
	<path d="M0 0h24v24H0z" fill="currentColor" mask="url(#SVGeUplUcaQ)" />
</svg>
