<svg xmlns="http://www.w3.org/2000/svg" width="24" height="24" viewBox="0 0 24 24">
	<defs>
		<mask id="SVGvka4AACg">
			<path d="M12 4.33c4.23 0 7.67 3.44 7.67 7.67c0 4.23 -3.44 7.67 -7.67 7.67c-4.23 0 -7.67 -3.44 -7.67 -7.67c0 -4.23 3.44 -7.67 7.67 -7.67Z" fill="#fff" />
			<path d="M20.33 -4c4.23 0 7.67 3.44 7.67 7.67c0 4.23 -3.44 7.67 -7.67 7.67c-4.23 0 -7.67 -3.44 -7.67 -7.67c0 -4.23 3.44 -7.67 7.67 -7.67Z" fill="#000" />
		</mask>
	</defs>
	<path d="M12 21v1M21 12h1M12 3v-1M3 12h-1M18.5 18.5l0.5 0.5M18.5 5.5l0.5 -0.5M5.5 5.5l-0.5 -0.5M5.5 18.5l-0.5 0.5" stroke="currentColor" fill="none" stroke-width="2" stroke-linecap="round" stroke-linejoin="round" opacity="0.583" />
	<path d="M0 0h24v24H0z" fill="currentColor" mask="url(#SVGvka4AACg)" />
</svg>
