<svg xmlns="http://www.w3.org/2000/svg" width="24" height="24" viewBox="0 0 24 24">
	<defs>
		<mask id="SVGBKWPJtGZ">
			<path d="M12 2.08c5.47 0 9.92 4.44 9.92 9.92c0 5.47 -4.44 9.92 -9.92 9.92c-5.47 0 -9.92 -4.44 -9.92 -9.92c0 -5.47 4.44 -9.92 9.92 -9.92Z" fill="#fff" />
			<path d="M18.08 -4c5.47 0 9.92 4.44 9.92 9.92c0 5.47 -4.44 9.92 -9.92 9.92c-5.47 0 -9.92 -4.44 -9.92 -9.92c0 -5.47 4.44 -9.92 9.92 -9.92Z" fill="#000" />
		</mask>
	</defs>
	<path d="M12 21v1M21 12h1M12 3v-1M3 12h-1M18.5 18.5l0.5 0.5M18.5 5.5l0.5 -0.5M5.5 5.5l-0.5 -0.5M5.5 18.5l-0.5 0.5" stroke="currentColor" fill="none" stroke-width="2" stroke-linecap="round" stroke-linejoin="round" opacity="0.021" />
	<path d="M0 0h24v24H0z" fill="currentColor" mask="url(#SVGBKWPJtGZ)" />
</svg>
