<svg xmlns="http://www.w3.org/2000/svg" width="24" height="24" viewBox="0 0 24 24">
    <mask id="coffee-mask" x="0" y="0" width="24" height="24">
        <g fill="white">
            <path d="M20 13h-2v-3h2v3Zm0-5H4v10a4 4 0 0 0 4 4h6a4 4 0 0 0 4-4v-3h2a2 2 0 0 0 2-2v-3a2 2 0 0 0-2-2Z" />
            <path d="M8 0c0 2-2 2-2 4s2 2 2 4-2 2-2 4 2 2 2 4M12 0c0 2-2 2-2 4s2 2 2 4-2 2-2 4 2 2 2 4M16 0c0 2-2 2-2 4s2 2 2 4-2 2-2 4 2 2 2 4" stroke="white" stroke-width="2" fill="none">
                <animateMotion path="M0 0v-8" calcMode="linear" dur="3s" repeatCount="indefinite" />
            </path>
        </g>
        <g fill="black">
            <path d="M4 7h18v1H4zM4 0h18v2H4z" />
        </g>
    </mask>
    <rect mask="url(#coffee-mask)" width="24" height="24" fill="currentColor" />
</svg>