<svg xmlns="http://www.w3.org/2000/svg" width="24" height="24" viewBox="0 0 24 24">
	<g fill="currentColor">
		<path d="M15 6l0 0v14l0 0zM9 4v14l0 0v-14z" fill-opacity="0">
			<set attributeName="fill-opacity" to="1" begin="0.6s" />
			<animate attributeName="d" values="M15 6l0 0v14l0 0zM9 4v14l0 0v-14z;M15 6l5 -2v14l-5 2zM9 4v14l-5 2v-14z" begin="0.6s" dur="0.6s" fill="freeze" />
		</path>
	</g>
	<g fill="none" stroke="currentColor" stroke-width="2" stroke-linecap="round" stroke-linejoin="round">
		<path d="M8 4.62361C8 4.54785 8.0428 4.4786 8.11056 4.44472L8.9259 4.03705C8.97335 4.01333 9.02827 4.00942 9.07859 4.0262L14.9214 5.9738C14.9717 5.99058 15.0267 5.98667 15.0741 5.96295L15.7106 5.64472C15.8435 5.57823 16 5.67493 16 5.82361V19.3764C16 19.4521 15.9572 19.5214 15.8894 19.5553L15.0741 19.963C15.0267 19.9867 14.9717 19.9906 14.9214 19.9738L9.07859 18.0262C9.02827 18.0094 8.97335 18.0133 8.9259 18.037L8.28944 18.3553C8.15646 18.4218 8 18.3251 8 18.1764V4.62361Z" stroke-dasharray="64" stroke-dashoffset="64">
			<animate attributeName="stroke-dashoffset" values="64;0" dur="0.6s" fill="freeze" />
			<animate
				attributeName="d"
				values="M8 4.62361C8 4.54785 8.0428 4.4786 8.11056 4.44472L8.9259 4.03705C8.97335 4.01333 9.02827 4.00942 9.07859 4.0262L14.9214 5.9738C14.9717 5.99058 15.0267 5.98667 15.0741 5.96295L15.7106 5.64472C15.8435 5.57823 16 5.67493 16 5.82361V19.3764C16 19.4521 15.9572 19.5214 15.8894 19.5553L15.0741 19.963C15.0267 19.9867 14.9717 19.9906 14.9214 19.9738L9.07859 18.0262C9.02827 18.0094 8.97335 18.0133 8.9259 18.037L8.28944 18.3553C8.15646 18.4218 8 18.3251 8 18.1764V4.62361Z;M4 6.67703C4 6.26813 4.24895 5.90042 4.62861 5.74856L8.65989 4.13604C8.8795 4.0482 9.12313 4.04104 9.34751 4.11584L14.6525 5.88416C14.8769 5.95896 15.1205 5.9518 15.3401 5.86396L18.6286 4.54856C19.2855 4.28581 20 4.76957 20 5.47703V17.323C20 17.7319 19.751 18.0996 19.3714 18.2514L15.3401 19.864C15.1205 19.9518 14.8769 19.959 14.6525 19.8842L9.34751 18.1158C9.12313 18.041 8.8795 18.0482 8.65989 18.136L5.37139 19.4514C4.71453 19.7142 4 19.2304 4 18.523V6.67703Z"
				begin="0.6s"
				dur="0.6s"
				fill="freeze"
			/>
		</path>
	</g>
</svg>
