<svg xmlns="http://www.w3.org/2000/svg" width="24" height="24" viewBox="0 0 24 24">
	<g fill="currentColor">
		<path d="M20.994 16.32a4.531 4.531 0 0 1-4.494 3.93A12.75 12.75 0 0 1 3.75 7.5a4.53 4.53 0 0 1 3.93-4.494.75.75 0 0 1 .778.45L10.44 7.88a.75.75 0 0 1-.062.706l-2.003 2.382a.743.743 0 0 0-.05.732c.774 1.587 2.415 3.208 4.007 3.976a.743.743 0 0 0 .734-.055l2.344-1.997a.75.75 0 0 1 .711-.065l4.422 1.98a.75.75 0 0 1 .452.78Z" opacity=".2" />
		<path d="M21.739 16.414A5.275 5.275 0 0 1 16.5 21C9.056 21 3 14.944 3 7.5a5.274 5.274 0 0 1 4.586-5.239 1.5 1.5 0 0 1 1.558.893l1.98 4.42v.011A1.5 1.5 0 0 1 11.005 9a1.05 1.05 0 0 1-.053.072L9 11.386c.702 1.427 2.195 2.906 3.64 3.61l2.282-1.941a1.501 1.501 0 0 1 1.492-.184l.013.006 4.416 1.979a1.5 1.5 0 0 1 .896 1.558Zm-1.489-.188h-.01l-4.407-1.973-2.282 1.941a.803.803 0 0 1-.07.053 1.501 1.501 0 0 1-1.476.107c-1.756-.849-3.507-2.586-4.356-4.323a1.5 1.5 0 0 1 .094-1.472.566.566 0 0 1 .053-.072L9.75 8.17 7.781 3.764v-.011A3.769 3.769 0 0 0 4.5 7.5a12.013 12.013 0 0 0 12 12 3.77 3.77 0 0 0 3.75-3.274Z" />
		<path d="M22.11 16.46a5.65 5.65 0 0 1-5.61 4.915c-7.65 0-13.875-6.224-13.875-13.875a5.65 5.65 0 0 1 4.914-5.61A1.88 1.88 0 0 1 9.488 3l1.979 4.418a1.876 1.876 0 0 1-.148 1.782.991.991 0 0 1-.08.108l-1.787 2.13c.662 1.203 1.922 2.452 3.14 3.113l2.091-1.781c.034-.028.069-.055.105-.08a1.867 1.867 0 0 1 1.781-.162l.017.007L21 14.512a1.88 1.88 0 0 1 1.11 1.949Zm-2.278-.005-3.938-1.763-2.102 1.787a1.103 1.103 0 0 1-.104.08 1.876 1.876 0 0 1-1.846.128c-1.827-.88-3.646-2.688-4.53-4.5a1.875 1.875 0 0 1 .12-1.84c.025-.038.052-.074.081-.109l1.796-2.13-1.764-3.937A3.402 3.402 0 0 0 4.875 7.5 11.639 11.639 0 0 0 16.5 19.125a3.402 3.402 0 0 0 3.332-2.67Z" />
		<animateTransform attributeName="transform" type="rotate" values="0 12 12;10 12 12;-10 12 12;0 12 12" begin="0.3s;0.9s" dur="0.2s" />
	</g>
	<g fill="none" stroke="currentColor" stroke-linecap="round" stroke-linejoin="round" stroke-width="2">
		<path d="M14 7.044c.66.303 1.257.723 1.762 1.233M16.956 10a6.012 6.012 0 0 0-1.194-1.723" stroke-dashoffset="4" stroke-dasharray="4">
			<animate attributeName="stroke-dashoffset" values="4;8" dur="0.4s" fill="freeze" />
			<animate attributeName="stroke-dashoffset" values="8;4" begin="1s" dur="0.3s" fill="freeze" />
			<set attributeName="opacity" to="0" begin="1.3s" />
		</path>
		<path d="M20.748 9a7.99 7.99 0 0 0-2.08-3.646M15 3.252a7.99 7.99 0 0 1 3.667 2.102" stroke-dashoffset="6" stroke-dasharray="6" opacity="0">
			<animate attributeName="stroke-dashoffset" values="6;12" begin="0.3s" dur="0.4s" fill="freeze" />
			<animate attributeName="stroke-dashoffset" values="12;6" begin="1.2s" dur="0.3s" fill="freeze" />
			<set attributeName="opacity" to="1" begin="0.3s" />
			<set attributeName="opacity" to="0" begin="1.5s" />
		</path>
	</g>
</svg>
