<svg xmlns="http://www.w3.org/2000/svg" width="24" height="24" viewBox="0 0 24 24">
	<defs>
		<mask id="SVGml2cfp2J">
			<g stroke-linecap="round" stroke-linejoin="round" stroke-width="2">
				<g fill="#fff" stroke="#fff" fill-opacity="0">
					<path d="M10 5c1.66 0 3 1.34 3 3c0 1.66 -1.34 3 -3 3c-1.66 0 -3 -1.34 -3 -3c0 -1.66 1.34 -3 3 -3Z" />
					<path d="M10 14c4 0 7 2 7 3v2h-14v-2c0 -1 3 -3 7 -3Z" stroke-dasharray="38" stroke-dashoffset="15.833" />
				</g>
				<path d="M0 11h24" stroke="#000" fill="none" transform="rotate(45 12 12)" stroke-dasharray="26" stroke-dashoffset="26" />
			</g>
		</mask>
	</defs>
	<path d="M0 0h24v24H0z" fill="currentColor" mask="url(#SVGml2cfp2J)" />
	<path d="M1 13h22" stroke="currentColor" fill="none" stroke-width="2" stroke-linecap="round" stroke-linejoin="round" transform="rotate(45 12 12)" stroke-dasharray="24" stroke-dashoffset="24" />
</svg>
