<svg xmlns="http://www.w3.org/2000/svg" width="24" height="24" viewBox="0 0 24 24">
	<defs>
		<mask id="SVGHk32icSX">
			<g fill="#fff">
				<path d="M4 10h3.5l3.5 -3.5v10.5l-3.5 -3.5h-3.5Z" stroke="#fff" stroke-width="2" stroke-linecap="round" stroke-linejoin="round" fill-opacity="0" />
				<path d="M14 12.67c0.25 -0.12 0.42 -0.37 0.42 -0.67c0 -0.3 -0.17 -0.54 -0.42 -0.67Z" />
				<path d="M14 11.27c0.33 0.08 0.58 0.37 0.58 0.73c0 0.36 -0.25 0.66 -0.58 0.73v-0.17c0.24 -0.07 0.42 -0.29 0.42 -0.56c0 -0.26 -0.18 -0.49 -0.42 -0.56Z" />
			</g>
			<path d="M-1 11h26" stroke="#000" fill="none" stroke-width="2" stroke-linecap="round" stroke-linejoin="round" transform="rotate(45 12 12)" stroke-dasharray="28" stroke-dashoffset="28" />
		</mask>
	</defs>
	<path d="M0 0h24v24H0z" fill="currentColor" mask="url(#SVGHk32icSX)" />
	<path d="M-1 13h26" stroke="currentColor" fill="none" stroke-width="2" stroke-linecap="round" stroke-linejoin="round" transform="rotate(45 12 12)" stroke-dasharray="28" stroke-dashoffset="28" />
</svg>
