<svg xmlns="http://www.w3.org/2000/svg" width="24" height="24" viewBox="0 0 24 24">
	<defs>
		<mask id="SVGiTvYTdBs">
			<g fill="#fff">
				<path d="M4 10h3.5l3.5 -3.5v10.5l-3.5 -3.5h-3.5Z" stroke="#fff" stroke-width="2" stroke-linecap="round" stroke-linejoin="round" fill-opacity="0" />
				<path d="M14 16c1.5 -0.71 2.5 -2.24 2.5 -4c0 -1.77 -1 -3.26 -2.5 -4Z" />
				<path d="M14 7.25c2.17 0.49 3.79 2.43 3.79 4.75c0 2.32 -1.63 4.26 -3.79 4.75v-1.12c1.57 -0.47 2.71 -1.91 2.71 -3.63c0 -1.72 -1.14 -3.17 -2.71 -3.63Z" />
			</g>
			<path d="M-1 11h26" stroke="#000" fill="none" stroke-width="2" stroke-linecap="round" stroke-linejoin="round" transform="rotate(45 12 12)" stroke-dasharray="28" stroke-dashoffset="28" />
		</mask>
	</defs>
	<path d="M0 0h24v24H0z" fill="currentColor" mask="url(#SVGiTvYTdBs)" />
	<path d="M-1 13h26" stroke="currentColor" fill="none" stroke-width="2" stroke-linecap="round" stroke-linejoin="round" transform="rotate(45 12 12)" stroke-dasharray="28" stroke-dashoffset="28" />
</svg>
