<svg xmlns="http://www.w3.org/2000/svg" width="24" height="24" viewBox="0 0 24 24">
	<defs>
		<mask id="SVGsioNGL8i">
			<g fill="#fff">
				<path d="M4 10h3.5l3.5 -3.5v10.5l-3.5 -3.5h-3.5Z" stroke="#fff" stroke-width="2" stroke-linecap="round" stroke-linejoin="round" fill-opacity="0" />
				<path d="M14 16c1.5 -0.71 2.5 -2.24 2.5 -4c0 -1.77 -1 -3.26 -2.5 -4Z" />
				<path d="M14 3.96c3.67 0.83 6.42 4.12 6.42 8.04c0 3.92 -2.75 7.21 -6.42 8.04v-1.9c2.65 -0.79 4.58 -3.24 4.58 -6.14c0 -2.91 -1.93 -5.36 -4.58 -6.15Z" />
			</g>
			<path d="M-1 11h26" stroke="#000" fill="none" stroke-width="2" stroke-linecap="round" stroke-linejoin="round" transform="rotate(45 12 12)" stroke-dasharray="28" stroke-dashoffset="28" />
		</mask>
	</defs>
	<path d="M0 0h24v24H0z" fill="currentColor" mask="url(#SVGsioNGL8i)" />
	<path d="M-1 13h26" stroke="currentColor" fill="none" stroke-width="2" stroke-linecap="round" stroke-linejoin="round" transform="rotate(45 12 12)" stroke-dasharray="28" stroke-dashoffset="28" />
</svg>
