<svg xmlns="http://www.w3.org/2000/svg" width="24" height="24" viewBox="0 0 24 24">
	<defs>
		<mask id="SVGPc15iexG">
			<path d="M12 3c4.97 0 9 4.03 9 9c0 4.97 -4.03 9 -9 9c-4.97 0 -9 -4.03 -9 -9c0 -4.97 4.03 -9 9 -9" stroke="#fff" fill="#fff" stroke-width="2" stroke-linecap="round" stroke-linejoin="round" stroke-dasharray="60" fill-opacity="0" stroke-dashoffset="12.5" />
			<path d="M12 15c-2.5 0 -3.25 0 -4 0c-0.55 0 -1 0 -1 0c0 0 1.5 0 5 0c3.5 0 5 0 5 0c0 0 -0.45 0 -1 0c-0.75 0 -1.5 0 -4 0Z" fill="#000" />
		</mask>
	</defs>
	<path d="M0 0h24v24H0z" fill="currentColor" mask="url(#SVGPc15iexG)" />
</svg>
