<svg xmlns="http://www.w3.org/2000/svg" width="24" height="24" viewBox="0 0 24 24">
	<defs>
		<mask id="SVGL4shqcTX">
			<g stroke-linecap="round" stroke-linejoin="round" stroke-width="2">
				<path d="M12 3c4.97 0 9 4.03 9 9c0 4.97 -4.03 9 -9 9c-4.97 0 -9 -4.03 -9 -9c0 -4.97 4.03 -9 9 -9" stroke="#fff" fill="#fff" />
				<path d="M9 9v1M15 9v1" fill="none" stroke="#000" />
			</g>
			<path d="M12 14.29c-2.5 0 -3.25 -0.71 -4 -0.71c-0.55 0 -1 0.32 -1 0.71c0 0.53 1.5 2.83 5 2.83c3.5 0 5 -2.3 5 -2.83c0 -0.39 -0.45 -0.71 -1 -0.71c-0.75 0 -1.5 0.71 -4 0.71Z" fill="#000" />
		</mask>
	</defs>
	<path d="M0 0h24v24H0z" fill="currentColor" mask="url(#SVGL4shqcTX)" />
</svg>
