<svg xmlns="http://www.w3.org/2000/svg" width="24" height="24" viewBox="0 0 24 24">
	<defs>
		<mask id="SVGA3v39bzK">
			<g stroke-linecap="round" stroke-linejoin="round" fill-opacity="0">
				<path d="M10 20.5c0 0 -2.96 -3.46 -2.96 -5.77c0 -1.48 1.32 -2.96 2.96 -2.96c1.65 0 2.96 1.48 2.96 2.96c0 2.31 -2.96 5.77 -2.96 5.77Z" stroke="#fff" fill="#fff" stroke-width="2" />
				<path d="M14 20.5c0 0 -2.96 -3.46 -2.96 -5.77c0 -1.48 1.32 -2.96 2.96 -2.96c1.65 0 2.96 1.48 2.96 2.96c0 2.31 -2.96 5.77 -2.96 5.77Z" stroke="#000" fill="#000" stroke-width="4" />
				<path d="M14 20.5c0 0 -2.96 -3.46 -2.96 -5.77c0 -1.48 1.32 -2.96 2.96 -2.96c1.65 0 2.96 1.48 2.96 2.96c0 2.31 -2.96 5.77 -2.96 5.77Z" stroke="#fff" fill="#fff" stroke-width="2" />
			</g>
			<circle cx="14" cy="9" fill="#000" />
			<path d="M-1 11h26" stroke="#000" fill="none" stroke-width="2" stroke-linecap="round" stroke-linejoin="round" transform="rotate(45 12 12)" stroke-dasharray="28" stroke-dashoffset="28" />
		</mask>
	</defs>
	<path d="M0 0h24v24H0z" fill="currentColor" mask="url(#SVGA3v39bzK)" />
	<path d="M-1 13h26" stroke="currentColor" fill="none" stroke-width="2" stroke-linecap="round" stroke-linejoin="round" transform="rotate(45 12 12)" stroke-dasharray="28" stroke-dashoffset="28" />
</svg>
