<svg xmlns="http://www.w3.org/2000/svg" width="24" height="24" viewBox="0 0 24 24">
	<defs>
		<mask id="SVG0tzmvebh">
			<g stroke-linecap="round" stroke-linejoin="round" fill-opacity="0">
				<path d="M10 20.5c0 0 -6 -6.5 -6 -10.83c0 -3 2.58 -6 6 -6c3.42 0 6 3 6 6c0 4.33 -6 10.83 -6 10.83Z" stroke="#fff" fill="#fff" stroke-width="2" />
				<path d="M14 20.5c0 0 -6 -6.5 -6 -10.83c0 -3 2.58 -6 6 -6c3.42 0 6 3 6 6c0 4.33 -6 10.83 -6 10.83Z" stroke="#000" fill="#000" stroke-width="4" />
				<path d="M14 20.5c0 0 -6 -6.5 -6 -10.83c0 -3 2.58 -6 6 -6c3.42 0 6 3 6 6c0 4.33 -6 10.83 -6 10.83Z" stroke="#fff" fill="#fff" stroke-width="2" />
			</g>
			<circle cx="14" cy="9" fill="#000" />
		</mask>
	</defs>
	<path d="M0 0h24v24H0z" fill="currentColor" mask="url(#SVG0tzmvebh)" />
</svg>
