<svg xmlns="http://www.w3.org/2000/svg" width="24" height="24" viewBox="0 0 24 24">
	<defs>
		<mask id="SVGIoRn8bAK">
			<g stroke-linecap="round" stroke-linejoin="round" fill-opacity="0">
				<path d="M10 20.5c0 0 -4.75 -5.25 -4.75 -8.75c0 -2.38 2.06 -4.75 4.75 -4.75c2.69 0 4.75 2.38 4.75 4.75c0 3.5 -4.75 8.75 -4.75 8.75Z" stroke="#fff" fill="#fff" stroke-width="2" />
				<path d="M14 20.5c0 0 -4.75 -5.25 -4.75 -8.75c0 -2.38 2.06 -4.75 4.75 -4.75c2.69 0 4.75 2.38 4.75 4.75c0 3.5 -4.75 8.75 -4.75 8.75Z" stroke="#000" fill="#000" stroke-width="4" />
				<path d="M14 20.5c0 0 -4.75 -5.25 -4.75 -8.75c0 -2.38 2.06 -4.75 4.75 -4.75c2.69 0 4.75 2.38 4.75 4.75c0 3.5 -4.75 8.75 -4.75 8.75Z" stroke="#fff" fill="#fff" stroke-width="2" />
			</g>
			<circle cx="14" cy="9" fill="#000" />
		</mask>
	</defs>
	<path d="M0 0h24v24H0z" fill="currentColor" mask="url(#SVGIoRn8bAK)" />
</svg>
