<svg xmlns="http://www.w3.org/2000/svg" width="24" height="24" viewBox="0 0 24 24">
	<defs>
		<mask id="SVGVJRWzbLn">
			<g stroke-linecap="round" stroke-linejoin="round" fill-opacity="0">
				<path d="M10 20.5c0 0 -6.07 -7.03 -6.07 -11.57c0 -3.32 2.71 -6.07 6.07 -6.07c3.36 0 6.07 2.75 6.07 6.07c0 4.53 -6.07 11.57 -6.07 11.57Z" stroke="#fff" fill="#fff" stroke-width="2" />
				<path d="M14 20.5c0 0 -6.07 -7.03 -6.07 -11.57c0 -3.32 2.71 -6.07 6.07 -6.07c3.36 0 6.07 2.75 6.07 6.07c0 4.53 -6.07 11.57 -6.07 11.57Z" stroke="#000" fill="#000" stroke-width="4" />
				<path d="M14 20.5c0 0 -6.07 -7.03 -6.07 -11.57c0 -3.32 2.71 -6.07 6.07 -6.07c3.36 0 6.07 2.75 6.07 6.07c0 4.53 -6.07 11.57 -6.07 11.57Z" stroke="#fff" fill="#fff" stroke-width="2" />
			</g>
			<circle cx="14" cy="9" fill="#000" />
		</mask>
	</defs>
	<path d="M0 0h24v24H0z" fill="currentColor" mask="url(#SVGVJRWzbLn)" />
</svg>
