<svg xmlns="http://www.w3.org/2000/svg" width="24" height="24" viewBox="0 0 24 24">
	<g fill="currentColor" stroke="currentColor" stroke-linecap="round" stroke-linejoin="round" fill-opacity="0">
		<path d="M9.5 5c0 -0.83 0.67 -1.5 1.5 -1.5h8c0.83 0 1.5 0.67 1.5 1.5c0 0.83 -0.67 1.5 -1.5 1.5h-8c-0.83 0 -1.5 -0.67 -1.5 -1.5ZM9.5 12c0 -0.83 0.67 -1.5 1.5 -1.5h8c0.83 0 1.5 0.67 1.5 1.5c0 0.83 -0.67 1.5 -1.5 1.5h-8c-0.83 0 -1.5 -0.67 -1.5 -1.5Z" />
		<path d="M9.5 19c0 -0.83 0.67 -1.5 1.5 -1.5h8c0.83 0 1.5 0.67 1.5 1.5c0 0.83 -0.67 1.5 -1.5 1.5h-8c-0.83 0 -1.5 -0.67 -1.5 -1.5Z" stroke-dasharray="28" stroke-dashoffset="9.333" />
		<path d="M3.5 5c0 -0.83 0.67 -1.5 1.5 -1.5c0.83 0 1.5 0.67 1.5 1.5c0 0.83 -0.67 1.5 -1.5 1.5c-0.83 0 -1.5 -0.67 -1.5 -1.5Z" />
		<path d="M3.5 12c0 -0.83 0.67 -1.5 1.5 -1.5c0.83 0 1.5 0.67 1.5 1.5c0 0.83 -0.67 1.5 -1.5 1.5c-0.83 0 -1.5 -0.67 -1.5 -1.5Z" />
		<path d="M3.5 19c0 -0.83 0.67 -1.5 1.5 -1.5c0.83 0 1.5 0.67 1.5 1.5c0 0.83 -0.67 1.5 -1.5 1.5c-0.83 0 -1.5 -0.67 -1.5 -1.5Z" stroke-dasharray="12" stroke-dashoffset="12" />
	</g>
</svg>
