<svg xmlns="http://www.w3.org/2000/svg" width="24" height="24" viewBox="0 0 24 24">
	<g fill="currentColor">
		<path d="M7 6c0 6.08 4.92 11 11 11c0.53 0 1.05 -0.04 1.56 -0.11c-1.61 2.47 -4.39 4.11 -7.56 4.11c-4.97 0 -9 -4.03 -9 -9c0 -3.17 1.64 -5.95 4.11 -7.56c-0.07 0.51 -0.11 1.03 -0.11 1.56Z" stroke="currentColor" stroke-width="2" stroke-linecap="round" stroke-linejoin="round" />
		<path d="M13.61 5.25l1.64 -1.25l-2.06 -0.05l-0.69 -1.95l-0.69 1.95l-2.06 0.05l1.64 1.25l-0.59 1.98l1.7 -1.17l1.7 1.17Z" opacity="0.111" />
		<path d="M20.83 9.73l1.88 -1.44l-2.37 -0.07l-0.79 -2.22l-0.79 2.23l-2.37 0.07l1.88 1.44l-0.68 2.27l1.95 -1.34l1.95 1.34Z" />
	</g>
</svg>
