<svg xmlns="http://www.w3.org/2000/svg" width="24" height="24" viewBox="0 0 24 24">
	<path d="M12 3c4.97 0 9 4.03 9 9c0 4.97 -4.03 9 -9 9c-4.97 0 -9 -4.03 -9 -9c0 -4.97 4.03 -9 9 -9M9 9v1M15 9v1" fill="none" stroke="currentColor" stroke-linecap="round" stroke-linejoin="round" stroke-width="2" />
	<path d="M12 14.92c-2.5 0 -3.25 -0.08 -4 -0.08c-0.55 0 -1 0.04 -1 0.08c0 0.06 1.5 0.33 5 0.33c3.5 0 5 -0.27 5 -0.33c0 -0.05 -0.45 -0.08 -1 -0.08c-0.75 0 -1.5 0.08 -4 0.08Z" fill="currentColor" />
</svg>
