<svg xmlns="http://www.w3.org/2000/svg" width="24" height="24" viewBox="0 0 24 24">
	<path d="M12 3c4.97 0 9 4.03 9 9c0 4.97 -4.03 9 -9 9c-4.97 0 -9 -4.03 -9 -9c0 -4.97 4.03 -9 9 -9M9 9v1M15 9v1" fill="none" stroke="currentColor" stroke-linecap="round" stroke-linejoin="round" stroke-width="2" />
	<path d="M12 14.42c-2.5 0 -3.25 -0.58 -4 -0.58c-0.55 0 -1 0.26 -1 0.58c0 0.44 1.5 2.33 5 2.33c3.5 0 5 -1.9 5 -2.33c0 -0.32 -0.45 -0.58 -1 -0.58c-0.75 0 -1.5 0.58 -4 0.58Z" fill="currentColor" />
</svg>
