<svg xmlns="http://www.w3.org/2000/svg" width="24" height="24" viewBox="0 0 24 24">
	<mask id="file-mask">
		<g fill="#fff" />
		<g fill="none" stroke="#fff" stroke-width="2" stroke-linecap="round" stroke-linejoin="round">
			<path d="M13.5 3l5.5 5.5v11.5c0 0.55 -0.45 1 -1 1h-12c-0.55 0 -1 -0.45 -1 -1v-16c0 -0.55 0.45 -1 1 -1Z" fill="#fff" fill-opacity="0" stroke-dasharray="64" stroke-dashoffset="64">
				<animate attributeName="fill-opacity" values="0;1" begin="0.6s" dur="0.5s" fill="freeze" />
				<animate attributeName="stroke-dashoffset" values="64;0" dur="0.6s" fill="freeze" />
			</path>
			<path d="M14.5 3.5l0 4.5l4.5 0z" fill="#000" stroke="#000" opacity="0">
				<set attributeName="opacity" to="1" begin="0.6s" fill="freeze" />
			</path>
			<path d="M13.5 3l5.5 5.5" opacity="0">
				<set attributeName="opacity" to="1" begin="0.6s" fill="freeze" />
			</path>
			<path d="M18.5 14c2.48 0 4.5 2.02 4.5 4.5c0 2.48 -2.02 4.5 -4.5 4.5c-2.48 0 -4.5 -2.02 -4.5 -4.5c0 -2.48 2.02 -4.5 4.5 -4.5Z" fill="#000" fill-opacity="0" stroke="#000" stroke-width="6" stroke-dasharray="32" stroke-dashoffset="32">
				<set attributeName="fill-opacity" to="1" begin="1.1s" fill="freeze" />
				<set attributeName="stroke-dashoffset" to="0" begin="1.1s" fill="freeze" />
			</path>
			<path d="M18.5 14c2.48 0 4.5 2.02 4.5 4.5c0 2.48 -2.02 4.5 -4.5 4.5c-2.48 0 -4.5 -2.02 -4.5 -4.5c0 -2.48 2.02 -4.5 4.5 -4.5Z" stroke-dasharray="32" stroke-dashoffset="32">
				<animate attributeName="stroke-dashoffset" values="32;0" begin="1.1s" dur="0.4s" fill="freeze" />
			</path>
			<path d="M16 16l5 5" stroke-dasharray="10" stroke-dashoffset="10">
				<animate attributeName="stroke-dashoffset" values="10;0" begin="1.5s" dur="0.2s" fill="freeze" />
			</path>
		</g>
	</mask>
	<rect mask="url(#file-mask)" width="24" height="24" fill="currentColor" />
</svg>
