<svg xmlns="http://www.w3.org/2000/svg" width="24" height="24" viewBox="0 0 24 24">
	<mask id="folder-mask">
		<g fill="none" stroke="#fff" stroke-width="2" stroke-linecap="round" stroke-linejoin="round">
			<path d="M12 7h8c0.55 0 1 0.45 1 1v10c0 0.55 -0.45 1 -1 1h-16c-0.55 0 -1 -0.45 -1 -1v-11Z" fill="#fff" fill-opacity="0" stroke-dasharray="64" stroke-dashoffset="64">
				<animate attributeName="fill-opacity" values="0;1" begin="0.8s" dur="0.5s" fill="freeze" />
				<animate attributeName="stroke-dashoffset" values="64;0" dur="0.6s" fill="freeze" />
			</path>
			<path d="M12 7h-9v0c0 0 0.45 0 1 0h6z" opacity="0">
				<animate attributeName="d" values="M12 7h-9v0c0 0 0.45 0 1 0h6z;M12 7h-9v-1c0 -0.55 0.45 -1 1 -1h6z" begin="0.6s" dur="0.2s" fill="freeze" />
				<set attributeName="opacity" to="1" begin="0.6s" fill="freeze" />
			</path>
			<path d="M21 14h-2v6.5h2ZM19 20.5c0 0.83 -0.67 1.5 -1.5 1.5c-0.83 0 -1.5 -0.67 -1.5 -1.5c0 -0.83 0.67 -1.5 1.5 -1.5c0.83 0 1.5 0.67 1.5 1.5Z" fill="#000" fill-opacity="0" stroke="#000" stroke-width="6" stroke-dasharray="20" stroke-dashoffset="20">
				<set attributeName="fill-opacity" to="1" begin="1.3s" fill="freeze" />
				<set attributeName="stroke-dashoffset" to="0" begin="1.3s" fill="freeze" />
			</path>
			<path d="M21 14h-2v6.5" stroke-dasharray="10" stroke-dashoffset="10">
				<animate attributeName="stroke-dashoffset" values="10;0" begin="1.3s" dur="0.2s" fill="freeze" />
			</path>
			<path d="M19 20.5c0 0.83 -0.67 1.5 -1.5 1.5c-0.83 0 -1.5 -0.67 -1.5 -1.5c0 -0.83 0.67 -1.5 1.5 -1.5c0.83 0 1.5 0.67 1.5 1.5Z" fill="#fff" fill-opacity="0" stroke-dasharray="12" stroke-dashoffset="12">
				<animate attributeName="fill-opacity" values="0;1" begin="1.5s" dur="0.5s" fill="freeze" />
				<animate attributeName="stroke-dashoffset" values="12;0" begin="1.5s" dur="0.2s" fill="freeze" />
			</path>
		</g>
	</mask>
	<rect mask="url(#folder-mask)" width="24" height="24" fill="currentColor" />
</svg>
