<svg xmlns="http://www.w3.org/2000/svg" width="24" height="24" viewBox="0 0 24 24">
	<defs>
		<mask id="SVG5XM0Z6sl">
			<g stroke-linecap="round" stroke-linejoin="round">
				<path d="M7 6c0 6.08 4.92 11 11 11c0.53 0 1.05 -0.04 1.56 -0.11c-1.61 2.47 -4.39 4.11 -7.56 4.11c-4.97 0 -9 -4.03 -9 -9c0 -3.17 1.64 -5.95 4.11 -7.56c-0.07 0.51 -0.11 1.03 -0.11 1.56Z" stroke="#fff" fill="#fff" stroke-width="2" stroke-dasharray="56" fill-opacity="0" stroke-dashoffset="21.778" />
				<g fill="none">
					<path d="M12 5h1.5M12 5h-1.5M12 5v1.5M12 5v-1.5M17 11h1.5M17 11h-1.5M17 11v1.5M17 11v-1.5M20 5h1.5M20 5h-1.5M20 5v1.5M20 5v-1.5" stroke-dashoffset="4" stroke="#fff" stroke-dasharray="4" />
					<path d="M-1 11h26" stroke="#000" stroke-width="2" transform="rotate(45 12 12)" stroke-dasharray="28" stroke-dashoffset="28" />
				</g>
			</g>
		</mask>
	</defs>
	<path d="M0 0h24v24H0z" fill="currentColor" mask="url(#SVG5XM0Z6sl)" />
	<path d="M-1 13h26" stroke="currentColor" fill="none" stroke-width="2" stroke-linecap="round" stroke-linejoin="round" transform="rotate(45 12 12)" stroke-dasharray="28" stroke-dashoffset="28" />
</svg>
