<svg xmlns="http://www.w3.org/2000/svg" width="24" height="24" viewBox="0 0 24 24">
	<defs>
		<mask id="SVGI0EbNhOp">
			<g fill="none" stroke-linecap="round" stroke-linejoin="round" stroke-width="2">
				<g stroke="#fff">
					<path d="M12 9c1.66 0 3 1.34 3 3c0 1.66 -1.34 3 -3 3c-1.66 0 -3 -1.34 -3 -3c0 -1.66 1.34 -3 3 -3Z" />
					<path d="M15.24 6.37c0.41 0.23 0.8 0.51 1.14 0.83c0.2 0.18 0.6 0.29 0.78 0.49c0.43 0.52 0.92 1.34 1.16 2c0.08 0.24 -0.03 0.64 0.04 0.9c0.1 0.45 0.15 0.93 0.15 1.41M18.5 11.99c0.01 0.47 -0.04 0.95 -0.15 1.4c-0.06 0.27 0.05 0.67 -0.03 0.92c-0.24 0.63 -0.71 1.46 -1.16 2c-0.17 0.19 -0.57 0.3 -0.76 0.48c-0.34 0.31 -0.73 0.59 -1.15 0.83M15.26 17.62c-0.4 0.24 -0.84 0.44 -1.29 0.57c-0.26 0.08 -0.55 0.38 -0.81 0.43c-0.67 0.11 -1.63 0.12 -2.31 0c-0.25 -0.05 -0.54 -0.34 -0.8 -0.42c-0.44 -0.14 -0.88 -0.34 -1.3 -0.58M8.76 17.63c-0.41 -0.23 -0.8 -0.51 -1.14 -0.83c-0.2 -0.18 -0.6 -0.29 -0.78 -0.49c-0.43 -0.52 -0.92 -1.34 -1.16 -2c-0.08 -0.24 0.03 -0.64 -0.04 -0.9c-0.1 -0.45 -0.15 -0.93 -0.15 -1.41M5.5 12.01c-0.01 -0.47 0.04 -0.95 0.15 -1.4c0.06 -0.27 -0.05 -0.67 0.03 -0.92c0.24 -0.63 0.71 -1.46 1.16 -2c0.17 -0.19 0.57 -0.3 0.76 -0.48c0.34 -0.31 0.73 -0.59 1.15 -0.83M8.74 6.38c0.4 -0.24 0.84 -0.44 1.29 -0.57c0.26 -0.08 0.55 -0.38 0.81 -0.43c0.67 -0.11 1.63 -0.12 2.31 0c0.25 0.05 0.54 0.34 0.8 0.42c0.44 0.14 0.88 0.34 1.3 0.58" transform="rotate(9.8 12 12)" />
				</g>
				<path d="M0 11h24" stroke="#000" transform="rotate(45 12 12)" stroke-dasharray="26" stroke-dashoffset="26" />
			</g>
		</mask>
	</defs>
	<path d="M0 0h24v24H0z" fill="currentColor" mask="url(#SVGI0EbNhOp)" />
	<path d="M-0.46 13h24" stroke="currentColor" fill="none" stroke-width="2" stroke-linecap="round" stroke-linejoin="round" transform="rotate(45 12 12)" stroke-dasharray="26" stroke-dashoffset="26" />
</svg>
