<svg xmlns="http://www.w3.org/2000/svg" width="24" height="24" viewBox="0 0 24 24">
	<defs>
		<mask id="SVGr3iY9bTA">
			<g fill="none" stroke="#fff" stroke-linecap="round" stroke-linejoin="round" stroke-width="2">
				<path d="M12 9c1.66 0 3 1.34 3 3c0 1.66 -1.34 3 -3 3c-1.66 0 -3 -1.34 -3 -3c0 -1.66 1.34 -3 3 -3Z" />
				<path d="M15.24 6.37c0.41 0.23 0.8 0.51 1.14 0.83c0.11 0.1 1.52 -0.33 1.62 -0.21c0.24 0.29 1.21 1.96 1.34 2.32c0.05 0.15 -1.02 1.14 -0.99 1.28c0.1 0.45 0.15 0.93 0.15 1.41M18.5 11.99c0.01 0.47 -0.04 0.95 -0.15 1.4c-0.03 0.15 1.05 1.15 0.99 1.29c-0.13 0.35 -1.09 2.02 -1.34 2.32c-0.1 0.12 -1.5 -0.31 -1.61 -0.21c-0.34 0.31 -0.73 0.59 -1.15 0.83M15.26 17.62c-0.4 0.24 -0.84 0.44 -1.29 0.57c-0.14 0.05 -0.47 1.48 -0.63 1.51c-0.37 0.06 -2.3 0.07 -2.68 0c-0.15 -0.03 -0.48 -1.46 -0.62 -1.5c-0.44 -0.14 -0.88 -0.34 -1.3 -0.58M8.76 17.63c-0.41 -0.23 -0.8 -0.51 -1.14 -0.83c-0.11 -0.1 -1.52 0.33 -1.62 0.21c-0.24 -0.29 -1.21 -1.96 -1.34 -2.32c-0.05 -0.15 1.02 -1.14 0.99 -1.28c-0.1 -0.45 -0.15 -0.93 -0.15 -1.41M5.5 12.01c-0.01 -0.47 0.04 -0.95 0.15 -1.4c0.03 -0.15 -1.05 -1.15 -0.99 -1.29c0.13 -0.35 1.09 -2.02 1.34 -2.32c0.1 -0.12 1.5 0.31 1.61 0.21c0.34 -0.31 0.73 -0.59 1.15 -0.83M8.74 6.38c0.4 -0.24 0.84 -0.44 1.29 -0.57c0.14 -0.05 0.47 -1.48 0.63 -1.51c0.37 -0.06 2.3 -0.07 2.68 0c0.15 0.03 0.48 1.46 0.62 1.5c0.44 0.14 0.88 0.34 1.3 0.58" transform="rotate(10.8 12 12)" />
			</g>
		</mask>
	</defs>
	<path d="M0 0h24v24H0z" fill="currentColor" mask="url(#SVGr3iY9bTA)" />
</svg>
