<svg xmlns="http://www.w3.org/2000/svg" width="24" height="24" viewBox="0 0 24 24">
	<defs>
		<mask id="SVG4HsEc0St">
			<g fill="none" stroke="#fff" stroke-linecap="round" stroke-linejoin="round" stroke-width="2">
				<path d="M12 9c1.66 0 3 1.34 3 3c0 1.66 -1.34 3 -3 3c-1.66 0 -3 -1.34 -3 -3c0 -1.66 1.34 -3 3 -3Z" />
				<path d="M15.24 6.37c0.41 0.23 0.8 0.51 1.14 0.83c0.12 0.11 1.43 -0.27 1.54 -0.14c0.25 0.31 1.18 1.9 1.32 2.29c0.05 0.15 -0.93 1.09 -0.89 1.25c0.1 0.45 0.15 0.93 0.15 1.41M18.5 11.99c0.01 0.47 -0.04 0.95 -0.15 1.4c-0.03 0.16 0.95 1.1 0.89 1.26c-0.14 0.37 -1.06 1.97 -1.32 2.29c-0.11 0.12 -1.41 -0.25 -1.52 -0.15c-0.34 0.31 -0.73 0.59 -1.15 0.83M15.26 17.62c-0.4 0.24 -0.84 0.44 -1.29 0.57c-0.15 0.05 -0.48 1.37 -0.64 1.4c-0.4 0.07 -2.24 0.07 -2.64 0c-0.16 -0.03 -0.49 -1.35 -0.64 -1.39c-0.44 -0.14 -0.88 -0.34 -1.3 -0.58M8.76 17.63c-0.41 -0.23 -0.8 -0.51 -1.14 -0.83c-0.12 -0.11 -1.43 0.27 -1.54 0.14c-0.25 -0.31 -1.18 -1.9 -1.32 -2.29c-0.05 -0.15 0.93 -1.09 0.89 -1.25c-0.1 -0.45 -0.15 -0.93 -0.15 -1.41M5.5 12.01c-0.01 -0.47 0.04 -0.95 0.15 -1.4c0.03 -0.16 -0.95 -1.1 -0.89 -1.26c0.14 -0.37 1.06 -1.97 1.32 -2.29c0.11 -0.12 1.41 0.25 1.52 0.15c0.34 -0.31 0.73 -0.59 1.15 -0.83M8.74 6.38c0.4 -0.24 0.84 -0.44 1.29 -0.57c0.15 -0.05 0.48 -1.37 0.64 -1.4c0.4 -0.07 2.24 -0.07 2.64 0c0.16 0.03 0.49 1.35 0.64 1.39c0.44 0.14 0.88 0.34 1.3 0.58" transform="rotate(10.7 12 12)" />
			</g>
		</mask>
	</defs>
	<path d="M0 0h24v24H0z" fill="currentColor" mask="url(#SVG4HsEc0St)" />
</svg>
