<svg xmlns="http://www.w3.org/2000/svg" width="24" height="24" viewBox="0 0 24 24">
	<defs>
		<mask id="SVGixWCmeLv">
			<g fill="none" stroke-linecap="round" stroke-linejoin="round" stroke-width="2">
				<g stroke="#fff">
					<path d="M12 9c1.66 0 3 1.34 3 3c0 1.66 -1.34 3 -3 3c-1.66 0 -3 -1.34 -3 -3c0 -1.66 1.34 -3 3 -3Z" />
					<path d="M15.24 6.37c0.41 0.23 0.8 0.51 1.14 0.83c0.14 0.13 1.25 -0.15 1.37 -0c0.29 0.36 1.12 1.77 1.29 2.23c0.06 0.17 -0.73 0.99 -0.68 1.17c0.1 0.45 0.15 0.93 0.15 1.41M18.5 11.99c0.01 0.47 -0.04 0.95 -0.15 1.4c-0.04 0.18 0.75 1 0.69 1.18c-0.16 0.43 -0.98 1.86 -1.29 2.23c-0.12 0.14 -1.22 -0.13 -1.35 -0.01c-0.34 0.31 -0.73 0.59 -1.15 0.83M15.26 17.62c-0.4 0.24 -0.84 0.44 -1.29 0.57c-0.18 0.06 -0.49 1.15 -0.68 1.19c-0.46 0.07 -2.1 0.08 -2.57 0c-0.18 -0.04 -0.5 -1.13 -0.67 -1.17c-0.44 -0.14 -0.88 -0.34 -1.3 -0.58M8.76 17.63c-0.41 -0.23 -0.8 -0.51 -1.14 -0.83c-0.14 -0.13 -1.25 0.15 -1.37 0c-0.29 -0.36 -1.12 -1.77 -1.29 -2.23c-0.06 -0.17 0.73 -0.99 0.68 -1.17c-0.1 -0.45 -0.15 -0.93 -0.15 -1.41M5.5 12.01c-0.01 -0.47 0.04 -0.95 0.15 -1.4c0.04 -0.18 -0.75 -1 -0.69 -1.18c0.16 -0.43 0.98 -1.86 1.29 -2.23c0.12 -0.14 1.22 0.13 1.35 0.01c0.34 -0.31 0.73 -0.59 1.15 -0.83M8.74 6.38c0.4 -0.24 0.84 -0.44 1.29 -0.57c0.18 -0.06 0.49 -1.15 0.68 -1.19c0.46 -0.07 2.1 -0.08 2.57 0c0.18 0.04 0.5 1.13 0.67 1.17c0.44 0.14 0.88 0.34 1.3 0.58" transform="rotate(10.5 12 12)" />
				</g>
				<path d="M0 11h24" stroke="#000" transform="rotate(45 12 12)" stroke-dasharray="26" stroke-dashoffset="26" />
			</g>
		</mask>
	</defs>
	<path d="M0 0h24v24H0z" fill="currentColor" mask="url(#SVGixWCmeLv)" />
	<path d="M-0.42 13h24" stroke="currentColor" fill="none" stroke-width="2" stroke-linecap="round" stroke-linejoin="round" transform="rotate(45 12 12)" stroke-dasharray="26" stroke-dashoffset="26" />
</svg>
