<svg xmlns="http://www.w3.org/2000/svg" width="24" height="24" viewBox="0 0 24 24">
	<defs>
		<mask id="SVGyYaeTbFE">
			<g fill="none" stroke-linecap="round" stroke-linejoin="round" stroke-width="2">
				<g stroke="#fff">
					<path d="M12 9c1.66 0 3 1.34 3 3c0 1.66 -1.34 3 -3 3c-1.66 0 -3 -1.34 -3 -3c0 -1.66 1.34 -3 3 -3Z" />
					<path d="M15.24 6.37c0.41 0.23 0.8 0.51 1.14 0.83c0.04 0.03 2.25 -0.83 2.29 -0.78c0.08 0.1 1.44 2.45 1.49 2.57c0.02 0.07 -1.82 1.55 -1.81 1.59c0.1 0.45 0.15 0.93 0.15 1.41M18.5 11.99c0.01 0.47 -0.04 0.95 -0.15 1.4c-0.01 0.05 1.85 1.54 1.82 1.6c-0.04 0.12 -1.4 2.47 -1.49 2.57c-0.05 0.05 -2.25 -0.8 -2.29 -0.77c-0.34 0.31 -0.73 0.59 -1.15 0.83M15.26 17.62c-0.4 0.24 -0.84 0.44 -1.29 0.57c-0.05 0.02 -0.4 2.37 -0.48 2.38c-0.12 0.02 -2.85 0.02 -2.97 0c-0.07 -0.02 -0.43 -2.35 -0.48 -2.37c-0.44 -0.14 -0.88 -0.34 -1.3 -0.58M8.76 17.63c-0.41 -0.23 -0.8 -0.51 -1.14 -0.83c-0.04 -0.03 -2.25 0.83 -2.29 0.78c-0.08 -0.1 -1.44 -2.45 -1.49 -2.57c-0.02 -0.07 1.82 -1.55 1.81 -1.59c-0.1 -0.45 -0.15 -0.93 -0.15 -1.41M5.5 12.01c-0.01 -0.47 0.04 -0.95 0.15 -1.4c0.01 -0.05 -1.85 -1.54 -1.82 -1.6c0.04 -0.12 1.4 -2.47 1.49 -2.57c0.05 -0.05 2.25 0.8 2.29 0.77c0.34 -0.31 0.73 -0.59 1.15 -0.83M8.74 6.38c0.4 -0.24 0.84 -0.44 1.29 -0.57c0.05 -0.02 0.4 -2.37 0.48 -2.38c0.12 -0.02 2.85 -0.02 2.97 0c0.07 0.02 0.43 2.35 0.48 2.37c0.44 0.14 0.88 0.34 1.3 0.58" transform="rotate(11.6 12 12)" />
				</g>
				<path d="M0 11h24" stroke="#000" transform="rotate(45 12 12)" stroke-dasharray="26" stroke-dashoffset="26" />
			</g>
		</mask>
	</defs>
	<path d="M0 0h24v24H0z" fill="currentColor" mask="url(#SVGyYaeTbFE)" />
	<path d="M-0.36 13h24" stroke="currentColor" fill="none" stroke-width="2" stroke-linecap="round" stroke-linejoin="round" transform="rotate(45 12 12)" stroke-dasharray="26" stroke-dashoffset="26" />
</svg>
