<svg xmlns="http://www.w3.org/2000/svg" width="24" height="24" viewBox="0 0 24 24">
	<defs>
		<mask id="SVGJhRGwedZ">
			<g fill="none" stroke="#fff" stroke-linecap="round" stroke-linejoin="round" stroke-width="2">
				<path d="M12 9c1.66 0 3 1.34 3 3c0 1.66 -1.34 3 -3 3c-1.66 0 -3 -1.34 -3 -3c0 -1.66 1.34 -3 3 -3Z" />
				<path d="M15.24 6.37c0.41 0.23 0.8 0.51 1.14 0.83c0.06 0.06 1.98 -0.65 2.04 -0.57c0.14 0.17 1.36 2.27 1.43 2.48c0.03 0.1 -1.52 1.4 -1.5 1.48c0.1 0.45 0.15 0.93 0.15 1.41M18.5 11.99c0.01 0.47 -0.04 0.95 -0.15 1.4c-0.02 0.08 1.55 1.39 1.51 1.48c-0.08 0.2 -1.29 2.31 -1.43 2.48c-0.07 0.08 -1.97 -0.62 -2.03 -0.56c-0.34 0.31 -0.73 0.59 -1.15 0.83M15.26 17.62c-0.4 0.24 -0.84 0.44 -1.29 0.57c-0.08 0.03 -0.43 2.04 -0.53 2.05c-0.21 0.04 -2.64 0.04 -2.86 0c-0.1 -0.02 -0.45 -2.02 -0.53 -2.04c-0.44 -0.14 -0.88 -0.34 -1.3 -0.58M8.76 17.63c-0.41 -0.23 -0.8 -0.51 -1.14 -0.83c-0.06 -0.06 -1.98 0.65 -2.04 0.57c-0.14 -0.17 -1.36 -2.27 -1.43 -2.48c-0.03 -0.1 1.52 -1.4 1.5 -1.48c-0.1 -0.45 -0.15 -0.93 -0.15 -1.41M5.5 12.01c-0.01 -0.47 0.04 -0.95 0.15 -1.4c0.02 -0.08 -1.55 -1.39 -1.51 -1.48c0.08 -0.2 1.29 -2.31 1.43 -2.48c0.07 -0.08 1.97 0.62 2.03 0.56c0.34 -0.31 0.73 -0.59 1.15 -0.83M8.74 6.38c0.4 -0.24 0.84 -0.44 1.29 -0.57c0.08 -0.03 0.43 -2.04 0.53 -2.05c0.21 -0.04 2.64 -0.04 2.86 0c0.1 0.02 0.45 2.02 0.53 2.04c0.44 0.14 0.88 0.34 1.3 0.58" transform="rotate(11.3 12 12)" />
			</g>
		</mask>
	</defs>
	<path d="M0 0h24v24H0z" fill="currentColor" mask="url(#SVGJhRGwedZ)" />
</svg>
