<svg xmlns="http://www.w3.org/2000/svg" width="24" height="24" viewBox="0 0 24 24">
	<defs>
		<mask id="SVGor4hUb9A">
			<g fill="none" stroke-linecap="round" stroke-linejoin="round" stroke-width="2">
				<g stroke="#fff">
					<path d="M12 9c1.66 0 3 1.34 3 3c0 1.66 -1.34 3 -3 3c-1.66 0 -3 -1.34 -3 -3c0 -1.66 1.34 -3 3 -3Z" />
					<path d="M15.24 6.37c0.41 0.23 0.8 0.51 1.14 0.83c0.03 0.03 2.34 -0.89 2.38 -0.85c0.06 0.07 1.47 2.51 1.5 2.6c0.02 0.06 -1.92 1.6 -1.91 1.63c0.1 0.45 0.15 0.93 0.15 1.41M18.5 11.99c0.01 0.47 -0.04 0.95 -0.15 1.4c-0.01 0.04 1.95 1.58 1.92 1.64c-0.03 0.09 -1.44 2.53 -1.5 2.6c-0.04 0.04 -2.35 -0.87 -2.37 -0.84c-0.34 0.31 -0.73 0.59 -1.15 0.83M15.26 17.62c-0.4 0.24 -0.84 0.44 -1.29 0.57c-0.04 0.01 -0.4 2.48 -0.46 2.48c-0.09 0.02 -2.92 0.02 -3.01 0c-0.06 -0.02 -0.43 -2.46 -0.46 -2.47c-0.44 -0.14 -0.88 -0.34 -1.3 -0.58M8.76 17.63c-0.41 -0.23 -0.8 -0.51 -1.14 -0.83c-0.03 -0.03 -2.34 0.89 -2.38 0.85c-0.06 -0.07 -1.47 -2.51 -1.5 -2.6c-0.02 -0.06 1.92 -1.6 1.91 -1.63c-0.1 -0.45 -0.15 -0.93 -0.15 -1.41M5.5 12.01c-0.01 -0.47 0.04 -0.95 0.15 -1.4c0.01 -0.04 -1.95 -1.58 -1.92 -1.64c0.03 -0.09 1.44 -2.53 1.5 -2.6c0.04 -0.04 2.35 0.87 2.37 0.84c0.34 -0.31 0.73 -0.59 1.15 -0.83M8.74 6.38c0.4 -0.24 0.84 -0.44 1.29 -0.57c0.04 -0.01 0.4 -2.48 0.46 -2.48c0.09 -0.02 2.92 -0.02 3.01 0c0.06 0.02 0.43 2.46 0.46 2.47c0.44 0.14 0.88 0.34 1.3 0.58" transform="rotate(11.7 12 12)" />
				</g>
				<path d="M0 11h24" stroke="#000" transform="rotate(45 12 12)" stroke-dasharray="26" stroke-dashoffset="26" />
			</g>
		</mask>
	</defs>
	<path d="M0 0h24v24H0z" fill="currentColor" mask="url(#SVGor4hUb9A)" />
	<path d="M-0.35 13h24" stroke="currentColor" fill="none" stroke-width="2" stroke-linecap="round" stroke-linejoin="round" transform="rotate(45 12 12)" stroke-dasharray="26" stroke-dashoffset="26" />
</svg>
