<svg xmlns="http://www.w3.org/2000/svg" width="24" height="24" viewBox="0 0 24 24">
	<path d="M11 13l4.74 -7.5c0.29 0.17 0.57 0.35 0.83 0.55c0 0 0.42 -0.17 0.42 -0.17c0.09 0.03 0.19 0.09 0.25 0.16c1.14 0.93 2.28 2.86 2.54 4.37c0.03 0.1 0.03 0.22 0.01 0.3c0 0 -0.36 0.28 -0.36 0.28c0.05 0.33 0.07 0.66 0.07 1ZM10.63 11.63l8.87 0.35c0 0.34 -0.02 0.67 -0.06 0.99c0 0 0.36 0.28 0.36 0.28c0.01 0.09 0.02 0.21 -0.02 0.3c-0.23 1.46 -1.35 3.41 -2.52 4.38c-0.08 0.07 -0.18 0.13 -0.26 0.16c0 0 -0.42 -0.17 -0.42 -0.17c-0.26 0.21 -0.54 0.39 -0.83 0.56ZM11.63 10.63l4.13 7.85c-0.29 0.17 -0.59 0.32 -0.89 0.44c0 0 -0.07 0.45 -0.07 0.45c-0.07 0.06 -0.17 0.12 -0.27 0.14c-1.37 0.52 -3.62 0.54 -5.06 0.01c-0.1 -0.03 -0.2 -0.09 -0.27 -0.14c0 0 -0.06 -0.45 -0.06 -0.45c-0.31 -0.12 -0.61 -0.27 -0.9 -0.44ZM13 11l-4.74 7.5c-0.29 -0.17 -0.57 -0.35 -0.83 -0.55c0 0 -0.42 0.17 -0.42 0.17c-0.09 -0.03 -0.19 -0.09 -0.25 -0.16c-1.14 -0.93 -2.28 -2.86 -2.54 -4.37c-0.03 -0.1 -0.03 -0.22 -0.01 -0.3c0 0 0.36 -0.28 0.36 -0.28c-0.05 -0.33 -0.07 -0.66 -0.07 -1ZM13.37 12.37l-8.87 -0.35c0 -0.34 0.02 -0.67 0.06 -0.99c0 0 -0.36 -0.28 -0.36 -0.28c-0.01 -0.09 -0.02 -0.21 0.02 -0.3c0.23 -1.46 1.35 -3.41 2.52 -4.38c0.08 -0.07 0.18 -0.13 0.26 -0.16c0 0 0.42 0.17 0.42 0.17c0.26 -0.21 0.54 -0.39 0.83 -0.56ZM12.37 13.37l-4.13 -7.85c0.29 -0.17 0.59 -0.32 0.89 -0.44c0 0 0.07 -0.45 0.07 -0.45c0.07 -0.06 0.17 -0.12 0.27 -0.14c1.37 -0.52 3.62 -0.54 5.06 -0.01c0.1 0.03 0.2 0.09 0.27 0.14c0 0 0.06 0.45 0.06 0.45c0.31 0.12 0.61 0.27 0.9 0.44Z" fill="currentColor" />
</svg>
