<svg xmlns="http://www.w3.org/2000/svg" width="24" height="24" viewBox="0 0 24 24">
	<path d="M11 13l4.74 -7.5c0.29 0.17 0.57 0.35 0.83 0.55c0 0 0.21 -0.08 0.21 -0.08c0.08 0.04 0.16 0.1 0.23 0.17c1.26 1.03 2.3 2.79 2.58 4.45c0.02 0.1 0.02 0.19 0.02 0.28c0 0 -0.18 0.14 -0.18 0.14c0.05 0.33 0.07 0.66 0.07 1ZM10.63 11.63l8.87 0.35c0 0.34 -0.02 0.67 -0.06 0.99c0 0 0.18 0.14 0.18 0.14c0 0.09 -0.01 0.2 -0.03 0.28c-0.26 1.6 -1.27 3.39 -2.56 4.46c-0.07 0.06 -0.16 0.12 -0.23 0.16c0 0 -0.21 -0.09 -0.21 -0.09c-0.26 0.21 -0.54 0.39 -0.83 0.56ZM11.63 10.63l4.13 7.85c-0.29 0.17 -0.59 0.32 -0.89 0.44c0 0 -0.03 0.22 -0.03 0.22c-0.08 0.05 -0.17 0.1 -0.26 0.11c-1.51 0.58 -3.57 0.6 -5.15 0.01c-0.09 -0.04 -0.18 -0.08 -0.25 -0.12c0 0 -0.03 -0.23 -0.03 -0.23c-0.31 -0.12 -0.61 -0.27 -0.9 -0.44ZM13 11l-4.74 7.5c-0.29 -0.17 -0.57 -0.35 -0.83 -0.55c0 0 -0.21 0.08 -0.21 0.08c-0.08 -0.04 -0.16 -0.1 -0.23 -0.17c-1.26 -1.03 -2.3 -2.79 -2.58 -4.45c-0.02 -0.1 -0.02 -0.19 -0.02 -0.28c0 0 0.18 -0.14 0.18 -0.14c-0.05 -0.33 -0.07 -0.66 -0.07 -1ZM13.37 12.37l-8.87 -0.35c0 -0.34 0.02 -0.67 0.06 -0.99c0 0 -0.18 -0.14 -0.18 -0.14c-0 -0.09 0.01 -0.2 0.03 -0.28c0.26 -1.6 1.27 -3.39 2.56 -4.46c0.07 -0.06 0.16 -0.12 0.23 -0.16c0 0 0.21 0.09 0.21 0.09c0.26 -0.21 0.54 -0.39 0.83 -0.56ZM12.37 13.37l-4.13 -7.85c0.29 -0.17 0.59 -0.32 0.89 -0.44c0 0 0.03 -0.22 0.03 -0.22c0.08 -0.05 0.17 -0.1 0.26 -0.11c1.51 -0.58 3.57 -0.6 5.15 -0.01c0.09 0.04 0.18 0.08 0.25 0.12c0 0 0.03 0.23 0.03 0.23c0.31 0.12 0.61 0.27 0.9 0.44Z" fill="currentColor" />
</svg>
