<svg xmlns="http://www.w3.org/2000/svg" width="24" height="24" viewBox="0 0 24 24">
	<path d="M11 13l4.74 -7.5c0.29 0.17 0.57 0.35 0.83 0.55c0 0 0.32 -0.13 0.32 -0.13c0.08 0.04 0.18 0.09 0.24 0.17c1.2 0.98 2.29 2.83 2.56 4.41c0.02 0.1 0.03 0.21 0.02 0.29c0 0 -0.27 0.21 -0.27 0.21c0.05 0.33 0.07 0.66 0.07 1ZM10.63 11.63l8.87 0.35c0 0.34 -0.02 0.67 -0.06 0.99c0 0 0.27 0.21 0.27 0.21c0.01 0.09 0 0.2 -0.03 0.29c-0.24 1.53 -1.31 3.4 -2.54 4.42c-0.07 0.07 -0.17 0.12 -0.24 0.16c0 0 -0.32 -0.13 -0.32 -0.13c-0.26 0.21 -0.54 0.39 -0.83 0.56ZM11.63 10.63l4.13 7.85c-0.29 0.17 -0.59 0.32 -0.89 0.44c0 0 -0.05 0.34 -0.05 0.34c-0.07 0.06 -0.17 0.11 -0.27 0.13c-1.44 0.55 -3.6 0.57 -5.1 0.01c-0.1 -0.03 -0.19 -0.08 -0.26 -0.13c0 0 -0.05 -0.34 -0.05 -0.34c-0.31 -0.12 -0.61 -0.27 -0.9 -0.44ZM13 11l-4.74 7.5c-0.29 -0.17 -0.57 -0.35 -0.83 -0.55c0 0 -0.32 0.13 -0.32 0.13c-0.08 -0.04 -0.18 -0.09 -0.24 -0.17c-1.2 -0.98 -2.29 -2.83 -2.56 -4.41c-0.02 -0.1 -0.03 -0.21 -0.02 -0.29c0 0 0.27 -0.21 0.27 -0.21c-0.05 -0.33 -0.07 -0.66 -0.07 -1ZM13.37 12.37l-8.87 -0.35c0 -0.34 0.02 -0.67 0.06 -0.99c0 0 -0.27 -0.21 -0.27 -0.21c-0.01 -0.09 -0 -0.2 0.03 -0.29c0.24 -1.53 1.31 -3.4 2.54 -4.42c0.07 -0.07 0.17 -0.12 0.24 -0.16c0 0 0.32 0.13 0.32 0.13c0.26 -0.21 0.54 -0.39 0.83 -0.56ZM12.37 13.37l-4.13 -7.85c0.29 -0.17 0.59 -0.32 0.89 -0.44c0 0 0.05 -0.34 0.05 -0.34c0.07 -0.06 0.17 -0.11 0.27 -0.13c1.44 -0.55 3.6 -0.57 5.1 -0.01c0.1 0.03 0.19 0.08 0.26 0.13c0 0 0.05 0.34 0.05 0.34c0.31 0.12 0.61 0.27 0.9 0.44Z" fill="currentColor" />
</svg>
