<svg xmlns="http://www.w3.org/2000/svg" width="24" height="24" viewBox="0 0 24 24">
	<path d="M11 13l4.74 -7.5c0.29 0.17 0.57 0.35 0.83 0.55c0 0 1.37 -0.55 1.37 -0.55c0.12 -0.01 0.3 0.03 0.37 0.15c0.63 0.51 2.18 3.19 2.33 4.02c0.06 0.13 0.04 0.32 -0.02 0.42c0 0 -1.18 0.91 -1.18 0.91c0.05 0.33 0.07 0.66 0.07 1ZM10.63 11.63l8.87 0.35c0 0.34 -0.02 0.67 -0.06 0.99c0 0 1.15 0.91 1.15 0.91c0.07 0.1 0.12 0.28 0.05 0.4c-0.13 0.8 -1.67 3.48 -2.32 4.02c-0.09 0.12 -0.26 0.2 -0.38 0.19c0 0 -1.38 -0.56 -1.38 -0.56c-0.26 0.21 -0.54 0.39 -0.83 0.56ZM11.63 10.63l4.13 7.85c-0.29 0.17 -0.59 0.32 -0.89 0.44c0 0 -0.21 1.46 -0.21 1.46c-0.05 0.11 -0.18 0.24 -0.32 0.25c-0.76 0.29 -3.86 0.3 -4.64 0c-0.15 -0.02 -0.3 -0.12 -0.35 -0.24c0 0 -0.2 -1.47 -0.2 -1.47c-0.31 -0.12 -0.61 -0.27 -0.9 -0.44ZM13 11l-4.74 7.5c-0.29 -0.17 -0.57 -0.35 -0.83 -0.55c0 0 -1.37 0.55 -1.37 0.55c-0.12 0.01 -0.3 -0.03 -0.37 -0.15c-0.63 -0.51 -2.18 -3.19 -2.33 -4.02c-0.06 -0.13 -0.04 -0.32 0.02 -0.42c0 0 1.18 -0.91 1.18 -0.91c-0.05 -0.33 -0.07 -0.66 -0.07 -1ZM13.37 12.37l-8.87 -0.35c0 -0.34 0.02 -0.67 0.06 -0.99c0 0 -1.15 -0.91 -1.15 -0.91c-0.07 -0.1 -0.12 -0.28 -0.05 -0.4c0.13 -0.8 1.67 -3.48 2.32 -4.02c0.09 -0.12 0.26 -0.2 0.38 -0.19c0 0 1.38 0.56 1.38 0.56c0.26 -0.21 0.54 -0.39 0.83 -0.56ZM12.37 13.37l-4.13 -7.85c0.29 -0.17 0.59 -0.32 0.89 -0.44c0 0 0.21 -1.46 0.21 -1.46c0.05 -0.11 0.18 -0.24 0.32 -0.25c0.76 -0.29 3.86 -0.3 4.64 -0c0.15 0.02 0.3 0.12 0.35 0.24c0 0 0.2 1.47 0.2 1.47c0.31 0.12 0.61 0.27 0.9 0.44Z" fill="currentColor" />
</svg>
