<svg xmlns="http://www.w3.org/2000/svg" width="24" height="24" viewBox="0 0 24 24">
	<path d="M11 13l4.74 -7.5c0.29 0.17 0.57 0.35 0.83 0.55c0 0 2.31 -0.93 2.31 -0.93c0.15 -0.05 0.41 -0.02 0.48 0.13c0.11 0.09 2.09 3.51 2.12 3.66c0.09 0.16 0.06 0.43 -0.06 0.54c0 0 -1.99 1.54 -1.99 1.54c0.05 0.33 0.07 0.66 0.07 1ZM10.63 11.63l8.87 0.35c0 0.34 -0.02 0.67 -0.06 0.99c0 0 1.95 1.54 1.95 1.54c0.12 0.11 0.22 0.35 0.12 0.49c-0.02 0.15 -2 3.56 -2.11 3.66c-0.1 0.16 -0.34 0.27 -0.5 0.21c0 0 -2.33 -0.95 -2.33 -0.95c-0.26 0.21 -0.54 0.39 -0.83 0.56ZM11.63 10.63l4.13 7.85c-0.29 0.17 -0.59 0.32 -0.89 0.44c0 0 -0.36 2.47 -0.36 2.47c-0.03 0.16 -0.19 0.36 -0.36 0.36c-0.14 0.05 -4.09 0.05 -4.23 0c-0.19 -0 -0.4 -0.16 -0.44 -0.33c0 0 -0.34 -2.49 -0.34 -2.49c-0.31 -0.12 -0.61 -0.27 -0.9 -0.44ZM13 11l-4.74 7.5c-0.29 -0.17 -0.57 -0.35 -0.83 -0.55c0 0 -2.31 0.93 -2.31 0.93c-0.15 0.05 -0.41 0.02 -0.48 -0.13c-0.11 -0.09 -2.09 -3.51 -2.12 -3.66c-0.09 -0.16 -0.06 -0.43 0.06 -0.54c0 0 1.99 -1.54 1.99 -1.54c-0.05 -0.33 -0.07 -0.66 -0.07 -1ZM13.37 12.37l-8.87 -0.35c0 -0.34 0.02 -0.67 0.06 -0.99c0 0 -1.95 -1.54 -1.95 -1.54c-0.12 -0.11 -0.22 -0.35 -0.12 -0.49c0.02 -0.15 2 -3.56 2.11 -3.66c0.1 -0.16 0.34 -0.27 0.5 -0.21c0 0 2.33 0.95 2.33 0.95c0.26 -0.21 0.54 -0.39 0.83 -0.56ZM12.37 13.37l-4.13 -7.85c0.29 -0.17 0.59 -0.32 0.89 -0.44c0 0 0.36 -2.47 0.36 -2.47c0.03 -0.16 0.19 -0.36 0.36 -0.36c0.14 -0.05 4.09 -0.05 4.23 -0c0.19 0 0.4 0.16 0.44 0.33c0 0 0.34 2.49 0.34 2.49c0.31 0.12 0.61 0.27 0.9 0.44Z" fill="currentColor" />
</svg>
