<svg xmlns="http://www.w3.org/2000/svg" width="24" height="24" viewBox="0 0 24 24">
	<defs>
		<mask id="SVGCEwfVddH">
			<path d="M5 19v0c-0.3 0 -0.59 -0.15 -0.74 -0.41c-0.8 -1.34 -1.26 -2.91 -1.26 -4.59c0 -4.97 4.03 -9 9 -9c4.97 0 9 4.03 9 9c0 1.68 -0.46 3.25 -1.26 4.59c-0.15 0.26 -0.44 0.41 -0.74 0.41Z" stroke="#fff" fill="none" stroke-width="2" stroke-linecap="round" stroke-linejoin="round" />
			<path d="M13.83 14c0 1.01 -0.82 1.83 -1.83 1.83c-1.01 0 -1.83 -0.82 -1.83 -1.83c0 -1.01 1.83 -6.42 1.83 -6.42c0 0 1.83 5.4 1.83 6.42Z" fill="#000" transform="rotate(-100 12 14)" />
		</mask>
	</defs>
	<g fill="currentColor">
		<path d="M0 0h24v24H0z" mask="url(#SVGCEwfVddH)" />
		<path d="M12.92 14c0 0.5 -0.41 0.92 -0.92 0.92c-0.5 0 -0.92 -0.41 -0.92 -0.92c0 -0.5 0.92 -4.58 0.92 -4.58c0 0 0.92 4.08 0.92 4.58Z" transform="rotate(-100 12 14)" />
	</g>
</svg>
