<svg xmlns="http://www.w3.org/2000/svg" width="24" height="24" viewBox="0 0 24 24">
	<defs>
		<mask id="SVGwqCtOc1N">
			<path d="M5 19v0c-0.3 0 -0.59 -0.15 -0.74 -0.41c-0.8 -1.34 -1.26 -2.91 -1.26 -4.59c0 -4.97 4.03 -9 9 -9c4.97 0 9 4.03 9 9c0 1.68 -0.46 3.25 -1.26 4.59c-0.15 0.26 -0.44 0.41 -0.74 0.41Z" stroke="#fff" fill="none" stroke-width="2" stroke-linecap="round" stroke-linejoin="round" />
			<path d="M15.17 14c0 1.75 -1.42 3.17 -3.17 3.17c-1.75 0 -3.17 -1.42 -3.17 -3.17c0 -1.75 3.17 -11.08 3.17 -11.08c0 0 3.17 9.33 3.17 11.08Z" fill="#000" transform="rotate(-100 12 14)" />
		</mask>
	</defs>
	<g fill="currentColor">
		<path d="M0 0h24v24H0z" mask="url(#SVGwqCtOc1N)" />
		<path d="M13.58 14c0 0.87 -0.71 1.58 -1.58 1.58c-0.87 0 -1.58 -0.71 -1.58 -1.58c0 -0.87 1.58 -7.92 1.58 -7.92c0 0 1.58 7.05 1.58 7.92Z" transform="rotate(-100 12 14)" />
	</g>
</svg>
