<svg xmlns="http://www.w3.org/2000/svg" width="24" height="24" viewBox="0 0 24 24">
	<defs>
		<mask id="SVGvhH1dcfh">
			<path d="M5 19v0c-0.3 0 -0.59 -0.15 -0.74 -0.41c-0.8 -1.34 -1.26 -2.91 -1.26 -4.59c0 -4.97 4.03 -9 9 -9c4.97 0 9 4.03 9 9c0 1.68 -0.46 3.25 -1.26 4.59c-0.15 0.26 -0.44 0.41 -0.74 0.41Z" stroke="#fff" fill="none" stroke-width="2" stroke-linecap="round" stroke-linejoin="round" />
			<path d="M15.5 14c0 1.93 -1.57 3.5 -3.5 3.5c-1.93 0 -3.5 -1.57 -3.5 -3.5c0 -1.93 3.5 -12.25 3.5 -12.25c0 0 3.5 10.32 3.5 12.25Z" fill="#000" transform="rotate(-100 12 14)" />
		</mask>
	</defs>
	<g fill="currentColor">
		<path d="M0 0h24v24H0z" mask="url(#SVGvhH1dcfh)" />
		<path d="M13.75 14c0 0.96 -0.79 1.75 -1.75 1.75c-0.96 0 -1.75 -0.79 -1.75 -1.75c0 -0.96 1.75 -8.75 1.75 -8.75c0 0 1.75 7.79 1.75 8.75Z" transform="rotate(-100 12 14)" />
	</g>
</svg>
