<svg xmlns="http://www.w3.org/2000/svg" width="24" height="24" viewBox="0 0 24 24">
	<defs>
		<mask id="SVGws1YbeSE">
			<path d="M5 19v0c-0.3 0 -0.59 -0.15 -0.74 -0.41c-0.8 -1.34 -1.26 -2.91 -1.26 -4.59c0 -4.97 4.03 -9 9 -9c4.97 0 9 4.03 9 9c0 1.68 -0.46 3.25 -1.26 4.59c-0.15 0.26 -0.44 0.41 -0.74 0.41Z" stroke="#fff" fill="none" stroke-width="2" stroke-linecap="round" stroke-linejoin="round" />
			<path d="M15 14c0 1.66 -1.34 3 -3 3c-1.66 0 -3 -1.34 -3 -3c0 -1.66 3 -10.5 3 -10.5c0 0 3 8.84 3 10.5Z" fill="#000" transform="rotate(-100 12 14)" />
		</mask>
	</defs>
	<g fill="currentColor">
		<path d="M0 0h24v24H0z" mask="url(#SVGws1YbeSE)" />
		<path d="M13.5 14c0 0.83 -0.68 1.5 -1.5 1.5c-0.83 0 -1.5 -0.68 -1.5 -1.5c0 -0.83 1.5 -7.5 1.5 -7.5c0 0 1.5 6.68 1.5 7.5Z" transform="rotate(-100 12 14)" />
	</g>
</svg>
