<svg xmlns="http://www.w3.org/2000/svg" width="24" height="24" viewBox="0 0 24 24">
	<path d="M12 3c4.97 0 9 4.03 9 9c0 4.97 -4.03 9 -9 9c-4.97 0 -9 -4.03 -9 -9c0 -4.97 4.03 -9 9 -9M9 9v1M15 9v1" fill="none" stroke="currentColor" stroke-linecap="round" stroke-linejoin="round" stroke-width="2" />
	<path d="M12 14.25c-3.25 0 -4.5 0.92 -4.5 1.13c0 0.21 0.45 0.38 1 0.38c0.75 0 0.5 -0.19 3.5 -0.19c3 0 2.75 0.19 3.5 0.19c0.55 0 1 -0.17 1 -0.38c0 -0.21 -1.25 -1.13 -4.5 -1.13Z" fill="currentColor" />
</svg>
