<svg xmlns="http://www.w3.org/2000/svg" width="24" height="24" viewBox="0 0 24 24">
	<path d="M12 3c4.97 0 9 4.03 9 9c0 4.97 -4.03 9 -9 9c-4.97 0 -9 -4.03 -9 -9c0 -4.97 4.03 -9 9 -9M9 9v1M15 9v1" fill="none" stroke="currentColor" stroke-linecap="round" stroke-linejoin="round" stroke-width="2" />
	<path d="M12 13.58c-3.25 0 -4.5 1.74 -4.5 2.12c0 0.39 0.45 0.71 1 0.71c0.75 0 0.5 -0.35 3.5 -0.35c3 0 2.75 0.35 3.5 0.35c0.55 0 1 -0.32 1 -0.71c0 -0.39 -1.25 -2.12 -4.5 -2.12Z" fill="currentColor" />
</svg>
