<svg xmlns="http://www.w3.org/2000/svg" width="24" height="24" viewBox="0 0 24 24">
	<path d="M12 3c4.97 0 9 4.03 9 9c0 4.97 -4.03 9 -9 9c-4.97 0 -9 -4.03 -9 -9c0 -4.97 4.03 -9 9 -9M9 9v1M15 9v1" fill="none" stroke="currentColor" stroke-linecap="round" stroke-linejoin="round" stroke-width="2" />
	<path d="M12 13.08c-3.25 0 -4.5 2.35 -4.5 2.88c0 0.53 0.45 0.96 1 0.96c0.75 0 0.5 -0.48 3.5 -0.48c3 0 2.75 0.48 3.5 0.48c0.55 0 1 -0.43 1 -0.96c0 -0.53 -1.25 -2.88 -4.5 -2.88Z" fill="currentColor" />
</svg>
