<svg xmlns="http://www.w3.org/2000/svg" width="24" height="24" viewBox="0 0 24 24">
	<defs>
		<mask id="SVGKjzUJeLM">
			<g stroke-linecap="round" stroke-linejoin="round" stroke-width="2">
				<path d="M6.58 19h11.42c2.21 0 4 -1.79 4 -4c0 -2.21 -1.79 -4 -4 -4h-0.58v-1c0 -2.76 -2.24 -5 -5 -5c-2.42 0 -4.44 1.72 -4.9 4h-0.94c-2.76 0 -5 2.24 -5 5c0 2.76 2.24 5 5 5Z" stroke="#fff" fill="#fff" />
				<path d="M5.16 13l3 3M5.16 13l3 -3M17.84 13l-3 3M17.84 13l-3 -3" stroke="#000" fill="none" stroke-dasharray="8" stroke-dashoffset="4.667" />
			</g>
		</mask>
	</defs>
	<path d="M0 0h24v24H0z" fill="currentColor" mask="url(#SVGKjzUJeLM)" />
</svg>
