<svg xmlns="http://www.w3.org/2000/svg" width="24" height="24" viewBox="0 0 24 24">
	<defs>
		<mask id="SVGw0T8Hm0b">
			<g stroke-linecap="round" stroke-linejoin="round" stroke-width="2">
				<path d="M13.5 3l5.5 5.5v11.5c0 0.55 -0.45 1 -1 1h-12c-0.55 0 -1 -0.45 -1 -1v-16c0 -0.55 0.45 -1 1 -1Z" stroke="#fff" fill="#fff" />
				<path d="M14 3.5l0 4.5l4.5 0Z" stroke="#000" fill="#000" />
				<g fill="none">
					<path d="M13.5 3l5.5 5.5" stroke="#fff" />
					<path d="M7 13h10M7 17h7" stroke="#000" />
				</g>
			</g>
			<path d="M18.5 11c4.14 0 7.5 3.36 7.5 7.5c0 4.14 -3.36 7.5 -7.5 7.5c-4.14 0 -7.5 -3.36 -7.5 -7.5c0 -4.14 3.36 -7.5 7.5 -7.5Z" fill="#000" />
		</mask>
	</defs>
	<path d="M0 0h24v24H0z" fill="currentColor" mask="url(#SVGw0T8Hm0b)" />
	<path d="M18.5 14c2.48 0 4.5 2.02 4.5 4.5c0 2.48 -2.02 4.5 -4.5 4.5c-2.48 0 -4.5 -2.02 -4.5 -4.5c0 -2.48 2.02 -4.5 4.5 -4.5Z" stroke="currentColor" fill="none" stroke-width="2" stroke-linecap="round" stroke-linejoin="round" stroke-dasharray="32" stroke-dashoffset="16.667" />
</svg>
