<svg xmlns="http://www.w3.org/2000/svg" width="24" height="24" viewBox="0 0 24 24">
	<g fill="none" stroke="currentColor" stroke-linecap="round" stroke-linejoin="round">
		<path d="M3.5 5c0 -0.83 0.67 -1.5 1.5 -1.5c0.83 0 1.5 0.67 1.5 1.5c0 0.83 -0.67 1.5 -1.5 1.5c-0.83 0 -1.5 -0.67 -1.5 -1.5ZM10.5 5c0 -0.83 0.67 -1.5 1.5 -1.5c0.83 0 1.5 0.67 1.5 1.5c0 0.83 -0.67 1.5 -1.5 1.5c-0.83 0 -1.5 -0.67 -1.5 -1.5ZM17.5 5c0 -0.83 0.67 -1.5 1.5 -1.5c0.83 0 1.5 0.67 1.5 1.5c0 0.83 -0.67 1.5 -1.5 1.5c-0.83 0 -1.5 -0.67 -1.5 -1.5Z" />
		<path d="M3.5 12c0 -0.83 0.67 -1.5 1.5 -1.5c0.83 0 1.5 0.67 1.5 1.5c0 0.83 -0.67 1.5 -1.5 1.5c-0.83 0 -1.5 -0.67 -1.5 -1.5ZM10.5 12c0 -0.83 0.67 -1.5 1.5 -1.5c0.83 0 1.5 0.67 1.5 1.5c0 0.83 -0.67 1.5 -1.5 1.5c-0.83 0 -1.5 -0.67 -1.5 -1.5ZM17.5 12c0 -0.83 0.67 -1.5 1.5 -1.5c0.83 0 1.5 0.67 1.5 1.5c0 0.83 -0.67 1.5 -1.5 1.5c-0.83 0 -1.5 -0.67 -1.5 -1.5Z" stroke-dasharray="12" stroke-dashoffset="9" />
	</g>
</svg>
