<svg xmlns="http://www.w3.org/2000/svg" width="24" height="24" viewBox="0 0 24 24">
	<defs>
		<mask id="SVGd8rsJbhu">
			<g fill="none" stroke="#fff" stroke-linecap="round" stroke-linejoin="round" stroke-width="2">
				<path d="M9 7h11c0.55 0 1 0.45 1 1v11c0 0.55 -0.45 1 -1 1h-16c-0.55 0 -1 -0.45 -1 -1v-11c0 -0.55 0.45 -1 1 -1Z" stroke-dasharray="64" stroke-dashoffset="8" />
				<path d="M9 7v-3c0 -0.55 0.45 -1 1 -1h4c0.55 0 1 0.45 1 1v3" stroke-dasharray="16" stroke-dashoffset="16" />
			</g>
		</mask>
	</defs>
	<path d="M0 0h24v24H0z" fill="currentColor" mask="url(#SVGd8rsJbhu)" />
	<path d="M16 19h6M19 16v6" stroke-dashoffset="8" fill="none" stroke="currentColor" stroke-linecap="round" stroke-linejoin="round" stroke-width="2" stroke-dasharray="8" />
</svg>
