<svg xmlns="http://www.w3.org/2000/svg" width="24" height="24" viewBox="0 0 24 24">
	<path d="M12 3c4.97 0 9 4.03 9 9c0 4.97 -4.03 9 -9 9c-4.97 0 -9 -4.03 -9 -9c0 -4.97 4.03 -9 9 -9Z" stroke="currentColor" fill="none" stroke-width="2" stroke-linecap="round" stroke-linejoin="round" />
	<g fill="currentColor">
		<path d="M12 17.56c-2.59 0 -4.85 0.77 -6.06 1.44l6.06 2l6.06 -2c-1.21 -0.67 -3.47 -1.44 -6.06 -1.44Z" />
		<circle cx="7" cy="12" transform="rotate(15 12 12)" />
		<circle cx="7" cy="12" transform="rotate(65 12 12)" />
		<circle cx="7" cy="12" transform="rotate(115 12 12)" />
		<circle cx="7" cy="12" transform="rotate(165 12 12)" />
	</g>
</svg>
