<svg xmlns="http://www.w3.org/2000/svg" width="24" height="24" viewBox="0 0 24 24">
	<defs>
		<mask id="SVGkbMivdCW">
			<g stroke-linecap="round" stroke-linejoin="round">
				<path d="M12 5.5l-9 2.5M12 10.5l-9 2.5M12 15.5l-9 2.5" fill="none" stroke="#fff" stroke-width="2" />
				<path d="M21 12c0 -3.31 -3.5 -6.25 -8.25 -6.25c-0.5 0 -1.75 2.75 -1.75 6.25c0 3.5 1.25 6.25 1.75 6.25c4.75 0 8.25 -2.94 8.25 -6.25Z" stroke="#000" fill="#000" stroke-width="4" />
			</g>
		</mask>
	</defs>
	<g fill="currentColor">
		<path d="M0 0h24v24H0z" mask="url(#SVGkbMivdCW)" />
		<path d="M21 12c0 -3.31 -3.5 -6.25 -8.25 -6.25c-0.5 0 -1.75 2.75 -1.75 6.25c0 3.5 1.25 6.25 1.75 6.25c4.75 0 8.25 -2.94 8.25 -6.25Z" stroke="currentColor" stroke-width="2" stroke-linecap="round" stroke-linejoin="round" fill-opacity="0.104" />
	</g>
</svg>
