<svg xmlns="http://www.w3.org/2000/svg" width="24" height="24" viewBox="0 0 24 24">
	<g fill="currentColor">
		<circle cx="12" cy="8.143" r="2.5" fill-opacity="0">
			<animate attributeName="fill-opacity" values="0;1" begin="0.75s" dur="0.15s" fill="freeze" />
		</circle>
		<path d="M12 18c0 0 0 0 0 0c0 0 0 0 0 0l0 0c0 0 0 0 0 0c0 0 0 0 0 0c0 0 0 0 0 0c0 0 0 0 0 0l0 0c0 0 0 0 0 0c0 0 0 0 0 0Z">
			<animate attributeName="d" values="M12 18c0 0 0 0 0 0c0 0 0 0 0 0l0 0c0 0 0 0 0 0c0 0 0 0 0 0c0 0 0 0 0 0c0 0 0 0 0 0l0 0c0 0 0 0 0 0c0 0 0 0 0 0Z;M12 21C15.3 21 18 19.9 18 18.5C18 17.8 17.3 17.2 16.2 16.7L16.8 15.8C18.8 16.6 20 17.7 20 19C20 21.2 16.4 23 12 23C7.6 23 4 21.2 4 19C4 17.7 5.2 16.6 7.1 15.8L7.7 16.7C6.7 17.2 6 17.8 6 18.5C6 19.9 8.7 21 12 21z" begin="0.9s" dur="0.2s" fill="freeze" />
		</path>
	</g>
	<g fill="none" stroke="currentColor" stroke-width="2" stroke-linecap="round" stroke-linejoin="round">
		<path d="M12 18c0 0 -5.14 -6 -5.14 -9.86c0 -2.84 2.3 -5.14 5.14 -5.14c2.84 0 5.14 2.3 5.14 5.14c0 3.86 -5.14 9.86 -5.14 9.86Z" fill="currentColor" fill-opacity="0" stroke-dasharray="40" stroke-dashoffset="40">
			<animate attributeName="fill-opacity" values="0;0.3" begin="0.6s" dur="0.15s" fill="freeze" />
			<animate attributeName="stroke-dashoffset" values="40;0" dur="0.5s" fill="freeze" />
		</path>
	</g>
</svg>
