<svg xmlns="http://www.w3.org/2000/svg" width="24" height="24" viewBox="0 0 24 24">
	<g fill="currentColor">
		<path d="M7 16.82c-2.41 -1.25 -4 -3.39 -4 -5.82c0 -3.87 4.03 -7 9 -7c4.97 0 9 3.13 9 7c0 3.87 -4.03 7 -9 7c-1.85 0 -3.57 -0.43 -5 -1.18Z" stroke="currentColor" stroke-width="2" stroke-linecap="round" stroke-linejoin="round" fill-opacity="0" />
		<path d="M5 15.5c1 1 2.5 2 4 2.5c-1.78 1.63 -4.4 2.4 -6.18 2.33c1.55 -1.74 2.27 -3.08 2.18 -4.83Z" />
	</g>
	<path d="M12 8v2M12 14v0.01" stroke-dashoffset="4" fill="none" stroke="currentColor" stroke-linecap="round" stroke-linejoin="round" stroke-width="2" stroke-dasharray="4" />
</svg>
