<svg xmlns="http://www.w3.org/2000/svg" width="24" height="24" viewBox="0 0 24 24">
	<mask id="email-arrow-right-mask">
		<g fill="none" stroke="#fff" stroke-width="2" stroke-linecap="round" stroke-linejoin="round">
			<path d="M4 5h16c0.55 0 1 0.45 1 1v12c0 0.55 -0.45 1 -1 1h-16c-0.55 0 -1 -0.45 -1 -1v-12c0 -0.55 0.45 -1 1 -1Z" stroke-dasharray="64" stroke-dashoffset="64">
				<animate attributeName="stroke-dashoffset" values="64;0" dur="0.6s" fill="freeze" />
			</path>
			<path d="M3 6.5l9 5.5l9 -5.5" stroke-dasharray="24" stroke-dashoffset="24">
				<animate attributeName="stroke-dashoffset" values="24;0" begin="0.6s" dur="0.2s" fill="freeze" />
			</path>
			<path d="M12 11l-8 -5h16l-8 5Z" fill="#fff" fill-opacity="0" stroke="none">
				<animate attributeName="fill-opacity" values="0;0.3" begin="1.2s" dur="0.15s" fill="freeze" />
			</path>
			<path d="M19 13c3.31 0 6 2.69 6 6c0 3.31 -2.69 6 -6 6c-3.31 0 -6 -2.69 -6 -6c0 -3.31 2.69 -6 6 -6Z" fill="#000" fill-opacity="0" stroke="none">
				<set attributeName="fill-opacity" to="1" begin="0.8s" fill="freeze" />
			</path>
			<path d="M16 19h5" stroke-dasharray="6" stroke-dashoffset="6">
				<animate attributeName="stroke-dashoffset" values="6;0" begin="0.8s" dur="0.2s" fill="freeze" />
			</path>
			<path d="M21 19l-2 2M21 19l-2 -2" stroke-dasharray="4" stroke-dashoffset="4">
				<animate attributeName="stroke-dashoffset" values="4;0" begin="1s" dur="0.2s" fill="freeze" />
			</path>
		</g>
	</mask>
	<rect mask="url(#email-arrow-right-mask)" width="24" height="24" fill="currentColor" />
</svg>
