<svg xmlns="http://www.w3.org/2000/svg" width="24" height="24" viewBox="0 0 24 24">
	<g fill="currentColor">
		<path d="M12 8c0 0 0 0 0.76 -1c0.88 -1.16 2.18 -2 3.74 -2c2.49 0 4.5 2.01 4.5 4.5c0 0.93 -0.28 1.79 -0.76 2.5c-0.81 1.21 -8.24 9 -8.24 9c0 0 -7.43 -7.79 -8.24 -9c-0.48 -0.71 -0.76 -1.57 -0.76 -2.5c0 -2.49 2.01 -4.5 4.5 -4.5c1.56 0 2.87 0.84 3.74 2c0.76 1 0.76 1 0.76 1Z" fill-opacity="0">
			<animate attributeName="fill-opacity" values="0;0.3" begin="0.7s" dur="0.15s" fill="freeze" />
		</path>
	</g>
	<g fill="none" stroke="currentColor" stroke-width="2" stroke-linecap="round" stroke-linejoin="round">
		<path d="M12 8c0 0 0 0 -0.76 -1c-0.88 -1.16 -2.18 -2 -3.74 -2c-2.49 0 -4.5 2.01 -4.5 4.5c0 0.93 0.28 1.79 0.76 2.5c0.81 1.21 8.24 9 8.24 9M12 8c0 0 0 0 0.76 -1c0.88 -1.16 2.18 -2 3.74 -2c2.49 0 4.5 2.01 4.5 4.5c0 0.93 -0.28 1.79 -0.76 2.5c-0.81 1.21 -8.24 9 -8.24 9" stroke-dasharray="32" stroke-dashoffset="32">
			<animate attributeName="stroke-dashoffset" values="32;0" dur="0.7s" fill="freeze" />
		</path>
	</g>
</svg>
