<svg xmlns="http://www.w3.org/2000/svg" width="24" height="24" viewBox="0 0 24 24">
	<mask id="reddit-mask">
		<g fill="#fff">
			<path d="M12 9.42c4.42 0 8 2.37 8 5.29c0 2.92 -3.58 5.29 -8 5.29c-4.42 0 -8 -2.37 -8 -5.29c0 -2.92 3.58 -5.29 8 -5.29Z" fill-opacity="0" stroke="#fff" stroke-width="2" stroke-dasharray="48" stroke-dashoffset="48" stroke-linecap="round" stroke-linejoin="round">
				<animate attributeName="fill-opacity" values="0;1" begin="0.6s" dur="0.4s" fill="freeze" />
				<animate attributeName="stroke-dashoffset" values="48;0" dur="0.6s" fill="freeze" />
			</path>
			<circle cx="7.24" cy="11.97" r="2.24" opacity="0">
				<animate attributeName="cx" values="7.24;3.94" begin="1s" dur="0.2s" fill="freeze" />
				<set attributeName="opacity" to="1" begin="1s" fill="freeze" />
			</circle>
			<circle cx="16.76" cy="11.97" r="2.24" opacity="0">
				<animate attributeName="cx" values="16.76;20.06" begin="1s" dur="0.2s" fill="freeze" />
				<set attributeName="opacity" to="1" begin="1s" fill="freeze" />
			</circle>
			<circle cx="18.45" cy="4.23" r="1.61" opacity="0">
				<set attributeName="opacity" to="1" begin="2.6s" fill="freeze" />
			</circle>
		</g>
		<path d="M12 8.75l1.18 -5.64l5.03 1.07" fill="none" stroke="#fff" stroke-width="0.8" stroke-dasharray="12" stroke-dashoffset="12" stroke-linecap="round" stroke-linejoin="round">
			<animate attributeName="stroke-dashoffset" values="12;0" begin="2.4s" dur="0.2s" fill="freeze" />
		</path>
		<g fill="#000">
			<circle cx="8.45" cy="13.59" r="1.61" fill-opacity="0">
				<animate attributeName="fill-opacity" values="0;1" begin="1.2s" dur="0.4s" fill="freeze" />
			</circle>
			<circle cx="15.55" cy="13.59" r="1.61" fill-opacity="0">
				<animate attributeName="fill-opacity" values="0;1" begin="1.6s" dur="0.4s" fill="freeze" />
			</circle>
		</g>
		<path d="M8.47 17.52c0 0 0.94 1.06 3.53 1.06c2.58 0 3.53 -1.06 3.53 -1.06" fill="none" stroke="#000" stroke-width="0.8" stroke-dasharray="10" stroke-dashoffset="10" stroke-linecap="round" stroke-linejoin="round">
			<animate attributeName="stroke-dashoffset" values="10;0" begin="2s" dur="0.2s" fill="freeze" />
		</path>
	</mask>
	<rect mask="url(#reddit-mask)" width="24" height="24" fill="currentColor" />
</svg>
