<svg xmlns="http://www.w3.org/2000/svg" width="24" height="24" viewBox="0 0 24 24">
	<g fill="currentColor">
		<path d="M0.74 15.94c0 0.17 -0.13 0.26 -0.26 0.26c-0.13 0 -0.26 -0.09 -0.26 -0.26c-0.11 -0.63 -0.2 -1.21 -0.22 -1.79c-0.01 -0.57 0.04 -1.15 0.21 -1.78c0.02 -0.17 0.15 -0.25 0.28 -0.25c0.13 0 0.26 0.08 0.28 0.25c0.2 0.63 0.26 1.21 0.24 1.78c-0.02 0.57 -0.13 1.15 -0.27 1.79Z" transform="scale(1 0)" transform-origin="0.74 14.15">
			<animateTransform attributeName="transform" type="scale" values="1 0;1 1;1 0;1 1" dur="1s" fill="freeze" />
		</path>
		<path d="M2.43 16.87c-0.02 0.14 -0.14 0.21 -0.27 0.21c-0.13 0 -0.26 -0.07 -0.27 -0.21c-0.13 -0.94 -0.21 -1.83 -0.23 -2.71c-0.01 -0.88 0.05 -1.77 0.22 -2.7c0.02 -0.16 0.15 -0.24 0.28 -0.24c0.13 0 0.26 0.08 0.28 0.24c0.19 0.95 0.26 1.83 0.24 2.7c-0.02 0.88 -0.12 1.76 -0.25 2.71Z" transform="scale(1 0)" transform-origin="0.74 14.15">
			<animateTransform attributeName="transform" type="scale" values="1 0;1 1;1 0;1 1" begin="0.1s" dur="1s" fill="freeze" />
		</path>
		<path d="M4.06 17.12c0 0.17 -0.13 0.26 -0.26 0.26c-0.13 0 -0.26 -0.09 -0.26 -0.26c-0.1 -0.93 -0.2 -1.82 -0.22 -2.7c-0.02 -0.89 0.03 -1.77 0.23 -2.69c-0.01 -0.14 0.11 -0.24 0.25 -0.26c0.13 -0.01 0.27 0.06 0.29 0.26c0.21 0.91 0.27 1.78 0.24 2.66c-0.03 0.89 -0.14 1.78 -0.27 2.73Z" transform="scale(1 0)" transform-origin="0.74 14.15">
			<animateTransform attributeName="transform" type="scale" values="1 0;1 1;1 0;1 1" begin="0.2s" dur="1s" fill="freeze" />
		</path>
		<path d="M5.75 17.11c-0.01 0.17 -0.14 0.25 -0.27 0.25c-0.13 0 -0.26 -0.08 -0.27 -0.25c-0.15 -1.19 -0.23 -2.38 -0.23 -3.57c0 -1.19 0.08 -2.39 0.23 -3.57c0 -0.18 0.14 -0.27 0.27 -0.27c0.14 0 0.27 0.09 0.27 0.27c0.16 1.19 0.24 2.38 0.24 3.57c0.01 1.19 -0.07 2.38 -0.24 3.57Z" transform="scale(1 0)" transform-origin="0.74 14.15">
			<animateTransform attributeName="transform" type="scale" values="1 0;1 1;1 0;1 1" begin="0.3s" dur="1s" fill="freeze" />
		</path>
		<path d="M7.41 17.09c0 0.18 -0.13 0.27 -0.27 0.27c-0.13 0 -0.27 -0.09 -0.27 -0.27c-0.18 -1.34 -0.25 -2.64 -0.23 -3.95c0.01 -1.3 0.11 -2.6 0.24 -3.95c0 -0.18 0.13 -0.27 0.27 -0.27c0.13 0 0.27 0.09 0.27 0.27c0.13 1.36 0.23 2.66 0.25 3.95c0 1.29 -0.07 2.59 -0.26 3.95Z" transform="scale(1 0)" transform-origin="0.74 14.15">
			<animateTransform attributeName="transform" type="scale" values="1 0;1 1;1 0;1 1" begin="0.4s" dur="1s" fill="freeze" />
		</path>
		<path d="M9.07 17.1c-0.02 0.17 -0.15 0.25 -0.28 0.25c-0.13 0 -0.25 -0.08 -0.27 -0.25c-0.17 -1.31 -0.23 -2.57 -0.22 -3.82c0.01 -1.26 0.09 -2.51 0.22 -3.83c0 -0.19 0.14 -0.28 0.28 -0.28c0.14 0 0.28 0.09 0.28 0.28c0.14 1.33 0.23 2.58 0.24 3.82c0.01 1.25 -0.07 2.5 -0.25 3.83Z" transform="scale(1 0)" transform-origin="0.74 14.15">
			<animateTransform attributeName="transform" type="scale" values="1 0;1 1;1 0;1 1" begin="0.5s" dur="1s" fill="freeze" />
		</path>
		<path d="M10.72 17.09c0 0.18 -0.13 0.26 -0.26 0.26c-0.13 0 -0.26 -0.09 -0.26 -0.26c-0.21 -1.47 -0.26 -2.9 -0.24 -4.33c0.02 -1.43 0.12 -2.86 0.23 -4.34c0 -0.18 0.13 -0.26 0.26 -0.26c0.13 0 0.26 0.09 0.26 0.26c0.12 1.49 0.23 2.91 0.25 4.34c0.04 1.42 -0.03 2.85 -0.24 4.33Z" transform="scale(1 0)" transform-origin="0.74 14.15">
			<animateTransform attributeName="transform" type="scale" values="1 0;1 1;1 0;1 1" begin="0.6s" dur="1s" fill="freeze" />
		</path>
	</g>
	<path d="M12.8 16.28c0 -2.76 0 -5.52 0 -8.27c0.14 -0.09 0.32 -0.13 0.47 -0.18c0.41 -0.1 0.84 -0.14 1.26 -0.15c0.58 0 1.16 0.12 1.7 0.35c0.38 0.16 0.73 0.37 1.06 0.63c0.74 0.59 1.28 1.43 1.51 2.36c0.09 0.41 0.18 0.82 0.27 1.23c0.33 -0.1 0.66 -0.19 1 -0.29c0.24 -0.08 0.5 -0.11 0.76 -0.1c0.55 0.02 1.09 0.26 1.48 0.66c0.49 0.5 0.72 1.24 0.6 1.93c-0.07 0.39 -0.27 0.76 -0.54 1.05c-0.44 0.49 -1.09 0.77 -1.74 0.78c-2.61 0 -5.22 0 -7.83 0Z" fill="currentColor" fill-opacity="0" stroke="currentColor" stroke-width="2" stroke-dasharray="36" stroke-dashoffset="36" stroke-linecap="round" stroke-linejoin="round">
		<animate attributeName="fill-opacity" values="0;1" begin="1.4s" dur="0.5s" fill="freeze" />
		<animate attributeName="stroke-dashoffset" values="36;0" begin="0.8s" dur="0.5s" fill="freeze" />
	</path>
</svg>
