<svg xmlns="http://www.w3.org/2000/svg" width="24" height="24" viewBox="0 0 24 24">
	<mask id="spotify-mask">
		<g fill="none" stroke="#fff" stroke-width="2" stroke-linecap="round" stroke-linejoin="round">
			<path d="M2 12c0 -5.52 4.48 -10 10 -10c5.52 0 10 4.48 10 10c0 5.52 -4.48 10 -10 10c-5.52 0 -10 -4.48 -10 -10Z" fill="#fff" fill-opacity="0" stroke-width="1.5" stroke-dasharray="64" stroke-dashoffset="64">
				<animate attributeName="fill-opacity" values="0;1" begin="0.6s" dur="0.5s" fill="freeze" />
				<animate attributeName="stroke-dashoffset" values="64;0" dur="0.6s" fill="freeze" />
			</path>
			<path d="M8.63 15.31c2.18 -0.58 4.49 -0.34 6.5 0.69" stroke="#000" stroke-width="1.5" stroke-dasharray="8" stroke-dashoffset="8">
				<animate attributeName="stroke-dashoffset" values="8;0" begin="1.1s" dur="0.2s" fill="freeze" />
			</path>
			<path d="M7.5 12.07c1.1 -0.37 2.28 -0.57 3.5 -0.57c2.02 0 3.92 0.55 5.55 1.5" stroke="#000" stroke-width="1.5" stroke-dasharray="12" stroke-dashoffset="12">
				<animate attributeName="stroke-dashoffset" values="12;0" begin="1.3s" dur="0.2s" fill="freeze" />
			</path>
			<path d="M7 8.91c1.38 -0.59 2.9 -0.91 4.5 -0.91c2.41 0 4.65 0.74 6.5 2" stroke="#000" stroke-width="1.5" stroke-dasharray="14" stroke-dashoffset="14">
				<animate attributeName="stroke-dashoffset" values="14;0" begin="1.5s" dur="0.2s" fill="freeze" />
			</path>
		</g>
	</mask>
	<rect mask="url(#spotify-mask)" width="24" height="24" fill="currentColor" />
</svg>
