<svg xmlns="http://www.w3.org/2000/svg" width="24" height="24" viewBox="0 0 24 24">
	<mask id="tiktok-mask">
		<g fill="none" stroke="#fff" stroke-width="2" stroke-linecap="round" stroke-linejoin="round">
			<path d="M16.6 5.82c-0.68 -0.78 -1.06 -1.78 -1.06 -2.82h-3.09v12.4c-0.02 0.67 -0.31 1.31 -0.79 1.77c-0.48 0.47 -1.13 0.73 -1.8 0.73c-1.42 0 -2.6 -1.16 -2.6 -2.6c0 -1.72 1.66 -3.01 3.37 -2.48v-3.16c-3.45 -0.46 -6.47 2.22 -6.47 5.64c0 3.33 2.76 5.7 5.69 5.7c3.14 0 5.69 -2.55 5.69 -5.7v-6.29c1.25 0.9 2.76 1.38 4.3 1.38v-3.09c0 0 -1.88 0.09 -3.24 -1.48Z" fill="#fff" stroke="none" />
			<path d="M11 11h-1c-2.21 0 -4.5 1.79 -4.5 4c0 2.21 1.5 4.5 4.5 4.5c2.21 0 4 -2.29 4 -4.5v-12.5" stroke="#000" stroke-dasharray="36" stroke-dashoffset="72" stroke-width="4">
				<animate attributeName="stroke-dashoffset" values="72;36" dur="0.6s" fill="freeze" />
			</path>
			<path d="M18 2.5v8" stroke="#000" stroke-width="4" stroke-dasharray="10" stroke-dashoffset="20">
				<animate attributeName="stroke-dashoffset" values="20;10" begin="0.5s" dur="0.1s" fill="freeze" />
			</path>
		</g>
	</mask>
	<rect mask="url(#tiktok-mask)" width="24" height="24" fill="currentColor" />
</svg>
