<svg xmlns="http://www.w3.org/2000/svg" width="24" height="24" viewBox="0 0 24 24">
	<defs>
		<mask id="SVGk1WTecOX">
			<path d="M12 11l-8 -5h16l-8 5Z" fill="#fff" fill-opacity="0.646" />
			<path d="M4 5h16c0.55 0 1 0.45 1 1v12c0 0.55 -0.45 1 -1 1h-16c-0.55 0 -1 -0.45 -1 -1v-12c0 -0.55 0.45 -1 1 -1ZM3 6.5l9 5.5l9 -5.5" fill="none" stroke="#fff" stroke-linecap="round" stroke-linejoin="round" stroke-width="2" />
		</mask>
	</defs>
	<path d="M0 0h24v24H0z" fill="currentColor" mask="url(#SVGk1WTecOX)" />
	<g fill="none" stroke="currentColor" stroke-linecap="round" stroke-linejoin="round" stroke-width="2">
		<path d="M16 19h5" stroke-dasharray="8" stroke-dashoffset="8" />
		<path d="M21 19l-2 2M21 19l-2 -2" stroke-dasharray="6" stroke-dashoffset="6" />
	</g>
</svg>
