<svg xmlns="http://www.w3.org/2000/svg" width="24" height="24" viewBox="0 0 24 24">
	<defs>
		<mask id="SVGVczKNdjx">
			<g stroke-linecap="round" stroke-linejoin="round" fill-opacity="0">
				<path d="M10 20.5c0 0 -4.04 -4.54 -4.04 -7.56c0 -2.02 1.76 -4.04 4.04 -4.04c2.27 0 4.04 2.02 4.04 4.04c0 3.02 -4.04 7.56 -4.04 7.56Z" stroke="#fff" fill="#fff" stroke-width="2" />
				<path d="M14 20.5c0 0 -4.04 -4.54 -4.04 -7.56c0 -2.02 1.76 -4.04 4.04 -4.04c2.27 0 4.04 2.02 4.04 4.04c0 3.02 -4.04 7.56 -4.04 7.56Z" stroke="#000" fill="#000" stroke-width="4" />
			</g>
		</mask>
	</defs>
	<g fill="currentColor">
		<path d="M0 0h24v24H0z" mask="url(#SVGVczKNdjx)" />
		<path d="M14 20.5c0 0 -4.04 -4.54 -4.04 -7.56c0 -2.02 1.76 -4.04 4.04 -4.04c2.27 0 4.04 2.02 4.04 4.04c0 3.02 -4.04 7.56 -4.04 7.56Z" stroke="currentColor" stroke-width="2" stroke-linecap="round" stroke-linejoin="round" fill-opacity="0" />
		<circle cx="14" cy="9" />
	</g>
</svg>
