<svg xmlns="http://www.w3.org/2000/svg" width="24" height="24" viewBox="0 0 24 24">
	<defs>
		<mask id="SVGNw4kPbba">
			<g stroke-linecap="round" stroke-linejoin="round" fill-opacity="0">
				<path d="M10 20.5c0 0 -5.64 -6.14 -5.64 -10.24c0 -2.82 2.43 -5.64 5.64 -5.64c3.21 0 5.64 2.82 5.64 5.64c0 4.1 -5.64 10.24 -5.64 10.24Z" stroke="#fff" fill="#fff" stroke-width="2" />
				<path d="M14 20.5c0 0 -5.64 -6.14 -5.64 -10.24c0 -2.82 2.43 -5.64 5.64 -5.64c3.21 0 5.64 2.82 5.64 5.64c0 4.1 -5.64 10.24 -5.64 10.24Z" stroke="#000" fill="#000" stroke-width="4" />
			</g>
		</mask>
	</defs>
	<g fill="currentColor">
		<path d="M0 0h24v24H0z" mask="url(#SVGNw4kPbba)" />
		<path d="M14 20.5c0 0 -5.64 -6.14 -5.64 -10.24c0 -2.82 2.43 -5.64 5.64 -5.64c3.21 0 5.64 2.82 5.64 5.64c0 4.1 -5.64 10.24 -5.64 10.24Z" stroke="currentColor" stroke-width="2" stroke-linecap="round" stroke-linejoin="round" fill-opacity="0" />
		<circle cx="14" cy="9" />
	</g>
</svg>
