<svg xmlns="http://www.w3.org/2000/svg" width="24" height="24" viewBox="0 0 24 24">
	<defs>
		<mask id="SVGQAPeet7R">
			<g stroke-linecap="round" stroke-linejoin="round" fill-opacity="0">
				<path d="M10 20.5c0 0 -5.46 -5.96 -5.46 -9.94c0 -2.73 2.36 -5.46 5.46 -5.46c3.1 0 5.46 2.73 5.46 5.46c0 3.98 -5.46 9.94 -5.46 9.94Z" stroke="#fff" fill="#fff" stroke-width="2" />
				<path d="M14 20.5c0 0 -5.46 -5.96 -5.46 -9.94c0 -2.73 2.36 -5.46 5.46 -5.46c3.1 0 5.46 2.73 5.46 5.46c0 3.98 -5.46 9.94 -5.46 9.94Z" stroke="#000" fill="#000" stroke-width="4" />
			</g>
		</mask>
	</defs>
	<g fill="currentColor">
		<path d="M0 0h24v24H0z" mask="url(#SVGQAPeet7R)" />
		<path d="M14 20.5c0 0 -5.46 -5.96 -5.46 -9.94c0 -2.73 2.36 -5.46 5.46 -5.46c3.1 0 5.46 2.73 5.46 5.46c0 3.98 -5.46 9.94 -5.46 9.94Z" stroke="currentColor" stroke-width="2" stroke-linecap="round" stroke-linejoin="round" fill-opacity="0" />
		<circle cx="14" cy="9" />
	</g>
</svg>
