<svg xmlns="http://www.w3.org/2000/svg" width="24" height="24" viewBox="0 0 24 24">
	<defs>
		<mask id="SVGWKm0ldgk">
			<g stroke-linecap="round" stroke-linejoin="round" fill-opacity="0">
				<path d="M10 20.5c0 0 -6.54 -7.04 -6.54 -11.73c0 -3.27 2.81 -6.54 6.54 -6.54c3.73 0 6.54 3.27 6.54 6.54c0 4.69 -6.54 11.73 -6.54 11.73Z" stroke="#fff" fill="#fff" stroke-width="2" />
				<path d="M14 20.5c0 0 -6.54 -7.04 -6.54 -11.73c0 -3.27 2.81 -6.54 6.54 -6.54c3.73 0 6.54 3.27 6.54 6.54c0 4.69 -6.54 11.73 -6.54 11.73Z" stroke="#000" fill="#000" stroke-width="4" />
			</g>
		</mask>
	</defs>
	<g fill="currentColor">
		<path d="M0 0h24v24H0z" mask="url(#SVGWKm0ldgk)" />
		<path d="M14 20.5c0 0 -6.54 -7.04 -6.54 -11.73c0 -3.27 2.81 -6.54 6.54 -6.54c3.73 0 6.54 3.27 6.54 6.54c0 4.69 -6.54 11.73 -6.54 11.73Z" stroke="currentColor" stroke-width="2" stroke-linecap="round" stroke-linejoin="round" fill-opacity="0" />
		<circle cx="14" cy="9" />
	</g>
</svg>
