<svg xmlns="http://www.w3.org/2000/svg" width="24" height="24" viewBox="0 0 24 24">
	<defs>
		<mask id="SVGCYXy2cRJ">
			<g stroke-linecap="round" stroke-linejoin="round" fill-opacity="0">
				<path d="M10 20.5c0 0 -6.76 -7.38 -6.76 -12.26c0 -3.46 2.93 -6.76 6.76 -6.76c3.84 0 6.76 3.31 6.76 6.76c0 4.88 -6.76 12.26 -6.76 12.26Z" stroke="#fff" fill="#fff" stroke-width="2" />
				<path d="M14 20.5c0 0 -6.76 -7.38 -6.76 -12.26c0 -3.46 2.93 -6.76 6.76 -6.76c3.84 0 6.76 3.31 6.76 6.76c0 4.88 -6.76 12.26 -6.76 12.26Z" stroke="#000" fill="#000" stroke-width="4" />
			</g>
		</mask>
	</defs>
	<g fill="currentColor">
		<path d="M0 0h24v24H0z" mask="url(#SVGCYXy2cRJ)" />
		<path d="M14 20.5c0 0 -6.76 -7.38 -6.76 -12.26c0 -3.46 2.93 -6.76 6.76 -6.76c3.84 0 6.76 3.31 6.76 6.76c0 4.88 -6.76 12.26 -6.76 12.26Z" stroke="currentColor" stroke-width="2" stroke-linecap="round" stroke-linejoin="round" fill-opacity="0" />
		<circle cx="14" cy="9" />
	</g>
</svg>
