<svg xmlns="http://www.w3.org/2000/svg" width="24" height="24" viewBox="0 0 24 24">
	<defs>
		<mask id="SVGNByJIdyv">
			<g stroke-linecap="round" stroke-linejoin="round" fill-opacity="0">
				<path d="M10 20.5c0 0 -6.69 -7.35 -6.69 -12.19c0 -3.44 2.91 -6.69 6.69 -6.69c3.79 0 6.69 3.25 6.69 6.69c0 4.85 -6.69 12.19 -6.69 12.19Z" stroke="#fff" fill="#fff" stroke-width="2" />
				<path d="M14 20.5c0 0 -6.69 -7.35 -6.69 -12.19c0 -3.44 2.91 -6.69 6.69 -6.69c3.79 0 6.69 3.25 6.69 6.69c0 4.85 -6.69 12.19 -6.69 12.19Z" stroke="#000" fill="#000" stroke-width="4" />
			</g>
		</mask>
	</defs>
	<g fill="currentColor">
		<path d="M0 0h24v24H0z" mask="url(#SVGNByJIdyv)" />
		<path d="M14 20.5c0 0 -6.69 -7.35 -6.69 -12.19c0 -3.44 2.91 -6.69 6.69 -6.69c3.79 0 6.69 3.25 6.69 6.69c0 4.85 -6.69 12.19 -6.69 12.19Z" stroke="currentColor" stroke-width="2" stroke-linecap="round" stroke-linejoin="round" fill-opacity="0" />
		<circle cx="14" cy="9" />
	</g>
</svg>
