<svg xmlns="http://www.w3.org/2000/svg" width="24" height="24" viewBox="0 0 24 24">
	<defs>
		<mask id="SVGXUpGxHXi">
			<g stroke-linecap="round" stroke-linejoin="round" fill-opacity="0">
				<path d="M10 20.5c0 0 -6.71 -7.21 -6.71 -12.02c0 -3.36 2.88 -6.71 6.71 -6.71c3.83 0 6.71 3.36 6.71 6.71c0 4.81 -6.71 12.02 -6.71 12.02Z" stroke="#fff" fill="#fff" stroke-width="2" />
				<path d="M14 20.5c0 0 -6.71 -7.21 -6.71 -12.02c0 -3.36 2.88 -6.71 6.71 -6.71c3.83 0 6.71 3.36 6.71 6.71c0 4.81 -6.71 12.02 -6.71 12.02Z" stroke="#000" fill="#000" stroke-width="4" />
			</g>
		</mask>
	</defs>
	<g fill="currentColor">
		<path d="M0 0h24v24H0z" mask="url(#SVGXUpGxHXi)" />
		<path d="M14 20.5c0 0 -6.71 -7.21 -6.71 -12.02c0 -3.36 2.88 -6.71 6.71 -6.71c3.83 0 6.71 3.36 6.71 6.71c0 4.81 -6.71 12.02 -6.71 12.02Z" stroke="currentColor" stroke-width="2" stroke-linecap="round" stroke-linejoin="round" fill-opacity="0" />
		<circle cx="14" cy="9" />
	</g>
</svg>
