<svg xmlns="http://www.w3.org/2000/svg" width="24" height="24" viewBox="0 0 24 24">
	<defs>
		<mask id="SVGa9Mc5dTI">
			<g stroke-linecap="round" stroke-linejoin="round" fill-opacity="0">
				<path d="M10 20.5c0 0 -6.97 -7.49 -6.97 -12.47c0 -3.49 2.99 -6.97 6.97 -6.97c3.98 0 6.97 3.48 6.97 6.97c0 4.99 -6.97 12.47 -6.97 12.47Z" stroke="#fff" fill="#fff" stroke-width="2" />
				<path d="M14 20.5c0 0 -6.97 -7.49 -6.97 -12.47c0 -3.49 2.99 -6.97 6.97 -6.97c3.98 0 6.97 3.48 6.97 6.97c0 4.99 -6.97 12.47 -6.97 12.47Z" stroke="#000" fill="#000" stroke-width="4" />
			</g>
		</mask>
	</defs>
	<g fill="currentColor">
		<path d="M0 0h24v24H0z" mask="url(#SVGa9Mc5dTI)" />
		<path d="M14 20.5c0 0 -6.97 -7.49 -6.97 -12.47c0 -3.49 2.99 -6.97 6.97 -6.97c3.98 0 6.97 3.48 6.97 6.97c0 4.99 -6.97 12.47 -6.97 12.47Z" stroke="currentColor" stroke-width="2" stroke-linecap="round" stroke-linejoin="round" fill-opacity="0" />
		<circle cx="14" cy="9" />
	</g>
</svg>
