<svg xmlns="http://www.w3.org/2000/svg" width="24" height="24" viewBox="0 0 24 24">
	<defs>
		<mask id="SVGF4J8CbPQ">
			<circle cx="7.5" cy="7.5" r="5.5" fill="#fff" />
			<circle cx="11" cy="7.5" r="6.5" fill="#000" />
		</mask>
		<mask id="SVGU5Fk5hQt">
			<g fill="#fff">
				<circle cx="12" cy="15" r="5.5" transform="rotate(-45 12 12)" />
				<path d="M13.09 17.34h2.06l-1.03 2.03Z" transform="rotate(-130.75 14.12 14.12)" />
				<path d="M13.09 17.34h2.06l-1.03 2.03Z" transform="rotate(-80.75 14.12 14.12)" />
				<path d="M13.09 17.34h2.06l-1.03 2.03Z" transform="rotate(-30.75 14.12 14.12)" />
				<path d="M13.09 17.34h2.06l-1.03 2.03Z" transform="rotate(19.25 14.12 14.12)" />
			</g>
			<path d="M-4.97 12l18.38 -18.38l10.61 10.61l-18.38 18.38Z" fill="#000" />
		</mask>
	</defs>
	<g fill="currentColor">
		<path d="M0 0h24v24H0z" mask="url(#SVGF4J8CbPQ)" />
		<path d="M0 0h24v24H0z" mask="url(#SVGU5Fk5hQt)" />
	</g>
	<path d="M23.14 12h-22" stroke="currentColor" fill="none" stroke-width="2" stroke-linecap="round" stroke-linejoin="round" transform="rotate(-45 12 12)" />
</svg>
