<svg xmlns="http://www.w3.org/2000/svg" width="24" height="24" viewBox="0 0 24 24">
	<defs>
		<mask id="SVGF4J8CbPQ">
			<circle cx="7.5" cy="7.5" r="5.5" fill="#fff" />
			<circle cx="11" cy="7.5" r="6.5" fill="#000" />
		</mask>
		<mask id="SVGBTN2GkVI">
			<g fill="#fff">
				<circle cx="12" cy="15" r="5.5" transform="rotate(-45 12 12)" />
				<path d="M12.76 19.67h2.73l-1.36 2.36Z" transform="rotate(-128.083 14.12 14.12)" />
				<path d="M12.76 19.67h2.73l-1.36 2.36Z" transform="rotate(-78.083 14.12 14.12)" />
				<path d="M12.76 19.67h2.73l-1.36 2.36Z" transform="rotate(-28.083 14.12 14.12)" />
				<path d="M12.76 19.67h2.73l-1.36 2.36Z" transform="rotate(21.917 14.12 14.12)" />
			</g>
			<path d="M-4.97 12l18.38 -18.38l10.61 10.61l-18.38 18.38Z" fill="#000" />
		</mask>
	</defs>
	<g fill="currentColor">
		<path d="M0 0h24v24H0z" mask="url(#SVGF4J8CbPQ)" />
		<path d="M0 0h24v24H0z" mask="url(#SVGBTN2GkVI)" />
	</g>
	<path d="M23.35 12h-22" stroke="currentColor" fill="none" stroke-width="2" stroke-linecap="round" stroke-linejoin="round" transform="rotate(-45 12 12)" />
</svg>
