<svg xmlns="http://www.w3.org/2000/svg" width="24" height="24" viewBox="0 0 24 24">
	<defs>
		<mask id="SVG2UTXnCQu">
			<g stroke-linecap="round" stroke-linejoin="round" fill-opacity="0">
				<path d="M10 20.5c0 0 -2.07 -2.57 -2.07 -4.29c0 -1.04 0.95 -2.07 2.07 -2.07c1.13 0 2.07 1.04 2.07 2.07c0 1.71 -2.07 4.29 -2.07 4.29Z" stroke="#fff" fill="#fff" stroke-width="2" />
				<path d="M14 20.5c0 0 -2.07 -2.57 -2.07 -4.29c0 -1.04 0.95 -2.07 2.07 -2.07c1.13 0 2.07 1.04 2.07 2.07c0 1.71 -2.07 4.29 -2.07 4.29Z" stroke="#000" fill="#000" stroke-width="4" />
			</g>
		</mask>
	</defs>
	<g fill="currentColor">
		<path d="M0 0h24v24H0z" mask="url(#SVG2UTXnCQu)" />
		<path d="M14 20.5c0 0 -2.07 -2.57 -2.07 -4.29c0 -1.04 0.95 -2.07 2.07 -2.07c1.13 0 2.07 1.04 2.07 2.07c0 1.71 -2.07 4.29 -2.07 4.29Z" stroke="currentColor" stroke-width="2" stroke-linecap="round" stroke-linejoin="round" fill-opacity="0" />
		<circle cx="14" cy="9" />
	</g>
</svg>
