<svg xmlns="http://www.w3.org/2000/svg" width="24" height="24" viewBox="0 0 24 24">
	<defs>
		<mask id="SVG1eYWZbEw">
			<g stroke-linecap="round" stroke-linejoin="round" fill-opacity="0">
				<path d="M10 20.5c0 0 -2.79 -3.29 -2.79 -5.48c0 -1.39 1.24 -2.79 2.79 -2.79c1.54 0 2.79 1.39 2.79 2.79c0 2.19 -2.79 5.48 -2.79 5.48Z" stroke="#fff" fill="#fff" stroke-width="2" />
				<path d="M14 20.5c0 0 -2.79 -3.29 -2.79 -5.48c0 -1.39 1.24 -2.79 2.79 -2.79c1.54 0 2.79 1.39 2.79 2.79c0 2.19 -2.79 5.48 -2.79 5.48Z" stroke="#000" fill="#000" stroke-width="4" />
			</g>
		</mask>
	</defs>
	<g fill="currentColor">
		<path d="M0 0h24v24H0z" mask="url(#SVG1eYWZbEw)" />
		<path d="M14 20.5c0 0 -2.79 -3.29 -2.79 -5.48c0 -1.39 1.24 -2.79 2.79 -2.79c1.54 0 2.79 1.39 2.79 2.79c0 2.19 -2.79 5.48 -2.79 5.48Z" stroke="currentColor" stroke-width="2" stroke-linecap="round" stroke-linejoin="round" fill-opacity="0" />
		<circle cx="14" cy="9" />
	</g>
</svg>
