<svg xmlns="http://www.w3.org/2000/svg" width="24" height="24" viewBox="0 0 24 24">
	<defs>
		<mask id="SVGzrqnAdQW">
			<g stroke-linecap="round" stroke-linejoin="round" fill-opacity="0">
				<path d="M10 20.5c0 0 -3.5 -4 -3.5 -6.67c0 -1.75 1.54 -3.5 3.5 -3.5c1.96 0 3.5 1.75 3.5 3.5c0 2.67 -3.5 6.67 -3.5 6.67Z" stroke="#fff" fill="#fff" stroke-width="2" />
				<path d="M14 20.5c0 0 -3.5 -4 -3.5 -6.67c0 -1.75 1.54 -3.5 3.5 -3.5c1.96 0 3.5 1.75 3.5 3.5c0 2.67 -3.5 6.67 -3.5 6.67Z" stroke="#000" fill="#000" stroke-width="4" />
			</g>
		</mask>
	</defs>
	<g fill="currentColor">
		<path d="M0 0h24v24H0z" mask="url(#SVGzrqnAdQW)" />
		<path d="M14 20.5c0 0 -3.5 -4 -3.5 -6.67c0 -1.75 1.54 -3.5 3.5 -3.5c1.96 0 3.5 1.75 3.5 3.5c0 2.67 -3.5 6.67 -3.5 6.67Z" stroke="currentColor" stroke-width="2" stroke-linecap="round" stroke-linejoin="round" fill-opacity="0" />
		<circle cx="14" cy="9" />
	</g>
</svg>
