<svg xmlns="http://www.w3.org/2000/svg" width="24" height="24" viewBox="0 0 24 24">
	<defs>
		<mask id="SVGktIw0drz">
			<g stroke-linecap="round" stroke-linejoin="round" fill-opacity="0">
				<path d="M10 20.5c0 0 -6.14 -7.07 -6.14 -11.64c0 -3.34 2.73 -6.14 6.14 -6.14c3.41 0 6.14 2.8 6.14 6.14c0 4.57 -6.14 11.64 -6.14 11.64Z" stroke="#fff" fill="#fff" stroke-width="2" />
				<path d="M14 20.5c0 0 -6.14 -7.07 -6.14 -11.64c0 -3.34 2.73 -6.14 6.14 -6.14c3.41 0 6.14 2.8 6.14 6.14c0 4.57 -6.14 11.64 -6.14 11.64Z" stroke="#000" fill="#000" stroke-width="4" />
			</g>
		</mask>
	</defs>
	<g fill="currentColor">
		<path d="M0 0h24v24H0z" mask="url(#SVGktIw0drz)" />
		<path d="M14 20.5c0 0 -6.14 -7.07 -6.14 -11.64c0 -3.34 2.73 -6.14 6.14 -6.14c3.41 0 6.14 2.8 6.14 6.14c0 4.57 -6.14 11.64 -6.14 11.64Z" stroke="currentColor" stroke-width="2" stroke-linecap="round" stroke-linejoin="round" fill-opacity="0" />
		<circle cx="14" cy="9" />
	</g>
</svg>
