<svg xmlns="http://www.w3.org/2000/svg" width="24" height="24" viewBox="0 0 24 24">
	<defs>
		<mask id="SVG9L8rSc7E">
			<g stroke-linecap="round" stroke-linejoin="round" fill-opacity="0">
				<path d="M10 20.5c0 0 -6.21 -7.1 -6.21 -11.71c0 -3.35 2.75 -6.21 6.21 -6.21c3.45 0 6.21 2.86 6.21 6.21c0 4.6 -6.21 11.71 -6.21 11.71Z" stroke="#fff" fill="#fff" stroke-width="2" />
				<path d="M14 20.5c0 0 -6.21 -7.1 -6.21 -11.71c0 -3.35 2.75 -6.21 6.21 -6.21c3.45 0 6.21 2.86 6.21 6.21c0 4.6 -6.21 11.71 -6.21 11.71Z" stroke="#000" fill="#000" stroke-width="4" />
			</g>
		</mask>
	</defs>
	<g fill="currentColor">
		<path d="M0 0h24v24H0z" mask="url(#SVG9L8rSc7E)" />
		<path d="M14 20.5c0 0 -6.21 -7.1 -6.21 -11.71c0 -3.35 2.75 -6.21 6.21 -6.21c3.45 0 6.21 2.86 6.21 6.21c0 4.6 -6.21 11.71 -6.21 11.71Z" stroke="currentColor" stroke-width="2" stroke-linecap="round" stroke-linejoin="round" fill-opacity="0" />
		<circle cx="14" cy="9" />
	</g>
</svg>
