<svg xmlns="http://www.w3.org/2000/svg" width="24" height="24" viewBox="0 0 24 24">
	<defs>
		<mask id="SVG0zz4ncCw">
			<g stroke-linecap="round" stroke-linejoin="round" fill-opacity="0">
				<path d="M10 20.5c0 0 -6.35 -7.17 -6.35 -11.85c0 -3.38 2.8 -6.35 6.35 -6.35c3.55 0 6.35 2.97 6.35 6.35c0 4.67 -6.35 11.85 -6.35 11.85Z" stroke="#fff" fill="#fff" stroke-width="2" />
				<path d="M14 20.5c0 0 -6.35 -7.17 -6.35 -11.85c0 -3.38 2.8 -6.35 6.35 -6.35c3.55 0 6.35 2.97 6.35 6.35c0 4.67 -6.35 11.85 -6.35 11.85Z" stroke="#000" fill="#000" stroke-width="4" />
			</g>
		</mask>
	</defs>
	<g fill="currentColor">
		<path d="M0 0h24v24H0z" mask="url(#SVG0zz4ncCw)" />
		<path d="M14 20.5c0 0 -6.35 -7.17 -6.35 -11.85c0 -3.38 2.8 -6.35 6.35 -6.35c3.55 0 6.35 2.97 6.35 6.35c0 4.67 -6.35 11.85 -6.35 11.85Z" stroke="currentColor" stroke-width="2" stroke-linecap="round" stroke-linejoin="round" fill-opacity="0" />
		<circle cx="14" cy="9" />
	</g>
</svg>
