<svg xmlns="http://www.w3.org/2000/svg" width="24" height="24" viewBox="0 0 24 24">
	<defs>
		<mask id="SVGIdvf0dKM">
			<path d="M12 2.58c5.2 0 9.42 4.22 9.42 9.42c0 5.2 -4.22 9.42 -9.42 9.42c-5.2 0 -9.42 -4.22 -9.42 -9.42c0 -5.2 4.22 -9.42 9.42 -9.42Z" fill="#fff" />
			<path d="M18.58 -4c5.2 0 9.42 4.22 9.42 9.42c0 5.2 -4.22 9.42 -9.42 9.42c-5.2 0 -9.42 -4.22 -9.42 -9.42c0 -5.2 4.22 -9.42 9.42 -9.42ZM12 4.58c4.1 0 7.42 3.32 7.42 7.42c0 4.1 -3.32 7.42 -7.42 7.42c-4.1 0 -7.42 -3.32 -7.42 -7.42c0 -4.1 3.32 -7.42 7.42 -7.42Z" fill="#000" />
		</mask>
		<mask id="SVGraZXOddP">
			<path d="M18.58 -6c6.3 0 11.42 5.12 11.42 11.42c0 6.3 -5.12 11.42 -11.42 11.42c-6.3 0 -11.42 -5.12 -11.42 -11.42c0 -6.3 5.12 -11.42 11.42 -11.42Z" fill="#fff" />
			<path d="M18.58 -4c5.2 0 9.42 4.22 9.42 9.42c0 5.2 -4.22 9.42 -9.42 9.42c-5.2 0 -9.42 -4.22 -9.42 -9.42c0 -5.2 4.22 -9.42 9.42 -9.42ZM2.58 12v-20h29.42v29.42h-20c5.2 0 9.42 -4.22 9.42 -9.42c0 -5.2 -4.22 -9.42 -9.42 -9.42c-5.2 0 -9.42 4.22 -9.42 9.42Z" fill="#000" />
		</mask>
	</defs>
	<g fill="currentColor">
		<path d="M0 0h24v24H0z" mask="url(#SVGIdvf0dKM)" />
		<path d="M0 0h24v24H0z" mask="url(#SVGraZXOddP)" />
	</g>
</svg>
