<svg xmlns="http://www.w3.org/2000/svg" width="24" height="24" viewBox="0 0 24 24">
	<defs>
		<mask id="SVGDQTGhbTf">
			<path d="M12 2.08c5.47 0 9.92 4.44 9.92 9.92c0 5.47 -4.44 9.92 -9.92 9.92c-5.47 0 -9.92 -4.44 -9.92 -9.92c0 -5.47 4.44 -9.92 9.92 -9.92Z" fill="#fff" />
			<path d="M18.08 -4c5.47 0 9.92 4.44 9.92 9.92c0 5.47 -4.44 9.92 -9.92 9.92c-5.47 0 -9.92 -4.44 -9.92 -9.92c0 -5.47 4.44 -9.92 9.92 -9.92ZM12 4.08c4.37 0 7.92 3.54 7.92 7.92c0 4.37 -3.54 7.92 -7.92 7.92c-4.37 0 -7.92 -3.54 -7.92 -7.92c0 -4.37 3.54 -7.92 7.92 -7.92Z" fill="#000" />
		</mask>
		<mask id="SVGKAkcRpfO">
			<path d="M18.08 -6c6.57 0 11.92 5.34 11.92 11.92c0 6.57 -5.34 11.92 -11.92 11.92c-6.57 0 -11.92 -5.34 -11.92 -11.92c0 -6.57 5.34 -11.92 11.92 -11.92Z" fill="#fff" />
			<path d="M18.08 -4c5.47 0 9.92 4.44 9.92 9.92c0 5.47 -4.44 9.92 -9.92 9.92c-5.47 0 -9.92 -4.44 -9.92 -9.92c0 -5.47 4.44 -9.92 9.92 -9.92ZM2.08 12v-20h29.92v29.92h-20c5.47 0 9.92 -4.44 9.92 -9.92c0 -5.47 -4.44 -9.92 -9.92 -9.92c-5.47 0 -9.92 4.44 -9.92 9.92Z" fill="#000" />
		</mask>
	</defs>
	<g fill="currentColor">
		<path d="M0 0h24v24H0z" mask="url(#SVGDQTGhbTf)" />
		<path d="M0 0h24v24H0z" mask="url(#SVGKAkcRpfO)" />
	</g>
</svg>
