<svg xmlns="http://www.w3.org/2000/svg" width="24" height="24" viewBox="0 0 24 24">
	<defs>
		<mask id="SVG3IS2tcPq">
			<path d="M12 3.17c4.88 0 8.83 3.96 8.83 8.83c0 4.88 -3.96 8.83 -8.83 8.83c-4.88 0 -8.83 -3.96 -8.83 -8.83c0 -4.88 3.96 -8.83 8.83 -8.83Z" fill="#fff" />
			<path d="M19.17 -4c4.88 0 8.83 3.96 8.83 8.83c0 4.88 -3.96 8.83 -8.83 8.83c-4.88 0 -8.83 -3.96 -8.83 -8.83c0 -4.88 3.96 -8.83 8.83 -8.83ZM12 5.17c3.78 0 6.83 3.06 6.83 6.83c0 3.78 -3.06 6.83 -6.83 6.83c-3.78 0 -6.83 -3.06 -6.83 -6.83c0 -3.78 3.06 -6.83 6.83 -6.83Z" fill="#000" />
		</mask>
		<mask id="SVG4iwQZdIb">
			<path d="M19.17 -6c5.98 0 10.83 4.85 10.83 10.83c0 5.98 -4.85 10.83 -10.83 10.83c-5.98 0 -10.83 -4.85 -10.83 -10.83c0 -5.98 4.85 -10.83 10.83 -10.83Z" fill="#fff" />
			<path d="M19.17 -4c4.88 0 8.83 3.96 8.83 8.83c0 4.88 -3.96 8.83 -8.83 8.83c-4.88 0 -8.83 -3.96 -8.83 -8.83c0 -4.88 3.96 -8.83 8.83 -8.83ZM3.17 12v-20h28.83v28.83h-20c4.88 0 8.83 -3.96 8.83 -8.83c0 -4.88 -3.96 -8.83 -8.83 -8.83c-4.88 0 -8.83 3.96 -8.83 8.83Z" fill="#000" />
		</mask>
	</defs>
	<g fill="currentColor">
		<path d="M0 0h24v24H0z" mask="url(#SVG3IS2tcPq)" />
		<path d="M0 0h24v24H0z" mask="url(#SVG4iwQZdIb)" />
	</g>
</svg>
