<svg xmlns="http://www.w3.org/2000/svg" width="24" height="24" viewBox="0 0 24 24">
	<defs>
		<mask id="SVGGlJPybfx">
			<path d="M12 3.33c4.78 0 8.67 3.88 8.67 8.67c0 4.78 -3.88 8.67 -8.67 8.67c-4.78 0 -8.67 -3.88 -8.67 -8.67c0 -4.78 3.88 -8.67 8.67 -8.67Z" fill="#fff" />
			<path d="M19.33 -4c4.78 0 8.67 3.88 8.67 8.67c0 4.78 -3.88 8.67 -8.67 8.67c-4.78 0 -8.67 -3.88 -8.67 -8.67c0 -4.78 3.88 -8.67 8.67 -8.67ZM12 5.33c3.68 0 6.67 2.98 6.67 6.67c0 3.68 -2.98 6.67 -6.67 6.67c-3.68 0 -6.67 -2.98 -6.67 -6.67c0 -3.68 2.98 -6.67 6.67 -6.67Z" fill="#000" />
		</mask>
		<mask id="SVGTyHlwdKq">
			<path d="M19.33 -6c5.89 0 10.67 4.78 10.67 10.67c0 5.89 -4.78 10.67 -10.67 10.67c-5.89 0 -10.67 -4.78 -10.67 -10.67c0 -5.89 4.78 -10.67 10.67 -10.67Z" fill="#fff" />
			<path d="M19.33 -4c4.78 0 8.67 3.88 8.67 8.67c0 4.78 -3.88 8.67 -8.67 8.67c-4.78 0 -8.67 -3.88 -8.67 -8.67c0 -4.78 3.88 -8.67 8.67 -8.67ZM3.33 12v-20h28.67v28.67h-20c4.78 0 8.67 -3.88 8.67 -8.67c0 -4.78 -3.88 -8.67 -8.67 -8.67c-4.78 0 -8.67 3.88 -8.67 8.67Z" fill="#000" />
		</mask>
	</defs>
	<g fill="currentColor">
		<path d="M0 0h24v24H0z" mask="url(#SVGGlJPybfx)" />
		<path d="M0 0h24v24H0z" mask="url(#SVGTyHlwdKq)" />
	</g>
</svg>
