<svg xmlns="http://www.w3.org/2000/svg" width="24" height="24" viewBox="0 0 24 24">
	<defs>
		<mask id="SVG4MduceDR">
			<path d="M12 2.83c5.06 0 9.17 4.11 9.17 9.17c0 5.06 -4.11 9.17 -9.17 9.17c-5.06 0 -9.17 -4.11 -9.17 -9.17c0 -5.06 4.11 -9.17 9.17 -9.17Z" fill="#fff" />
			<path d="M18.83 -4c5.06 0 9.17 4.11 9.17 9.17c0 5.06 -4.11 9.17 -9.17 9.17c-5.06 0 -9.17 -4.11 -9.17 -9.17c0 -5.06 4.11 -9.17 9.17 -9.17ZM12 4.83c3.96 0 7.17 3.21 7.17 7.17c0 3.96 -3.21 7.17 -7.17 7.17c-3.96 0 -7.17 -3.21 -7.17 -7.17c0 -3.96 3.21 -7.17 7.17 -7.17Z" fill="#000" />
		</mask>
		<mask id="SVGK8NVEdmy">
			<path d="M18.83 -6c6.16 0 11.17 5 11.17 11.17c0 6.16 -5 11.17 -11.17 11.17c-6.16 0 -11.17 -5 -11.17 -11.17c0 -6.16 5 -11.17 11.17 -11.17Z" fill="#fff" />
			<path d="M18.83 -4c5.06 0 9.17 4.11 9.17 9.17c0 5.06 -4.11 9.17 -9.17 9.17c-5.06 0 -9.17 -4.11 -9.17 -9.17c0 -5.06 4.11 -9.17 9.17 -9.17ZM2.83 12v-20h29.17v29.17h-20c5.06 0 9.17 -4.11 9.17 -9.17c0 -5.06 -4.11 -9.17 -9.17 -9.17c-5.06 0 -9.17 4.11 -9.17 9.17Z" fill="#000" />
		</mask>
	</defs>
	<g fill="currentColor">
		<path d="M0 0h24v24H0z" mask="url(#SVG4MduceDR)" />
		<path d="M0 0h24v24H0z" mask="url(#SVGK8NVEdmy)" />
	</g>
</svg>
