<svg xmlns="http://www.w3.org/2000/svg" width="24" height="24" viewBox="0 0 24 24">
	<defs>
		<mask id="SVGKJY0Ld8b">
			<path d="M12 4.17c4.32 0 7.83 3.51 7.83 7.83c0 4.32 -3.51 7.83 -7.83 7.83c-4.32 0 -7.83 -3.51 -7.83 -7.83c0 -4.32 3.51 -7.83 7.83 -7.83Z" fill="#fff" />
			<path d="M20.17 -4c4.32 0 7.83 3.51 7.83 7.83c0 4.32 -3.51 7.83 -7.83 7.83c-4.32 0 -7.83 -3.51 -7.83 -7.83c0 -4.32 3.51 -7.83 7.83 -7.83ZM12 6.17c3.22 0 5.83 2.61 5.83 5.83c0 3.22 -2.61 5.83 -5.83 5.83c-3.22 0 -5.83 -2.61 -5.83 -5.83c0 -3.22 2.61 -5.83 5.83 -5.83Z" fill="#000" />
		</mask>
		<mask id="SVG4ptEzdyx">
			<path d="M20.17 -6c5.43 0 9.83 4.4 9.83 9.83c0 5.43 -4.4 9.83 -9.83 9.83c-5.43 0 -9.83 -4.4 -9.83 -9.83c0 -5.43 4.4 -9.83 9.83 -9.83Z" fill="#fff" />
			<path d="M20.17 -4c4.32 0 7.83 3.51 7.83 7.83c0 4.32 -3.51 7.83 -7.83 7.83c-4.32 0 -7.83 -3.51 -7.83 -7.83c0 -4.32 3.51 -7.83 7.83 -7.83ZM4.17 12v-20h27.83v27.83h-20c4.32 0 7.83 -3.51 7.83 -7.83c0 -4.32 -3.51 -7.83 -7.83 -7.83c-4.32 0 -7.83 3.51 -7.83 7.83Z" fill="#000" />
		</mask>
	</defs>
	<g fill="currentColor">
		<path d="M0 0h24v24H0z" mask="url(#SVGKJY0Ld8b)" />
		<path d="M0 0h24v24H0z" mask="url(#SVG4ptEzdyx)" />
	</g>
</svg>
