<svg xmlns="http://www.w3.org/2000/svg" width="24" height="24" viewBox="0 0 24 24">
	<defs>
		<mask id="SVG6yQy1bSf">
			<path d="M12 4c4.41 0 8 3.58 8 8c0 4.41 -3.58 8 -8 8c-4.41 0 -8 -3.58 -8 -8c0 -4.41 3.58 -8 8 -8Z" fill="#fff" />
			<path d="M20 -4c4.41 0 8 3.58 8 8c0 4.41 -3.58 8 -8 8c-4.41 0 -8 -3.58 -8 -8c0 -4.41 3.58 -8 8 -8ZM12 6c3.31 0 6 2.68 6 6c0 3.31 -2.68 6 -6 6c-3.31 0 -6 -2.68 -6 -6c0 -3.31 2.68 -6 6 -6Z" fill="#000" />
		</mask>
		<mask id="SVGl1nhaehf">
			<path d="M20 -6c5.52 0 10 4.48 10 10c0 5.52 -4.48 10 -10 10c-5.52 0 -10 -4.48 -10 -10c0 -5.52 4.48 -10 10 -10Z" fill="#fff" />
			<path d="M20 -4c4.41 0 8 3.58 8 8c0 4.41 -3.58 8 -8 8c-4.41 0 -8 -3.58 -8 -8c0 -4.41 3.58 -8 8 -8ZM4 12v-20h28v28h-20c4.41 0 8 -3.58 8 -8c0 -4.41 -3.58 -8 -8 -8c-4.41 0 -8 3.58 -8 8Z" fill="#000" />
		</mask>
	</defs>
	<g fill="currentColor">
		<path d="M0 0h24v24H0z" mask="url(#SVG6yQy1bSf)" />
		<path d="M0 0h24v24H0z" mask="url(#SVGl1nhaehf)" />
	</g>
</svg>
