<svg xmlns="http://www.w3.org/2000/svg" width="24" height="24" viewBox="0 0 24 24">
	<defs>
		<mask id="SVGoCNjbebs">
			<path d="M12 4.25c4.28 0 7.75 3.47 7.75 7.75c0 4.28 -3.47 7.75 -7.75 7.75c-4.28 0 -7.75 -3.47 -7.75 -7.75c0 -4.28 3.47 -7.75 7.75 -7.75Z" fill="#fff" />
			<path d="M20.25 -4c4.28 0 7.75 3.47 7.75 7.75c0 4.28 -3.47 7.75 -7.75 7.75c-4.28 0 -7.75 -3.47 -7.75 -7.75c0 -4.28 3.47 -7.75 7.75 -7.75ZM12 6.25c3.18 0 5.75 2.57 5.75 5.75c0 3.18 -2.57 5.75 -5.75 5.75c-3.18 0 -5.75 -2.57 -5.75 -5.75c0 -3.18 2.57 -5.75 5.75 -5.75Z" fill="#000" />
		</mask>
		<mask id="SVGP5EoDQRV">
			<path d="M20.25 -6c5.38 0 9.75 4.37 9.75 9.75c0 5.38 -4.37 9.75 -9.75 9.75c-5.38 0 -9.75 -4.37 -9.75 -9.75c0 -5.38 4.37 -9.75 9.75 -9.75Z" fill="#fff" />
			<path d="M20.25 -4c4.28 0 7.75 3.47 7.75 7.75c0 4.28 -3.47 7.75 -7.75 7.75c-4.28 0 -7.75 -3.47 -7.75 -7.75c0 -4.28 3.47 -7.75 7.75 -7.75ZM4.25 12v-20h27.75v27.75h-20c4.28 0 7.75 -3.47 7.75 -7.75c0 -4.28 -3.47 -7.75 -7.75 -7.75c-4.28 0 -7.75 3.47 -7.75 7.75Z" fill="#000" />
		</mask>
	</defs>
	<g fill="currentColor">
		<path d="M0 0h24v24H0z" mask="url(#SVGoCNjbebs)" />
		<path d="M0 0h24v24H0z" mask="url(#SVGP5EoDQRV)" />
	</g>
</svg>
