<svg xmlns="http://www.w3.org/2000/svg" width="24" height="24" viewBox="0 0 24 24">
	<defs>
		<mask id="SVGmcFPgexf">
			<path d="M12 5.83c3.4 0 6.17 2.76 6.17 6.17c0 3.4 -2.76 6.17 -6.17 6.17c-3.4 0 -6.17 -2.76 -6.17 -6.17c0 -3.4 2.76 -6.17 6.17 -6.17Z" fill="#fff" />
			<path d="M21.83 -4c3.4 0 6.17 2.76 6.17 6.17c0 3.4 -2.76 6.17 -6.17 6.17c-3.4 0 -6.17 -2.76 -6.17 -6.17c0 -3.4 2.76 -6.17 6.17 -6.17ZM12 7.83c2.3 0 4.17 1.86 4.17 4.17c0 2.3 -1.86 4.17 -4.17 4.17c-2.3 0 -4.17 -1.86 -4.17 -4.17c0 -2.3 1.86 -4.17 4.17 -4.17Z" fill="#000" />
		</mask>
		<mask id="SVGarPQNc7E">
			<path d="M21.83 -6c4.51 0 8.17 3.65 8.17 8.17c0 4.51 -3.65 8.17 -8.17 8.17c-4.51 0 -8.17 -3.65 -8.17 -8.17c0 -4.51 3.65 -8.17 8.17 -8.17Z" fill="#fff" />
			<path d="M21.83 -4c3.4 0 6.17 2.76 6.17 6.17c0 3.4 -2.76 6.17 -6.17 6.17c-3.4 0 -6.17 -2.76 -6.17 -6.17c0 -3.4 2.76 -6.17 6.17 -6.17ZM5.83 12v-20h26.17v26.17h-20c3.4 0 6.17 -2.76 6.17 -6.17c0 -3.4 -2.76 -6.17 -6.17 -6.17c-3.4 0 -6.17 2.76 -6.17 6.17Z" fill="#000" />
		</mask>
	</defs>
	<g fill="currentColor">
		<path d="M0 0h24v24H0z" mask="url(#SVGmcFPgexf)" />
		<path d="M0 0h24v24H0z" mask="url(#SVGarPQNc7E)" />
	</g>
</svg>
