<svg xmlns="http://www.w3.org/2000/svg" width="24" height="24" viewBox="0 0 24 24">
	<defs>
		<mask id="SVGDTOqddHG">
			<path d="M12 5.58c3.54 0 6.42 2.88 6.42 6.42c0 3.54 -2.88 6.42 -6.42 6.42c-3.54 0 -6.42 -2.88 -6.42 -6.42c0 -3.54 2.88 -6.42 6.42 -6.42Z" fill="#fff" />
			<path d="M21.58 -4c3.54 0 6.42 2.88 6.42 6.42c0 3.54 -2.88 6.42 -6.42 6.42c-3.54 0 -6.42 -2.88 -6.42 -6.42c0 -3.54 2.88 -6.42 6.42 -6.42ZM12 7.58c2.44 0 4.42 1.98 4.42 4.42c0 2.44 -1.98 4.42 -4.42 4.42c-2.44 0 -4.42 -1.98 -4.42 -4.42c0 -2.44 1.98 -4.42 4.42 -4.42Z" fill="#000" />
		</mask>
		<mask id="SVGEtOSxd7m">
			<path d="M21.58 -6c4.65 0 8.42 3.77 8.42 8.42c0 4.65 -3.77 8.42 -8.42 8.42c-4.65 0 -8.42 -3.77 -8.42 -8.42c0 -4.65 3.77 -8.42 8.42 -8.42Z" fill="#fff" />
			<path d="M21.58 -4c3.54 0 6.42 2.88 6.42 6.42c0 3.54 -2.88 6.42 -6.42 6.42c-3.54 0 -6.42 -2.88 -6.42 -6.42c0 -3.54 2.88 -6.42 6.42 -6.42ZM5.58 12v-20h26.42v26.42h-20c3.54 0 6.42 -2.88 6.42 -6.42c0 -3.54 -2.88 -6.42 -6.42 -6.42c-3.54 0 -6.42 2.88 -6.42 6.42Z" fill="#000" />
		</mask>
	</defs>
	<g fill="currentColor">
		<path d="M0 0h24v24H0z" mask="url(#SVGDTOqddHG)" />
		<path d="M0 0h24v24H0z" mask="url(#SVGEtOSxd7m)" />
	</g>
</svg>
