<svg xmlns="http://www.w3.org/2000/svg" width="24" height="24" viewBox="0 0 24 24">
	<defs>
		<mask id="SVGbjFwGdaQ">
			<path d="M12 5.92c3.36 0 6.08 2.73 6.08 6.08c0 3.36 -2.73 6.08 -6.08 6.08c-3.36 0 -6.08 -2.73 -6.08 -6.08c0 -3.36 2.73 -6.08 6.08 -6.08Z" fill="#fff" />
			<path d="M21.92 -4c3.36 0 6.08 2.73 6.08 6.08c0 3.36 -2.73 6.08 -6.08 6.08c-3.36 0 -6.08 -2.73 -6.08 -6.08c0 -3.36 2.73 -6.08 6.08 -6.08ZM12 7.92c2.26 0 4.08 1.83 4.08 4.08c0 2.26 -1.83 4.08 -4.08 4.08c-2.26 0 -4.08 -1.83 -4.08 -4.08c0 -2.26 1.83 -4.08 4.08 -4.08Z" fill="#000" />
		</mask>
		<mask id="SVGJWBCtctY">
			<path d="M21.92 -6c4.47 0 8.08 3.62 8.08 8.08c0 4.47 -3.62 8.08 -8.08 8.08c-4.47 0 -8.08 -3.62 -8.08 -8.08c0 -4.47 3.62 -8.08 8.08 -8.08Z" fill="#fff" />
			<path d="M21.92 -4c3.36 0 6.08 2.73 6.08 6.08c0 3.36 -2.73 6.08 -6.08 6.08c-3.36 0 -6.08 -2.73 -6.08 -6.08c0 -3.36 2.73 -6.08 6.08 -6.08ZM5.92 12v-20h26.08v26.08h-20c3.36 0 6.08 -2.73 6.08 -6.08c0 -3.36 -2.73 -6.08 -6.08 -6.08c-3.36 0 -6.08 2.73 -6.08 6.08Z" fill="#000" />
		</mask>
	</defs>
	<g fill="currentColor">
		<path d="M0 0h24v24H0z" mask="url(#SVGbjFwGdaQ)" />
		<path d="M0 0h24v24H0z" mask="url(#SVGJWBCtctY)" />
	</g>
</svg>
