<svg xmlns="http://www.w3.org/2000/svg" width="24" height="24" viewBox="0 0 24 24">
	<defs>
		<mask id="SVGaDz7Pdie">
			<g stroke-linecap="round" stroke-linejoin="round" fill-opacity="0">
				<path d="M10 20.5c0 0 -4.39 -4.89 -4.39 -8.15c0 -2.2 1.91 -4.39 4.39 -4.39c2.48 0 4.39 2.2 4.39 4.39c0 3.26 -4.39 8.15 -4.39 8.15Z" stroke="#fff" fill="#fff" stroke-width="2" />
				<path d="M14 20.5c0 0 -4.39 -4.89 -4.39 -8.15c0 -2.2 1.91 -4.39 4.39 -4.39c2.48 0 4.39 2.2 4.39 4.39c0 3.26 -4.39 8.15 -4.39 8.15Z" stroke="#000" fill="#000" stroke-width="4" />
				<path d="M14 20.5c0 0 -4.39 -4.89 -4.39 -8.15c0 -2.2 1.91 -4.39 4.39 -4.39c2.48 0 4.39 2.2 4.39 4.39c0 3.26 -4.39 8.15 -4.39 8.15Z" stroke="#fff" fill="#fff" stroke-width="2" />
			</g>
			<circle cx="14" cy="9" fill="#000" />
		</mask>
	</defs>
	<path d="M0 0h24v24H0z" fill="currentColor" mask="url(#SVGaDz7Pdie)" />
</svg>
