<svg xmlns="http://www.w3.org/2000/svg" width="24" height="24" viewBox="0 0 24 24">
	<defs>
		<mask id="SVGeiPlHdko">
			<path d="M5 19v0c-0.3 0 -0.59 -0.15 -0.74 -0.41c-0.8 -1.34 -1.26 -2.91 -1.26 -4.59c0 -4.97 4.03 -9 9 -9c4.97 0 9 4.03 9 9c0 1.68 -0.46 3.25 -1.26 4.59c-0.15 0.26 -0.44 0.41 -0.74 0.41Z" stroke="#fff" fill="none" stroke-width="2" stroke-linecap="round" stroke-linejoin="round" />
			<path d="M13.17 14c0 0.64 -0.52 1.17 -1.17 1.17c-0.64 0 -1.17 -0.52 -1.17 -1.17c0 -0.64 1.17 -4.08 1.17 -4.08c0 0 1.17 3.44 1.17 4.08Z" fill="#000" transform="rotate(-100 12 14)" />
		</mask>
	</defs>
	<g fill="currentColor">
		<path d="M0 0h24v24H0z" mask="url(#SVGeiPlHdko)" />
		<path d="M12.58 14c0 0.32 -0.26 0.58 -0.58 0.58c-0.32 0 -0.58 -0.26 -0.58 -0.58c0 -0.32 0.58 -2.92 0.58 -2.92c0 0 0.58 2.6 0.58 2.92Z" transform="rotate(-100 12 14)" />
	</g>
</svg>
