<svg xmlns="http://www.w3.org/2000/svg" width="24" height="24" viewBox="0 0 24 24">
	<defs>
		<mask id="SVGGDoU3cTc">
			<path d="M5 19v0c-0.3 0 -0.59 -0.15 -0.74 -0.41c-0.8 -1.34 -1.26 -2.91 -1.26 -4.59c0 -4.97 4.03 -9 9 -9c4.97 0 9 4.03 9 9c0 1.68 -0.46 3.25 -1.26 4.59c-0.15 0.26 -0.44 0.41 -0.74 0.41Z" stroke="#fff" fill="none" stroke-width="2" stroke-linecap="round" stroke-linejoin="round" />
			<path d="M13 14c0 0.55 -0.45 1 -1 1c-0.55 0 -1 -0.45 -1 -1c0 -0.55 1 -3.5 1 -3.5c0 0 1 2.95 1 3.5Z" fill="#000" transform="rotate(-100 12 14)" />
		</mask>
	</defs>
	<g fill="currentColor">
		<path d="M0 0h24v24H0z" mask="url(#SVGGDoU3cTc)" />
		<path d="M12.5 14c0 0.28 -0.23 0.5 -0.5 0.5c-0.28 0 -0.5 -0.23 -0.5 -0.5c0 -0.28 0.5 -2.5 0.5 -2.5c0 0 0.5 2.23 0.5 2.5Z" transform="rotate(-100 12 14)" />
	</g>
</svg>
