<svg xmlns="http://www.w3.org/2000/svg" width="24" height="24" viewBox="0 0 24 24">
	<defs>
		<mask id="SVGqIAnmb8M">
			<path d="M5 19v0c-0.3 0 -0.59 -0.15 -0.74 -0.41c-0.8 -1.34 -1.26 -2.91 -1.26 -4.59c0 -4.97 4.03 -9 9 -9c4.97 0 9 4.03 9 9c0 1.68 -0.46 3.25 -1.26 4.59c-0.15 0.26 -0.44 0.41 -0.74 0.41Z" stroke="#fff" fill="none" stroke-width="2" stroke-linecap="round" stroke-linejoin="round" />
			<path d="M14.5 14c0 1.38 -1.12 2.5 -2.5 2.5c-1.38 0 -2.5 -1.12 -2.5 -2.5c0 -1.38 2.5 -8.75 2.5 -8.75c0 0 2.5 7.37 2.5 8.75Z" fill="#000" transform="rotate(-100 12 14)" />
		</mask>
	</defs>
	<g fill="currentColor">
		<path d="M0 0h24v24H0z" mask="url(#SVGqIAnmb8M)" />
		<path d="M13.25 14c0 0.69 -0.56 1.25 -1.25 1.25c-0.69 0 -1.25 -0.56 -1.25 -1.25c0 -0.69 1.25 -6.25 1.25 -6.25c0 0 1.25 5.56 1.25 6.25Z" transform="rotate(-100 12 14)" />
	</g>
</svg>
