<svg xmlns="http://www.w3.org/2000/svg" width="24" height="24" viewBox="0 0 24 24">
	<defs>
		<mask id="SVGPu3UTcRj">
			<path d="M5 19v0c-0.3 0 -0.59 -0.15 -0.74 -0.41c-0.8 -1.34 -1.26 -2.91 -1.26 -4.59c0 -4.97 4.03 -9 9 -9c4.97 0 9 4.03 9 9c0 1.68 -0.46 3.25 -1.26 4.59c-0.15 0.26 -0.44 0.41 -0.74 0.41Z" stroke="#fff" fill="none" stroke-width="2" stroke-linecap="round" stroke-linejoin="round" />
			<path d="M14.67 14c0 1.47 -1.19 2.67 -2.67 2.67c-1.47 0 -2.67 -1.19 -2.67 -2.67c0 -1.47 2.67 -9.33 2.67 -9.33c0 0 2.67 7.86 2.67 9.33Z" fill="#000" transform="rotate(-100 12 14)" />
		</mask>
	</defs>
	<g fill="currentColor">
		<path d="M0 0h24v24H0z" mask="url(#SVGPu3UTcRj)" />
		<path d="M13.33 14c0 0.73 -0.6 1.33 -1.33 1.33c-0.73 0 -1.33 -0.6 -1.33 -1.33c0 -0.73 1.33 -6.67 1.33 -6.67c0 0 1.33 5.93 1.33 6.67Z" transform="rotate(-100 12 14)" />
	</g>
</svg>
