<svg xmlns="http://www.w3.org/2000/svg" width="24" height="24" viewBox="0 0 24 24">
	<defs>
		<mask id="SVGJcA1kbNj">
			<path d="M12 7h8c0.55 0 1 0.45 1 1v10c0 0.55 -0.45 1 -1 1h-16c-0.55 0 -1 -0.45 -1 -1v-11ZM12 7h-9v-1c0 -0.55 0.45 -1 1 -1h6Z" fill="none" stroke="#fff" stroke-linecap="round" stroke-linejoin="round" stroke-width="2" />
			<path d="M19 13c3.31 0 6 2.69 6 6c0 3.31 -2.69 6 -6 6c-3.31 0 -6 -2.69 -6 -6c0 -3.31 2.69 -6 6 -6Z" fill="#000" />
		</mask>
	</defs>
	<path d="M0 0h24v24H0z" fill="currentColor" mask="url(#SVGJcA1kbNj)" />
	<g fill="none" stroke="currentColor" stroke-linecap="round" stroke-linejoin="round" stroke-width="2">
		<path d="M19 21v-5" stroke-dasharray="8" stroke-dashoffset="2.333" />
		<path d="M19 16l2 2M19 16l-2 2" stroke-dasharray="6" stroke-dashoffset="6" />
	</g>
</svg>
