<svg xmlns="http://www.w3.org/2000/svg" width="24" height="24" viewBox="0 0 24 24">
	<defs>
		<mask id="SVGcZbOycTr">
			<g stroke="#fff" stroke-linecap="round" stroke-linejoin="round" stroke-width="2">
				<g fill="#fff">
					<path d="M13.5 3l5.5 5.5v11.5c0 0.55 -0.45 1 -1 1h-12c-0.55 0 -1 -0.45 -1 -1v-16c0 -0.55 0.45 -1 1 -1Z" fill-opacity="0" />
					<path d="M14 3.5l0 4.5l4.5 0Z" />
				</g>
				<path d="M9 13h6M9 17h3" fill="none" />
			</g>
			<path d="M18.5 11c4.14 0 7.5 3.36 7.5 7.5c0 4.14 -3.36 7.5 -7.5 7.5c-4.14 0 -7.5 -3.36 -7.5 -7.5c0 -4.14 3.36 -7.5 7.5 -7.5Z" fill="#000" />
		</mask>
	</defs>
	<path d="M0 0h24v24H0z" fill="currentColor" mask="url(#SVGcZbOycTr)" />
	<g fill="none" stroke="currentColor" stroke-linecap="round" stroke-linejoin="round" stroke-width="2">
		<path d="M18.5 14c2.48 0 4.5 2.02 4.5 4.5c0 2.48 -2.02 4.5 -4.5 4.5c-2.48 0 -4.5 -2.02 -4.5 -4.5c0 -2.48 2.02 -4.5 4.5 -4.5Z" />
		<path d="M16 16l5 5" stroke-dasharray="10" stroke-dashoffset="2.917" />
	</g>
</svg>
