<svg xmlns="http://www.w3.org/2000/svg" width="24" height="24" viewBox="0 0 24 24">
	<defs>
		<mask id="SVGQjhu1dkK">
			<path d="M7.5 12l3 -3h3l3 3l-0.5 0c0 2.21 -1.79 4 -4 4c-2.21 0 -4 -1.79 -4 -4Z" fill="#fff" />
			<g fill="none" stroke="#fff" stroke-linecap="round" stroke-linejoin="round" stroke-width="2">
				<path d="M8 12h-5M16 12h5M12 16v5" />
				<path d="M12 3c4.97 0 9 4.03 9 9c0 4.97 -4.03 9 -9 9c-4.97 0 -9 -4.03 -9 -9c0 -4.97 4.03 -9 9 -9Z" stroke-dasharray="60" stroke-dashoffset="24.167" />
			</g>
		</mask>
	</defs>
	<path d="M0 0h24v24H0z" fill="currentColor" mask="url(#SVGQjhu1dkK)" />
</svg>
