<svg xmlns="http://www.w3.org/2000/svg" width="24" height="24" viewBox="0 0 24 24">
	<mask id="phone-off{fill}-loop-mask">
		<g fill="none" stroke="#fff" stroke-width="2" stroke-linecap="round" stroke-linejoin="round">
			<path d="M8 3c0.5 0 2.5 4.5 2.5 5c0 1 -1.5 2 -2 3c-0.5 1 0.5 2 1.5 3c0.39 0.39 2 2 3 1.5c1 -0.5 2 -2 3 -2c0.5 0 5 2 5 2.5c0 2 -1.5 3.5 -3 4c-1.5 0.5 -2.5 0.5 -4.5 0c-2 -0.5 -3.5 -1 -6 -3.5c-2.5 -2.5 -3 -4 -3.5 -6c-0.5 -2 -0.5 -3 0 -4.5c0.5 -1.5 2 -3 4 -3Z" fill="#fff" fill-opacity="0" stroke-dasharray="64" stroke-dashoffset="64">
				<animate attributeName="fill-opacity" values="0;1" begin="0.7s" dur="0.5s" fill="freeze" />
				<animate attributeName="stroke-dashoffset" values="64;0" dur="0.6s" fill="freeze" />
				<animateTransform attributeName="transform" type="rotate" values="0 12 12;15 12 12;0 12 12;-12 12 12;0 12 12;12 12 12;0 12 12;-15 12 12;0 12 12;0 12 12" begin="1s" dur="2.7s" keyTimes="0;0.035;0.07;0.105;0.14;0.175;0.21;0.245;0.28;1" repeatCount="indefinite" />
			</path>
			<path d="M-1 11h26" stroke="#000" stroke-dasharray="28" stroke-dashoffset="28" transform="rotate(135 12 12)">
				<animate attributeName="stroke-dashoffset" values="28;0" begin="1.2s" dur="0.4s" fill="freeze" />
			</path>
			<path d="M-2 13h26" stroke-dasharray="28" stroke-dashoffset="28" transform="rotate(135 12 12)">
				<animate attributeName="d" values="M-2 13h26;M0 13h26;M-2 13h26" dur="6s" repeatCount="indefinite" />
				<animate attributeName="stroke-dashoffset" values="28;0" begin="1.2s" dur="0.4s" fill="freeze" />
			</path>
		</g>
	</mask>
	<rect mask="url(#phone-off{fill}-loop-mask)" width="24" height="24" fill="currentColor" />
</svg>
