<svg xmlns="http://www.w3.org/2000/svg" width="24" height="24" viewBox="0 0 24 24">
	<g fill="none" stroke="currentColor" stroke-width="2" stroke-linecap="round" stroke-linejoin="round">
		<path d="M8 3c0.5 0 2.5 4.5 2.5 5c0 1 -1.5 2 -2 3c-0.5 1 0.5 2 1.5 3c0.39 0.39 2 2 3 1.5c1 -0.5 2 -2 3 -2c0.5 0 5 2 5 2.5c0 2 -1.5 3.5 -3 4c-1.5 0.5 -2.5 0.5 -4.5 0c-2 -0.5 -3.5 -1 -6 -3.5c-2.5 -2.5 -3 -4 -3.5 -6c-0.5 -2 -0.5 -3 0 -4.5c0.5 -1.5 2 -3 4 -3Z" fill="currentColor" fill-opacity="0" stroke-dasharray="64" stroke-dashoffset="64">
			<animate attributeName="fill-opacity" values="0;0.3" begin="0.7s" dur="0.15s" fill="freeze" />
			<animate attributeName="stroke-dashoffset" values="64;0" dur="0.6s" fill="freeze" />
		</path>
		<path d="M15.76 8.28c-0.5 -0.51 -1.1 -0.93 -1.76 -1.24M15.76 8.28c0.49 0.49 0.9 1.08 1.2 1.72" stroke-dasharray="4" stroke-dashoffset="4">
			<animate attributeName="stroke-dashoffset" values="4;0" begin="0.85s" dur="0.3s" fill="freeze" />
		</path>
		<path d="M18.67 5.35c-1 -1 -2.26 -1.73 -3.67 -2.1M18.67 5.35c0.99 1 1.72 2.25 2.08 3.65" stroke-dasharray="6" stroke-dashoffset="6">
			<animate attributeName="stroke-dashoffset" values="6;0" begin="1.05s" dur="0.3s" fill="freeze" />
		</path>
	</g>
</svg>
