<svg xmlns="http://www.w3.org/2000/svg" width="24" height="24" viewBox="0 0 24 24">
	<g stroke="currentColor" stroke-linecap="round" stroke-linejoin="round" stroke-width="2">
		<path d="M12 3c4.97 0 9 4.03 9 9c0 4.97 -4.03 9 -9 9c-4.97 0 -9 -4.03 -9 -9c0 -4.97 4.03 -9 9 -9" fill="currentColor" fill-opacity="0" />
		<path d="M9 9v1M15 9v1" fill="none" />
	</g>
	<path d="M12 14.71c-2.5 0 -3.25 -0.29 -4 -0.29c-0.55 0 -1 0.13 -1 0.29c0 0.22 1.5 1.17 5 1.17c3.5 0 5 -0.95 5 -1.17c0 -0.16 -0.45 -0.29 -1 -0.29c-0.75 0 -1.5 0.29 -4 0.29Z" fill="currentColor" />
</svg>
