<svg xmlns="http://www.w3.org/2000/svg" width="24" height="24" viewBox="0 0 24 24">
	<g stroke="currentColor" stroke-linecap="round" stroke-linejoin="round" stroke-width="2">
		<path d="M12 3c4.97 0 9 4.03 9 9c0 4.97 -4.03 9 -9 9c-4.97 0 -9 -4.03 -9 -9c0 -4.97 4.03 -9 9 -9" fill="currentColor" fill-opacity="0" />
		<path d="M9 9v1M15 9v1" fill="none" />
	</g>
	<path d="M12 14.67c-2.5 0 -3.25 -0.33 -4 -0.33c-0.55 0 -1 0.15 -1 0.33c0 0.25 1.5 1.33 5 1.33c3.5 0 5 -1.08 5 -1.33c0 -0.18 -0.45 -0.33 -1 -0.33c-0.75 0 -1.5 0.33 -4 0.33Z" fill="currentColor" />
</svg>
