<svg xmlns="http://www.w3.org/2000/svg" width="24" height="24" viewBox="0 0 24 24">
	<defs>
		<mask id="SVGlTzivbCy">
			<g stroke="#fff" stroke-linecap="round" stroke-linejoin="round" stroke-width="2">
				<path d="M12 7h8c0.55 0 1 0.45 1 1v10c0 0.55 -0.45 1 -1 1h-16c-0.55 0 -1 -0.45 -1 -1v-11Z" fill="#fff" fill-opacity="0" />
				<path d="M12 7h-9v-0.42c0 -0.23 0.45 -0.42 1 -0.42h6Z" fill="none" />
			</g>
		</mask>
	</defs>
	<g fill="currentColor">
		<path d="M0 0h24v24H0z" mask="url(#SVGlTzivbCy)" />
		<path d="M19 20.5c0 0.83 -0.67 1.5 -1.5 1.5c-0.83 0 -1.5 -0.67 -1.5 -1.5c0 -0.83 0.67 -1.5 1.5 -1.5c0.83 0 1.5 0.67 1.5 1.5Z" stroke="currentColor" stroke-width="2" stroke-linecap="round" stroke-linejoin="round" stroke-dasharray="12" stroke-dashoffset="12" fill-opacity="0" />
	</g>
</svg>
