<svg xmlns="http://www.w3.org/2000/svg" width="24" height="24" viewBox="0 0 24 24">
	<defs>
		<mask id="SVGriBShdiE">
			<g stroke-linecap="round" stroke-linejoin="round" stroke-width="2">
				<path d="M7 16.82c-2.41 -1.25 -4 -3.39 -4 -5.82c0 -3.87 4.03 -7 9 -7c4.97 0 9 3.13 9 7c0 3.87 -4.03 7 -9 7c-1.85 0 -3.57 -0.43 -5 -1.18Z" stroke="#fff" fill="#fff" stroke-dasharray="54" fill-opacity="0" stroke-dashoffset="39.75" />
				<g fill="none" stroke="#000">
					<path d="M8 11h0.01M12 11h0.01M16 11h0.01" stroke-dashoffset="4" stroke-dasharray="4" />
					<path d="M-1 11h26" transform="rotate(45 12 12)" stroke-dasharray="28" stroke-dashoffset="28" />
				</g>
			</g>
		</mask>
	</defs>
	<path d="M0 0h24v24H0z" fill="currentColor" mask="url(#SVGriBShdiE)" />
	<path d="M-1 13h26" stroke="currentColor" fill="none" stroke-width="2" stroke-linecap="round" stroke-linejoin="round" transform="rotate(45 12 12)" stroke-dasharray="28" stroke-dashoffset="28" />
</svg>
