<svg xmlns="http://www.w3.org/2000/svg" width="24" height="24" viewBox="0 0 24 24">
	<defs>
		<mask id="SVGuskh8dkj">
			<g fill="#fff">
				<path d="M7 16.82c-2.41 -1.25 -4 -3.39 -4 -5.82c0 -3.87 4.03 -7 9 -7c4.97 0 9 3.13 9 7c0 3.87 -4.03 7 -9 7c-1.85 0 -3.57 -0.43 -5 -1.18Z" stroke="#fff" stroke-width="2" stroke-linecap="round" stroke-linejoin="round" fill-opacity="0" />
				<path d="M5 15.5c1 1 2.5 2 4 2.5c-0.71 -0.24 -1.43 -0.59 -2.09 -1c-0.72 -0.45 -1.39 -0.98 -1.91 -1.5Z" />
			</g>
			<g fill="none" stroke="#000" stroke-linecap="round" stroke-linejoin="round" stroke-width="2">
				<path d="M8 11h0.01M12 11h0.01M16 11h0.01" stroke-dashoffset="4" stroke-dasharray="4" />
				<path d="M-1 11h26" transform="rotate(45 12 12)" stroke-dasharray="28" stroke-dashoffset="28" />
			</g>
		</mask>
	</defs>
	<path d="M0 0h24v24H0z" fill="currentColor" mask="url(#SVGuskh8dkj)" />
	<path d="M-1 13h26" stroke="currentColor" fill="none" stroke-width="2" stroke-linecap="round" stroke-linejoin="round" transform="rotate(45 12 12)" stroke-dasharray="28" stroke-dashoffset="28" />
</svg>
