<svg xmlns="http://www.w3.org/2000/svg" width="24" height="24" viewBox="0 0 24 24">
	<g fill="currentColor">
		<path d="M12 15c-2.5 0 -3.25 0 -4 0c-0.55 0 -1 0 -1 0c0 0 1.5 0 5 0c3.5 0 5 0 5 0c0 0 -0.45 0 -1 0c-0.75 0 -1.5 0 -4 0Z">
			<animate attributeName="d" values="M12 15c-2.5 0 -3.25 0 -4 0c-0.55 0 -1 0 -1 0c0 0 1.5 0 5 0c3.5 0 5 0 5 0c0 0 -0.45 0 -1 0c-0.75 0 -1.5 0 -4 0Z;M12 14c-2.5 0 -3.25 -1 -4 -1c-0.55 0 -1 0.45 -1 1c0 0.75 1.5 4 5 4c3.5 0 5 -3.25 5 -4c0 -0.55 -0.45 -1 -1 -1c-0.75 0 -1.5 1 -4 1Z" begin="1.1s" dur="0.2s" fill="freeze" />
		</path>
	</g>
	<g fill="none" stroke="currentColor" stroke-width="2" stroke-linecap="round" stroke-linejoin="round">
		<path d="M12 3c4.97 0 9 4.03 9 9c0 4.97 -4.03 9 -9 9c-4.97 0 -9 -4.03 -9 -9c0 -4.97 4.03 -9 9 -9" stroke-dasharray="64" stroke-dashoffset="64">
			<animate attributeName="stroke-dashoffset" values="64;0" dur="0.6s" fill="freeze" />
		</path>
		<path d="M9 9v1" stroke-dasharray="2" stroke-dashoffset="2">
			<animate attributeName="stroke-dashoffset" values="2;0" begin="0.7s" dur="0.2s" fill="freeze" />
		</path>
		<path d="M15 9v1" stroke-dasharray="2" stroke-dashoffset="2">
			<animate attributeName="stroke-dashoffset" values="2;0" begin="0.9s" dur="0.2s" fill="freeze" />
		</path>
	</g>
</svg>
