<svg xmlns="http://www.w3.org/2000/svg" width="24" height="24" viewBox="0 0 24 24">
	<defs>
		<mask id="SVGCAeencGc">
			<path d="M5.64 19.36c-3.52 -3.51 -3.52 -9.21 0 -12.72c3.51 -3.52 9.21 -3.52 12.72 -0c3.52 3.51 3.52 9.21 0 12.72" stroke="#fff" fill="none" stroke-width="2" stroke-linecap="round" stroke-linejoin="round" />
			<path d="M13.46 13.71c0 0.81 -0.65 1.46 -1.46 1.46c-0.81 0 -1.46 -0.65 -1.46 -1.46c0 -0.81 1.46 -4.38 1.46 -4.38c0 0 1.46 3.57 1.46 4.38Z" fill="#000" transform="rotate(-100 12 13)" />
		</mask>
	</defs>
	<g fill="currentColor">
		<path d="M0 0h24v24H0z" mask="url(#SVGCAeencGc)" />
		<path d="M12.88 13.71c0 0.48 -0.39 0.88 -0.88 0.88c-0.48 0 -0.88 -0.39 -0.88 -0.88c0 -0.48 0.88 -3.21 0.88 -3.21c0 0 0.88 2.72 0.88 3.21Z" transform="rotate(-100 12 13)" />
	</g>
</svg>
