<svg xmlns="http://www.w3.org/2000/svg" width="24" height="24" viewBox="0 0 24 24">
	<defs>
		<mask id="SVGuMHXIeRo">
			<path d="M5.64 19.36c-3.52 -3.51 -3.52 -9.21 0 -12.72c3.51 -3.52 9.21 -3.52 12.72 -0c3.52 3.51 3.52 9.21 0 12.72" stroke="#fff" fill="none" stroke-width="2" stroke-linecap="round" stroke-linejoin="round" />
			<path d="M12.63 13.88c0 0.34 -0.28 0.63 -0.63 0.63c-0.34 0 -0.63 -0.28 -0.63 -0.63c0 -0.34 0.63 -1.88 0.63 -1.88c0 0 0.63 1.53 0.63 1.88Z" fill="#000" transform="rotate(-100 12 13)" />
		</mask>
	</defs>
	<g fill="currentColor">
		<path d="M0 0h24v24H0z" mask="url(#SVGuMHXIeRo)" />
		<path d="M12.38 13.88c0 0.21 -0.17 0.38 -0.38 0.38c-0.21 0 -0.38 -0.17 -0.38 -0.38c0 -0.21 0.38 -1.38 0.38 -1.38c0 0 0.38 1.17 0.38 1.38Z" transform="rotate(-100 12 13)" />
	</g>
</svg>
