<svg xmlns="http://www.w3.org/2000/svg" width="24" height="24" viewBox="0 0 24 24">
	<defs>
		<mask id="SVGJ9yRqcWP">
			<path d="M5.64 19.36c-3.52 -3.51 -3.52 -9.21 0 -12.72c3.51 -3.52 9.21 -3.52 12.72 -0c3.52 3.51 3.52 9.21 0 12.72" stroke="#fff" fill="none" stroke-width="2" stroke-linecap="round" stroke-linejoin="round" />
			<path d="M14.71 13.46c0 1.49 -1.21 2.71 -2.71 2.71c-1.49 0 -2.71 -1.21 -2.71 -2.71c0 -1.49 2.71 -8.12 2.71 -8.12c0 0 2.71 6.63 2.71 8.12Z" fill="#000" transform="rotate(-100 12 13)" />
		</mask>
	</defs>
	<g fill="currentColor">
		<path d="M0 0h24v24H0z" mask="url(#SVGJ9yRqcWP)" />
		<path d="M13.62 13.46c0 0.9 -0.73 1.62 -1.62 1.62c-0.9 0 -1.62 -0.73 -1.62 -1.62c0 -0.9 1.62 -5.96 1.62 -5.96c0 0 1.62 5.06 1.62 5.96Z" transform="rotate(-100 12 13)" />
	</g>
</svg>
