<svg xmlns="http://www.w3.org/2000/svg" width="24" height="24" viewBox="0 0 24 24">
	<defs>
		<mask id="SVGycp5DcNb">
			<path d="M5.64 19.36c-3.52 -3.51 -3.52 -9.21 0 -12.72c3.51 -3.52 9.21 -3.52 12.72 -0c3.52 3.51 3.52 9.21 0 12.72" stroke="#fff" fill="none" stroke-width="2" stroke-linecap="round" stroke-linejoin="round" />
			<path d="M15.54 13.29c0 1.96 -1.59 3.54 -3.54 3.54c-1.96 0 -3.54 -1.59 -3.54 -3.54c0 -1.96 3.54 -10.63 3.54 -10.63c0 0 3.54 8.67 3.54 10.63Z" fill="#000" transform="rotate(-100 12 13)" />
		</mask>
	</defs>
	<g fill="currentColor">
		<path d="M0 0h24v24H0z" mask="url(#SVGycp5DcNb)" />
		<path d="M14.13 13.29c0 1.18 -0.95 2.13 -2.13 2.13c-1.18 0 -2.13 -0.95 -2.13 -2.13c0 -1.18 2.13 -7.79 2.13 -7.79c0 0 2.13 6.62 2.13 7.79Z" transform="rotate(-100 12 13)" />
	</g>
</svg>
