<svg xmlns="http://www.w3.org/2000/svg" width="24" height="24" viewBox="0 0 24 24">
	<defs>
		<mask id="SVGU3sTHbyO">
			<path d="M5.64 19.36c-3.52 -3.51 -3.52 -9.21 0 -12.72c3.51 -3.52 9.21 -3.52 12.72 -0c3.52 3.51 3.52 9.21 0 12.72" stroke="#fff" fill="none" stroke-width="2" stroke-linecap="round" stroke-linejoin="round" />
			<path d="M15.96 13.21c0 2.19 -1.77 3.96 -3.96 3.96c-2.19 0 -3.96 -1.77 -3.96 -3.96c0 -2.19 3.96 -11.88 3.96 -11.88c0 0 3.96 9.69 3.96 11.88Z" fill="#000" transform="rotate(-100 12 13)" />
		</mask>
	</defs>
	<g fill="currentColor">
		<path d="M0 0h24v24H0z" mask="url(#SVGU3sTHbyO)" />
		<path d="M14.38 13.21c0 1.31 -1.06 2.38 -2.38 2.38c-1.31 0 -2.38 -1.06 -2.38 -2.38c0 -1.31 2.38 -8.71 2.38 -8.71c0 0 2.38 7.39 2.38 8.71Z" transform="rotate(-100 12 13)" />
	</g>
</svg>
