<svg xmlns="http://www.w3.org/2000/svg" width="24" height="24" viewBox="0 0 24 24">
	<defs>
		<mask id="SVGQTt5ocqM">
			<path d="M5.64 19.36c-3.52 -3.51 -3.52 -9.21 0 -12.72c3.51 -3.52 9.21 -3.52 12.72 -0c3.52 3.51 3.52 9.21 0 12.72" stroke="#fff" fill="none" stroke-width="2" stroke-linecap="round" stroke-linejoin="round" />
			<path d="M14.29 13.54c0 1.26 -1.03 2.29 -2.29 2.29c-1.26 0 -2.29 -1.03 -2.29 -2.29c0 -1.26 2.29 -6.87 2.29 -6.87c0 0 2.29 5.61 2.29 6.87Z" fill="#000" transform="rotate(-100 12 13)" />
		</mask>
	</defs>
	<g fill="currentColor">
		<path d="M0 0h24v24H0z" mask="url(#SVGQTt5ocqM)" />
		<path d="M13.38 13.54c0 0.76 -0.61 1.37 -1.37 1.37c-0.76 0 -1.37 -0.61 -1.37 -1.37c0 -0.76 1.37 -5.04 1.37 -5.04c0 0 1.37 4.28 1.37 5.04Z" transform="rotate(-100 12 13)" />
	</g>
</svg>
