<svg xmlns="http://www.w3.org/2000/svg" width="24" height="24" viewBox="0 0 24 24">
	<defs>
		<mask id="SVGh5KlOeCS">
			<path d="M5.64 19.36c-3.52 -3.51 -3.52 -9.21 0 -12.72c3.51 -3.52 9.21 -3.52 12.72 -0c3.52 3.51 3.52 9.21 0 12.72" stroke="#fff" fill="none" stroke-width="2" stroke-linecap="round" stroke-linejoin="round" />
			<path d="M14.08 13.58c0 1.15 -0.93 2.08 -2.08 2.08c-1.15 0 -2.08 -0.93 -2.08 -2.08c0 -1.15 2.08 -6.25 2.08 -6.25c0 0 2.08 5.1 2.08 6.25Z" fill="#000" transform="rotate(-100 12 13)" />
		</mask>
	</defs>
	<g fill="currentColor">
		<path d="M0 0h24v24H0z" mask="url(#SVGh5KlOeCS)" />
		<path d="M13.25 13.58c0 0.69 -0.56 1.25 -1.25 1.25c-0.69 0 -1.25 -0.56 -1.25 -1.25c0 -0.69 1.25 -4.58 1.25 -4.58c0 0 1.25 3.89 1.25 4.58Z" transform="rotate(-100 12 13)" />
	</g>
</svg>
