<svg xmlns="http://www.w3.org/2000/svg" width="24" height="24" viewBox="0 0 24 24">
	<defs>
		<mask id="SVGNcEkPKhq">
			<path d="M5.64 19.36c-3.52 -3.51 -3.52 -9.21 0 -12.72c3.51 -3.52 9.21 -3.52 12.72 -0c3.52 3.51 3.52 9.21 0 12.72" stroke="#fff" fill="none" stroke-width="2" stroke-linecap="round" stroke-linejoin="round" />
			<path d="M16.38 13.13c0 2.42 -1.96 4.38 -4.38 4.38c-2.42 0 -4.38 -1.96 -4.38 -4.38c0 -2.42 4.38 -13.13 4.38 -13.13c0 0 4.38 10.71 4.38 13.13Z" fill="#000" transform="rotate(-100 12 13)" />
		</mask>
	</defs>
	<g fill="currentColor">
		<path d="M0 0h24v24H0z" mask="url(#SVGNcEkPKhq)" />
		<path d="M14.63 13.13c0 1.45 -1.17 2.63 -2.63 2.63c-1.45 0 -2.63 -1.17 -2.63 -2.63c0 -1.45 2.63 -9.63 2.63 -9.63c0 0 2.63 8.17 2.63 9.63Z" transform="rotate(-100 12 13)" />
	</g>
</svg>
