<svg xmlns="http://www.w3.org/2000/svg" width="24" height="24" viewBox="0 0 24 24">
	<defs>
		<mask id="SVG4Am7zcxN">
			<path d="M5.64 19.36c-3.52 -3.51 -3.52 -9.21 0 -12.72c3.51 -3.52 9.21 -3.52 12.72 -0c3.52 3.51 3.52 9.21 0 12.72" stroke="#fff" fill="none" stroke-width="2" stroke-linecap="round" stroke-linejoin="round" />
			<path d="M16.17 13.17c0 2.3 -1.87 4.17 -4.17 4.17c-2.3 0 -4.17 -1.87 -4.17 -4.17c0 -2.3 4.17 -12.5 4.17 -12.5c0 0 4.17 10.2 4.17 12.5Z" fill="#000" transform="rotate(-100 12 13)" />
		</mask>
	</defs>
	<g fill="currentColor">
		<path d="M0 0h24v24H0z" mask="url(#SVG4Am7zcxN)" />
		<path d="M14.5 13.17c0 1.38 -1.12 2.5 -2.5 2.5c-1.38 0 -2.5 -1.12 -2.5 -2.5c0 -1.38 2.5 -9.17 2.5 -9.17c0 0 2.5 7.78 2.5 9.17Z" transform="rotate(-100 12 13)" />
	</g>
</svg>
