<svg xmlns="http://www.w3.org/2000/svg" width="24" height="24" viewBox="0 0 24 24">
	<defs>
		<mask id="SVGgSRJGcVs">
			<path d="M4 10h3.5l3.5 -3.5v10.5l-3.5 -3.5h-3.5Z" stroke="#fff" fill="none" stroke-width="2" stroke-linecap="round" stroke-linejoin="round" />
			<path d="M14 12.33c0.13 -0.06 0.21 -0.19 0.21 -0.33c0 -0.15 -0.08 -0.27 -0.21 -0.33ZM14 11.63c0.17 0.04 0.29 0.19 0.29 0.37c0 0.18 -0.13 0.33 -0.29 0.37v-0.09c0.12 -0.04 0.21 -0.15 0.21 -0.28c0 -0.13 -0.09 -0.24 -0.21 -0.28Z" fill="#fff" />
			<path d="M-1 11h26" stroke="#000" fill="none" stroke-width="2" stroke-linecap="round" stroke-linejoin="round" transform="rotate(45 12 12)" stroke-dasharray="28" stroke-dashoffset="28" />
		</mask>
	</defs>
	<path d="M0 0h24v24H0z" fill="currentColor" mask="url(#SVGgSRJGcVs)" />
	<path d="M-1 13h26" stroke="currentColor" fill="none" stroke-width="2" stroke-linecap="round" stroke-linejoin="round" transform="rotate(45 12 12)" stroke-dasharray="28" stroke-dashoffset="28" />
</svg>
