<svg xmlns="http://www.w3.org/2000/svg" width="24" height="24" viewBox="0 0 24 24">
	<defs>
		<mask id="SVGLbvgecBw">
			<path d="M4 10h3.5l3.5 -3.5v10.5l-3.5 -3.5h-3.5Z" stroke="#fff" fill="none" stroke-width="2" stroke-linecap="round" stroke-linejoin="round" />
			<path d="M14 14.17c0.81 -0.38 1.35 -1.21 1.35 -2.17c0 -0.96 -0.54 -1.77 -1.35 -2.17ZM14 9.62c1.08 0.25 1.9 1.22 1.9 2.38c0 1.16 -0.81 2.13 -1.9 2.38v-0.56c0.78 -0.23 1.35 -0.96 1.35 -1.81c0 -0.86 -0.57 -1.58 -1.35 -1.82Z" fill="#fff" />
			<path d="M-1 11h26" stroke="#000" fill="none" stroke-width="2" stroke-linecap="round" stroke-linejoin="round" transform="rotate(45 12 12)" stroke-dasharray="28" stroke-dashoffset="28" />
		</mask>
	</defs>
	<path d="M0 0h24v24H0z" fill="currentColor" mask="url(#SVGLbvgecBw)" />
	<path d="M-1 13h26" stroke="currentColor" fill="none" stroke-width="2" stroke-linecap="round" stroke-linejoin="round" transform="rotate(45 12 12)" stroke-dasharray="28" stroke-dashoffset="28" />
</svg>
