<svg xmlns="http://www.w3.org/2000/svg" width="24" height="24" viewBox="0 0 24 24">
	<defs>
		<mask id="SVGpsYBzbgn">
			<path d="M4 10h3.5l3.5 -3.5v10.5l-3.5 -3.5h-3.5Z" stroke="#fff" fill="none" stroke-width="2" stroke-linecap="round" stroke-linejoin="round" />
			<path d="M14 15c1.13 -0.53 1.88 -1.68 1.88 -3c0 -1.33 -0.75 -2.45 -1.88 -3ZM14 8.71c1.5 0.34 2.63 1.68 2.63 3.29c0 1.61 -1.13 2.95 -2.63 3.29v-0.78c1.08 -0.32 1.88 -1.32 1.88 -2.51c0 -1.19 -0.79 -2.19 -1.88 -2.52Z" fill="#fff" />
			<path d="M-1 11h26" stroke="#000" fill="none" stroke-width="2" stroke-linecap="round" stroke-linejoin="round" transform="rotate(45 12 12)" stroke-dasharray="28" stroke-dashoffset="28" />
		</mask>
	</defs>
	<path d="M0 0h24v24H0z" fill="currentColor" mask="url(#SVGpsYBzbgn)" />
	<path d="M-1 13h26" stroke="currentColor" fill="none" stroke-width="2" stroke-linecap="round" stroke-linejoin="round" transform="rotate(45 12 12)" stroke-dasharray="28" stroke-dashoffset="28" />
</svg>
