<svg xmlns="http://www.w3.org/2000/svg" width="24" height="24" viewBox="0 0 24 24">
	<defs>
		<mask id="SVGroTxXccS">
			<path d="M4 10h3.5l3.5 -3.5v10.5l-3.5 -3.5h-3.5Z" stroke="#fff" fill="none" stroke-width="2" stroke-linecap="round" stroke-linejoin="round" />
			<path d="M14 15.5c1.31 -0.62 2.19 -1.96 2.19 -3.5c0 -1.55 -0.88 -2.85 -2.19 -3.5ZM14 8.16c1.75 0.4 3.06 1.96 3.06 3.84c0 1.87 -1.31 3.44 -3.06 3.84v-0.91c1.26 -0.38 2.19 -1.54 2.19 -2.93c0 -1.39 -0.92 -2.56 -2.19 -2.94Z" fill="#fff" />
			<path d="M-1 11h26" stroke="#000" fill="none" stroke-width="2" stroke-linecap="round" stroke-linejoin="round" transform="rotate(45 12 12)" stroke-dasharray="28" stroke-dashoffset="28" />
		</mask>
	</defs>
	<path d="M0 0h24v24H0z" fill="currentColor" mask="url(#SVGroTxXccS)" />
	<path d="M-1 13h26" stroke="currentColor" fill="none" stroke-width="2" stroke-linecap="round" stroke-linejoin="round" transform="rotate(45 12 12)" stroke-dasharray="28" stroke-dashoffset="28" />
</svg>
