<svg xmlns="http://www.w3.org/2000/svg" width="24" height="24" viewBox="0 0 24 24">
	<defs>
		<mask id="SVG0CgiidgQ">
			<path d="M4 10h3.5l3.5 -3.5v10.5l-3.5 -3.5h-3.5Z" stroke="#fff" fill="none" stroke-width="2" stroke-linecap="round" stroke-linejoin="round" />
			<path d="M14 16c1.5 -0.71 2.5 -2.24 2.5 -4c0 -1.77 -1 -3.26 -2.5 -4ZM14 7.61c2 0.46 3.5 2.25 3.5 4.39c0 2.14 -1.5 3.93 -3.5 4.39v-1.04c1.45 -0.43 2.5 -1.77 2.5 -3.35c0 -1.59 -1.06 -2.93 -2.5 -3.36Z" fill="#fff" />
			<path d="M-1 11h26" stroke="#000" fill="none" stroke-width="2" stroke-linecap="round" stroke-linejoin="round" transform="rotate(45 12 12)" stroke-dasharray="28" stroke-dashoffset="28" />
		</mask>
	</defs>
	<path d="M0 0h24v24H0z" fill="currentColor" mask="url(#SVG0CgiidgQ)" />
	<path d="M-1 13h26" stroke="currentColor" fill="none" stroke-width="2" stroke-linecap="round" stroke-linejoin="round" transform="rotate(45 12 12)" stroke-dasharray="28" stroke-dashoffset="28" />
</svg>
