<svg xmlns="http://www.w3.org/2000/svg" width="24" height="24" viewBox="0 0 24 24">
	<defs>
		<mask id="SVGxQ8j1ntN">
			<path d="M4 10h3.5l3.5 -3.5v10.5l-3.5 -3.5h-3.5Z" stroke="#fff" fill="none" stroke-width="2" stroke-linecap="round" stroke-linejoin="round" />
			<path d="M14 15.67c1.38 -0.65 2.29 -2.05 2.29 -3.67c0 -1.62 -0.92 -2.99 -2.29 -3.67ZM14 7.98c1.83 0.42 3.21 2.06 3.21 4.02c0 1.96 -1.38 3.6 -3.21 4.02v-0.95c1.32 -0.39 2.29 -1.62 2.29 -3.07c0 -1.45 -0.97 -2.68 -2.29 -3.08Z" fill="#fff" />
			<path d="M-1 11h26" stroke="#000" fill="none" stroke-width="2" stroke-linecap="round" stroke-linejoin="round" transform="rotate(45 12 12)" stroke-dasharray="28" stroke-dashoffset="28" />
		</mask>
	</defs>
	<path d="M0 0h24v24H0z" fill="currentColor" mask="url(#SVGxQ8j1ntN)" />
	<path d="M-1 13h26" stroke="currentColor" fill="none" stroke-width="2" stroke-linecap="round" stroke-linejoin="round" transform="rotate(45 12 12)" stroke-dasharray="28" stroke-dashoffset="28" />
</svg>
