<svg xmlns="http://www.w3.org/2000/svg" width="24" height="24" viewBox="0 0 24 24">
	<defs>
		<mask id="SVG4nh4Oe7p">
			<path d="M4 10h3.5l3.5 -3.5v10.5l-3.5 -3.5h-3.5Z" stroke="#fff" fill="none" stroke-width="2" stroke-linecap="round" stroke-linejoin="round" />
			<path d="M14 16c1.5 -0.71 2.5 -2.24 2.5 -4c0 -1.77 -1 -3.26 -2.5 -4ZM14 4.14c3.58 0.82 6.27 4.02 6.27 7.86c0 3.83 -2.69 7.04 -6.27 7.86v-1.85c2.59 -0.77 4.48 -3.16 4.48 -6c0 -2.84 -1.89 -5.24 -4.48 -6.01Z" fill="#fff" />
			<path d="M-1 11h26" stroke="#000" fill="none" stroke-width="2" stroke-linecap="round" stroke-linejoin="round" transform="rotate(45 12 12)" stroke-dasharray="28" stroke-dashoffset="28" />
		</mask>
	</defs>
	<path d="M0 0h24v24H0z" fill="currentColor" mask="url(#SVG4nh4Oe7p)" />
	<path d="M-1 13h26" stroke="currentColor" fill="none" stroke-width="2" stroke-linecap="round" stroke-linejoin="round" transform="rotate(45 12 12)" stroke-dasharray="28" stroke-dashoffset="28" />
</svg>
