<svg xmlns="http://www.w3.org/2000/svg" width="24" height="24" viewBox="0 0 24 24">
	<defs>
		<mask id="SVGz16sHbIT">
			<g stroke-linecap="round" stroke-linejoin="round" stroke-width="2">
				<path d="M6.87 19h11.13c2.21 0 4 -1.79 4 -4c0 -2.21 -1.79 -4 -4 -4h-0.87v-1c0 -2.76 -2.24 -5 -5 -5c-2.42 0 -4.44 1.72 -4.9 4h-0.36c-2.76 0 -5 2.24 -5 5c0 2.76 2.24 5 5 5Z" stroke="#fff" fill="#fff" stroke-dasharray="60" fill-opacity="0" stroke-dashoffset="20.833" />
				<path d="M-1 11h26" stroke="#000" fill="none" transform="rotate(45 12 12)" stroke-dasharray="28" stroke-dashoffset="28" />
			</g>
		</mask>
	</defs>
	<path d="M0 0h24v24H0z" fill="currentColor" mask="url(#SVGz16sHbIT)" />
	<path d="M-1.74 13h26" stroke="currentColor" fill="none" stroke-width="2" stroke-linecap="round" stroke-linejoin="round" transform="rotate(45 12 12)" stroke-dasharray="28" stroke-dashoffset="28" />
</svg>
