<svg xmlns="http://www.w3.org/2000/svg" width="24" height="24" viewBox="0 0 24 24">
	<defs>
		<mask id="SVGi7YLYdos">
			<path d="M9.5 8c0.83 0 1.5 0.45 1.5 1c0 0.55 -0.67 1 -1.5 1c-0.83 0 -1.5 -0.45 -1.5 -1c0 -0.55 0.67 -1 1.5 -1ZM14.5 8c0.83 0 1.5 0.45 1.5 1c0 0.55 -0.67 1 -1.5 1c-0.83 0 -1.5 -0.45 -1.5 -1c0 -0.55 0.67 -1 1.5 -1Z" fill="#fff" />
			<rect x="8" y="7" width="8" height="4" fill="#000" />
		</mask>
	</defs>
	<path d="M0 0h24v24H0z" fill="currentColor" mask="url(#SVGi7YLYdos)" />
</svg>
