<svg xmlns="http://www.w3.org/2000/svg" width="24" height="24" viewBox="0 0 24 24">
	<defs>
		<mask id="SVGfnvzYcud">
			<path d="M9.5 8c0.83 0 1.5 0.45 1.5 1c0 0.55 -0.67 1 -1.5 1c-0.83 0 -1.5 -0.45 -1.5 -1c0 -0.55 0.67 -1 1.5 -1ZM14.5 8c0.83 0 1.5 0.45 1.5 1c0 0.55 -0.67 1 -1.5 1c-0.83 0 -1.5 -0.45 -1.5 -1c0 -0.55 0.67 -1 1.5 -1Z" fill="#fff" />
			<rect x="8" y="11" width="8" height="4" fill="#000" />
		</mask>
	</defs>
	<path d="M15 4.5c-0.39 -0.1 -1.33 -0.5 -3 -0.5c-1.67 0 -2.61 0.4 -3 0.5c-0.53 -0.43 -1.94 -1.5 -3.5 -1.5c-0.34 1 -0.29 2.22 0 3c-0.75 1 -1 2 -1 3.5c0 2.19 0.48 3.58 1.5 4.5c1.02 0.92 2.11 1.37 3.5 1.5c-0.65 0.54 -0.5 1.87 -0.5 2.5v4h6v-4c0 -0.63 0.15 -1.96 -0.5 -2.5c1.39 -0.13 2.48 -0.58 3.5 -1.5c1.02 -0.92 1.5 -2.31 1.5 -4.5c0 -1.5 -0.25 -2.5 -1 -3.5c0.29 -0.78 0.34 -2 0 -3c-1.56 0 -2.97 1.07 -3.5 1.5Z" fill="currentColor" fill-opacity="0.3" />
	<path d="M12 4c1.67 0 2.61 0.4 3 0.5c0.53 -0.43 1.94 -1.5 3.5 -1.5c0.34 1 0.29 2.22 0 3c0.75 1 1 2 1 3.5c0 2.19 -0.48 3.58 -1.5 4.5c-1.02 0.92 -2.11 1.37 -3.5 1.5c0.65 0.54 0.5 1.87 0.5 2.5c0 0.73 0 3 0 3M12 4c-1.67 0 -2.61 0.4 -3 0.5c-0.53 -0.43 -1.94 -1.5 -3.5 -1.5c-0.34 1 -0.29 2.22 0 3c-0.75 1 -1 2 -1 3.5c0 2.19 0.48 3.58 1.5 4.5c1.02 0.92 2.11 1.37 3.5 1.5c-0.65 0.54 -0.5 1.87 -0.5 2.5c0 0.73 0 3 0 3M9 19c-1.41 0 -2.97 -0.51 -3.95 -0.61c-0.58 -0.1 -1.01 -0.28 -2.05 -0.8" fill="none" stroke="currentColor" stroke-linecap="round" stroke-linejoin="round" stroke-width="2" />
	<path d="M0 0h24v24H0z" fill="currentColor" mask="url(#SVGfnvzYcud)" />
</svg>
