<svg xmlns="http://www.w3.org/2000/svg" width="24" height="24" viewBox="0 0 24 24">
	<defs>
		<mask id="SVG6g4pUdqF">
			<path d="M7 19h11c2.21 0 4 -1.79 4 -4c0 -2.21 -1.79 -4 -4 -4h-1v-1c0 -2.76 -2.24 -5 -5 -5c-2.42 0 -4.44 1.72 -4.9 4h-0.1c-2.76 0 -5 2.24 -5 5c0 2.76 2.24 5 5 5Z" stroke="#fff" fill="#fff" stroke-width="2" stroke-linecap="round" stroke-linejoin="round" stroke-dasharray="60" fill-opacity="0" stroke-dashoffset="15.833" />
			<path d="M7 13c1.1 0 2 -0.9 2 -2v-1h1.5v-2h-1.5c-1.1 0 -2 0.9 -2 2v1c0 0.55 -0.45 1 -1 1h-0.5v2h0.5c0.55 0 1 0.45 1 1v1c0 1.1 0.9 2 2 2h1.5v-2h-1.5v-1c0 -1.1 -0.9 -2 -2 -2ZM17 13c-1.1 0 -2 -0.9 -2 -2v-1h-1.5v-2h1.5c1.1 0 2 0.9 2 2v1c0 0.55 0.45 1 1 1h0.5v2h-0.5c-0.55 0 -1 0.45 -1 1v1c0 1.1 -0.9 2 -2 2h-1.5v-2h1.5v-1c0 -1.1 0.9 -2 2 -2Z" fill="#000" transform="scale(0 1)" style="transform-origin: 12px 12px" />
		</mask>
	</defs>
	<path d="M0 0h24v24H0z" fill="currentColor" mask="url(#SVG6g4pUdqF)" />
</svg>
