<svg xmlns="http://www.w3.org/2000/svg" width="24" height="24" viewBox="0 0 24 24">
	<defs>
		<mask id="SVG0PYqidTr">
			<path d="M10 14c4 0 7 2 7 3v2h-14v-2c0 -1 3 -3 7 -3Z" stroke="#fff" fill="none" stroke-width="2" stroke-linecap="round" stroke-linejoin="round" stroke-dasharray="38" stroke-dashoffset="38" />
		</mask>
	</defs>
	<path d="M10 5c1.66 0 3 1.34 3 3c0 1.66 -1.34 3 -3 3c-1.66 0 -3 -1.34 -3 -3c0 -1.66 1.34 -3 3 -3Z" stroke="currentColor" fill="none" stroke-width="2" stroke-linecap="round" stroke-linejoin="round" stroke-dasharray="22" stroke-dashoffset="17.967" />
	<path d="M0 0h24v24H0z" fill="currentColor" mask="url(#SVG0PYqidTr)" />
	<g fill="none" stroke="currentColor" stroke-linecap="round" stroke-linejoin="round" stroke-width="2">
		<path d="M18.12 18.12c-1.17 1.17 -3.07 1.17 -4.24 0c-1.17 -1.17 -1.17 -3.07 0 -4.24c1.17 -1.17 3.07 -1.17 4.24 0c1.17 1.17 1.17 3.07 0 4.24Z" stroke-dasharray="22" stroke-dashoffset="22" />
		<path d="M18.12 18.12l2.83 2.83" stroke-dasharray="8" stroke-dashoffset="8" />
	</g>
</svg>
