<svg xmlns="http://www.w3.org/2000/svg" width="24" height="24" viewBox="0 0 24 24">
	<defs>
		<mask id="SVGUYol2bQE">
			<path d="M5.64 19.36c-3.52 -3.51 -3.52 -9.21 0 -12.72c3.51 -3.52 9.21 -3.52 12.72 -0c3.52 3.51 3.52 9.21 0 12.72" stroke="#fff" fill="none" stroke-width="2" stroke-linecap="round" stroke-linejoin="round" />
			<path d="M12.42 13.92c0 0.23 -0.19 0.42 -0.42 0.42c-0.23 0 -0.42 -0.19 -0.42 -0.42c0 -0.23 0.42 -1.25 0.42 -1.25c0 0 0.42 1.02 0.42 1.25Z" fill="#000" transform="rotate(-100 12 13)" />
		</mask>
	</defs>
	<g fill="currentColor">
		<path d="M0 0h24v24H0z" mask="url(#SVGUYol2bQE)" />
		<path d="M12.25 13.92c0 0.14 -0.11 0.25 -0.25 0.25c-0.14 0 -0.25 -0.11 -0.25 -0.25c0 -0.14 0.25 -0.92 0.25 -0.92c0 0 0.25 0.78 0.25 0.92Z" transform="rotate(-100 12 13)" />
	</g>
</svg>
