<svg xmlns="http://www.w3.org/2000/svg" width="24" height="24" viewBox="0 0 24 24">
	<defs>
		<mask id="SVGFMZ9sxpa">
			<path d="M5.64 19.36c-3.52 -3.51 -3.52 -9.21 0 -12.72c3.51 -3.52 9.21 -3.52 12.72 -0c3.52 3.51 3.52 9.21 0 12.72" stroke="#fff" fill="none" stroke-width="2" stroke-linecap="round" stroke-linejoin="round" />
			<path d="M12.21 13.96c0 0.11 -0.09 0.21 -0.21 0.21c-0.11 0 -0.21 -0.09 -0.21 -0.21c0 -0.11 0.21 -0.62 0.21 -0.62c0 0 0.21 0.51 0.21 0.62Z" fill="#000" transform="rotate(-100 12 13)" />
		</mask>
	</defs>
	<g fill="currentColor">
		<path d="M0 0h24v24H0z" mask="url(#SVGFMZ9sxpa)" />
		<path d="M12.13 13.96c0 0.07 -0.06 0.12 -0.12 0.12c-0.07 0 -0.12 -0.06 -0.12 -0.12c0 -0.07 0.12 -0.46 0.12 -0.46c0 0 0.12 0.39 0.12 0.46Z" transform="rotate(-100 12 13)" />
	</g>
</svg>
