<svg xmlns="http://www.w3.org/2000/svg" width="24" height="24" viewBox="0 0 24 24">
	<defs>
		<mask id="SVGyfxxmdaR">
			<path d="M5.64 19.36c-3.52 -3.51 -3.52 -9.21 0 -12.72c3.51 -3.52 9.21 -3.52 12.72 -0c3.52 3.51 3.52 9.21 0 12.72" stroke="#fff" fill="none" stroke-width="2" stroke-linecap="round" stroke-linejoin="round" />
			<path d="M13.67 13.67c0 0.92 -0.75 1.67 -1.67 1.67c-0.92 0 -1.67 -0.75 -1.67 -1.67c0 -0.92 1.67 -5 1.67 -5c0 0 1.67 4.08 1.67 5Z" fill="#000" transform="rotate(-100 12 13)" />
		</mask>
	</defs>
	<g fill="currentColor">
		<path d="M0 0h24v24H0z" mask="url(#SVGyfxxmdaR)" />
		<path d="M13 13.67c0 0.55 -0.45 1 -1 1c-0.55 0 -1 -0.45 -1 -1c0 -0.55 1 -3.67 1 -3.67c0 0 1 3.11 1 3.67Z" transform="rotate(-100 12 13)" />
	</g>
</svg>
