<svg xmlns="http://www.w3.org/2000/svg" width="24" height="24" viewBox="0 0 24 24">
	<defs>
		<mask id="SVGNBxJ7c9G">
			<path d="M5.64 19.36c-3.52 -3.51 -3.52 -9.21 0 -12.72c3.51 -3.52 9.21 -3.52 12.72 -0c3.52 3.51 3.52 9.21 0 12.72" stroke="#fff" fill="none" stroke-width="2" stroke-linecap="round" stroke-linejoin="round" />
			<path d="M13.25 13.75c0 0.69 -0.56 1.25 -1.25 1.25c-0.69 0 -1.25 -0.56 -1.25 -1.25c0 -0.69 1.25 -3.75 1.25 -3.75c0 0 1.25 3.06 1.25 3.75Z" fill="#000" transform="rotate(-100 12 13)" />
		</mask>
	</defs>
	<g fill="currentColor">
		<path d="M0 0h24v24H0z" mask="url(#SVGNBxJ7c9G)" />
		<path d="M12.75 13.75c0 0.41 -0.33 0.75 -0.75 0.75c-0.41 0 -0.75 -0.33 -0.75 -0.75c0 -0.41 0.75 -2.75 0.75 -2.75c0 0 0.75 2.33 0.75 2.75Z" transform="rotate(-100 12 13)" />
	</g>
</svg>
