<svg xmlns="http://www.w3.org/2000/svg" width="24" height="24" viewBox="0 0 24 24">
	<defs>
		<mask id="SVGSMlw8bjC">
			<path d="M5.64 19.36c-3.52 -3.51 -3.52 -9.21 0 -12.72c3.51 -3.52 9.21 -3.52 12.72 -0c3.52 3.51 3.52 9.21 0 12.72" stroke="#fff" fill="none" stroke-width="2" stroke-linecap="round" stroke-linejoin="round" />
			<path d="M13.88 13.63c0 1.03 -0.84 1.88 -1.88 1.88c-1.03 0 -1.88 -0.84 -1.88 -1.88c0 -1.03 1.88 -5.63 1.88 -5.63c0 0 1.88 4.59 1.88 5.63Z" fill="#000" transform="rotate(-100 12 13)" />
		</mask>
	</defs>
	<g fill="currentColor">
		<path d="M0 0h24v24H0z" mask="url(#SVGSMlw8bjC)" />
		<path d="M13.13 13.63c0 0.62 -0.5 1.13 -1.13 1.13c-0.62 0 -1.13 -0.5 -1.13 -1.13c0 -0.62 1.13 -4.13 1.13 -4.13c0 0 1.13 3.5 1.13 4.13Z" transform="rotate(-100 12 13)" />
	</g>
</svg>
