<svg xmlns="http://www.w3.org/2000/svg" width="24" height="24" viewBox="0 0 24 24">
	<defs>
		<mask id="SVGx4B8Gecl">
			<path d="M5.64 19.36c-3.52 -3.51 -3.52 -9.21 0 -12.72c3.51 -3.52 9.21 -3.52 12.72 -0c3.52 3.51 3.52 9.21 0 12.72" stroke="#fff" fill="none" stroke-width="2" stroke-linecap="round" stroke-linejoin="round" />
			<path d="M15.75 13.25c0 2.07 -1.68 3.75 -3.75 3.75c-2.07 0 -3.75 -1.68 -3.75 -3.75c0 -2.07 3.75 -11.25 3.75 -11.25c0 0 3.75 9.18 3.75 11.25Z" fill="#000" transform="rotate(-100 12 13)" />
		</mask>
	</defs>
	<g fill="currentColor">
		<path d="M0 0h24v24H0z" mask="url(#SVGx4B8Gecl)" />
		<path d="M14.25 13.25c0 1.24 -1 2.25 -2.25 2.25c-1.24 0 -2.25 -1 -2.25 -2.25c0 -1.24 2.25 -8.25 2.25 -8.25c0 0 2.25 7 2.25 8.25Z" transform="rotate(-100 12 13)" />
	</g>
</svg>
