<svg xmlns="http://www.w3.org/2000/svg" width="24" height="24" viewBox="0 0 24 24">
	<defs>
		<mask id="SVGiUluxdCV">
			<path d="M5.64 19.36c-3.52 -3.51 -3.52 -9.21 0 -12.72c3.51 -3.52 9.21 -3.52 12.72 -0c3.52 3.51 3.52 9.21 0 12.72" stroke="#fff" fill="none" stroke-width="2" stroke-linecap="round" stroke-linejoin="round" />
			<path d="M15.33 13.33c0 1.84 -1.49 3.33 -3.33 3.33c-1.84 0 -3.33 -1.49 -3.33 -3.33c0 -1.84 3.33 -10 3.33 -10c0 0 3.33 8.16 3.33 10Z" fill="#000" transform="rotate(-100 12 13)" />
		</mask>
	</defs>
	<g fill="currentColor">
		<path d="M0 0h24v24H0z" mask="url(#SVGiUluxdCV)" />
		<path d="M14 13.33c0 1.11 -0.89 2 -2 2c-1.11 0 -2 -0.89 -2 -2c0 -1.11 2 -7.33 2 -7.33c0 0 2 6.23 2 7.33Z" transform="rotate(-100 12 13)" />
	</g>
</svg>
