<svg xmlns="http://www.w3.org/2000/svg" width="24" height="24" viewBox="0 0 24 24">
	<defs>
		<mask id="SVGysVpabiv">
			<path d="M5.64 19.36c-3.52 -3.51 -3.52 -9.21 0 -12.72c3.51 -3.52 9.21 -3.52 12.72 -0c3.52 3.51 3.52 9.21 0 12.72" stroke="#fff" fill="none" stroke-width="2" stroke-linecap="round" stroke-linejoin="round" />
			<path d="M15.13 13.38c0 1.72 -1.4 3.13 -3.13 3.13c-1.72 0 -3.13 -1.4 -3.13 -3.13c0 -1.72 3.13 -9.38 3.13 -9.38c0 0 3.13 7.65 3.13 9.38Z" fill="#000" transform="rotate(-100 12 13)" />
		</mask>
	</defs>
	<g fill="currentColor">
		<path d="M0 0h24v24H0z" mask="url(#SVGysVpabiv)" />
		<path d="M13.88 13.38c0 1.04 -0.84 1.88 -1.88 1.88c-1.04 0 -1.88 -0.84 -1.88 -1.88c0 -1.04 1.88 -6.88 1.88 -6.88c0 0 1.88 5.84 1.88 6.88Z" transform="rotate(-100 12 13)" />
	</g>
</svg>
