<svg xmlns="http://www.w3.org/2000/svg" width="24" height="24" viewBox="0 0 24 24">
	<defs>
		<mask id="SVGfBjJNcHa">
			<path d="M5.64 19.36c-3.52 -3.51 -3.52 -9.21 0 -12.72c3.51 -3.52 9.21 -3.52 12.72 -0c3.52 3.51 3.52 9.21 0 12.72" stroke="#fff" fill="none" stroke-width="2" stroke-linecap="round" stroke-linejoin="round" />
			<path d="M16.37 13.13c0 2.41 -1.96 4.37 -4.37 4.37c-2.41 0 -4.37 -1.96 -4.37 -4.37c0 -2.41 4.37 -13.12 4.37 -13.12c0 0 4.37 10.71 4.37 13.12Z" fill="#000" transform="rotate(-100 12 13)" />
		</mask>
	</defs>
	<g fill="currentColor">
		<path d="M0 0h24v24H0z" mask="url(#SVGfBjJNcHa)" />
		<path d="M14.62 13.13c0 1.45 -1.17 2.62 -2.62 2.62c-1.45 0 -2.62 -1.17 -2.62 -2.62c0 -1.45 2.62 -9.62 2.62 -9.62c0 0 2.62 8.17 2.62 9.62Z" transform="rotate(-100 12 13)" />
	</g>
</svg>
