<svg xmlns="http://www.w3.org/2000/svg" width="24" height="24" viewBox="0 0 24 24">
	<defs>
		<mask id="SVGO6U1ubFN">
			<g stroke-linecap="round" stroke-linejoin="round">
				<path d="M10 20.5c0 0 -6 -7 -6 -11.5c0 -3.31 2.69 -6 6 -6c3.31 0 6 2.69 6 6c0 4.5 -6 11.5 -6 11.5Z" stroke="#fff" fill="#fff" stroke-width="2" fill-opacity="0.3" transform="rotate(-0.889 10 20.5)" />
				<path d="M14 20.5c0 0 -6 -7 -6 -11.5c0 -3.31 2.69 -6 6 -6c3.31 0 6 2.69 6 6c0 4.5 -6 11.5 -6 11.5Z" stroke="#000" fill="#000" stroke-width="4" transform="rotate(-0.889 14 20.5)" />
			</g>
		</mask>
	</defs>
	<g fill="currentColor">
		<path d="M0 0h24v24H0z" mask="url(#SVGO6U1ubFN)" />
		<path d="M14 20.5c0 0 -6 -7 -6 -11.5c0 -3.31 2.69 -6 6 -6c3.31 0 6 2.69 6 6c0 4.5 -6 11.5 -6 11.5Z" stroke="currentColor" stroke-width="2" stroke-linecap="round" stroke-linejoin="round" fill-opacity="0.3" transform="rotate(-0.889 14 20.5)" />
		<circle cx="14" cy="9" />
	</g>
</svg>
