<svg xmlns="http://www.w3.org/2000/svg" width="24" height="24" viewBox="0 0 24 24">
	<g fill="none" stroke="currentColor" stroke-width="2" stroke-linecap="round" stroke-linejoin="round">
		<path d="M12 3c4.97 0 9 4.03 9 9c0 4.97 -4.03 9 -9 9c-4.97 0 -9 -4.03 -9 -9c0 -4.97 4.03 -9 9 -9Z" stroke-dasharray="64" stroke-dashoffset="64">
			<animate attributeName="stroke-dashoffset" values="64;0" dur="0.6s" fill="freeze" />
		</path>
		<path d="M12 12h-5.5" stroke-dasharray="8" stroke-dashoffset="8">
			<animate attributeName="stroke-dashoffset" values="8;0" begin="1.3s" dur="0.2s" fill="freeze" />
			<animateTransform attributeName="transform" type="rotate" values="0 12 12;115 12 12" begin="1.3s" dur="0.6s" fill="freeze" />
		</path>
	</g>
	<g fill="currentColor">
		<path d="M12 21C9.41 21 7.15 20.79 5.94 19L12 21L18.06 19C16.85 20.79 14.59 21 12 21Z" fill="currentColor" fill-opacity="0">
			<animate attributeName="d" values="M12 21C9.41 21 7.15 20.79 5.94 19L12 21L18.06 19C16.85 20.79 14.59 21 12 21Z;M12 16C9.41 16 7.15 17.21 5.94 19L12 21L18.06 19C16.85 17.21 14.59 16 12 16Z" begin="0.6s" dur="0.4s" fill="freeze" />
			<set attributeName="fill-opacity" to="1" begin="0.6s" fill="freeze" />
		</path>
		<circle cx="7" cy="12" r="0" transform="rotate(15 12 12)">
			<animate attributeName="r" values="0;1" begin="0.9s" dur="0.2s" fill="freeze" />
		</circle>
		<circle cx="7" cy="12" r="0" transform="rotate(65 12 12)">
			<animate attributeName="r" values="0;1" begin="0.95s" dur="0.2s" fill="freeze" />
		</circle>
		<circle cx="7" cy="12" r="0" transform="rotate(115 12 12)">
			<animate attributeName="r" values="0;1" begin="1s" dur="0.2s" fill="freeze" />
		</circle>
		<circle cx="7" cy="12" r="0" transform="rotate(165 12 12)">
			<animate attributeName="r" values="0;1" begin="1.05s" dur="0.2s" fill="freeze" />
		</circle>
		<circle cx="12" cy="12" r="0">
			<animate attributeName="r" values="0;2" begin="1.3s" dur="0.2s" fill="freeze" />
		</circle>
	</g>
</svg>
