<svg xmlns="http://www.w3.org/2000/svg" width="24" height="24" viewBox="0 0 24 24">
	<mask id="steering-mask">
		<g fill="none" stroke="#fff" stroke-width="2" stroke-linecap="round" stroke-linejoin="round">
			<path d="M12 12l0 0h0l0 0l0 0c0 0 0 0 0 0c0 0 0 0 0 0Z" fill="#fff">
				<animate attributeName="d" values="M12 12l0 0h0l0 0l0 0c0 0 0 0 0 0c0 0 0 0 0 0Z;M7.5 12l3 -3h3l3 3l-0.5 0c0 2.21 -1.79 4 -4 4c-2.21 0 -4 -1.79 -4 -4Z" dur="0.2s" fill="freeze" />
			</path>
			<path d="M8 12h-5M16 12h5M12 16v5" stroke-dasharray="6" stroke-dashoffset="6">
				<animate attributeName="stroke-dashoffset" values="6;0" begin="0.3s" dur="0.2s" fill="freeze" />
			</path>
			<path d="M12 3c4.97 0 9 4.03 9 9c0 4.97 -4.03 9 -9 9c-4.97 0 -9 -4.03 -9 -9c0 -4.97 4.03 -9 9 -9" stroke-dasharray="64" stroke-dashoffset="64">
				<animate attributeName="stroke-dashoffset" values="64;0" begin="0.5s" dur="0.6s" fill="freeze" />
			</path>
			<path d="M-1 11h26" stroke="#000" stroke-dasharray="28" stroke-dashoffset="28" transform="rotate(45 12 12)">
				<animate attributeName="stroke-dashoffset" values="28;0" begin="1.2s" dur="0.4s" fill="freeze" />
			</path>
			<path d="M-1 13h26" stroke-dasharray="28" stroke-dashoffset="28" transform="rotate(45 12 12)">
				<animate attributeName="stroke-dashoffset" values="28;0" begin="1.2s" dur="0.4s" fill="freeze" />
			</path>
		</g>
	</mask>
	<rect mask="url(#steering-mask)" width="24" height="24" fill="currentColor" />
</svg>
