<svg xmlns="http://www.w3.org/2000/svg" width="24" height="24" viewBox="0 0 24 24">
	<defs>
		<mask id="SVGtM2xk5rE">
			<g stroke-linecap="round" stroke-linejoin="round" fill-opacity="0">
				<path d="M10 20.5c0 0 -6.18 -6.68 -6.18 -11.13c0 -3.09 2.66 -6.18 6.18 -6.18c3.52 0 6.18 3.09 6.18 6.18c0 4.45 -6.18 11.13 -6.18 11.13Z" stroke="#fff" fill="#fff" stroke-width="2" />
				<path d="M14 20.5c0 0 -6.18 -6.68 -6.18 -11.13c0 -3.09 2.66 -6.18 6.18 -6.18c3.52 0 6.18 3.09 6.18 6.18c0 4.45 -6.18 11.13 -6.18 11.13Z" stroke="#000" fill="#000" stroke-width="4" />
			</g>
			<g fill="#fff">
				<path d="M14 20.5c0 0 -6.18 -6.68 -6.18 -11.13c0 -3.09 2.66 -6.18 6.18 -6.18c3.52 0 6.18 3.09 6.18 6.18c0 4.45 -6.18 11.13 -6.18 11.13Z" stroke="#fff" stroke-width="2" stroke-linecap="round" stroke-linejoin="round" fill-opacity="0" />
				<circle cx="14" cy="9" />
			</g>
		</mask>
	</defs>
	<path d="M0 0h24v24H0z" fill="currentColor" mask="url(#SVGtM2xk5rE)" />
</svg>
