<svg xmlns="http://www.w3.org/2000/svg" width="24" height="24" viewBox="0 0 24 24">
	<defs>
		<mask id="SVGK2NNFdQp">
			<g stroke-linecap="round" stroke-linejoin="round" fill-opacity="0">
				<path d="M10 20.5c0 0 -6.63 -7.31 -6.63 -12.13c0 -3.43 2.88 -6.63 6.63 -6.63c3.74 0 6.63 3.2 6.63 6.63c0 4.81 -6.63 12.13 -6.63 12.13Z" stroke="#fff" fill="#fff" stroke-width="2" />
				<path d="M14 20.5c0 0 -6.63 -7.31 -6.63 -12.13c0 -3.43 2.88 -6.63 6.63 -6.63c3.74 0 6.63 3.2 6.63 6.63c0 4.81 -6.63 12.13 -6.63 12.13Z" stroke="#000" fill="#000" stroke-width="4" />
			</g>
			<g fill="#fff">
				<path d="M14 20.5c0 0 -6.63 -7.31 -6.63 -12.13c0 -3.43 2.88 -6.63 6.63 -6.63c3.74 0 6.63 3.2 6.63 6.63c0 4.81 -6.63 12.13 -6.63 12.13Z" stroke="#fff" stroke-width="2" stroke-linecap="round" stroke-linejoin="round" fill-opacity="0" />
				<circle cx="14" cy="9" />
			</g>
			<path d="M-1 11h26" stroke="#000" fill="none" stroke-width="2" stroke-linecap="round" stroke-linejoin="round" transform="rotate(45 12 12)" stroke-dasharray="28" stroke-dashoffset="28" />
		</mask>
	</defs>
	<path d="M0 0h24v24H0z" fill="currentColor" mask="url(#SVGK2NNFdQp)" />
	<path d="M-1 13h26" stroke="currentColor" fill="none" stroke-width="2" stroke-linecap="round" stroke-linejoin="round" transform="rotate(45 12 12)" stroke-dasharray="28" stroke-dashoffset="28" />
</svg>
