<svg xmlns="http://www.w3.org/2000/svg" width="24" height="24" viewBox="0 0 24 24">
	<defs>
		<mask id="SVGBQIGCdYZ">
			<g stroke-linecap="round" stroke-linejoin="round" fill-opacity="0">
				<path d="M10 20.5c0 0 -6.56 -7.28 -6.56 -12.06c0 -3.42 2.86 -6.56 6.56 -6.56c3.69 0 6.56 3.14 6.56 6.56c0 4.78 -6.56 12.06 -6.56 12.06Z" stroke="#fff" fill="#fff" stroke-width="2" />
				<path d="M14 20.5c0 0 -6.56 -7.28 -6.56 -12.06c0 -3.42 2.86 -6.56 6.56 -6.56c3.69 0 6.56 3.14 6.56 6.56c0 4.78 -6.56 12.06 -6.56 12.06Z" stroke="#000" fill="#000" stroke-width="4" />
			</g>
			<g fill="#fff">
				<path d="M14 20.5c0 0 -6.56 -7.28 -6.56 -12.06c0 -3.42 2.86 -6.56 6.56 -6.56c3.69 0 6.56 3.14 6.56 6.56c0 4.78 -6.56 12.06 -6.56 12.06Z" stroke="#fff" stroke-width="2" stroke-linecap="round" stroke-linejoin="round" fill-opacity="0" />
				<circle cx="14" cy="9" />
			</g>
		</mask>
	</defs>
	<path d="M0 0h24v24H0z" fill="currentColor" mask="url(#SVGBQIGCdYZ)" />
</svg>
