<svg xmlns="http://www.w3.org/2000/svg" width="24" height="24" viewBox="0 0 24 24">
	<defs>
		<mask id="SVGKtUlse3f">
			<g stroke-linecap="round" stroke-linejoin="round">
				<path d="M10 20.5c0 0 -5.82 -6.32 -5.82 -10.54c0 -2.91 2.51 -5.82 5.82 -5.82c3.31 0 5.82 2.91 5.82 5.82c0 4.21 -5.82 10.54 -5.82 10.54Z" stroke="#fff" fill="none" stroke-width="2" />
				<path d="M14 20.5c0 0 -5.82 -6.32 -5.82 -10.54c0 -2.91 2.51 -5.82 5.82 -5.82c3.31 0 5.82 2.91 5.82 5.82c0 4.21 -5.82 10.54 -5.82 10.54Z" stroke="#000" fill="#000" stroke-width="4" />
				<path d="M14 20.5c0 0 -5.82 -6.32 -5.82 -10.54c0 -2.91 2.51 -5.82 5.82 -5.82c3.31 0 5.82 2.91 5.82 5.82c0 4.21 -5.82 10.54 -5.82 10.54Z" stroke="#fff" fill="none" stroke-width="2" />
			</g>
			<circle cx="14" cy="9" fill="#fff" />
		</mask>
	</defs>
	<path d="M0 0h24v24H0z" fill="currentColor" mask="url(#SVGKtUlse3f)" />
</svg>
