<svg xmlns="http://www.w3.org/2000/svg" width="24" height="24" viewBox="0 0 24 24">
	<defs>
		<mask id="SVGSL5pne0J">
			<g stroke-linecap="round" stroke-linejoin="round">
				<path d="M10 20.5c0 0 -6.89 -7.39 -6.89 -12.32c0 -3.45 2.96 -6.89 6.89 -6.89c3.94 0 6.89 3.45 6.89 6.89c0 4.93 -6.89 12.32 -6.89 12.32Z" stroke="#fff" fill="none" stroke-width="2" />
				<path d="M14 20.5c0 0 -6.89 -7.39 -6.89 -12.32c0 -3.45 2.96 -6.89 6.89 -6.89c3.94 0 6.89 3.45 6.89 6.89c0 4.93 -6.89 12.32 -6.89 12.32Z" stroke="#000" fill="#000" stroke-width="4" />
				<path d="M14 20.5c0 0 -6.89 -7.39 -6.89 -12.32c0 -3.45 2.96 -6.89 6.89 -6.89c3.94 0 6.89 3.45 6.89 6.89c0 4.93 -6.89 12.32 -6.89 12.32Z" stroke="#fff" fill="none" stroke-width="2" />
			</g>
			<circle cx="14" cy="9" fill="#fff" />
			<path d="M-1 11h26" stroke="#000" fill="none" stroke-width="2" stroke-linecap="round" stroke-linejoin="round" transform="rotate(45 12 12)" stroke-dasharray="28" stroke-dashoffset="28" />
		</mask>
	</defs>
	<path d="M0 0h24v24H0z" fill="currentColor" mask="url(#SVGSL5pne0J)" />
	<path d="M-1 13h26" stroke="currentColor" fill="none" stroke-width="2" stroke-linecap="round" stroke-linejoin="round" transform="rotate(45 12 12)" stroke-dasharray="28" stroke-dashoffset="28" />
</svg>
